<svg xmlns="http://www.w3.org/2000/svg" xmlns:xlink="http://www.w3.org/1999/xlink" version="1.1" width="1414.530314671091" height="878.522083658818"><desc>title%20Find%20Group%20Sequence%20Diagram%0A%0Aactor%20User%0Aparticipant%20Frontend%0Aparticipant%20Matchmaking%0Aparticipant%20User%20Management%0Aparticipant%20Group%20Management%0Adatabase%20GameOnDB%0A%0AUser-%3EFrontend%3A%20Click%20%22Find%20Group%22%0AFrontend-%3EMatchmaking%3A%20matchmaking(MatchmakingRequest)%0AMatchmaking-%3EUser%20Management%3A%20getProfile(String%20discordToken)%0AUser%20Management--%3EMatchmaking%3A%20Return%20UserProfile%0A%0A%0Aalt%20Group%20Found%0A%20%20%20%20Matchmaking-%3EGroup%20Management%3A%20createGroup(GroupArgs)%0A%20%20%20%20Group%20Management-%3EGameOnDB%3A%20Save%20new%20group%20details%0A%20%20%20%20GameOnDB--%3EGroup%20Management%3A%20Group%20stored%0A%20%20%20%20Group%20Management--%3EFrontend%3A%20Return%20group%20details%0A%20%20%20%20Frontend-%3EUser%3A%20Transfer%20to%20%22Existing%20Group%22%20screen%0A%0Aelse%20No%20Suitable%20Group%20Found%0A%20%20%20%20User-%3EFrontend%3A%20Wait%20for%20timeout%0A%20%20%20%20alt%20Timeout%20Reached%0A%20%20%20%20%20%20%20%20Frontend-%3EUser%3A%20Timeout%20reached%2C%20return%20to%20%22Find%20Group%22%20screen%0A%20%20%20%20end%0Aend</desc><defs/><g><g/><g/><g/><g/><g/><g/><g/><g/><g/><g/><g/><g/><g/><g/><g/><g/><g/><g/><g/><g/><g/><g/><g/><g/><g/><g/><g/><g/><g/><g/><g/><g/><g/><g/><g/><g/><g/><g/><g/><g/><g/><g/><g/><g/><g/><g/><g/><g/><g/><g/><g/><g/><g/><g/><g/><g/><g/><g/><g/><g/><g/><g/><g/><g/><g/><g/><g/><g/><g/><g/><g/><g/><g/><g/><g><rect fill="white" stroke="none" x="0" y="0" width="1414" height="878"/></g><g/><g><path fill="none" stroke="black" paint-order="fill stroke markers" d=" M 89.84361815 128.73625218881818 L 89.84361815 878.522083658818" stroke-miterlimit="10" stroke-width="1.3612669416666667" stroke-dasharray="12.565541,5.445067766666667"/><path fill="none" stroke="black" paint-order="fill stroke markers" d=" M 441.49998547864584 128.73625218881818 L 441.49998547864584 878.522083658818" stroke-miterlimit="10" stroke-width="1.3612669416666667" stroke-dasharray="12.565541,5.445067766666667"/><path fill="none" stroke="black" paint-order="fill stroke markers" d=" M 723.7862813961589 128.73625218881818 L 723.7862813961589 878.522083658818" stroke-miterlimit="10" stroke-width="1.3612669416666667" stroke-dasharray="12.565541,5.445067766666667"/><path fill="none" stroke="black" paint-order="fill stroke markers" d=" M 967.7905185978516 128.73625218881818 L 967.7905185978516 878.522083658818" stroke-miterlimit="10" stroke-width="1.3612669416666667" stroke-dasharray="12.565541,5.445067766666667"/><path fill="none" stroke="black" paint-order="fill stroke markers" d=" M 1145.0634237277968 128.73625218881818 L 1145.0634237277968 878.522083658818" stroke-miterlimit="10" stroke-width="1.3612669416666667" stroke-dasharray="12.565541,5.445067766666667"/><path fill="none" stroke="black" paint-order="fill stroke markers" d=" M 1341.021899821091 128.73625218881818 L 1341.021899821091 878.522083658818" stroke-miterlimit="10" stroke-width="1.3612669416666667" stroke-dasharray="12.565541,5.445067766666667"/></g><g><g><path fill="white" stroke="black" paint-order="fill stroke markers" d=" M 99.154684031 59.63834222981819 A 9.311065881 9.311065881 0 1 1 99.15467937546744 59.62903116548903 M 89.84361815 68.9494081108182 L 89.84361815 88.8783561368182 M 78.08227177399999 76.13689756281819 L 101.604964526 76.13689756281819 M 89.84361815 88.8783561368182 L 78.08227177399999 107.50048789881819 M 89.84361815 88.8783561368182 L 101.604964526 107.50048789881819" stroke-miterlimit="10" stroke-width="2.7769845610000004" stroke-dasharray=""/></g><g><g/><text fill="black" stroke="none" font-family="sans-serif" font-size="11pt" font-style="normal" font-weight="normal" text-decoration="normal" x="74.36760496640625" y="123.83569119881818" text-anchor="start" dominant-baseline="alphabetic" xml:space="preserve">User</text></g><path fill="none" stroke="none"/><g><path fill="white" stroke="black" paint-order="fill stroke markers" d=" M 394.43842979072394 84.63120327881819 L 488.56154116656774 84.63120327881819 L 488.56154116656774 128.73625218881818 L 394.43842979072394 128.73625218881818 L 394.43842979072394 84.63120327881819 Z" stroke-miterlimit="10" stroke-width="2.613632528" stroke-dasharray=""/></g><g><g/><text fill="black" stroke="none" font-family="sans-serif" font-size="11pt" font-style="normal" font-weight="normal" text-decoration="normal" x="412.16212537122396" y="112.40104888881817" text-anchor="start" dominant-baseline="alphabetic" xml:space="preserve">Frontend</text></g><path fill="none" stroke="none"/><g><path fill="white" stroke="black" paint-order="fill stroke markers" d=" M 662.4727649538424 84.63120327881819 L 785.0997978384753 84.63120327881819 L 785.0997978384753 128.73625218881818 L 662.4727649538424 128.73625218881818 L 662.4727649538424 84.63120327881819 Z" stroke-miterlimit="10" stroke-width="2.613632528" stroke-dasharray=""/></g><g><g/><text fill="black" stroke="none" font-family="sans-serif" font-size="11pt" font-style="normal" font-weight="normal" text-decoration="normal" x="680.1964605343425" y="112.40104888881817" text-anchor="start" dominant-baseline="alphabetic" xml:space="preserve">Matchmaking</text></g><path fill="none" stroke="none"/><g><path fill="white" stroke="black" paint-order="fill stroke markers" d=" M 889.7697725412773 84.63120327881819 L 1045.8112646544257 84.63120327881819 L 1045.8112646544257 128.73625218881818 L 889.7697725412773 128.73625218881818 L 889.7697725412773 84.63120327881819 Z" stroke-miterlimit="10" stroke-width="2.613632528" stroke-dasharray=""/></g><g><g/><text fill="black" stroke="none" font-family="sans-serif" font-size="11pt" font-style="normal" font-weight="normal" text-decoration="normal" x="907.4934681217774" y="112.40104888881817" text-anchor="start" dominant-baseline="alphabetic" xml:space="preserve">User Management</text></g><path fill="none" stroke="none"/><g><path fill="white" stroke="black" paint-order="fill stroke markers" d=" M 1062.1464679544258 84.63120327881819 L 1227.980379501168 84.63120327881819 L 1227.980379501168 128.73625218881818 L 1062.1464679544258 128.73625218881818 L 1062.1464679544258 84.63120327881819 Z" stroke-miterlimit="10" stroke-width="2.613632528" stroke-dasharray=""/></g><g><g/><text fill="black" stroke="none" font-family="sans-serif" font-size="11pt" font-style="normal" font-weight="normal" text-decoration="normal" x="1079.8701635349257" y="112.40104888881817" text-anchor="start" dominant-baseline="alphabetic" xml:space="preserve">Group Management</text></g><g><path fill="white" stroke="black" paint-order="fill stroke markers" d=" M 1317.172503003091 96.71925372081819 L 1317.172503003091 62.41532679081819 L 1364.871296639091 62.41532679081819 L 1364.871296639091 96.71925372081819" stroke-miterlimit="10" stroke-width="2.7769845610000004" stroke-dasharray=""/><path fill="white" stroke="black" paint-order="fill stroke markers" d=" M 1364.871296639091 61.22285694991819 L 1364.8701041791874 61.33066749483481 L 1364.8665269187213 61.43846725878678 L 1364.8605652154158 61.546245461887544 L 1364.8522196654367 61.65399132640659 L 1364.8414911033315 61.761694077847274 L 1364.8283806019476 61.86934294602419 L 1364.8128894723243 61.976927166140236 L 1364.7950192635617 62.084435979863045 L 1364.7747717626658 62.19185863640084 L 1364.7521489943695 62.299184393577484 L 1364.727153220931 62.4064025189067 L 1364.6997869419072 62.51350229066531 L 1364.6700528939025 62.62047299896537 L 1364.6379540502974 62.7273039468252 L 1364.6034936209492 62.83398445123905 L 1364.5666750518724 62.94050384424536 L 1364.5275020248932 63.04685147399361 L 1364.4859784572814 63.15301670580944 L 1364.4421085013594 63.25898892325815 L 1364.395896544086 63.364757529206294 L 1364.3473472066187 63.47031194688142 L 1364.2964653438507 63.575641620929716 L 1364.2432560439256 63.68073601847156 L 1364.1877246277295 63.78558463015478 L 1364.1298766483576 63.89017697120557 L 1364.0697178905593 63.994502582477 L 1364.0072543701606 64.09855103149486 L 1363.9424923334616 64.20231191350096 L 1363.8754382566115 64.3057748524936 L 1363.8060988449624 64.40892950226505 L 1363.734481032398 64.51176554743633 L 1363.6605919806393 64.61427270448858 L 1363.58443907853 64.71644072279157 L 1363.5060299412974 64.81825938562858 L 1363.4253724097894 64.91971851121816 L 1363.3424745496918 65.02080795373233 L 1363.257344650722 65.12151760431107 L 1363.1699912257986 65.22183739207324 L 1363.0804230101915 65.32175728512367 L 1362.9886489606472 65.42126729155632 L 1362.894678254495 65.52035746045347 L 1362.7985202887264 65.6190178828808 L 1362.700184679058 65.71723869287828 L 1362.5996812589694 65.81501006844678 L 1362.4970200787182 65.91232223253022 L 1362.392211404337 66.00916545399325 L 1362.2852657166063 66.10553004859446 L 1362.1761937100055 66.20140637995469 L 1362.065006291644 66.29678486052069 L 1361.9517145801715 66.39165595252388 L 1361.8363299046646 66.48601016893414 L 1361.7188638034945 66.57983807440844 L 1361.5993280231737 66.67313028623443 L 1361.4777345171804 66.76587747526865 L 1361.354095444764 66.85807036686953 L 1361.2284231697286 66.94969974182469 L 1361.100730259197 67.04075643727302 L 1360.9710294823542 67.13123134762085 L 1360.8393338091691 67.22111542545254 L 1360.7056564091 67.3103996824352 L 1360.570010649775 67.39907519021754 L 1360.4324100956571 67.4871330813227 L 1360.2928685066872 67.57456455003492 L 1360.151399836908 67.6613608532802 L 1360.0080182330682 67.74751331150055 L 1359.8627380332089 67.83301330952195 L 1359.7155737652292 67.91785229741582 L 1359.566540145433 68.00202179135408 L 1359.4156520770582 68.08551337445749 L 1359.2629246487859 68.1683186976373 L 1359.1083731332315 68.25042948043021 L 1358.952012985418 68.33183751182635 L 1358.7938598412297 68.41253465109044 L 1358.6339295158496 68.4925128285758 L 1358.4722380021763 68.5717640465313 L 1358.3088014692269 68.65028037990122 L 1358.1436362605184 68.72805397711764 L 1357.9767588924342 68.80507706088565 L 1357.8081860525717 68.88134192896105 L 1357.6379345980745 68.95684095492061 L 1357.4660215539463 69.03156658892462 L 1357.2924641113484 69.10551135847197 L 1357.11727962588 69.17866786914732 L 1356.940485615844 69.25102880536058 L 1356.7620997604938 69.3225869310784 L 1356.5821398982666 69.39333509054786 L 1356.4006240249985 69.46326620901198 L 1356.2175702921256 69.53237329341717 L 1356.0329970048685 69.60064943311258 L 1355.8469226204024 69.66808780054113 L 1355.6593657460105 69.7346816519223 L 1355.4703451372238 69.80042432792644 L 1355.279879695946 69.86530925434072 L 1355.0879884685621 69.92932994272657 L 1354.8946906440353 69.9924799910685 L 1354.7000055519868 70.05475308441433 L 1354.5039526607636 70.1161429955066 L 1354.3065515754915 70.17664358540536 L 1354.1078220361144 70.23624880410202 L 1353.9077839154206 70.29495269112441 L 1353.7064572170557 70.35274937613272 L 1353.5038620735215 70.40963307950663 L 1353.300018744164 70.46559811292322 L 1353.0949476131455 70.52063887992576 L 1352.8886691874088 70.57474987648341 L 1352.6812040946245 70.62792569154163 L 1352.4725730811288 70.68016100756323 L 1352.2627970098492 70.73145060106012 L 1352.0518968582182 70.78178934311569 L 1351.8398937160753 70.8311721998977 L 1351.6268087835576 70.8795942331616 L 1351.4126633689812 70.92705060074444 L 1351.197478886709 70.973536557049 L 1350.9812768550098 71.01904745351838 L 1350.7640788939066 71.06357873910088 L 1350.5459067230145 71.10712596070502 L 1350.326782159369 71.14968476364494 L 1350.1067271152438 71.19125089207583 L 1349.8857635959596 71.23182018941947 L 1349.6639136976846 71.27138859877994 L 1349.4411996052236 71.30995216334925 L 1349.2176435898002 71.34750702680313 L 1348.9932680068296 71.38404943368649 L 1348.7680952936832 71.4195757297891 L 1348.5421479674449 71.45408236251096 L 1348.3154486226588 71.48756588121756 L 1348.0880199290702 71.52002293758491 L 1347.8598846293596 71.55145028593446 L 1347.6310655368661 71.58184478355753 L 1347.401585533309 71.61120339102969 L 1347.1714675664969 71.63952317251467 L 1346.9407346480348 71.66680129605793 L 1346.7094098510224 71.69303503386982 L 1346.4775163077466 71.71822176259843 L 1346.2450772073685 71.7423589635919 L 1346.0121157936044 71.7654442231502 L 1345.7786553624014 71.78747523276665 L 1345.5447192596084 71.80844978935863 L 1345.3103308786406 71.82836579548797 L 1345.0755136581406 71.84722125957065 L 1344.8402910796349 71.86501429607597 L 1344.6046866651852 71.8817431257151 L 1344.368723975037 71.89740607561903 L 1344.1324266052623 71.91200157950583 L 1343.8958181854011 71.92552817783725 L 1343.6589223760986 71.93798451796474 L 1343.4217628667382 71.94936935426468 L 1343.184363373073 71.95968154826289 L 1342.9467476348545 71.96892006874862 L 1342.708939413459 71.97708399187748 L 1342.47096248951 71.98417250126396 L 1342.2328406605016 71.99018488806304 L 1341.9945977384182 71.99512055104105 L 1341.756257547354 71.99897899663581 L 1341.5178439211288 72.00175983900598 L 1341.2793807009073 72.00346280006961 L 1341.040891732812 72.00408770953204 L 1340.8024008655416 72.00363450490285 L 1340.5639319479837 72.0021032315021 L 1340.3255088268315 71.99949404245586 L 1340.0871553441984 71.9958071986809 L 1339.8488953352341 71.99104306885846 L 1339.6107526257408 71.98520212939759 L 1339.372751029791 71.97828496438737 L 1339.1349143473462 71.97029226553852 L 1338.8972663618763 71.96122483211428 L 1338.6598308379819 71.95108357085043 L 1338.4226315190172 71.93986949586466 L 1338.1856921247168 71.92758372855508 L 1337.9490363488223 71.91422749748824 L 1337.7126878567146 71.89980213827607 L 1337.4766702830457 71.8843090934425 L 1337.241007229376 71.86774991227908 L 1337.005722261815 71.85012625069015 L 1336.7708389086629 71.83143987102717 L 1336.5363806580597 71.81169264191253 L 1336.3023709556346 71.79088653805269 L 1336.0688332021634 71.7690236400407 L 1335.8357907512263 71.74610613414815 L 1335.6032669068748 71.72213631210651 L 1335.3712849212989 71.69711657087802 L 1335.1398679925042 71.67104941241597 L 1334.9090392619908 71.64393744341446 L 1334.678821812439 71.6157833750478 L 1334.4492386654026 71.58659002269937 L 1334.2203127790044 71.55636030568009 L 1333.9920670456424 71.52509724693644 L 1333.7645242896997 71.49280397274828 L 1333.5377072652625 71.45948371241609 L 1333.3116386538438 71.42513979793813 L 1333.0863410621168 71.38977566367726 L 1332.861837019653 71.35339484601741 L 1332.638148976669 71.31600098301004 L 1332.415299301783 71.27759781401028 L 1332.193310279777 71.23818917930303 L 1331.9722041093678 71.19777901971894 L 1331.7520029009886 71.15637137624027 L 1331.5327286745762 71.11397038959687 L 1331.314403357371 71.07058029985207 L 1331.0970487817228 71.02620544597868 L 1330.8806866829077 70.98085026542512 L 1330.6653386969554 70.93451929367163 L 1330.451026358485 70.8872171637768 L 1330.237771098552 70.8389486059142 L 1330.0255942425044 70.78971844689937 L 1329.8145170078512 70.7395316097072 L 1329.60456050214 70.6883931129796 L 1329.395745720846 70.6363080705236 L 1329.1880935452737 70.58328169080006 L 1328.9816247404674 70.52931927640276 L 1328.7763599531359 70.47442622352818 L 1328.5723197095863 70.41860802143584 L 1328.3695244136734 70.36187025189946 L 1328.1679943447577 70.3042185886487 L 1327.9677496556778 70.24565879680183 L 1327.7688103707364 70.18619673228926 L 1327.5711963836957 70.12583834126788 L 1327.3749274557897 70.06458965952649 L 1327.180023213748 70.00245681188221 L 1326.9865031478319 69.93944601156807 L 1326.7943866098872 69.87556355961155 L 1326.6036928114074 69.81081584420461 L 1326.4144408216134 69.74520934006487 L 1326.2266495655465 69.67875060778805 L 1326.0403378221758 69.61144629319199 L 1325.8555242225204 69.54330312665208 L 1325.6722272477864 69.47432792242817 L 1325.4904652275181 69.40452757798322 L 1325.3102563377665 69.3339090732935 L 1325.1316185992703 69.26247947015062 L 1324.9545698756544 69.19024591145539 L 1324.7791278716436 69.11721562050347 L 1324.605310131292 69.0433959002631 L 1324.4331340362291 68.96879413264479 L 1324.262616803921 68.89341777776313 L 1324.0937754859483 68.81727437319081 L 1323.9266269663024 68.74037153320482 L 1323.761187959696 68.66271694802508 L 1323.597475009892 68.58431838304537 L 1323.4355044880485 68.5051836780569 L 1323.2752925910831 68.4253207464642 L 1323.116855340052 68.34473757449386 L 1322.9602085785484 68.26344222039596 L 1322.8053679711174 68.18144281363814 L 1322.6523490016912 68.09874755409275 L 1322.5011669720388 68.01536471121685 L 1322.3518370002375 67.9313026232252 L 1322.20437401916 67.84656969625658 L 1322.0587927749816 67.76117440353308 L 1321.915107825705 67.67512528451279 L 1321.7733335397058 67.5884309440359 L 1321.6334840942943 67.50110005146425 L 1321.4955734742987 67.41314133981427 L 1321.3596154706656 67.32456360488388 L 1321.2256236790827 67.23537570437271 L 1321.0936114986168 67.14558655699653 L 1320.9635921303766 67.05520514159522 L 1320.83557857619 66.96424049623502 L 1320.7095836373062 66.87270171730466 L 1320.5856199131138 66.78059795860575 L 1320.463699799882 66.68793843043741 L 1320.3438354895206 66.59473239867523 L 1320.2260389683606 66.50098918384472 L 1320.1103220159562 66.40671816018926 L 1319.9966962039061 66.31192875473263 L 1319.8851728946966 66.2166304463364 L 1319.775763240566 66.120832764752 L 1319.6684781823883 66.02454528966774 L 1319.56332844858 65.92777764975091 L 1319.460324554027 65.83053952168484 L 1319.3594767990328 65.73284062920132 L 1319.2607952682886 65.63469074210818 L 1319.1642898298658 65.53609967531233 L 1319.069970134227 65.4370772878383 L 1318.9778456132642 65.33763348184232 L 1318.887925479352 65.23777820162212 L 1318.800218724429 65.13752143262249 L 1318.7147341190978 65.03687320043682 L 1318.6314802117474 64.93584356980442 L 1318.5504653276996 64.83444264360419 L 1318.4716975683748 64.73268056184422 L 1318.3951848104834 64.63056750064791 L 1318.3209347052377 64.52811367123628 L 1318.248954677586 64.42532931890689 L 1318.1792519254714 64.32222472200931 L 1318.1118334191108 64.21881019091732 L 1318.0467059002988 64.11509606699785 L 1317.983875881733 64.01109272157687 L 1317.9233496463628 63.90681055490224 L 1317.8651332467614 63.80225999510374 L 1317.80923250452 63.697451497150205 L 1317.7556530096665 63.59239554180411 L 1317.704400120106 63.48710263457343 L 1317.6554789610839 63.381583304661156 L 1317.6088944246762 63.27584810391234 L 1317.5646511692971 63.16990760575894 L 1317.5227536192358 63.06377240416249 L 1317.483205964212 62.95745311255472 L 1317.4460121589584 62.85096036277616 L 1317.4111759228244 62.744304804013076 L 1317.3787007394048 62.63749710173245 L 1317.3485898561908 62.530547936615505 L 1317.3208462842456 62.423468003489624 L 1317.2954727979031 62.316268010258895 L 1317.2724719344913 62.208958676833305 L 1317.2518459940768 62.10155073405677 L 1317.2335970392367 61.99405492263407 L 1317.2177268948512 61.88648199205676 L 1317.2042371479217 61.77884269952825 L 1317.1931291474116 61.6711478088881 L 1317.1844040041115 61.56340808953563 L 1317.1780625905285 61.45563431535299 L 1317.1741055407988 61.34783726362778 L 1317.1725332506242 61.24002771397536 L 1317.1733458772321 61.13221644726084 L 1317.1765433393607 61.02441424452105 L 1317.1821253172664 60.916631885886424 L 1317.190091252756 60.808880149503025 L 1317.2004403492429 60.70116981045468 L 1317.2131715718256 60.59351163968555 L 1317.2282836473928 60.48591640292299 L 1317.2457750647493 60.378394859601016 L 1317.265644074768 60.27095776178435 L 1317.2878886905648 60.163615853093255 L 1317.3125066876962 60.05637986762915 L 1317.3394956043833 59.949260528901206 L 1317.3688527417567 59.84226854875404 L 1317.400575164127 59.7354146262965 L 1317.4346596992789 59.62870944683179 L 1317.471102938787 59.52216368078894 L 1317.5099012383578 59.41578798265577 L 1317.5510507181934 59.30959298991343 L 1317.5945472633805 59.203589321972714 L 1317.6403865243005 59.09778757911208 L 1317.6885639170657 58.992198341417634 L 1317.7390746239769 58.88683216772516 L 1317.7919135940056 58.78169959456423 L 1317.8470755432986 58.67681113510454 L 1317.9045549557072 58.57217727810464 L 1317.9643460833381 58.46780848686303 L 1318.026442947128 58.36371519817185 L 1318.0908393374425 58.25990782127324 L 1318.1575288146962 58.15639673681838 L 1318.226504709997 58.053192295829454 L 1318.2977601258128 57.950304818664556 L 1318.3712879366615 57.84774459398567 L 1318.447080789823 57.745521877729786 L 1318.5251311060756 57.64364689208335 L 1318.6054310804523 57.54212982446004 L 1318.6879726830227 57.44098082648201 L 1318.7727476596956 57.340210012964775 L 1318.8597475330434 57.2398274609057 L 1318.948963603152 57.13984320847635 L 1319.0403869484878 57.040267254018644 L 1319.1340084267933 56.94110955504505 L 1319.2298186759986 56.84238002724283 L 1319.3278081151582 56.74408854348249 L 1319.42796694541 56.646244932830506 L 1319.5302851509543 56.54885897956639 L 1319.6347525000563 56.45194042220433 L 1319.7413585460677 56.35549895251929 L 1319.850092628473 56.25954421457787 L 1319.9609438739544 56.16408580377391 L 1320.0739011974797 56.06913326586893 L 1320.1889533034107 55.974696096037604 L 1320.3060886866328 55.88078373791821 L 1320.4252956337054 55.7874055826683 L 1320.5465622240329 55.694570968025594 L 1320.6698763310571 55.60228917737418 L 1320.7952256234707 55.51056943881623 L 1320.9225975664483 55.41942092424918 L 1321.0519794229021 55.328852748448504 L 1321.1833582547542 55.23887396815633 L 1321.3167209242308 55.14949358117568 L 1321.4520540951762 55.0607205254708 L 1321.589344234386 54.97256367827326 L 1321.7285776129609 54.88503185519433 L 1321.8697403076787 54.79813380934336 L 1322.012818202388 54.71187823045254 L 1322.157796989418 54.62627374400786 L 1322.3046621710114 54.541328910386646 L 1322.453399060772 54.45705222400146 L 1322.603992785135 54.373452112450714 L 1322.7564282848532 54.290536935675895 L 1322.910690316504 54.20831498512558 L 1323.0667634540127 54.12679448292632 L 1323.2246320901957 54.0459835810604 L 1323.3842804383205 53.965890360550645 L 1323.5456925336857 53.88652283065238 L 1323.708852235216 53.80788892805245 L 1323.8737432270777 53.72999651607559 L 1324.0403490203087 53.652853383898076 L 1324.2086529544683 53.57646724576885 L 1324.3786381993036 53.50084574023808 L 1324.550287756432 53.42599642939328 L 1324.7235844610402 53.35192679810317 L 1324.8985109836028 53.278644253269164 L 1325.075049831613 53.20615612308466 L 1325.253183351333 53.13446965630228 L 1325.4328937295595 53.06359202150896 L 1325.6141629954045 52.99353030640911 L 1325.7969730220923 52.924291517115876 L 1325.9813055287725 52.85588257745046 L 1326.1671420823482 52.78831032824984 L 1326.3544640993186 52.72158152668263 L 1326.5432528476388 52.65570284557336 L 1326.7334894485905 52.590680872735255 L 1326.9251548786726 52.52652211031142 L 1327.1182299715017 52.463232974124615 L 1327.3126954197294 52.40081979303573 L 1327.5085317769729 52.33928880831086 L 1327.7057194597598 52.278646172997206 L 1327.904238749486 52.21889795130775 L 1328.104069794388 52.160050118014894 L 1328.305192611528 52.1021085578529 L 1328.5075870887915 52.045079064929524 L 1328.7112329868996 51.98896734214652 L 1328.9161099414325 51.933779000629414 L 1329.1221974648652 51.87951955916637 L 1329.3294749486172 51.826194443656306 L 1329.5379216651127 51.77380898656634 L 1329.7475167698537 51.72236842639853 L 1329.9582393035048 51.67187790716602 L 1330.1700681939878 51.622342477878675 L 1330.3829822585903 51.57376709203812 L 1330.5969602060834 51.526156607142475 L 1330.8119806388506 51.47951578420055 L 1331.0280220550278 51.43384928725578 L 1331.2450628506535 51.38916168291979 L 1331.4630813218287 51.34545743991578 L 1331.6820556668883 51.302740928631636 L 1331.90196398858 51.261016420682886 L 1332.1227842962553 51.220288088485546 L 1332.3444945080669 51.18056000483891 L 1332.5670724531788 51.14183614251822 L 1332.7904958739819 51.10412037387746 L 1333.01474242832 51.06741647046204 L 1333.239789691725 51.03172810263173 L 1333.4656151596578 50.99705883919358 L 1333.6921962497597 50.96341214704502 L 1333.9195103041109 50.930791390827245 L 1334.147534591495 50.899199832588685 L 1334.3762463096734 50.86864063145883 L 1334.605622587665 50.83911684333235 L 1334.835640488033 50.81063142056343 L 1335.0662770091792 50.78318721167063 L 1335.2975090876437 50.75678696105195 L 1335.5293136004111 50.731433308710464 L 1335.7616673672235 50.70712878999027 L 1335.9945471528977 50.683875835323 L 1336.2279296696493 50.66167676998473 L 1336.4617915794208 50.6405338138635 L 1336.6961094962166 50.6204490812373 L 1336.9308599884403 50.60142458056266 L 1337.1660195812378 50.583462214273794 L 1337.4015647588462 50.566563778592354 L 1337.6374719669438 50.55073096334783 L 1337.8737176150066 50.53596535180856 L 1338.1102780786664 50.52226842052339 L 1338.3471297020742 50.50964153917403 L 1338.5842488002647 50.49808597043808 L 1338.8216116615263 50.48760286986282 L 1339.05919454977 50.47819328574954 L 1339.2969737069054 50.46985815904882 L 1339.5349253552147 50.462598323266384 L 1339.7730256997315 50.456414504379765 L 1340.0112509306196 50.45130732076569 L 1340.2495772255545 50.44727728313828 L 1340.4879807521056 50.444324794497916 L 1340.7264376701185 50.44245015009101 L 1340.9649241341003 50.44165353738045 L 1341.2034162956033 50.44193503602685 L 1341.4418903056103 50.443294617880554 L 1341.6803223169186 50.445732146984525 L 1341.918688486526 50.44924737958788 L 1342.1569649780145 50.45383996417029 L 1342.3951279639327 50.459509441477124 L 1342.6331536281814 50.46625524456538 L 1342.8710181683919 50.474076698860365 L 1343.1086977983086 50.48297302222316 L 1343.3461687501665 50.49294332502887 L 1343.5834072770685 50.50398661025549 L 1343.8203896553596 50.51610177358371 L 1344.0570921869992 50.52928760350731 L 1344.2934912019314 50.54354278145426 L 1344.529563060452 50.55886588191867 L 1344.7652841555716 50.575255372603245 L 1345.0006309153773 50.592709614572584 L 1345.235579805389 50.61122686241703 L 1345.470107330914 50.630805264427224 L 1345.7041900393947 50.651442862779284 L 1345.9378045227554 50.67313759373059 L 1346.1709274197426 50.695887287826096 L 1346.4035354182606 50.71968967011537 L 1346.6356052577037 50.74454236038002 L 1346.8671137312813 50.77044287337172 L 1347.0980376883385 50.797388619060754 L 1347.3283540366729 50.825376902895016 L 1347.5580397448407 50.85440492606945 L 1347.787071844463 50.88446978580591 L 1348.0154274325207 50.9155684756435 L 1348.2430836736453 50.947697885739125 L 1348.470017802402 50.980854803178566 L 1348.6962071255675 51.01503591229771 L 1348.9216290243976 51.05023779501413 L 1349.1462609568907 51.08645693116888 L 1349.3700804600403 51.12368969887854 L 1349.5930651520828 51.16193237489736 L 1349.8151927347349 51.201181134989596 L 1350.0364409954234 51.241432054311964 L 1350.2567878095065 51.28268110780607 L 1350.4762111424864 51.32492417060092 L 1350.6946890522129 51.368157018425464 L 1350.9121996910767 51.41237532803093 L 1351.1287213081955 51.45757467762322 L 1351.344232251588 51.503750547305025 L 1351.5587109703392 51.55089831952786 L 1351.7721360167561 51.5990132795538 L 1351.984486048512 51.64809061592693 L 1352.1957398307807 51.69812542095451 L 1352.40587623836 51.749112691197745 L 1352.614874257784 51.801047327972086 L 1352.822712989425 51.85392413785714 L 1353.0293716495835 51.90773783321599 L 1353.234829572565 51.962483032723924 L 1353.4390662127491 52.01815426190663 L 1353.6420611466415 52.07474595368758 L 1353.8437940749182 52.132252448944755 L 1354.0442448244542 52.190667997076545 L 1354.2433933503419 52.24998675657682 L 1354.4412197378945 52.310202795619055 L 1354.637704204638 52.371310092649544 L 1354.8328271022897 52.43330253698949 L 1355.0265689187224 52.49617392944612 L 1355.218910279916 52.559917982932596 L 1355.4098319518944 52.62452832309667 L 1355.5993148426496 52.68999848895818 L 1355.7873400040505 52.7563219335551 L 1355.9738886337375 52.823492024598224 L 1356.1589420770033 52.89150204513444 L 1356.3424818286576 52.960345194218355 L 1356.5244895348783 53.03001458759244 L 1356.7049469950462 53.10050325837541 L 1356.883836163566 53.171804157758935 L 1357.06113915167 53.243910155712484 L 1357.2368382292066 53.31681404169635 L 1357.410915826415 53.39050852538269 L 1357.5833545356802 53.46498623738456 L 1357.7541371132752 53.5402397299928 L 1357.9232464810846 53.61626147792087 L 1358.0906657283122 53.69304387905734 L 1358.256378113173 53.770579255226075 L 1358.4203670645668 53.848859852954064 L 1358.5826161837347 53.92787784424677 L 1358.7431092459003 54.00762532737092 L 1358.901830201891 54.08809432764465 L 1359.0587631797437 54.16927679823499 L 1359.2138924862911 54.251164620962534 L 1359.3672026087318 54.33374960711325 L 1359.5186782161816 54.41702349825734 L 1359.6683041612057 54.500977967075094 L 1359.8160654813346 54.58560461818958 L 1359.961947400559 54.670894989006214 L 1360.105935330809 54.75684055055899 L 1360.2480148734112 54.84343270836337 L 1360.3881718205298 54.93066280327574 L 1360.526392156587 55.0185221123593 L 1360.6626620596644 55.107001849756344 L 1360.7969679028852 55.196093167566886 L 1360.929296255777 55.28578715673337 L 1361.0596338856146 55.37607484793163 L 1361.187967758744 55.46694721246779 L 1361.3142850418847 55.55839516318112 L 1361.4385731034133 55.65040955535275 L 1361.5608195146278 55.742981187620146 L 1361.6810120509886 55.83610080289723 L 1361.799138693342 55.92975908930006 L 1361.9151876291228 56.02394668107806 L 1362.0291472535337 56.11865415955053 L 1362.1410061707072 56.213872054048544 L 1362.2507531948452 56.30959084286201 L 1362.3583773513362 56.405800954191804 L 1362.4638678778547 56.50249276710697 L 1362.567214225436 56.5996566125068 L 1362.6684060595308 56.69728277408771 L 1362.7674332610407 56.79536148931491 L 1362.8642859273277 56.89388295039859 L 1362.958954373206 56.99283730527477 L 1363.05142913191 57.09221465859041 L 1363.1417009560407 57.19200507269298 L 1363.229760818491 57.29219856862425 L 1363.3155999133483 57.39278512711811 L 1363.399209656774 57.49375468960253 L 1363.480581687864 57.59509715920541 L 1363.559707869483 57.69680240176424 L 1363.6365802890784 57.79886024683951 L 1363.7111912594726 57.90126048873177 L 1363.7835333196306 58.003992887502164 L 1363.8535992354068 58.10704716999642 L 1363.9213820002678 58.21041303087217 L 1363.9868748359938 58.31408013362946 L 1364.0500711933557 58.41803811164441 L 1364.1109647527703 58.52227656920584 L 1364.169549424933 58.62678508255487 L 1364.2258193514244 58.731553200927245 L 1364.2797689052998 58.83657044759845 L 1364.3313926916478 58.94182632093131 L 1364.3806855481337 59.04731029542622 L 1364.427642545512 59.153011822773635 L 1364.472258988123 59.25892033290889 L 1364.5145304143591 59.36502523506925 L 1364.554452597113 59.471315918852895 L 1364.5920215441995 59.57778175528004 L 1364.6272334987557 59.684412097855756 L 1364.660084939615 59.79119628363465 L 1364.6905725816607 59.89812363428712 L 1364.7186933761545 60.005183457167206 L 1364.74444451104 60.11236504638185 L 1364.767823411225 60.21965768386144 L 1364.7888277388395 60.327050640431644 L 1364.8074553934675 60.43453317688629 L 1364.8237045123599 60.5420945450613 L 1364.8375734706178 60.6497239889095 L 1364.849060881357 60.757410745576195 L 1364.8581655958462 60.86514404647545 L 1364.8648867036213 60.972913118366954 L 1364.8692235325775 61.08070718443333 L 1364.871175649035 61.188515465357796 M 1364.871296639091 95.52678387991818 L 1364.8701041791874 95.6345944248348 L 1364.8665269187213 95.74239418878678 L 1364.8605652154158 95.85017239188754 L 1364.8522196654367 95.95791825640659 L 1364.8414911033315 96.06562100784727 L 1364.8283806019476 96.1732698760242 L 1364.8128894723243 96.28085409614023 L 1364.7950192635617 96.38836290986303 L 1364.7747717626658 96.49578556640084 L 1364.7521489943695 96.60311132357748 L 1364.727153220931 96.7103294489067 L 1364.6997869419072 96.8174292206653 L 1364.6700528939025 96.92439992896537 L 1364.6379540502974 97.0312308768252 L 1364.6034936209492 97.13791138123905 L 1364.5666750518724 97.24443077424536 L 1364.5275020248932 97.35077840399362 L 1364.4859784572814 97.45694363580944 L 1364.4421085013594 97.56291585325815 L 1364.395896544086 97.66868445920629 L 1364.3473472066187 97.77423887688141 L 1364.2964653438507 97.8795685509297 L 1364.2432560439256 97.98466294847155 L 1364.1877246277295 98.08951156015478 L 1364.1298766483576 98.19410390120557 L 1364.0697178905593 98.29842951247699 L 1364.0072543701606 98.40247796149485 L 1363.9424923334616 98.50623884350097 L 1363.8754382566115 98.60970178249359 L 1363.8060988449624 98.71285643226504 L 1363.734481032398 98.81569247743631 L 1363.6605919806393 98.91819963448859 L 1363.58443907853 99.02036765279156 L 1363.5060299412974 99.12218631562857 L 1363.4253724097894 99.22364544121817 L 1363.3424745496918 99.32473488373233 L 1363.257344650722 99.42544453431107 L 1363.1699912257986 99.52576432207324 L 1363.0804230101915 99.62568421512367 L 1362.9886489606472 99.72519422155631 L 1362.894678254495 99.82428439045346 L 1362.7985202887264 99.92294481288079 L 1362.700184679058 100.02116562287829 L 1362.5996812589694 100.11893699844678 L 1362.4970200787182 100.2162491625302 L 1362.392211404337 100.31309238399325 L 1362.2852657166063 100.40945697859446 L 1362.1761937100055 100.50533330995468 L 1362.065006291644 100.60071179052068 L 1361.9517145801715 100.69558288252388 L 1361.8363299046646 100.78993709893413 L 1361.7188638034945 100.88376500440843 L 1361.5993280231737 100.97705721623441 L 1361.4777345171804 101.06980440526866 L 1361.354095444764 101.16199729686952 L 1361.2284231697286 101.25362667182469 L 1361.100730259197 101.34468336727302 L 1360.9710294823542 101.43515827762084 L 1360.8393338091691 101.52504235545253 L 1360.7056564091 101.61432661243519 L 1360.570010649775 101.70300212021755 L 1360.4324100956571 101.7910600113227 L 1360.2928685066872 101.87849148003492 L 1360.151399836908 101.9652877832802 L 1360.0080182330682 102.05144024150056 L 1359.8627380332089 102.13694023952193 L 1359.7155737652292 102.22177922741581 L 1359.566540145433 102.30594872135407 L 1359.4156520770582 102.38944030445748 L 1359.2629246487859 102.47224562763729 L 1359.1083731332315 102.5543564104302 L 1358.952012985418 102.63576444182635 L 1358.7938598412297 102.71646158109044 L 1358.6339295158496 102.79643975857579 L 1358.4722380021763 102.8756909765313 L 1358.3088014692269 102.95420730990122 L 1358.1436362605184 103.03198090711763 L 1357.9767588924342 103.10900399088564 L 1357.8081860525717 103.18526885896105 L 1357.6379345980745 103.2607678849206 L 1357.4660215539463 103.33549351892461 L 1357.2924641113484 103.40943828847196 L 1357.11727962588 103.48259479914732 L 1356.940485615844 103.55495573536056 L 1356.7620997604938 103.6265138610784 L 1356.5821398982666 103.69726202054787 L 1356.4006240249985 103.76719313901197 L 1356.2175702921256 103.83630022341715 L 1356.0329970048685 103.90457636311257 L 1355.8469226204024 103.97201473054113 L 1355.6593657460105 104.03860858192229 L 1355.4703451372238 104.10435125792642 L 1355.279879695946 104.1692361843407 L 1355.0879884685621 104.23325687272656 L 1354.8946906440353 104.29640692106851 L 1354.7000055519868 104.35868001441433 L 1354.5039526607636 104.4200699255066 L 1354.3065515754915 104.48057051540535 L 1354.1078220361144 104.54017573410202 L 1353.9077839154206 104.5988796211244 L 1353.7064572170557 104.65667630613272 L 1353.5038620735215 104.71356000950664 L 1353.300018744164 104.7695250429232 L 1353.0949476131455 104.82456580992574 L 1352.8886691874088 104.87867680648341 L 1352.6812040946245 104.93185262154162 L 1352.4725730811288 104.98408793756322 L 1352.2627970098492 105.0353775310601 L 1352.0518968582182 105.08571627311568 L 1351.8398937160753 105.13509912989768 L 1351.6268087835576 105.1835211631616 L 1351.4126633689812 105.23097753074444 L 1351.197478886709 105.27746348704899 L 1350.9812768550098 105.32297438351839 L 1350.7640788939066 105.36750566910086 L 1350.5459067230145 105.41105289070501 L 1350.326782159369 105.45361169364494 L 1350.1067271152438 105.49517782207583 L 1349.8857635959596 105.53574711941947 L 1349.6639136976846 105.57531552877992 L 1349.4411996052236 105.61387909334925 L 1349.2176435898002 105.65143395680312 L 1348.9932680068296 105.68797636368647 L 1348.7680952936832 105.72350265978909 L 1348.5421479674449 105.75800929251095 L 1348.3154486226588 105.79149281121755 L 1348.0880199290702 105.82394986758491 L 1347.8598846293596 105.85537721593445 L 1347.6310655368661 105.88577171355752 L 1347.401585533309 105.9151303210297 L 1347.1714675664969 105.94345010251467 L 1346.9407346480348 105.97072822605791 L 1346.7094098510224 105.99696196386981 L 1346.4775163077466 106.02214869259844 L 1346.2450772073685 106.04628589359189 L 1346.0121157936044 106.0693711531502 L 1345.7786553624014 106.09140216276666 L 1345.5447192596084 106.11237671935864 L 1345.3103308786406 106.13229272548797 L 1345.0755136581406 106.15114818957065 L 1344.8402910796349 106.16894122607596 L 1344.6046866651852 106.1856700557151 L 1344.368723975037 106.20133300561903 L 1344.1324266052623 106.21592850950582 L 1343.8958181854011 106.22945510783724 L 1343.6589223760986 106.24191144796474 L 1343.4217628667382 106.25329628426466 L 1343.184363373073 106.2636084782629 L 1342.9467476348545 106.2728469987486 L 1342.708939413459 106.28101092187747 L 1342.47096248951 106.28809943126396 L 1342.2328406605016 106.29411181806304 L 1341.9945977384182 106.29904748104106 L 1341.756257547354 106.30290592663582 L 1341.5178439211288 106.30568676900597 L 1341.2793807009073 106.30738973006962 L 1341.040891732812 106.30801463953205 L 1340.8024008655416 106.30756143490284 L 1340.5639319479837 106.3060301615021 L 1340.3255088268315 106.30342097245587 L 1340.0871553441984 106.29973412868088 L 1339.8488953352341 106.29496999885845 L 1339.6107526257408 106.28912905939758 L 1339.372751029791 106.28221189438736 L 1339.1349143473462 106.27421919553852 L 1338.8972663618763 106.26515176211427 L 1338.6598308379819 106.25501050085043 L 1338.4226315190172 106.24379642586464 L 1338.1856921247168 106.23151065855508 L 1337.9490363488223 106.21815442748823 L 1337.7126878567146 106.20372906827606 L 1337.4766702830457 106.1882360234425 L 1337.241007229376 106.17167684227908 L 1337.005722261815 106.15405318069014 L 1336.7708389086629 106.13536680102716 L 1336.5363806580597 106.11561957191253 L 1336.3023709556346 106.09481346805269 L 1336.0688332021634 106.0729505700407 L 1335.8357907512263 106.05003306414814 L 1335.6032669068748 106.0260632421065 L 1335.3712849212989 106.00104350087803 L 1335.1398679925042 105.97497634241597 L 1334.9090392619908 105.94786437341445 L 1334.678821812439 105.9197103050478 L 1334.4492386654026 105.89051695269937 L 1334.2203127790044 105.86028723568009 L 1333.9920670456424 105.82902417693644 L 1333.7645242896997 105.79673090274827 L 1333.5377072652625 105.76341064241608 L 1333.3116386538438 105.72906672793813 L 1333.0863410621168 105.69370259367726 L 1332.861837019653 105.6573217760174 L 1332.638148976669 105.61992791301003 L 1332.415299301783 105.58152474401028 L 1332.193310279777 105.54211610930304 L 1331.9722041093678 105.50170594971894 L 1331.7520029009886 105.46029830624026 L 1331.5327286745762 105.41789731959686 L 1331.314403357371 105.37450722985206 L 1331.0970487817228 105.33013237597868 L 1330.8806866829077 105.28477719542511 L 1330.6653386969554 105.23844622367163 L 1330.451026358485 105.1911440937768 L 1330.237771098552 105.14287553591419 L 1330.0255942425044 105.09364537689936 L 1329.8145170078512 105.0434585397072 L 1329.60456050214 104.99232004297959 L 1329.395745720846 104.9402350005236 L 1329.1880935452737 104.88720862080007 L 1328.9816247404674 104.83324620640276 L 1328.7763599531359 104.77835315352817 L 1328.5723197095863 104.72253495143585 L 1328.3695244136734 104.66579718189945 L 1328.1679943447577 104.60814551864868 L 1327.9677496556778 104.54958572680184 L 1327.7688103707364 104.49012366228926 L 1327.5711963836957 104.42976527126788 L 1327.3749274557897 104.36851658952648 L 1327.180023213748 104.30638374188221 L 1326.9865031478319 104.24337294156805 L 1326.7943866098872 104.17949048961154 L 1326.6036928114074 104.11474277420461 L 1326.4144408216134 104.04913627006486 L 1326.2266495655465 103.98267753778805 L 1326.0403378221758 103.91537322319199 L 1325.8555242225204 103.84723005665208 L 1325.6722272477864 103.77825485242818 L 1325.4904652275181 103.70845450798322 L 1325.3102563377665 103.63783600329349 L 1325.1316185992703 103.56640640015061 L 1324.9545698756544 103.49417284145538 L 1324.7791278716436 103.42114255050346 L 1324.605310131292 103.3473228302631 L 1324.4331340362291 103.27272106264479 L 1324.262616803921 103.19734470776314 L 1324.0937754859483 103.1212013031908 L 1323.9266269663024 103.04429846320481 L 1323.761187959696 102.96664387802507 L 1323.597475009892 102.88824531304537 L 1323.4355044880485 102.8091106080569 L 1323.2752925910831 102.72924767646418 L 1323.116855340052 102.64866450449387 L 1322.9602085785484 102.56736915039596 L 1322.8053679711174 102.48536974363815 L 1322.6523490016912 102.40267448409276 L 1322.5011669720388 102.31929164121684 L 1322.3518370002375 102.2352295532252 L 1322.20437401916 102.15049662625658 L 1322.0587927749816 102.06510133353308 L 1321.915107825705 101.97905221451278 L 1321.7733335397058 101.89235787403591 L 1321.6334840942943 101.80502698146424 L 1321.4955734742987 101.71706826981428 L 1321.3596154706656 101.62849053488388 L 1321.2256236790827 101.53930263437272 L 1321.0936114986168 101.44951348699652 L 1320.9635921303766 101.35913207159521 L 1320.83557857619 101.26816742623502 L 1320.7095836373062 101.17662864730465 L 1320.5856199131138 101.08452488860574 L 1320.463699799882 100.9918653604374 L 1320.3438354895206 100.89865932867522 L 1320.2260389683606 100.80491611384473 L 1320.1103220159562 100.71064509018925 L 1319.9966962039061 100.61585568473262 L 1319.8851728946966 100.5205573763364 L 1319.775763240566 100.424759694752 L 1319.6684781823883 100.32847221966773 L 1319.56332844858 100.2317045797509 L 1319.460324554027 100.13446645168483 L 1319.3594767990328 100.03676755920131 L 1319.2607952682886 99.93861767210817 L 1319.1642898298658 99.84002660531232 L 1319.069970134227 99.7410042178383 L 1318.9778456132642 99.64156041184232 L 1318.887925479352 99.54170513162211 L 1318.800218724429 99.4414483626225 L 1318.7147341190978 99.34080013043682 L 1318.6314802117474 99.23977049980442 L 1318.5504653276996 99.13836957360418 L 1318.4716975683748 99.03660749184422 L 1318.3951848104834 98.9344944306479 L 1318.3209347052377 98.83204060123627 L 1318.248954677586 98.72925624890688 L 1318.1792519254714 98.6261516520093 L 1318.1118334191108 98.52273712091731 L 1318.0467059002988 98.41902299699785 L 1317.983875881733 98.31501965157686 L 1317.9233496463628 98.21073748490224 L 1317.8651332467614 98.10618692510373 L 1317.80923250452 98.0013784271502 L 1317.7556530096665 97.89632247180411 L 1317.704400120106 97.79102956457344 L 1317.6554789610839 97.68551023466115 L 1317.6088944246762 97.57977503391233 L 1317.5646511692971 97.47383453575894 L 1317.5227536192358 97.3676993341625 L 1317.483205964212 97.2613800425547 L 1317.4460121589584 97.15488729277617 L 1317.4111759228244 97.04823173401307 L 1317.3787007394048 96.94142403173245 L 1317.3485898561908 96.8344748666155 L 1317.3208462842456 96.72739493348962 L 1317.2954727979031 96.6201949402589 L 1317.2724719344913 96.51288560683331 L 1317.2518459940768 96.40547766405678 L 1317.2335970392367 96.29798185263407 L 1317.2177268948512 96.19040892205675 L 1317.2042371479217 96.08276962952824 L 1317.1931291474116 95.9750747388881 L 1317.1844040041115 95.86733501953563 L 1317.1780625905285 95.75956124535298 L 1317.1741055407988 95.65176419362778 L 1317.1725332506242 95.54395464397535" stroke-miterlimit="10" stroke-width="2.7769845610000004" stroke-dasharray=""/></g><g><g/><text fill="black" stroke="none" font-family="sans-serif" font-size="11pt" font-style="normal" font-weight="normal" text-decoration="normal" x="1301.1006351726535" y="123.83569119881818" text-anchor="start" dominant-baseline="alphabetic" xml:space="preserve">GameOnDB</text></g></g><g><g><text fill="black" stroke="none" font-family="sans-serif" font-size="16pt" font-style="normal" font-weight="normal" text-decoration="normal" x="559.3878021240234" y="24.651306798181814" text-anchor="start" dominant-baseline="alphabetic" xml:space="preserve">Find Group Sequence Diagram</text></g><g><rect fill="white" stroke="none" x="203.43270295994793" y="161.4066587888182" width="124.47819770875" height="21.23576429"/><text fill="black" stroke="none" font-family="sans-serif" font-size="11pt" font-style="normal" font-weight="normal" text-decoration="normal" x="205.88298345494792" y="176.10834175881817" text-anchor="start" dominant-baseline="alphabetic" xml:space="preserve">Click "Find Group"</text></g><g><path fill="none" stroke="black" paint-order="fill stroke markers" d=" M 89.84361815 182.64242307881818 L 428.0506680949792 182.64242307881818" stroke-miterlimit="10" stroke-width="1.3612669416666667" stroke-dasharray=""/><g transform="translate(441.49998547864584,182.64242307881818) translate(-441.49998547864584,-182.64242307881818)"><path fill="black" stroke="none" paint-order="stroke fill markers" d=" M 427.88731606197916 175.83608837048484 L 441.49998547864584 182.64242307881818 L 427.88731606197916 189.44875778715152 Z"/></g></g><g><rect fill="white" stroke="none" x="460.82997605031255" y="207.1452280288182" width="243.6263147741797" height="21.23576429"/><text fill="black" stroke="none" font-family="sans-serif" font-size="11pt" font-style="normal" font-weight="normal" text-decoration="normal" x="463.28025654531257" y="221.84691099881817" text-anchor="start" dominant-baseline="alphabetic" xml:space="preserve">matchmaking(MatchmakingRequest)</text></g><g><path fill="none" stroke="black" paint-order="fill stroke markers" d=" M 441.49998547864584 228.3809923188182 L 710.3369640124922 228.3809923188182" stroke-miterlimit="10" stroke-width="1.3612669416666667" stroke-dasharray=""/><g transform="translate(723.7862813961589,228.3809923188182) translate(-723.7862813961589,-228.3809923188182)"><path fill="black" stroke="none" paint-order="stroke fill markers" d=" M 710.1736119794922 221.57465761048485 L 723.7862813961589 228.3809923188182 L 710.1736119794922 235.18732702715153 Z"/></g></g><g><rect fill="white" stroke="none" x="743.1162719678255" y="252.88379726881823" width="205.34425605835938" height="21.23576429"/><text fill="black" stroke="none" font-family="sans-serif" font-size="11pt" font-style="normal" font-weight="normal" text-decoration="normal" x="745.5665524628255" y="267.5854802388182" text-anchor="start" dominant-baseline="alphabetic" xml:space="preserve">getProfile(String discordToken)</text></g><g><path fill="none" stroke="black" paint-order="fill stroke markers" d=" M 723.7862813961589 274.1195615588182 L 954.3412012141849 274.1195615588182" stroke-miterlimit="10" stroke-width="1.3612669416666667" stroke-dasharray=""/><g transform="translate(967.7905185978516,274.1195615588182) translate(-967.7905185978516,-274.1195615588182)"><path fill="black" stroke="none" paint-order="stroke fill markers" d=" M 954.1778491811849 267.31322685048485 L 967.7905185978516 274.1195615588182 L 954.1778491811849 280.92589626715153 Z"/></g></g><g><rect fill="white" stroke="none" x="783.0482406567903" y="298.6223665088182" width="125.48031868042969" height="21.23576429"/><text fill="black" stroke="none" font-family="sans-serif" font-size="11pt" font-style="normal" font-weight="normal" text-decoration="normal" x="785.4985211517903" y="313.32404947881815" text-anchor="start" dominant-baseline="alphabetic" xml:space="preserve">Return UserProfile</text></g><g><path fill="none" stroke="black" paint-order="fill stroke markers" d=" M 967.7905185978516 319.8581307988182 L 737.2355987798255 319.8581307988182" stroke-miterlimit="10" stroke-width="1.3612669416666667" stroke-dasharray="6.53408132"/><g transform="translate(723.7862813961589,319.8581307988182) translate(-723.7862813961589,-319.8581307988182)"><path fill="black" stroke="none" paint-order="stroke fill markers" d=" M 737.3989508128255 313.05179609048486 L 723.7862813961589 319.8581307988182 L 737.3989508128255 326.66446550715153 Z"/></g></g><g><rect fill="white" stroke="none" x="850.9044579312356" y="388.4659846588182" width="167.04078926148438" height="21.23576429"/><text fill="black" stroke="none" font-family="sans-serif" font-size="11pt" font-style="normal" font-weight="normal" text-decoration="normal" x="853.3547384262356" y="403.16766762881815" text-anchor="start" dominant-baseline="alphabetic" xml:space="preserve">createGroup(GroupArgs)</text></g><g><path fill="none" stroke="black" paint-order="fill stroke markers" d=" M 723.7862813961589 409.7017489488182 L 1131.61410634413 409.7017489488182" stroke-miterlimit="10" stroke-width="1.3612669416666667" stroke-dasharray=""/><g transform="translate(1145.0634237277968,409.7017489488182) translate(-1145.0634237277968,-409.7017489488182)"><path fill="black" stroke="none" paint-order="stroke fill markers" d=" M 1131.4507543111301 402.89541424048485 L 1145.0634237277968 409.7017489488182 L 1131.4507543111301 416.50808365715153 Z"/></g></g><g><rect fill="white" stroke="none" x="1164.3934142994633" y="434.2045538988182" width="157.29849494996094" height="21.23576429"/><text fill="black" stroke="none" font-family="sans-serif" font-size="11pt" font-style="normal" font-weight="normal" text-decoration="normal" x="1166.8436947944633" y="448.90623686881816" text-anchor="start" dominant-baseline="alphabetic" xml:space="preserve">Save new group details</text></g><g><path fill="none" stroke="black" paint-order="fill stroke markers" d=" M 1145.0634237277968 455.4403181888182 L 1327.5725824374242 455.4403181888182" stroke-miterlimit="10" stroke-width="1.3612669416666667" stroke-dasharray=""/><g transform="translate(1341.021899821091,455.4403181888182) translate(-1341.021899821091,-455.4403181888182)"><path fill="black" stroke="none" paint-order="stroke fill markers" d=" M 1327.4092304044243 448.63398348048486 L 1341.021899821091 455.4403181888182 L 1327.4092304044243 462.24665289715153 Z"/></g></g><g><rect fill="white" stroke="none" x="1197.811436455225" y="479.9431231388182" width="90.4624506384375" height="21.23576429"/><text fill="black" stroke="none" font-family="sans-serif" font-size="11pt" font-style="normal" font-weight="normal" text-decoration="normal" x="1200.261716950225" y="494.64480610881816" text-anchor="start" dominant-baseline="alphabetic" xml:space="preserve">Group stored</text></g><g><path fill="none" stroke="black" paint-order="fill stroke markers" d=" M 1341.021899821091 501.1788874288182 L 1158.5127411114636 501.1788874288182" stroke-miterlimit="10" stroke-width="1.3612669416666667" stroke-dasharray="6.53408132"/><g transform="translate(1145.0634237277968,501.1788874288182) translate(-1145.0634237277968,-501.1788874288182)"><path fill="black" stroke="none" paint-order="stroke fill markers" d=" M 1158.6760931444635 494.37255272048486 L 1145.0634237277968 501.1788874288182 L 1158.6760931444635 507.98522213715154 Z"/></g></g><g><rect fill="white" stroke="none" x="724.8221467644713" y="525.6816923788182" width="136.9191156775" height="21.23576429"/><text fill="black" stroke="none" font-family="sans-serif" font-size="11pt" font-style="normal" font-weight="normal" text-decoration="normal" x="727.2724272594713" y="540.3833753488182" text-anchor="start" dominant-baseline="alphabetic" xml:space="preserve">Return group details</text></g><g><path fill="none" stroke="black" paint-order="fill stroke markers" d=" M 1145.0634237277968 546.9174566688182 L 454.9493028623125 546.9174566688182" stroke-miterlimit="10" stroke-width="1.3612669416666667" stroke-dasharray="6.53408132"/><g transform="translate(441.49998547864584,546.9174566688182) translate(-441.49998547864584,-546.9174566688182)"><path fill="black" stroke="none" paint-order="stroke fill markers" d=" M 455.1126548953125 540.1111219604849 L 441.49998547864584 546.9174566688182 L 455.1126548953125 553.7237913771515 Z"/></g></g><g><rect fill="white" stroke="none" x="148.70116609471356" y="571.4202616188181" width="233.94127143921875" height="21.23576429"/><text fill="black" stroke="none" font-family="sans-serif" font-size="11pt" font-style="normal" font-weight="normal" text-decoration="normal" x="151.15144658971354" y="586.1219445888181" text-anchor="start" dominant-baseline="alphabetic" xml:space="preserve">Transfer to "Existing Group" screen</text></g><g><path fill="none" stroke="black" paint-order="fill stroke markers" d=" M 441.49998547864584 592.6560259088182 L 103.29293553366666 592.6560259088182" stroke-miterlimit="10" stroke-width="1.3612669416666667" stroke-dasharray=""/><g transform="translate(89.84361815,592.6560259088182) translate(-89.84361815,-592.6560259088182)"><path fill="black" stroke="none" paint-order="stroke fill markers" d=" M 103.45628756666666 585.8496912004848 L 89.84361815 592.6560259088182 L 103.45628756666666 599.4623606171515 Z"/></g></g><g><rect fill="white" stroke="none" x="212.16928285496746" y="661.263879768818" width="107.00503791871094" height="21.23576429"/><text fill="black" stroke="none" font-family="sans-serif" font-size="11pt" font-style="normal" font-weight="normal" text-decoration="normal" x="214.61956334996745" y="675.965562738818" text-anchor="start" dominant-baseline="alphabetic" xml:space="preserve">Wait for timeout</text></g><g><path fill="none" stroke="black" paint-order="fill stroke markers" d=" M 89.84361815 682.499644058818 L 428.0506680949792 682.499644058818" stroke-miterlimit="10" stroke-width="1.3612669416666667" stroke-dasharray=""/><g transform="translate(441.49998547864584,682.499644058818) translate(-441.49998547864584,-682.499644058818)"><path fill="black" stroke="none" paint-order="stroke fill markers" d=" M 427.88731606197916 675.6933093504847 L 441.49998547864584 682.499644058818 L 427.88731606197916 689.3059787671514 Z"/></g></g><g><rect fill="white" stroke="none" x="109.17360872166667" y="751.1074979188179" width="312.9963861853125" height="21.23576429"/><text fill="black" stroke="none" font-family="sans-serif" font-size="11pt" font-style="normal" font-weight="normal" text-decoration="normal" x="111.62388921666667" y="765.8091808888179" text-anchor="start" dominant-baseline="alphabetic" xml:space="preserve">Timeout reached, return to "Find Group" screen</text></g><g><path fill="none" stroke="black" paint-order="fill stroke markers" d=" M 441.49998547864584 772.3432622088179 L 103.29293553366666 772.3432622088179" stroke-miterlimit="10" stroke-width="1.3612669416666667" stroke-dasharray=""/><g transform="translate(89.84361815,772.3432622088179) translate(-89.84361815,-772.3432622088179)"><path fill="black" stroke="none" paint-order="stroke fill markers" d=" M 103.45628756666666 765.5369275004846 L 89.84361815 772.3432622088179 L 103.45628756666666 779.1495969171513 Z"/></g></g><g><g/><path fill="none" stroke="black" paint-order="fill stroke markers" d=" M 16.335203300000003 344.3609357488182 L 1398.195111371091 344.3609357488182 L 1398.195111371091 821.348872108818 L 16.335203300000003 821.348872108818 L 16.335203300000003 344.3609357488182 Z" stroke-miterlimit="10" stroke-width="2.3336004714285714" stroke-dasharray=""/><path fill="white" stroke="black" paint-order="fill stroke markers" d=" M 16.335203300000003 344.3609357488182 L 16.335203300000003 363.9631797088182 L 62.694406897070316 363.9631797088182 L 72.49552887707031 354.1620577288182 L 72.49552887707031 344.3609357488182 L 16.335203300000003 344.3609357488182" stroke-miterlimit="10" stroke-width="2.3336004714285714" stroke-dasharray=""/><text fill="black" stroke="none" font-family="sans-serif" font-size="8.8pt" font-style="normal" font-weight="bold" text-decoration="normal" x="32.67040660000001" y="357.4290983888182" text-anchor="start" dominant-baseline="alphabetic" xml:space="preserve">alt</text><g><rect fill="white" stroke="none" x="86.38045168207032" y="345.6677520128182" width="86.98182930054688" height="16.988611432000003"/></g><text fill="black" stroke="none" font-family="sans-serif" font-size="8.8pt" font-style="normal" font-weight="bold" text-decoration="normal" x="88.83073217707032" y="357.4290983888182" text-anchor="start" dominant-baseline="alphabetic" xml:space="preserve">[Group Found]</text><g><path fill="none" stroke="black" paint-order="fill stroke markers" d=" M 16.335203300000003 617.1588308588181 L 1398.195111371091 617.1588308588181" stroke-miterlimit="10" stroke-width="2.3336004714285714" stroke-dasharray="4.083800825"/></g><g/><g><rect fill="white" stroke="none" x="86.38045168207032" y="618.465647122818" width="154.76143135132813" height="16.988611432000003"/></g><text fill="black" stroke="none" font-family="sans-serif" font-size="8.8pt" font-style="normal" font-weight="bold" text-decoration="normal" x="88.83073217707032" y="630.226993498818" text-anchor="start" dominant-baseline="alphabetic" xml:space="preserve">[No Suitable Group Found]</text></g><g/><g><g/><path fill="none" stroke="black" paint-order="fill stroke markers" d=" M 32.6704066 707.002449008818 L 498.67319702864586 707.002449008818 L 498.67319702864586 796.846067158818 L 32.6704066 796.846067158818 L 32.6704066 707.002449008818 Z" stroke-miterlimit="10" stroke-width="2.3336004714285714" stroke-dasharray=""/><path fill="white" stroke="black" paint-order="fill stroke markers" d=" M 32.6704066 707.002449008818 L 32.6704066 726.604692968818 L 79.02961019707031 726.604692968818 L 88.83073217707032 716.8035709888179 L 88.83073217707032 707.002449008818 L 32.6704066 707.002449008818" stroke-miterlimit="10" stroke-width="2.3336004714285714" stroke-dasharray=""/><text fill="black" stroke="none" font-family="sans-serif" font-size="8.8pt" font-style="normal" font-weight="bold" text-decoration="normal" x="49.005609899999996" y="720.0706116488179" text-anchor="start" dominant-baseline="alphabetic" xml:space="preserve">alt</text><g><rect fill="white" stroke="none" x="102.71565498207032" y="708.3092652728179" width="110.27000679078125" height="16.988611432000003"/></g><text fill="black" stroke="none" font-family="sans-serif" font-size="8.8pt" font-style="normal" font-weight="bold" text-decoration="normal" x="105.16593547707032" y="720.0706116488179" text-anchor="start" dominant-baseline="alphabetic" xml:space="preserve">[Timeout Reached]</text></g></g><g/><g/><g/><g/><g/><g/></g></svg>