<svg xmlns="http://www.w3.org/2000/svg" xmlns:xlink="http://www.w3.org/1999/xlink" version="1.1" width="1402.0729148393204" height="1152.9534990988175"><desc>title%20Find%20Group%20Sequence%20Diagram%0A%0Aactor%20User%0Aparticipant%20Frontend%0Aparticipant%20User%20Management%0Aparticipant%20Matchmaking%0Aparticipant%20Group%20Management%0Adatabase%20GameOnDB%0Aparticipant%20DiscordAPI%0A%0AUser-%3EFrontend%3A%20Click%20%22Find%20Group%22%0AFrontend-%3EUser%20Management%3A%20getProfile(discordToken)%0AUser%20Management-%3EGameOnDB%3A%20Retrieve%20user%20profile%0AGameOnDB--%3EUser%20Management%3A%20Return%20UserProfile%0AUser%20Management--%3EFrontend%3A%20Return%20UserProfile%0AFrontend-%3EMatchmaking%3A%20matchmaking(MatchmakingRequest)%0A%0AMatchmaking-%3EGameOnDB%3A%20Check%20for%20existing%20queue%20matches%0AGameOnDB--%3E%3EMatchmaking%3A%20Return%20matched%20users%0A%0Aalt%20Group%20Found%0A%20%20%20%20Matchmaking-%3EGroup%20Management%3A%20createGroup(GroupArgs)%0A%20%20%20%20Group%20Management-%3EGameOnDB%3A%20Save%20new%20group%20details%0A%20%20%20%20GameOnDB--%3EGroup%20Management%3A%20Group%20stored%0A%20%20%20%20Group%20Management-%3EDiscordAPI%3A%20Call%20Discord%20API%20to%20create%20server%0A%20%20%20%20DiscordAPI--%3EGroup%20Management%3A%20Discord%20server%20created%0A%20%20%20%20Group%20Management--%3EFrontend%3A%20Return%20group%20details%0A%20%20%20%20Frontend-%3EUser%3A%20Transfer%20to%20%22Existing%20Group%22%20screen%0A%0Aelse%20No%20Suitable%20Group%20Found%0A%20%20%20%20User-%3EFrontend%3A%20Wait%20for%20matchmaking%20to%20complete%0A%20%20%20%20alt%20Timeout%20Reached%0A%20%20%20%20%20%20%20%20Frontend-%3EUser%3A%20Timeout%20reached%2C%20return%20to%20%22Find%20Group%22%20screen%0A%20%20%20%20end%0Aend</desc><defs/><g><g/><g/><g/><g/><g/><g/><g/><g/><g/><g/><g/><g/><g/><g/><g/><g/><g/><g/><g/><g/><g/><g/><g/><g/><g/><g/><g/><g/><g/><g/><g/><g/><g/><g/><g/><g/><g/><g/><g/><g/><g/><g/><g/><g/><g/><g/><g/><g/><g/><g/><g/><g/><g/><g/><g/><g/><g/><g/><g/><g/><g/><g/><g/><g/><g/><g/><g/><g/><g/><g/><g/><g/><g/><g/><g/><g/><g/><g/><g/><g/><g/><g/><g/><g/><g/><g/><g/><g/><g/><g/><g/><g/><g/><g/><g/><g/><g/><g/><g/><g/><g/><g/><g/><g/><g/><g/><g/><g/><g/><g/><g/><g/><g/><g/><g/><g/><g/><g/><g/><g/><g><rect fill="white" stroke="none" x="0" y="0" width="1402" height="1152"/></g><g/><g><path fill="none" stroke="black" paint-order="fill stroke markers" d=" M 89.84361815 128.73625218881818 L 89.84361815 1152.9534990988175" stroke-miterlimit="10" stroke-width="1.3612669416666667" stroke-dasharray="12.565541,5.445067766666667"/><path fill="none" stroke="black" paint-order="fill stroke markers" d=" M 441.49998547864584 128.73625218881818 L 441.49998547864584 1152.9534990988175" stroke-miterlimit="10" stroke-width="1.3612669416666667" stroke-dasharray="12.565541,5.445067766666667"/><path fill="none" stroke="black" paint-order="fill stroke markers" d=" M 643.1348836910807 128.73625218881818 L 643.1348836910807 1152.9534990988175" stroke-miterlimit="10" stroke-width="1.3612669416666667" stroke-dasharray="12.565541,5.445067766666667"/><path fill="none" stroke="black" paint-order="fill stroke markers" d=" M 798.8043494899714 128.73625218881818 L 798.8043494899714 1152.9534990988175" stroke-miterlimit="10" stroke-width="1.3612669416666667" stroke-dasharray="12.565541,5.445067766666667"/><path fill="none" stroke="black" paint-order="fill stroke markers" d=" M 1004.5051198947891 128.73625218881818 L 1004.5051198947891 1152.9534990988175" stroke-miterlimit="10" stroke-width="1.3612669416666667" stroke-dasharray="12.565541,5.445067766666667"/><path fill="none" stroke="black" paint-order="fill stroke markers" d=" M 1200.4635959880834 128.73625218881818 L 1200.4635959880834 1152.9534990988175" stroke-miterlimit="10" stroke-width="1.3612669416666667" stroke-dasharray="12.565541,5.445067766666667"/><path fill="none" stroke="black" paint-order="fill stroke markers" d=" M 1328.5644999893204 128.73625218881818 L 1328.5644999893204 1152.9534990988175" stroke-miterlimit="10" stroke-width="1.3612669416666667" stroke-dasharray="12.565541,5.445067766666667"/></g><g><g><path fill="white" stroke="black" paint-order="fill stroke markers" d=" M 99.154684031 59.63834222981819 A 9.311065881 9.311065881 0 1 1 99.15467937546744 59.62903116548903 M 89.84361815 68.9494081108182 L 89.84361815 88.8783561368182 M 78.08227177399999 76.13689756281819 L 101.604964526 76.13689756281819 M 89.84361815 88.8783561368182 L 78.08227177399999 107.50048789881819 M 89.84361815 88.8783561368182 L 101.604964526 107.50048789881819" stroke-miterlimit="10" stroke-width="2.7769845610000004" stroke-dasharray=""/></g><g><g/><text fill="black" stroke="none" font-family="sans-serif" font-size="11pt" font-style="normal" font-weight="normal" text-decoration="normal" x="74.36760496640625" y="123.83569119881818" text-anchor="start" dominant-baseline="alphabetic" xml:space="preserve">User</text></g><path fill="none" stroke="none"/><g><path fill="white" stroke="black" paint-order="fill stroke markers" d=" M 394.43842979072394 84.63120327881819 L 488.56154116656774 84.63120327881819 L 488.56154116656774 128.73625218881818 L 394.43842979072394 128.73625218881818 L 394.43842979072394 84.63120327881819 Z" stroke-miterlimit="10" stroke-width="2.613632528" stroke-dasharray=""/></g><g><g/><text fill="black" stroke="none" font-family="sans-serif" font-size="11pt" font-style="normal" font-weight="normal" text-decoration="normal" x="412.16212537122396" y="112.40104888881817" text-anchor="start" dominant-baseline="alphabetic" xml:space="preserve">Frontend</text></g><path fill="none" stroke="none"/><g><path fill="white" stroke="black" paint-order="fill stroke markers" d=" M 565.1141376345065 84.63120327881819 L 721.155629747655 84.63120327881819 L 721.155629747655 128.73625218881818 L 565.1141376345065 128.73625218881818 L 565.1141376345065 84.63120327881819 Z" stroke-miterlimit="10" stroke-width="2.613632528" stroke-dasharray=""/></g><g><g/><text fill="black" stroke="none" font-family="sans-serif" font-size="11pt" font-style="normal" font-weight="normal" text-decoration="normal" x="582.8378332150065" y="112.40104888881817" text-anchor="start" dominant-baseline="alphabetic" xml:space="preserve">User Management</text></g><path fill="none" stroke="none"/><g><path fill="white" stroke="black" paint-order="fill stroke markers" d=" M 737.490833047655 84.63120327881819 L 860.1178659322878 84.63120327881819 L 860.1178659322878 128.73625218881818 L 737.490833047655 128.73625218881818 L 737.490833047655 84.63120327881819 Z" stroke-miterlimit="10" stroke-width="2.613632528" stroke-dasharray=""/></g><g><g/><text fill="black" stroke="none" font-family="sans-serif" font-size="11pt" font-style="normal" font-weight="normal" text-decoration="normal" x="755.214528628155" y="112.40104888881817" text-anchor="start" dominant-baseline="alphabetic" xml:space="preserve">Matchmaking</text></g><path fill="none" stroke="none"/><g><path fill="white" stroke="black" paint-order="fill stroke markers" d=" M 921.588164121418 84.63120327881819 L 1087.4220756681602 84.63120327881819 L 1087.4220756681602 128.73625218881818 L 921.588164121418 128.73625218881818 L 921.588164121418 84.63120327881819 Z" stroke-miterlimit="10" stroke-width="2.613632528" stroke-dasharray=""/></g><g><g/><text fill="black" stroke="none" font-family="sans-serif" font-size="11pt" font-style="normal" font-weight="normal" text-decoration="normal" x="939.311859701918" y="112.40104888881817" text-anchor="start" dominant-baseline="alphabetic" xml:space="preserve">Group Management</text></g><g><path fill="white" stroke="black" paint-order="fill stroke markers" d=" M 1176.6141991700833 96.71925372081819 L 1176.6141991700833 62.41532679081819 L 1224.3129928060835 62.41532679081819 L 1224.3129928060835 96.71925372081819" stroke-miterlimit="10" stroke-width="2.7769845610000004" stroke-dasharray=""/><path fill="white" stroke="black" paint-order="fill stroke markers" d=" M 1224.3129928060835 61.22285694991819 L 1224.3118003461798 61.33066749483481 L 1224.3082230857137 61.43846725878678 L 1224.3022613824082 61.546245461887544 L 1224.293915832429 61.65399132640659 L 1224.2831872703239 61.761694077847274 L 1224.27007676894 61.86934294602419 L 1224.2545856393167 61.976927166140236 L 1224.236715430554 62.084435979863045 L 1224.2164679296582 62.19185863640084 L 1224.1938451613619 62.299184393577484 L 1224.1688493879235 62.4064025189067 L 1224.1414831088996 62.51350229066531 L 1224.111749060895 62.62047299896537 L 1224.0796502172898 62.7273039468252 L 1224.0451897879416 62.83398445123905 L 1224.0083712188648 62.94050384424536 L 1223.9691981918857 63.04685147399361 L 1223.9276746242738 63.15301670580944 L 1223.8838046683518 63.25898892325815 L 1223.8375927110785 63.364757529206294 L 1223.789043373611 63.47031194688142 L 1223.7381615108432 63.575641620929716 L 1223.684952210918 63.68073601847156 L 1223.629420794722 63.78558463015478 L 1223.57157281535 63.89017697120557 L 1223.5114140575517 63.994502582477 L 1223.448950537153 64.09855103149486 L 1223.384188500454 64.20231191350096 L 1223.3171344236039 64.3057748524936 L 1223.2477950119548 64.40892950226505 L 1223.1761771993904 64.51176554743633 L 1223.1022881476317 64.61427270448858 L 1223.0261352455225 64.71644072279157 L 1222.9477261082898 64.81825938562858 L 1222.8670685767818 64.91971851121816 L 1222.7841707166842 65.02080795373233 L 1222.6990408177144 65.12151760431107 L 1222.611687392791 65.22183739207324 L 1222.5221191771839 65.32175728512367 L 1222.4303451276396 65.42126729155632 L 1222.3363744214873 65.52035746045347 L 1222.2402164557188 65.6190178828808 L 1222.1418808460505 65.71723869287828 L 1222.0413774259619 65.81501006844678 L 1221.9387162457106 65.91232223253022 L 1221.8339075713295 66.00916545399325 L 1221.7269618835987 66.10553004859446 L 1221.6178898769979 66.20140637995469 L 1221.5067024586365 66.29678486052069 L 1221.393410747164 66.39165595252388 L 1221.278026071657 66.48601016893414 L 1221.160559970487 66.57983807440844 L 1221.0410241901661 66.67313028623443 L 1220.9194306841728 66.76587747526865 L 1220.7957916117564 66.85807036686953 L 1220.670119336721 66.94969974182469 L 1220.5424264261894 67.04075643727302 L 1220.4127256493466 67.13123134762085 L 1220.2810299761616 67.22111542545254 L 1220.1473525760923 67.3103996824352 L 1220.0117068167674 67.39907519021754 L 1219.8741062626495 67.4871330813227 L 1219.7345646736796 67.57456455003492 L 1219.5930960039004 67.6613608532802 L 1219.4497144000607 67.74751331150055 L 1219.3044342002013 67.83301330952195 L 1219.1572699322217 67.91785229741582 L 1219.0082363124254 68.00202179135408 L 1218.8573482440506 68.08551337445749 L 1218.7046208157783 68.1683186976373 L 1218.5500693002239 68.25042948043021 L 1218.3937091524103 68.33183751182635 L 1218.2355560082221 68.41253465109044 L 1218.075625682842 68.4925128285758 L 1217.9139341691687 68.5717640465313 L 1217.7504976362193 68.65028037990122 L 1217.5853324275108 68.72805397711764 L 1217.4184550594266 68.80507706088565 L 1217.2498822195641 68.88134192896105 L 1217.079630765067 68.95684095492061 L 1216.9077177209388 69.03156658892462 L 1216.7341602783408 69.10551135847197 L 1216.5589757928724 69.17866786914732 L 1216.3821817828364 69.25102880536058 L 1216.2037959274862 69.3225869310784 L 1216.023836065259 69.39333509054786 L 1215.842320191991 69.46326620901198 L 1215.659266459118 69.53237329341717 L 1215.474693171861 69.60064943311258 L 1215.2886187873949 69.66808780054113 L 1215.101061913003 69.7346816519223 L 1214.9120413042162 69.80042432792644 L 1214.7215758629384 69.86530925434072 L 1214.5296846355545 69.92932994272657 L 1214.3363868110278 69.9924799910685 L 1214.1417017189792 70.05475308441433 L 1213.945648827756 70.1161429955066 L 1213.748247742484 70.17664358540536 L 1213.5495182031068 70.23624880410202 L 1213.349480082413 70.29495269112441 L 1213.148153384048 70.35274937613272 L 1212.945558240514 70.40963307950663 L 1212.7417149111564 70.46559811292322 L 1212.5366437801379 70.52063887992576 L 1212.3303653544012 70.57474987648341 L 1212.122900261617 70.62792569154163 L 1211.9142692481212 70.68016100756323 L 1211.7044931768417 70.73145060106012 L 1211.4935930252107 70.78178934311569 L 1211.2815898830677 70.8311721998977 L 1211.06850495055 70.8795942331616 L 1210.8543595359736 70.92705060074444 L 1210.6391750537014 70.973536557049 L 1210.4229730220022 71.01904745351838 L 1210.205775060899 71.06357873910088 L 1209.9876028900069 71.10712596070502 L 1209.7684783263614 71.14968476364494 L 1209.5484232822362 71.19125089207583 L 1209.327459762952 71.23182018941947 L 1209.105609864677 71.27138859877994 L 1208.882895772216 71.30995216334925 L 1208.6593397567926 71.34750702680313 L 1208.434964173822 71.38404943368649 L 1208.2097914606757 71.4195757297891 L 1207.9838441344373 71.45408236251096 L 1207.7571447896512 71.48756588121756 L 1207.5297160960627 71.52002293758491 L 1207.301580796352 71.55145028593446 L 1207.0727617038585 71.58184478355753 L 1206.8432817003013 71.61120339102969 L 1206.6131637334893 71.63952317251467 L 1206.3824308150272 71.66680129605793 L 1206.1511060180148 71.69303503386982 L 1205.919212474739 71.71822176259843 L 1205.6867733743609 71.7423589635919 L 1205.4538119605968 71.7654442231502 L 1205.2203515293938 71.78747523276665 L 1204.9864154266008 71.80844978935863 L 1204.752027045633 71.82836579548797 L 1204.517209825133 71.84722125957065 L 1204.2819872466273 71.86501429607597 L 1204.0463828321776 71.8817431257151 L 1203.8104201420294 71.89740607561903 L 1203.5741227722547 71.91200157950583 L 1203.3375143523936 71.92552817783725 L 1203.100618543091 71.93798451796474 L 1202.8634590337306 71.94936935426468 L 1202.6260595400654 71.95968154826289 L 1202.388443801847 71.96892006874862 L 1202.1506355804513 71.97708399187748 L 1201.9126586565023 71.98417250126396 L 1201.674536827494 71.99018488806304 L 1201.4362939054106 71.99512055104105 L 1201.1979537143463 71.99897899663581 L 1200.9595400881212 72.00175983900598 L 1200.7210768678997 72.00346280006961 L 1200.4825878998045 72.00408770953204 L 1200.244097032534 72.00363450490285 L 1200.0056281149762 72.0021032315021 L 1199.767204993824 71.99949404245586 L 1199.5288515111909 71.9958071986809 L 1199.2905915022266 71.99104306885846 L 1199.0524487927332 71.98520212939759 L 1198.8144471967835 71.97828496438737 L 1198.5766105143387 71.97029226553852 L 1198.3389625288687 71.96122483211428 L 1198.1015270049743 71.95108357085043 L 1197.8643276860096 71.93986949586466 L 1197.6273882917092 71.92758372855508 L 1197.3907325158148 71.91422749748824 L 1197.154384023707 71.89980213827607 L 1196.918366450038 71.8843090934425 L 1196.6827033963684 71.86774991227908 L 1196.4474184288074 71.85012625069015 L 1196.2125350756553 71.83143987102717 L 1195.978076825052 71.81169264191253 L 1195.744067122627 71.79088653805269 L 1195.5105293691558 71.7690236400407 L 1195.2774869182188 71.74610613414815 L 1195.0449630738672 71.72213631210651 L 1194.8129810882913 71.69711657087802 L 1194.5815641594966 71.67104941241597 L 1194.3507354289832 71.64393744341446 L 1194.1205179794315 71.6157833750478 L 1193.890934832395 71.58659002269937 L 1193.6620089459968 71.55636030568009 L 1193.4337632126349 71.52509724693644 L 1193.206220456692 71.49280397274828 L 1192.979403432255 71.45948371241609 L 1192.7533348208362 71.42513979793813 L 1192.5280372291093 71.38977566367726 L 1192.3035331866454 71.35339484601741 L 1192.0798451436615 71.31600098301004 L 1191.8569954687755 71.27759781401028 L 1191.6350064467695 71.23818917930303 L 1191.4139002763602 71.19777901971894 L 1191.193699067981 71.15637137624027 L 1190.9744248415686 71.11397038959687 L 1190.7560995243634 71.07058029985207 L 1190.5387449487152 71.02620544597868 L 1190.3223828499001 70.98085026542512 L 1190.1070348639478 70.93451929367163 L 1189.8927225254774 70.8872171637768 L 1189.6794672655444 70.8389486059142 L 1189.4672904094969 70.78971844689937 L 1189.2562131748437 70.7395316097072 L 1189.0462566691324 70.6883931129796 L 1188.8374418878384 70.6363080705236 L 1188.629789712266 70.58328169080006 L 1188.4233209074598 70.52931927640276 L 1188.2180561201283 70.47442622352818 L 1188.0140158765787 70.41860802143584 L 1187.8112205806658 70.36187025189946 L 1187.6096905117502 70.3042185886487 L 1187.4094458226702 70.24565879680183 L 1187.2105065377289 70.18619673228926 L 1187.012892550688 70.12583834126788 L 1186.8166236227821 70.06458965952649 L 1186.6217193807404 70.00245681188221 L 1186.4281993148243 69.93944601156807 L 1186.2360827768796 69.87556355961155 L 1186.0453889783998 69.81081584420461 L 1185.8561369886058 69.74520934006487 L 1185.668345732539 69.67875060778805 L 1185.4820339891683 69.61144629319199 L 1185.2972203895129 69.54330312665208 L 1185.1139234147788 69.47432792242817 L 1184.9321613945106 69.40452757798322 L 1184.751952504759 69.3339090732935 L 1184.5733147662627 69.26247947015062 L 1184.3962660426469 69.19024591145539 L 1184.220824038636 69.11721562050347 L 1184.0470062982845 69.0433959002631 L 1183.8748302032216 68.96879413264479 L 1183.7043129709134 68.89341777776313 L 1183.5354716529407 68.81727437319081 L 1183.3683231332948 68.74037153320482 L 1183.2028841266883 68.66271694802508 L 1183.0391711768843 68.58431838304537 L 1182.877200655041 68.5051836780569 L 1182.7169887580756 68.4253207464642 L 1182.5585515070445 68.34473757449386 L 1182.4019047455408 68.26344222039596 L 1182.2470641381099 68.18144281363814 L 1182.0940451686836 68.09874755409275 L 1181.9428631390313 68.01536471121685 L 1181.79353316723 67.9313026232252 L 1181.6460701861524 67.84656969625658 L 1181.500488941974 67.76117440353308 L 1181.3568039926975 67.67512528451279 L 1181.2150297066983 67.5884309440359 L 1181.0751802612867 67.50110005146425 L 1180.937269641291 67.41314133981427 L 1180.801311637658 67.32456360488388 L 1180.667319846075 67.23537570437271 L 1180.5353076656093 67.14558655699653 L 1180.405288297369 67.05520514159522 L 1180.2772747431825 66.96424049623502 L 1180.1512798042986 66.87270171730466 L 1180.0273160801062 66.78059795860575 L 1179.9053959668745 66.68793843043741 L 1179.785531656513 66.59473239867523 L 1179.667735135353 66.50098918384472 L 1179.5520181829486 66.40671816018926 L 1179.4383923708986 66.31192875473263 L 1179.326869061689 66.2166304463364 L 1179.2174594075584 66.120832764752 L 1179.1101743493807 66.02454528966774 L 1179.0050246155724 65.92777764975091 L 1178.9020207210194 65.83053952168484 L 1178.8011729660252 65.73284062920132 L 1178.702491435281 65.63469074210818 L 1178.6059859968582 65.53609967531233 L 1178.5116663012195 65.4370772878383 L 1178.4195417802566 65.33763348184232 L 1178.3296216463445 65.23777820162212 L 1178.2419148914214 65.13752143262249 L 1178.1564302860902 65.03687320043682 L 1178.0731763787398 64.93584356980442 L 1177.992161494692 64.83444264360419 L 1177.9133937353672 64.73268056184422 L 1177.8368809774759 64.63056750064791 L 1177.7626308722301 64.52811367123628 L 1177.6906508445784 64.42532931890689 L 1177.6209480924638 64.32222472200931 L 1177.5535295861032 64.21881019091732 L 1177.4884020672912 64.11509606699785 L 1177.4255720487254 64.01109272157687 L 1177.3650458133552 63.90681055490224 L 1177.3068294137538 63.80225999510374 L 1177.2509286715124 63.697451497150205 L 1177.197349176659 63.59239554180411 L 1177.1460962870983 63.48710263457343 L 1177.0971751280763 63.381583304661156 L 1177.0505905916687 63.27584810391234 L 1177.0063473362895 63.16990760575894 L 1176.9644497862282 63.06377240416249 L 1176.9249021312044 62.95745311255472 L 1176.8877083259508 62.85096036277616 L 1176.8528720898169 62.744304804013076 L 1176.8203969063973 62.63749710173245 L 1176.7902860231832 62.530547936615505 L 1176.762542451238 62.423468003489624 L 1176.7371689648955 62.316268010258895 L 1176.7141681014837 62.208958676833305 L 1176.6935421610692 62.10155073405677 L 1176.675293206229 61.99405492263407 L 1176.6594230618437 61.88648199205676 L 1176.6459333149141 61.77884269952825 L 1176.634825314404 61.6711478088881 L 1176.6261001711039 61.56340808953563 L 1176.619758757521 61.45563431535299 L 1176.6158017077912 61.34783726362778 L 1176.6142294176166 61.24002771397536 L 1176.6150420442245 61.13221644726084 L 1176.6182395063531 61.02441424452105 L 1176.6238214842588 60.916631885886424 L 1176.6317874197484 60.808880149503025 L 1176.6421365162353 60.70116981045468 L 1176.654867738818 60.59351163968555 L 1176.6699798143852 60.48591640292299 L 1176.6874712317417 60.378394859601016 L 1176.7073402417604 60.27095776178435 L 1176.7295848575573 60.163615853093255 L 1176.7542028546886 60.05637986762915 L 1176.7811917713757 59.949260528901206 L 1176.810548908749 59.84226854875404 L 1176.8422713311195 59.7354146262965 L 1176.8763558662713 59.62870944683179 L 1176.9127991057794 59.52216368078894 L 1176.9515974053502 59.41578798265577 L 1176.9927468851859 59.30959298991343 L 1177.036243430373 59.203589321972714 L 1177.082082691293 59.09778757911208 L 1177.1302600840581 58.992198341417634 L 1177.1807707909693 58.88683216772516 L 1177.233609760998 58.78169959456423 L 1177.288771710291 58.67681113510454 L 1177.3462511226996 58.57217727810464 L 1177.4060422503305 58.46780848686303 L 1177.4681391141205 58.36371519817185 L 1177.532535504435 58.25990782127324 L 1177.5992249816886 58.15639673681838 L 1177.6682008769894 58.053192295829454 L 1177.7394562928052 57.950304818664556 L 1177.812984103654 57.84774459398567 L 1177.8887769568155 57.745521877729786 L 1177.966827273068 57.64364689208335 L 1178.0471272474447 57.54212982446004 L 1178.1296688500152 57.44098082648201 L 1178.214443826688 57.340210012964775 L 1178.3014437000359 57.2398274609057 L 1178.3906597701443 57.13984320847635 L 1178.4820831154802 57.040267254018644 L 1178.5757045937858 56.94110955504505 L 1178.671514842991 56.84238002724283 L 1178.7695042821506 56.74408854348249 L 1178.8696631124023 56.646244932830506 L 1178.9719813179468 56.54885897956639 L 1179.0764486670487 56.45194042220433 L 1179.18305471306 56.35549895251929 L 1179.2917887954654 56.25954421457787 L 1179.4026400409468 56.16408580377391 L 1179.5155973644721 56.06913326586893 L 1179.6306494704031 55.974696096037604 L 1179.7477848536253 55.88078373791821 L 1179.8669918006979 55.7874055826683 L 1179.9882583910253 55.694570968025594 L 1180.1115724980496 55.60228917737418 L 1180.2369217904632 55.51056943881623 L 1180.3642937334407 55.41942092424918 L 1180.4936755898946 55.328852748448504 L 1180.6250544217467 55.23887396815633 L 1180.7584170912232 55.14949358117568 L 1180.8937502621686 55.0607205254708 L 1181.0310404013785 54.97256367827326 L 1181.1702737799533 54.88503185519433 L 1181.3114364746712 54.79813380934336 L 1181.4545143693804 54.71187823045254 L 1181.5994931564105 54.62627374400786 L 1181.7463583380038 54.541328910386646 L 1181.8950952277644 54.45705222400146 L 1182.0456889521274 54.373452112450714 L 1182.1981244518456 54.290536935675895 L 1182.3523864834965 54.20831498512558 L 1182.5084596210052 54.12679448292632 L 1182.666328257188 54.0459835810604 L 1182.825976605313 53.965890360550645 L 1182.9873887006781 53.88652283065238 L 1183.1505484022084 53.80788892805245 L 1183.3154393940702 53.72999651607559 L 1183.482045187301 53.652853383898076 L 1183.6503491214607 53.57646724576885 L 1183.820334366296 53.50084574023808 L 1183.9919839234244 53.42599642939328 L 1184.1652806280326 53.35192679810317 L 1184.3402071505952 53.278644253269164 L 1184.5167459986053 53.20615612308466 L 1184.6948795183255 53.13446965630228 L 1184.874589896552 53.06359202150896 L 1185.055859162397 52.99353030640911 L 1185.2386691890847 52.924291517115876 L 1185.423001695765 52.85588257745046 L 1185.6088382493406 52.78831032824984 L 1185.796160266311 52.72158152668263 L 1185.9849490146312 52.65570284557336 L 1186.175185615583 52.590680872735255 L 1186.366851045665 52.52652211031142 L 1186.5599261384941 52.463232974124615 L 1186.7543915867218 52.40081979303573 L 1186.9502279439653 52.33928880831086 L 1187.1474156267523 52.278646172997206 L 1187.3459349164784 52.21889795130775 L 1187.5457659613803 52.160050118014894 L 1187.7468887785203 52.1021085578529 L 1187.949283255784 52.045079064929524 L 1188.152929153892 51.98896734214652 L 1188.357806108425 51.933779000629414 L 1188.5638936318576 51.87951955916637 L 1188.7711711156096 51.826194443656306 L 1188.979617832105 51.77380898656634 L 1189.1892129368462 51.72236842639853 L 1189.3999354704972 51.67187790716602 L 1189.6117643609803 51.622342477878675 L 1189.8246784255828 51.57376709203812 L 1190.0386563730758 51.526156607142475 L 1190.253676805843 51.47951578420055 L 1190.4697182220202 51.43384928725578 L 1190.686759017646 51.38916168291979 L 1190.904777488821 51.34545743991578 L 1191.1237518338808 51.302740928631636 L 1191.3436601555725 51.261016420682886 L 1191.5644804632477 51.220288088485546 L 1191.7861906750593 51.18056000483891 L 1192.0087686201712 51.14183614251822 L 1192.2321920409743 51.10412037387746 L 1192.4564385953124 51.06741647046204 L 1192.6814858587175 51.03172810263173 L 1192.9073113266502 50.99705883919358 L 1193.1338924167521 50.96341214704502 L 1193.3612064711033 50.930791390827245 L 1193.5892307584875 50.899199832588685 L 1193.8179424766658 50.86864063145883 L 1194.0473187546575 50.83911684333235 L 1194.2773366550255 50.81063142056343 L 1194.5079731761716 50.78318721167063 L 1194.739205254636 50.75678696105195 L 1194.9710097674035 50.731433308710464 L 1195.203363534216 50.70712878999027 L 1195.43624331989 50.683875835323 L 1195.6696258366417 50.66167676998473 L 1195.9034877464132 50.6405338138635 L 1196.137805663209 50.6204490812373 L 1196.3725561554327 50.60142458056266 L 1196.6077157482302 50.583462214273794 L 1196.8432609258386 50.566563778592354 L 1197.0791681339363 50.55073096334783 L 1197.315413781999 50.53596535180856 L 1197.5519742456588 50.52226842052339 L 1197.7888258690666 50.50964153917403 L 1198.0259449672571 50.49808597043808 L 1198.2633078285187 50.48760286986282 L 1198.5008907167623 50.47819328574954 L 1198.7386698738978 50.46985815904882 L 1198.976621522207 50.462598323266384 L 1199.214721866724 50.456414504379765 L 1199.452947097612 50.45130732076569 L 1199.691273392547 50.44727728313828 L 1199.929676919098 50.444324794497916 L 1200.1681338371109 50.44245015009101 L 1200.4066203010927 50.44165353738045 L 1200.6451124625958 50.44193503602685 L 1200.8835864726027 50.443294617880554 L 1201.122018483911 50.445732146984525 L 1201.3603846535184 50.44924737958788 L 1201.5986611450069 50.45383996417029 L 1201.8368241309252 50.459509441477124 L 1202.0748497951738 50.46625524456538 L 1202.3127143353843 50.474076698860365 L 1202.550393965301 50.48297302222316 L 1202.787864917159 50.49294332502887 L 1203.025103444061 50.50398661025549 L 1203.262085822352 50.51610177358371 L 1203.4987883539916 50.52928760350731 L 1203.7351873689238 50.54354278145426 L 1203.9712592274443 50.55886588191867 L 1204.206980322564 50.575255372603245 L 1204.4423270823697 50.592709614572584 L 1204.6772759723815 50.61122686241703 L 1204.9118034979065 50.630805264427224 L 1205.145886206387 50.651442862779284 L 1205.3795006897478 50.67313759373059 L 1205.612623586735 50.695887287826096 L 1205.845231585253 50.71968967011537 L 1206.077301424696 50.74454236038002 L 1206.3088098982737 50.77044287337172 L 1206.539733855331 50.797388619060754 L 1206.7700502036653 50.825376902895016 L 1206.999735911833 50.85440492606945 L 1207.2287680114555 50.88446978580591 L 1207.4571235995131 50.9155684756435 L 1207.6847798406377 50.947697885739125 L 1207.9117139693944 50.980854803178566 L 1208.13790329256 51.01503591229771 L 1208.36332519139 51.05023779501413 L 1208.5879571238831 51.08645693116888 L 1208.8117766270327 51.12368969887854 L 1209.0347613190752 51.16193237489736 L 1209.2568889017273 51.201181134989596 L 1209.4781371624158 51.241432054311964 L 1209.698483976499 51.28268110780607 L 1209.9179073094788 51.32492417060092 L 1210.1363852192053 51.368157018425464 L 1210.353895858069 51.41237532803093 L 1210.570417475188 51.45757467762322 L 1210.7859284185804 51.503750547305025 L 1211.0004071373316 51.55089831952786 L 1211.2138321837485 51.5990132795538 L 1211.4261822155045 51.64809061592693 L 1211.637435997773 51.69812542095451 L 1211.8475724053524 51.749112691197745 L 1212.0565704247765 51.801047327972086 L 1212.2644091564175 51.85392413785714 L 1212.471067816576 51.90773783321599 L 1212.6765257395575 51.962483032723924 L 1212.8807623797416 52.01815426190663 L 1213.083757313634 52.07474595368758 L 1213.2854902419106 52.132252448944755 L 1213.4859409914466 52.190667997076545 L 1213.6850895173343 52.24998675657682 L 1213.8829159048869 52.310202795619055 L 1214.0794003716305 52.371310092649544 L 1214.274523269282 52.43330253698949 L 1214.4682650857148 52.49617392944612 L 1214.6606064469083 52.559917982932596 L 1214.8515281188868 52.62452832309667 L 1215.041011009642 52.68999848895818 L 1215.229036171043 52.7563219335551 L 1215.41558480073 52.823492024598224 L 1215.6006382439957 52.89150204513444 L 1215.78417799565 52.960345194218355 L 1215.9661857018707 53.03001458759244 L 1216.1466431620386 53.10050325837541 L 1216.3255323305584 53.171804157758935 L 1216.5028353186624 53.243910155712484 L 1216.678534396199 53.31681404169635 L 1216.8526119934074 53.39050852538269 L 1217.0250507026726 53.46498623738456 L 1217.1958332802676 53.5402397299928 L 1217.364942648077 53.61626147792087 L 1217.5323618953046 53.69304387905734 L 1217.6980742801654 53.770579255226075 L 1217.8620632315592 53.848859852954064 L 1218.024312350727 53.92787784424677 L 1218.1848054128927 54.00762532737092 L 1218.3435263688834 54.08809432764465 L 1218.500459346736 54.16927679823499 L 1218.6555886532835 54.251164620962534 L 1218.8088987757242 54.33374960711325 L 1218.960374383174 54.41702349825734 L 1219.110000328198 54.500977967075094 L 1219.257761648327 54.58560461818958 L 1219.4036435675514 54.670894989006214 L 1219.5476314978014 54.75684055055899 L 1219.6897110404034 54.84343270836337 L 1219.8298679875222 54.93066280327574 L 1219.9680883235794 55.0185221123593 L 1220.1043582266568 55.107001849756344 L 1220.2386640698776 55.196093167566886 L 1220.3709924227694 55.28578715673337 L 1220.501330052607 55.37607484793163 L 1220.6296639257364 55.46694721246779 L 1220.755981208877 55.55839516318112 L 1220.8802692704057 55.65040955535275 L 1221.0025156816203 55.742981187620146 L 1221.122708217981 55.83610080289723 L 1221.2408348603344 55.92975908930006 L 1221.3568837961152 56.02394668107806 L 1221.470843420526 56.11865415955053 L 1221.5827023376996 56.213872054048544 L 1221.6924493618376 56.30959084286201 L 1221.8000735183286 56.405800954191804 L 1221.905564044847 56.50249276710697 L 1222.0089103924283 56.5996566125068 L 1222.1101022265232 56.69728277408771 L 1222.209129428033 56.79536148931491 L 1222.3059820943201 56.89388295039859 L 1222.4006505401985 56.99283730527477 L 1222.4931252989024 57.09221465859041 L 1222.5833971230331 57.19200507269298 L 1222.6714569854835 57.29219856862425 L 1222.7572960803407 57.39278512711811 L 1222.8409058237664 57.49375468960253 L 1222.9222778548565 57.59509715920541 L 1223.0014040364754 57.69680240176424 L 1223.0782764560709 57.79886024683951 L 1223.152887426465 57.90126048873177 L 1223.225229486623 58.003992887502164 L 1223.2952954023992 58.10704716999642 L 1223.3630781672603 58.21041303087217 L 1223.4285710029862 58.31408013362946 L 1223.4917673603481 58.41803811164441 L 1223.5526609197627 58.52227656920584 L 1223.6112455919251 58.62678508255487 L 1223.6675155184168 58.731553200927245 L 1223.7214650722922 58.83657044759845 L 1223.7730888586402 58.94182632093131 L 1223.822381715126 59.04731029542622 L 1223.8693387125045 59.153011822773635 L 1223.9139551551154 59.25892033290889 L 1223.9562265813515 59.36502523506925 L 1223.9961487641053 59.471315918852895 L 1224.033717711192 59.57778175528004 L 1224.068929665748 59.684412097855756 L 1224.1017811066074 59.79119628363465 L 1224.1322687486531 59.89812363428712 L 1224.160389543147 60.005183457167206 L 1224.1861406780324 60.11236504638185 L 1224.2095195782174 60.21965768386144 L 1224.230523905832 60.327050640431644 L 1224.24915156046 60.43453317688629 L 1224.2654006793523 60.5420945450613 L 1224.2792696376102 60.6497239889095 L 1224.2907570483494 60.757410745576195 L 1224.2998617628386 60.86514404647545 L 1224.3065828706137 60.972913118366954 L 1224.31091969957 61.08070718443333 L 1224.3128718160274 61.188515465357796 M 1224.3129928060835 95.52678387991818 L 1224.3118003461798 95.6345944248348 L 1224.3082230857137 95.74239418878678 L 1224.3022613824082 95.85017239188754 L 1224.293915832429 95.95791825640659 L 1224.2831872703239 96.06562100784727 L 1224.27007676894 96.1732698760242 L 1224.2545856393167 96.28085409614023 L 1224.236715430554 96.38836290986303 L 1224.2164679296582 96.49578556640084 L 1224.1938451613619 96.60311132357748 L 1224.1688493879235 96.7103294489067 L 1224.1414831088996 96.8174292206653 L 1224.111749060895 96.92439992896537 L 1224.0796502172898 97.0312308768252 L 1224.0451897879416 97.13791138123905 L 1224.0083712188648 97.24443077424536 L 1223.9691981918857 97.35077840399362 L 1223.9276746242738 97.45694363580944 L 1223.8838046683518 97.56291585325815 L 1223.8375927110785 97.66868445920629 L 1223.789043373611 97.77423887688141 L 1223.7381615108432 97.8795685509297 L 1223.684952210918 97.98466294847155 L 1223.629420794722 98.08951156015478 L 1223.57157281535 98.19410390120557 L 1223.5114140575517 98.29842951247699 L 1223.448950537153 98.40247796149485 L 1223.384188500454 98.50623884350097 L 1223.3171344236039 98.60970178249359 L 1223.2477950119548 98.71285643226504 L 1223.1761771993904 98.81569247743631 L 1223.1022881476317 98.91819963448859 L 1223.0261352455225 99.02036765279156 L 1222.9477261082898 99.12218631562857 L 1222.8670685767818 99.22364544121817 L 1222.7841707166842 99.32473488373233 L 1222.6990408177144 99.42544453431107 L 1222.611687392791 99.52576432207324 L 1222.5221191771839 99.62568421512367 L 1222.4303451276396 99.72519422155631 L 1222.3363744214873 99.82428439045346 L 1222.2402164557188 99.92294481288079 L 1222.1418808460505 100.02116562287829 L 1222.0413774259619 100.11893699844678 L 1221.9387162457106 100.2162491625302 L 1221.8339075713295 100.31309238399325 L 1221.7269618835987 100.40945697859446 L 1221.6178898769979 100.50533330995468 L 1221.5067024586365 100.60071179052068 L 1221.393410747164 100.69558288252388 L 1221.278026071657 100.78993709893413 L 1221.160559970487 100.88376500440843 L 1221.0410241901661 100.97705721623441 L 1220.9194306841728 101.06980440526866 L 1220.7957916117564 101.16199729686952 L 1220.670119336721 101.25362667182469 L 1220.5424264261894 101.34468336727302 L 1220.4127256493466 101.43515827762084 L 1220.2810299761616 101.52504235545253 L 1220.1473525760923 101.61432661243519 L 1220.0117068167674 101.70300212021755 L 1219.8741062626495 101.7910600113227 L 1219.7345646736796 101.87849148003492 L 1219.5930960039004 101.9652877832802 L 1219.4497144000607 102.05144024150056 L 1219.3044342002013 102.13694023952193 L 1219.1572699322217 102.22177922741581 L 1219.0082363124254 102.30594872135407 L 1218.8573482440506 102.38944030445748 L 1218.7046208157783 102.47224562763729 L 1218.5500693002239 102.5543564104302 L 1218.3937091524103 102.63576444182635 L 1218.2355560082221 102.71646158109044 L 1218.075625682842 102.79643975857579 L 1217.9139341691687 102.8756909765313 L 1217.7504976362193 102.95420730990122 L 1217.5853324275108 103.03198090711763 L 1217.4184550594266 103.10900399088564 L 1217.2498822195641 103.18526885896105 L 1217.079630765067 103.2607678849206 L 1216.9077177209388 103.33549351892461 L 1216.7341602783408 103.40943828847196 L 1216.5589757928724 103.48259479914732 L 1216.3821817828364 103.55495573536056 L 1216.2037959274862 103.6265138610784 L 1216.023836065259 103.69726202054787 L 1215.842320191991 103.76719313901197 L 1215.659266459118 103.83630022341715 L 1215.474693171861 103.90457636311257 L 1215.2886187873949 103.97201473054113 L 1215.101061913003 104.03860858192229 L 1214.9120413042162 104.10435125792642 L 1214.7215758629384 104.1692361843407 L 1214.5296846355545 104.23325687272656 L 1214.3363868110278 104.29640692106851 L 1214.1417017189792 104.35868001441433 L 1213.945648827756 104.4200699255066 L 1213.748247742484 104.48057051540535 L 1213.5495182031068 104.54017573410202 L 1213.349480082413 104.5988796211244 L 1213.148153384048 104.65667630613272 L 1212.945558240514 104.71356000950664 L 1212.7417149111564 104.7695250429232 L 1212.5366437801379 104.82456580992574 L 1212.3303653544012 104.87867680648341 L 1212.122900261617 104.93185262154162 L 1211.9142692481212 104.98408793756322 L 1211.7044931768417 105.0353775310601 L 1211.4935930252107 105.08571627311568 L 1211.2815898830677 105.13509912989768 L 1211.06850495055 105.1835211631616 L 1210.8543595359736 105.23097753074444 L 1210.6391750537014 105.27746348704899 L 1210.4229730220022 105.32297438351839 L 1210.205775060899 105.36750566910086 L 1209.9876028900069 105.41105289070501 L 1209.7684783263614 105.45361169364494 L 1209.5484232822362 105.49517782207583 L 1209.327459762952 105.53574711941947 L 1209.105609864677 105.57531552877992 L 1208.882895772216 105.61387909334925 L 1208.6593397567926 105.65143395680312 L 1208.434964173822 105.68797636368647 L 1208.2097914606757 105.72350265978909 L 1207.9838441344373 105.75800929251095 L 1207.7571447896512 105.79149281121755 L 1207.5297160960627 105.82394986758491 L 1207.301580796352 105.85537721593445 L 1207.0727617038585 105.88577171355752 L 1206.8432817003013 105.9151303210297 L 1206.6131637334893 105.94345010251467 L 1206.3824308150272 105.97072822605791 L 1206.1511060180148 105.99696196386981 L 1205.919212474739 106.02214869259844 L 1205.6867733743609 106.04628589359189 L 1205.4538119605968 106.0693711531502 L 1205.2203515293938 106.09140216276666 L 1204.9864154266008 106.11237671935864 L 1204.752027045633 106.13229272548797 L 1204.517209825133 106.15114818957065 L 1204.2819872466273 106.16894122607596 L 1204.0463828321776 106.1856700557151 L 1203.8104201420294 106.20133300561903 L 1203.5741227722547 106.21592850950582 L 1203.3375143523936 106.22945510783724 L 1203.100618543091 106.24191144796474 L 1202.8634590337306 106.25329628426466 L 1202.6260595400654 106.2636084782629 L 1202.388443801847 106.2728469987486 L 1202.1506355804513 106.28101092187747 L 1201.9126586565023 106.28809943126396 L 1201.674536827494 106.29411181806304 L 1201.4362939054106 106.29904748104106 L 1201.1979537143463 106.30290592663582 L 1200.9595400881212 106.30568676900597 L 1200.7210768678997 106.30738973006962 L 1200.4825878998045 106.30801463953205 L 1200.244097032534 106.30756143490284 L 1200.0056281149762 106.3060301615021 L 1199.767204993824 106.30342097245587 L 1199.5288515111909 106.29973412868088 L 1199.2905915022266 106.29496999885845 L 1199.0524487927332 106.28912905939758 L 1198.8144471967835 106.28221189438736 L 1198.5766105143387 106.27421919553852 L 1198.3389625288687 106.26515176211427 L 1198.1015270049743 106.25501050085043 L 1197.8643276860096 106.24379642586464 L 1197.6273882917092 106.23151065855508 L 1197.3907325158148 106.21815442748823 L 1197.154384023707 106.20372906827606 L 1196.918366450038 106.1882360234425 L 1196.6827033963684 106.17167684227908 L 1196.4474184288074 106.15405318069014 L 1196.2125350756553 106.13536680102716 L 1195.978076825052 106.11561957191253 L 1195.744067122627 106.09481346805269 L 1195.5105293691558 106.0729505700407 L 1195.2774869182188 106.05003306414814 L 1195.0449630738672 106.0260632421065 L 1194.8129810882913 106.00104350087803 L 1194.5815641594966 105.97497634241597 L 1194.3507354289832 105.94786437341445 L 1194.1205179794315 105.9197103050478 L 1193.890934832395 105.89051695269937 L 1193.6620089459968 105.86028723568009 L 1193.4337632126349 105.82902417693644 L 1193.206220456692 105.79673090274827 L 1192.979403432255 105.76341064241608 L 1192.7533348208362 105.72906672793813 L 1192.5280372291093 105.69370259367726 L 1192.3035331866454 105.6573217760174 L 1192.0798451436615 105.61992791301003 L 1191.8569954687755 105.58152474401028 L 1191.6350064467695 105.54211610930304 L 1191.4139002763602 105.50170594971894 L 1191.193699067981 105.46029830624026 L 1190.9744248415686 105.41789731959686 L 1190.7560995243634 105.37450722985206 L 1190.5387449487152 105.33013237597868 L 1190.3223828499001 105.28477719542511 L 1190.1070348639478 105.23844622367163 L 1189.8927225254774 105.1911440937768 L 1189.6794672655444 105.14287553591419 L 1189.4672904094969 105.09364537689936 L 1189.2562131748437 105.0434585397072 L 1189.0462566691324 104.99232004297959 L 1188.8374418878384 104.9402350005236 L 1188.629789712266 104.88720862080007 L 1188.4233209074598 104.83324620640276 L 1188.2180561201283 104.77835315352817 L 1188.0140158765787 104.72253495143585 L 1187.8112205806658 104.66579718189945 L 1187.6096905117502 104.60814551864868 L 1187.4094458226702 104.54958572680184 L 1187.2105065377289 104.49012366228926 L 1187.012892550688 104.42976527126788 L 1186.8166236227821 104.36851658952648 L 1186.6217193807404 104.30638374188221 L 1186.4281993148243 104.24337294156805 L 1186.2360827768796 104.17949048961154 L 1186.0453889783998 104.11474277420461 L 1185.8561369886058 104.04913627006486 L 1185.668345732539 103.98267753778805 L 1185.4820339891683 103.91537322319199 L 1185.2972203895129 103.84723005665208 L 1185.1139234147788 103.77825485242818 L 1184.9321613945106 103.70845450798322 L 1184.751952504759 103.63783600329349 L 1184.5733147662627 103.56640640015061 L 1184.3962660426469 103.49417284145538 L 1184.220824038636 103.42114255050346 L 1184.0470062982845 103.3473228302631 L 1183.8748302032216 103.27272106264479 L 1183.7043129709134 103.19734470776314 L 1183.5354716529407 103.1212013031908 L 1183.3683231332948 103.04429846320481 L 1183.2028841266883 102.96664387802507 L 1183.0391711768843 102.88824531304537 L 1182.877200655041 102.8091106080569 L 1182.7169887580756 102.72924767646418 L 1182.5585515070445 102.64866450449387 L 1182.4019047455408 102.56736915039596 L 1182.2470641381099 102.48536974363815 L 1182.0940451686836 102.40267448409276 L 1181.9428631390313 102.31929164121684 L 1181.79353316723 102.2352295532252 L 1181.6460701861524 102.15049662625658 L 1181.500488941974 102.06510133353308 L 1181.3568039926975 101.97905221451278 L 1181.2150297066983 101.89235787403591 L 1181.0751802612867 101.80502698146424 L 1180.937269641291 101.71706826981428 L 1180.801311637658 101.62849053488388 L 1180.667319846075 101.53930263437272 L 1180.5353076656093 101.44951348699652 L 1180.405288297369 101.35913207159521 L 1180.2772747431825 101.26816742623502 L 1180.1512798042986 101.17662864730465 L 1180.0273160801062 101.08452488860574 L 1179.9053959668745 100.9918653604374 L 1179.785531656513 100.89865932867522 L 1179.667735135353 100.80491611384473 L 1179.5520181829486 100.71064509018925 L 1179.4383923708986 100.61585568473262 L 1179.326869061689 100.5205573763364 L 1179.2174594075584 100.424759694752 L 1179.1101743493807 100.32847221966773 L 1179.0050246155724 100.2317045797509 L 1178.9020207210194 100.13446645168483 L 1178.8011729660252 100.03676755920131 L 1178.702491435281 99.93861767210817 L 1178.6059859968582 99.84002660531232 L 1178.5116663012195 99.7410042178383 L 1178.4195417802566 99.64156041184232 L 1178.3296216463445 99.54170513162211 L 1178.2419148914214 99.4414483626225 L 1178.1564302860902 99.34080013043682 L 1178.0731763787398 99.23977049980442 L 1177.992161494692 99.13836957360418 L 1177.9133937353672 99.03660749184422 L 1177.8368809774759 98.9344944306479 L 1177.7626308722301 98.83204060123627 L 1177.6906508445784 98.72925624890688 L 1177.6209480924638 98.6261516520093 L 1177.5535295861032 98.52273712091731 L 1177.4884020672912 98.41902299699785 L 1177.4255720487254 98.31501965157686 L 1177.3650458133552 98.21073748490224 L 1177.3068294137538 98.10618692510373 L 1177.2509286715124 98.0013784271502 L 1177.197349176659 97.89632247180411 L 1177.1460962870983 97.79102956457344 L 1177.0971751280763 97.68551023466115 L 1177.0505905916687 97.57977503391233 L 1177.0063473362895 97.47383453575894 L 1176.9644497862282 97.3676993341625 L 1176.9249021312044 97.2613800425547 L 1176.8877083259508 97.15488729277617 L 1176.8528720898169 97.04823173401307 L 1176.8203969063973 96.94142403173245 L 1176.7902860231832 96.8344748666155 L 1176.762542451238 96.72739493348962 L 1176.7371689648955 96.6201949402589 L 1176.7141681014837 96.51288560683331 L 1176.6935421610692 96.40547766405678 L 1176.675293206229 96.29798185263407 L 1176.6594230618437 96.19040892205675 L 1176.6459333149141 96.08276962952824 L 1176.634825314404 95.9750747388881 L 1176.6261001711039 95.86733501953563 L 1176.619758757521 95.75956124535298 L 1176.6158017077912 95.65176419362778 L 1176.6142294176166 95.54395464397535" stroke-miterlimit="10" stroke-width="2.7769845610000004" stroke-dasharray=""/></g><g><g/><text fill="black" stroke="none" font-family="sans-serif" font-size="11pt" font-style="normal" font-weight="normal" text-decoration="normal" x="1160.542331339646" y="123.83569119881818" text-anchor="start" dominant-baseline="alphabetic" xml:space="preserve">GameOnDB</text></g><path fill="none" stroke="none"/><g><path fill="white" stroke="black" paint-order="fill stroke markers" d=" M 1274.1801217305979 84.63120327881819 L 1382.9488782480432 84.63120327881819 L 1382.9488782480432 128.73625218881818 L 1274.1801217305979 128.73625218881818 L 1274.1801217305979 84.63120327881819 Z" stroke-miterlimit="10" stroke-width="2.613632528" stroke-dasharray=""/></g><g><g/><text fill="black" stroke="none" font-family="sans-serif" font-size="11pt" font-style="normal" font-weight="normal" text-decoration="normal" x="1291.9038173110978" y="112.40104888881817" text-anchor="start" dominant-baseline="alphabetic" xml:space="preserve">DiscordAPI</text></g></g><g><g><text fill="black" stroke="none" font-family="sans-serif" font-size="16pt" font-style="normal" font-weight="normal" text-decoration="normal" x="553.3878021240234" y="24.651306798181814" text-anchor="start" dominant-baseline="alphabetic" xml:space="preserve">Find Group Sequence Diagram</text></g><g><rect fill="white" stroke="none" x="203.43270295994793" y="161.4066587888182" width="124.47819770875" height="21.23576429"/><text fill="black" stroke="none" font-family="sans-serif" font-size="11pt" font-style="normal" font-weight="normal" text-decoration="normal" x="205.88298345494792" y="176.10834175881817" text-anchor="start" dominant-baseline="alphabetic" xml:space="preserve">Click "Find Group"</text></g><g><path fill="none" stroke="black" paint-order="fill stroke markers" d=" M 89.84361815 182.64242307881818 L 428.0506680949792 182.64242307881818" stroke-miterlimit="10" stroke-width="1.3612669416666667" stroke-dasharray=""/><g transform="translate(441.49998547864584,182.64242307881818) translate(-441.49998547864584,-182.64242307881818)"><path fill="black" stroke="none" paint-order="stroke fill markers" d=" M 427.88731606197916 175.83608837048484 L 441.49998547864584 182.64242307881818 L 427.88731606197916 189.44875778715152 Z"/></g></g><g><rect fill="white" stroke="none" x="460.82997605031255" y="207.1452280288182" width="162.97491706910156" height="21.23576429"/><text fill="black" stroke="none" font-family="sans-serif" font-size="11pt" font-style="normal" font-weight="normal" text-decoration="normal" x="463.28025654531257" y="221.84691099881817" text-anchor="start" dominant-baseline="alphabetic" xml:space="preserve">getProfile(discordToken)</text></g><g><path fill="none" stroke="black" paint-order="fill stroke markers" d=" M 441.49998547864584 228.3809923188182 L 629.6855663074141 228.3809923188182" stroke-miterlimit="10" stroke-width="1.3612669416666667" stroke-dasharray=""/><g transform="translate(643.1348836910807,228.3809923188182) translate(-643.1348836910807,-228.3809923188182)"><path fill="black" stroke="none" paint-order="stroke fill markers" d=" M 629.5222142744141 221.57465761048485 L 643.1348836910807 228.3809923188182 L 629.5222142744141 235.18732702715153 Z"/></g></g><g><rect fill="white" stroke="none" x="853.7584442078632" y="252.88379726881823" width="136.0815912634375" height="21.23576429"/><text fill="black" stroke="none" font-family="sans-serif" font-size="11pt" font-style="normal" font-weight="normal" text-decoration="normal" x="856.2087247028633" y="267.5854802388182" text-anchor="start" dominant-baseline="alphabetic" xml:space="preserve">Retrieve user profile</text></g><g><path fill="none" stroke="black" paint-order="fill stroke markers" d=" M 643.1348836910807 274.1195615588182 L 1187.0142786044166 274.1195615588182" stroke-miterlimit="10" stroke-width="1.3612669416666667" stroke-dasharray=""/><g transform="translate(1200.4635959880834,274.1195615588182) translate(-1200.4635959880834,-274.1195615588182)"><path fill="black" stroke="none" paint-order="stroke fill markers" d=" M 1186.8509265714167 267.31322685048485 L 1200.4635959880834 274.1195615588182 L 1186.8509265714167 280.92589626715153 Z"/></g></g><g><rect fill="white" stroke="none" x="859.0590804993672" y="298.6223665088182" width="125.48031868042969" height="21.23576429"/><text fill="black" stroke="none" font-family="sans-serif" font-size="11pt" font-style="normal" font-weight="normal" text-decoration="normal" x="861.5093609943672" y="313.32404947881815" text-anchor="start" dominant-baseline="alphabetic" xml:space="preserve">Return UserProfile</text></g><g><path fill="none" stroke="black" paint-order="fill stroke markers" d=" M 1200.4635959880834 319.8581307988182 L 656.5842010747474 319.8581307988182" stroke-miterlimit="10" stroke-width="1.3612669416666667" stroke-dasharray="6.53408132"/><g transform="translate(643.1348836910807,319.8581307988182) translate(-643.1348836910807,-319.8581307988182)"><path fill="black" stroke="none" paint-order="stroke fill markers" d=" M 656.7475531077474 313.05179609048486 L 643.1348836910807 319.8581307988182 L 656.7475531077474 326.66446550715153 Z"/></g></g><g><rect fill="white" stroke="none" x="479.5772752446485" y="344.3609357488182" width="125.48031868042969" height="21.23576429"/><text fill="black" stroke="none" font-family="sans-serif" font-size="11pt" font-style="normal" font-weight="normal" text-decoration="normal" x="482.0275557396485" y="359.06261871881816" text-anchor="start" dominant-baseline="alphabetic" xml:space="preserve">Return UserProfile</text></g><g><path fill="none" stroke="black" paint-order="fill stroke markers" d=" M 643.1348836910807 365.5967000388182 L 454.9493028623125 365.5967000388182" stroke-miterlimit="10" stroke-width="1.3612669416666667" stroke-dasharray="6.53408132"/><g transform="translate(441.49998547864584,365.5967000388182) translate(-441.49998547864584,-365.5967000388182)"><path fill="black" stroke="none" paint-order="stroke fill markers" d=" M 455.1126548953125 358.79036533048486 L 441.49998547864584 365.5967000388182 L 455.1126548953125 372.40303474715154 Z"/></g></g><g><rect fill="white" stroke="none" x="498.33901009721876" y="390.0995049888182" width="243.6263147741797" height="21.23576429"/><text fill="black" stroke="none" font-family="sans-serif" font-size="11pt" font-style="normal" font-weight="normal" text-decoration="normal" x="500.7892905922188" y="404.80118795881816" text-anchor="start" dominant-baseline="alphabetic" xml:space="preserve">matchmaking(MatchmakingRequest)</text></g><g><path fill="none" stroke="black" paint-order="fill stroke markers" d=" M 441.49998547864584 411.3352692788182 L 785.3550321063047 411.3352692788182" stroke-miterlimit="10" stroke-width="1.3612669416666667" stroke-dasharray=""/><g transform="translate(798.8043494899714,411.3352692788182) translate(-798.8043494899714,-411.3352692788182)"><path fill="black" stroke="none" paint-order="stroke fill markers" d=" M 785.1916800733047 404.52893457048486 L 798.8043494899714 411.3352692788182 L 785.1916800733047 418.14160398715154 Z"/></g></g><g><rect fill="white" stroke="none" x="886.768561628793" y="435.8380742288182" width="225.73082222046875" height="21.23576429"/><text fill="black" stroke="none" font-family="sans-serif" font-size="11pt" font-style="normal" font-weight="normal" text-decoration="normal" x="889.218842123793" y="450.53975719881817" text-anchor="start" dominant-baseline="alphabetic" xml:space="preserve">Check for existing queue matches</text></g><g><path fill="none" stroke="black" paint-order="fill stroke markers" d=" M 798.8043494899714 457.0738385188182 L 1187.0142786044166 457.0738385188182" stroke-miterlimit="10" stroke-width="1.3612669416666667" stroke-dasharray=""/><g transform="translate(1200.4635959880834,457.0738385188182) translate(-1200.4635959880834,-457.0738385188182)"><path fill="black" stroke="none" paint-order="stroke fill markers" d=" M 1186.8509265714167 450.26750381048487 L 1200.4635959880834 457.0738385188182 L 1186.8509265714167 463.88017322715154 Z"/></g></g><g><rect fill="white" stroke="none" x="925.0720513138516" y="481.5766434688182" width="149.12384285035156" height="21.23576429"/><text fill="black" stroke="none" font-family="sans-serif" font-size="11pt" font-style="normal" font-weight="normal" text-decoration="normal" x="927.5223318088516" y="496.27832643881817" text-anchor="start" dominant-baseline="alphabetic" xml:space="preserve">Return matched users</text></g><g><path fill="none" stroke="black" paint-order="fill stroke markers" d=" M 1200.4635959880834 502.8124077588182 L 800.8462499024714 502.8124077588182" stroke-miterlimit="10" stroke-width="1.3612669416666667" stroke-dasharray="6.53408132"/><g transform="translate(798.8043494899714,502.8124077588182) translate(-798.8043494899714,-502.8124077588182)"><path fill="none" stroke="black" paint-order="fill stroke markers" d=" M 812.7995938730254 496.56901027319475 L 800.3346493555209 502.8124077588182 L 812.7995938730254 509.0558052444417" stroke-miterlimit="10" stroke-width="1.3612669416666667"/></g></g><g><rect fill="white" stroke="none" x="818.1343400616381" y="571.4202616188181" width="167.04078926148438" height="21.23576429"/><text fill="black" stroke="none" font-family="sans-serif" font-size="11pt" font-style="normal" font-weight="normal" text-decoration="normal" x="820.5846205566381" y="586.1219445888181" text-anchor="start" dominant-baseline="alphabetic" xml:space="preserve">createGroup(GroupArgs)</text></g><g><path fill="none" stroke="black" paint-order="fill stroke markers" d=" M 798.8043494899714 592.6560259088182 L 991.0558025111225 592.6560259088182" stroke-miterlimit="10" stroke-width="1.3612669416666667" stroke-dasharray=""/><g transform="translate(1004.5051198947891,592.6560259088182) translate(-1004.5051198947891,-592.6560259088182)"><path fill="black" stroke="none" paint-order="stroke fill markers" d=" M 990.8924504781224 585.8496912004848 L 1004.5051198947891 592.6560259088182 L 990.8924504781224 599.4623606171515 Z"/></g></g><g><rect fill="white" stroke="none" x="1023.8351104664557" y="617.1588308588181" width="157.29849494996094" height="21.23576429"/><text fill="black" stroke="none" font-family="sans-serif" font-size="11pt" font-style="normal" font-weight="normal" text-decoration="normal" x="1026.2853909614557" y="631.8605138288181" text-anchor="start" dominant-baseline="alphabetic" xml:space="preserve">Save new group details</text></g><g><path fill="none" stroke="black" paint-order="fill stroke markers" d=" M 1004.5051198947891 638.3945951488181 L 1187.0142786044166 638.3945951488181" stroke-miterlimit="10" stroke-width="1.3612669416666667" stroke-dasharray=""/><g transform="translate(1200.4635959880834,638.3945951488181) translate(-1200.4635959880834,-638.3945951488181)"><path fill="black" stroke="none" paint-order="stroke fill markers" d=" M 1186.8509265714167 631.5882604404848 L 1200.4635959880834 638.3945951488181 L 1186.8509265714167 645.2009298571514 Z"/></g></g><g><rect fill="white" stroke="none" x="1057.2531326222174" y="662.897400098818" width="90.4624506384375" height="21.23576429"/><text fill="black" stroke="none" font-family="sans-serif" font-size="11pt" font-style="normal" font-weight="normal" text-decoration="normal" x="1059.7034131172175" y="677.599083068818" text-anchor="start" dominant-baseline="alphabetic" xml:space="preserve">Group stored</text></g><g><path fill="none" stroke="black" paint-order="fill stroke markers" d=" M 1200.4635959880834 684.133164388818 L 1017.9544372784558 684.133164388818" stroke-miterlimit="10" stroke-width="1.3612669416666667" stroke-dasharray="6.53408132"/><g transform="translate(1004.5051198947891,684.133164388818) translate(-1004.5051198947891,-684.133164388818)"><path fill="black" stroke="none" paint-order="stroke fill markers" d=" M 1018.1177893114558 677.3268296804847 L 1004.5051198947891 684.133164388818 L 1018.1177893114558 690.9394990971514 Z"/></g></g><g><rect fill="white" stroke="none" x="1057.7638965124845" y="708.635969338818" width="217.54182685914063" height="21.23576429"/><text fill="black" stroke="none" font-family="sans-serif" font-size="11pt" font-style="normal" font-weight="normal" text-decoration="normal" x="1060.2141770074845" y="723.337652308818" text-anchor="start" dominant-baseline="alphabetic" xml:space="preserve">Call Discord API to create server</text></g><g><path fill="none" stroke="black" paint-order="fill stroke markers" d=" M 1004.5051198947891 729.871733628818 L 1315.1151826056537 729.871733628818" stroke-miterlimit="10" stroke-width="1.3612669416666667" stroke-dasharray=""/><g transform="translate(1328.5644999893204,729.871733628818) translate(-1328.5644999893204,-729.871733628818)"><path fill="black" stroke="none" paint-order="stroke fill markers" d=" M 1314.9518305726538 723.0653989204847 L 1328.5644999893204 729.871733628818 L 1314.9518305726538 736.6780683371513 Z"/></g></g><g><rect fill="white" stroke="none" x="1090.3515735144376" y="754.3745385788179" width="152.36647285523438" height="21.23576429"/><text fill="black" stroke="none" font-family="sans-serif" font-size="11pt" font-style="normal" font-weight="normal" text-decoration="normal" x="1092.8018540094376" y="769.0762215488179" text-anchor="start" dominant-baseline="alphabetic" xml:space="preserve">Discord server created</text></g><g><path fill="none" stroke="black" paint-order="fill stroke markers" d=" M 1328.5644999893204 775.6103028688179 L 1017.9544372784558 775.6103028688179" stroke-miterlimit="10" stroke-width="1.3612669416666667" stroke-dasharray="6.53408132"/><g transform="translate(1004.5051198947891,775.6103028688179) translate(-1004.5051198947891,-775.6103028688179)"><path fill="black" stroke="none" paint-order="stroke fill markers" d=" M 1018.1177893114558 768.8039681604846 L 1004.5051198947891 775.6103028688179 L 1018.1177893114558 782.4166375771513 Z"/></g></g><g><rect fill="white" stroke="none" x="654.5429948479675" y="800.1131078188179" width="136.9191156775" height="21.23576429"/><text fill="black" stroke="none" font-family="sans-serif" font-size="11pt" font-style="normal" font-weight="normal" text-decoration="normal" x="656.9932753429675" y="814.8147907888178" text-anchor="start" dominant-baseline="alphabetic" xml:space="preserve">Return group details</text></g><g><path fill="none" stroke="black" paint-order="fill stroke markers" d=" M 1004.5051198947891 821.3488721088179 L 454.9493028623125 821.3488721088179" stroke-miterlimit="10" stroke-width="1.3612669416666667" stroke-dasharray="6.53408132"/><g transform="translate(441.49998547864584,821.3488721088179) translate(-441.49998547864584,-821.3488721088179)"><path fill="black" stroke="none" paint-order="stroke fill markers" d=" M 455.1126548953125 814.5425374004845 L 441.49998547864584 821.3488721088179 L 455.1126548953125 828.1552068171512 Z"/></g></g><g><rect fill="white" stroke="none" x="148.70116609471356" y="845.8516770588178" width="233.94127143921875" height="21.23576429"/><text fill="black" stroke="none" font-family="sans-serif" font-size="11pt" font-style="normal" font-weight="normal" text-decoration="normal" x="151.15144658971354" y="860.5533600288178" text-anchor="start" dominant-baseline="alphabetic" xml:space="preserve">Transfer to "Existing Group" screen</text></g><g><path fill="none" stroke="black" paint-order="fill stroke markers" d=" M 441.49998547864584 867.0874413488178 L 103.29293553366666 867.0874413488178" stroke-miterlimit="10" stroke-width="1.3612669416666667" stroke-dasharray=""/><g transform="translate(89.84361815,867.0874413488178) translate(-89.84361815,-867.0874413488178)"><path fill="black" stroke="none" paint-order="stroke fill markers" d=" M 103.45628756666666 860.2811066404845 L 89.84361815 867.0874413488178 L 103.45628756666666 873.8937760571512 Z"/></g></g><g><rect fill="white" stroke="none" x="152.68827241795574" y="935.6952952088177" width="225.96705879273438" height="21.23576429"/><text fill="black" stroke="none" font-family="sans-serif" font-size="11pt" font-style="normal" font-weight="normal" text-decoration="normal" x="155.13855291295573" y="950.3969781788177" text-anchor="start" dominant-baseline="alphabetic" xml:space="preserve">Wait for matchmaking to complete</text></g><g><path fill="none" stroke="black" paint-order="fill stroke markers" d=" M 89.84361815 956.9310594988177 L 428.0506680949792 956.9310594988177" stroke-miterlimit="10" stroke-width="1.3612669416666667" stroke-dasharray=""/><g transform="translate(441.49998547864584,956.9310594988177) translate(-441.49998547864584,-956.9310594988177)"><path fill="black" stroke="none" paint-order="stroke fill markers" d=" M 427.88731606197916 950.1247247904844 L 441.49998547864584 956.9310594988177 L 427.88731606197916 963.737394207151 Z"/></g></g><g><rect fill="white" stroke="none" x="109.17360872166667" y="1025.5389133588178" width="312.9963861853125" height="21.23576429"/><text fill="black" stroke="none" font-family="sans-serif" font-size="11pt" font-style="normal" font-weight="normal" text-decoration="normal" x="111.62388921666667" y="1040.240596328818" text-anchor="start" dominant-baseline="alphabetic" xml:space="preserve">Timeout reached, return to "Find Group" screen</text></g><g><path fill="none" stroke="black" paint-order="fill stroke markers" d=" M 441.49998547864584 1046.7746776488177 L 103.29293553366666 1046.7746776488177" stroke-miterlimit="10" stroke-width="1.3612669416666667" stroke-dasharray=""/><g transform="translate(89.84361815,1046.7746776488177) translate(-89.84361815,-1046.7746776488177)"><path fill="black" stroke="none" paint-order="stroke fill markers" d=" M 103.45628756666666 1039.9683429404845 L 89.84361815 1046.7746776488177 L 103.45628756666666 1053.581012357151 Z"/></g></g><g><g/><path fill="none" stroke="black" paint-order="fill stroke markers" d=" M 16.335203300000003 527.3152127088182 L 1385.7377115393203 527.3152127088182 L 1385.7377115393203 1095.7802875488176 L 16.335203300000003 1095.7802875488176 L 16.335203300000003 527.3152127088182 Z" stroke-miterlimit="10" stroke-width="2.3336004714285714" stroke-dasharray=""/><path fill="white" stroke="black" paint-order="fill stroke markers" d=" M 16.335203300000003 527.3152127088182 L 16.335203300000003 546.9174566688182 L 62.694406897070316 546.9174566688182 L 72.49552887707031 537.1163346888181 L 72.49552887707031 527.3152127088182 L 16.335203300000003 527.3152127088182" stroke-miterlimit="10" stroke-width="2.3336004714285714" stroke-dasharray=""/><text fill="black" stroke="none" font-family="sans-serif" font-size="8.8pt" font-style="normal" font-weight="bold" text-decoration="normal" x="32.67040660000001" y="540.3833753488182" text-anchor="start" dominant-baseline="alphabetic" xml:space="preserve">alt</text><g><rect fill="white" stroke="none" x="86.38045168207032" y="528.6220289728182" width="86.98182930054688" height="16.988611432000003"/></g><text fill="black" stroke="none" font-family="sans-serif" font-size="8.8pt" font-style="normal" font-weight="bold" text-decoration="normal" x="88.83073217707032" y="540.3833753488182" text-anchor="start" dominant-baseline="alphabetic" xml:space="preserve">[Group Found]</text><g><path fill="none" stroke="black" paint-order="fill stroke markers" d=" M 16.335203300000003 891.5902462988178 L 1385.7377115393203 891.5902462988178" stroke-miterlimit="10" stroke-width="2.3336004714285714" stroke-dasharray="4.083800825"/></g><g/><g><rect fill="white" stroke="none" x="86.38045168207032" y="892.8970625628177" width="154.76143135132813" height="16.988611432000003"/></g><text fill="black" stroke="none" font-family="sans-serif" font-size="8.8pt" font-style="normal" font-weight="bold" text-decoration="normal" x="88.83073217707032" y="904.6584089388177" text-anchor="start" dominant-baseline="alphabetic" xml:space="preserve">[No Suitable Group Found]</text></g><g/><g><g/><path fill="none" stroke="black" paint-order="fill stroke markers" d=" M 32.6704066 981.4338644488176 L 498.67319702864586 981.4338644488176 L 498.67319702864586 1071.2774825988176 L 32.6704066 1071.2774825988176 L 32.6704066 981.4338644488176 Z" stroke-miterlimit="10" stroke-width="2.3336004714285714" stroke-dasharray=""/><path fill="white" stroke="black" paint-order="fill stroke markers" d=" M 32.6704066 981.4338644488176 L 32.6704066 1001.0361084088177 L 79.02961019707031 1001.0361084088177 L 88.83073217707032 991.2349864288176 L 88.83073217707032 981.4338644488176 L 32.6704066 981.4338644488176" stroke-miterlimit="10" stroke-width="2.3336004714285714" stroke-dasharray=""/><text fill="black" stroke="none" font-family="sans-serif" font-size="8.8pt" font-style="normal" font-weight="bold" text-decoration="normal" x="49.005609899999996" y="994.5020270888176" text-anchor="start" dominant-baseline="alphabetic" xml:space="preserve">alt</text><g><rect fill="white" stroke="none" x="102.71565498207032" y="982.7406807128176" width="110.27000679078125" height="16.988611432000003"/></g><text fill="black" stroke="none" font-family="sans-serif" font-size="8.8pt" font-style="normal" font-weight="bold" text-decoration="normal" x="105.16593547707032" y="994.5020270888176" text-anchor="start" dominant-baseline="alphabetic" xml:space="preserve">[Timeout Reached]</text></g></g><g/><g/><g/><g/><g/><g/><g/></g></svg>