<svg xmlns="http://www.w3.org/2000/svg" xmlns:xlink="http://www.w3.org/1999/xlink" version="1.1" width="764.1407015833984" height="718.4370913188181"><desc>title%20Navigating%20to%20Existing%20Group%20Sequence%20Diagram%0A%0Aactor%20User%0Aparticipant%20Frontend%0Aparticipant%20GroupManagement%0Adatabase%20GameOnDB%0A%0AUser-%3EFrontend%3A%20Click%20Existing%20Group%20GroupID%0AFrontend-%3EGroupManagement%3A%20getGroup(GroupID)%0AGroupManagement-%3EGameOnDB%3A%20Query%20Group%20GroupID%0A%0A%0Aalt%20Group%20GroupID%20Found%0AGroupManagement%3C--GameOnDB%3A%20Return%20Group%0AFrontend%3C--GroupManagement%3A%20Return%20Group%20GroupID%0AUser%3C-Frontend%3A%20Navigate%20to%20GroupID's%20page%0A%0Aelse%20Group%20Not%20Found%0AGroupManagement%3C--GameOnDB%3A%20Return%20error%0AFrontend%3C--GroupManagement%3A%20Return%20error%0AUser%3C-Frontend%3A%20User%20remains%20on%20current%20page%0Aend</desc><defs/><g><g/><g/><g/><g/><g/><g/><g/><g/><g/><g/><g/><g/><g/><g/><g/><g/><g/><g/><g/><g/><g/><g/><g/><g/><g/><g/><g/><g/><g/><g/><g/><g/><g/><g/><g/><g/><g/><g/><g/><g/><g/><g/><g/><g/><g/><g/><g/><g/><g/><g/><g/><g/><g/><g/><g/><g/><g/><g/><g/><g/><g/><g/><g/><g/><g><rect fill="white" stroke="none" x="0" y="0" width="764" height="718"/></g><g/><g><path fill="none" stroke="black" paint-order="fill stroke markers" d=" M 73.50841485 128.73625218881818 L 73.50841485 718.4370913188181" stroke-miterlimit="10" stroke-width="1.3612669416666667" stroke-dasharray="12.565541,5.445067766666667"/><path fill="none" stroke="black" paint-order="fill stroke markers" d=" M 310.9987207772786 128.73625218881818 L 310.9987207772786 718.4370913188181" stroke-miterlimit="10" stroke-width="1.3612669416666667" stroke-dasharray="12.565541,5.445067766666667"/><path fill="none" stroke="black" paint-order="fill stroke markers" d=" M 502.85558859420564 128.73625218881818 L 502.85558859420564 718.4370913188181" stroke-miterlimit="10" stroke-width="1.3612669416666667" stroke-dasharray="12.565541,5.445067766666667"/><path fill="none" stroke="black" paint-order="fill stroke markers" d=" M 690.6322867333984 128.73625218881818 L 690.6322867333984 718.4370913188181" stroke-miterlimit="10" stroke-width="1.3612669416666667" stroke-dasharray="12.565541,5.445067766666667"/></g><g><g><path fill="white" stroke="black" paint-order="fill stroke markers" d=" M 82.819480731 59.63834222981819 A 9.311065881 9.311065881 0 1 1 82.81947607546743 59.62903116548903 M 73.50841485 68.9494081108182 L 73.50841485 88.8783561368182 M 61.747068473999995 76.13689756281819 L 85.26976122599999 76.13689756281819 M 73.50841485 88.8783561368182 L 61.747068473999995 107.50048789881819 M 73.50841485 88.8783561368182 L 85.26976122599999 107.50048789881819" stroke-miterlimit="10" stroke-width="2.7769845610000004" stroke-dasharray=""/></g><g><g/><text fill="black" stroke="none" font-family="sans-serif" font-size="11pt" font-style="normal" font-weight="normal" text-decoration="normal" x="58.032401666406244" y="123.83569119881818" text-anchor="start" dominant-baseline="alphabetic" xml:space="preserve">User</text></g><path fill="none" stroke="none"/><g><path fill="white" stroke="black" paint-order="fill stroke markers" d=" M 263.9371650893567 84.63120327881819 L 358.06027646520045 84.63120327881819 L 358.06027646520045 128.73625218881818 L 263.9371650893567 128.73625218881818 L 263.9371650893567 84.63120327881819 Z" stroke-miterlimit="10" stroke-width="2.613632528" stroke-dasharray=""/></g><g><g/><text fill="black" stroke="none" font-family="sans-serif" font-size="11pt" font-style="normal" font-weight="normal" text-decoration="normal" x="281.66086066985673" y="112.40104888881817" text-anchor="start" dominant-baseline="alphabetic" xml:space="preserve">Frontend</text></g><path fill="none" stroke="none"/><g><path fill="white" stroke="black" paint-order="fill stroke markers" d=" M 421.97513947366656 84.63120327881819 L 583.7360377147447 84.63120327881819 L 583.7360377147447 128.73625218881818 L 421.97513947366656 128.73625218881818 L 421.97513947366656 84.63120327881819 Z" stroke-miterlimit="10" stroke-width="2.613632528" stroke-dasharray=""/></g><g><g/><text fill="black" stroke="none" font-family="sans-serif" font-size="11pt" font-style="normal" font-weight="normal" text-decoration="normal" x="439.6988350541666" y="112.40104888881817" text-anchor="start" dominant-baseline="alphabetic" xml:space="preserve">GroupManagement</text></g><g><path fill="white" stroke="black" paint-order="fill stroke markers" d=" M 666.7828899153984 96.71925372081819 L 666.7828899153984 62.41532679081819 L 714.4816835513983 62.41532679081819 L 714.4816835513983 96.71925372081819" stroke-miterlimit="10" stroke-width="2.7769845610000004" stroke-dasharray=""/><path fill="white" stroke="black" paint-order="fill stroke markers" d=" M 714.4816835513983 61.22285694991819 L 714.4804910914946 61.33066749483481 L 714.4769138310286 61.43846725878678 L 714.4709521277233 61.546245461887544 L 714.4626065777439 61.65399132640659 L 714.4518780156387 61.761694077847274 L 714.4387675142549 61.86934294602419 L 714.4232763846317 61.976927166140236 L 714.4054061758691 62.084435979863045 L 714.385158674973 62.19185863640084 L 714.3625359066768 62.299184393577484 L 714.3375401332385 62.4064025189067 L 714.3101738542144 62.51350229066531 L 714.2804398062099 62.62047299896537 L 714.2483409626047 62.7273039468252 L 714.2138805332567 62.83398445123905 L 714.1770619641799 62.94050384424536 L 714.1378889372005 63.04685147399361 L 714.0963653695887 63.15301670580944 L 714.0524954136667 63.25898892325815 L 714.0062834563934 63.364757529206294 L 713.957734118926 63.47031194688142 L 713.906852256158 63.575641620929716 L 713.8536429562331 63.68073601847156 L 713.7981115400369 63.78558463015478 L 713.7402635606649 63.89017697120557 L 713.6801048028667 63.994502582477 L 713.6176412824681 64.09855103149486 L 713.5528792457688 64.20231191350096 L 713.4858251689188 64.3057748524936 L 713.4164857572699 64.40892950226505 L 713.3448679447052 64.51176554743633 L 713.2709788929466 64.61427270448858 L 713.1948259908376 64.71644072279157 L 713.1164168536047 64.81825938562858 L 713.0357593220966 64.91971851121816 L 712.9528614619992 65.02080795373233 L 712.8677315630293 65.12151760431107 L 712.7803781381059 65.22183739207324 L 712.6908099224987 65.32175728512367 L 712.5990358729547 65.42126729155632 L 712.5050651668023 65.52035746045347 L 712.4089072010337 65.6190178828808 L 712.3105715913656 65.71723869287828 L 712.2100681712768 65.81501006844678 L 712.1074069910256 65.91232223253022 L 712.0025983166446 66.00916545399325 L 711.8956526289137 66.10553004859446 L 711.7865806223127 66.20140637995469 L 711.6753932039514 66.29678486052069 L 711.5621014924789 66.39165595252388 L 711.446716816972 66.48601016893414 L 711.3292507158019 66.57983807440844 L 711.209714935481 66.67313028623443 L 711.0881214294877 66.76587747526865 L 710.9644823570713 66.85807036686953 L 710.8388100820359 66.94969974182469 L 710.7111171715045 67.04075643727302 L 710.5814163946615 67.13123134762085 L 710.4497207214765 67.22111542545254 L 710.3160433214073 67.3103996824352 L 710.1803975620824 67.39907519021754 L 710.0427970079645 67.4871330813227 L 709.9032554189946 67.57456455003492 L 709.7617867492153 67.6613608532802 L 709.6184051453755 67.74751331150055 L 709.4731249455164 67.83301330952195 L 709.3259606775365 67.91785229741582 L 709.1769270577404 68.00202179135408 L 709.0260389893655 68.08551337445749 L 708.8733115610931 68.1683186976373 L 708.7187600455388 68.25042948043021 L 708.5623998977254 68.33183751182635 L 708.4042467535371 68.41253465109044 L 708.2443164281568 68.4925128285758 L 708.0826249144836 68.5717640465313 L 707.9191883815344 68.65028037990122 L 707.7540231728258 68.72805397711764 L 707.5871458047415 68.80507706088565 L 707.418572964879 68.88134192896105 L 707.2483215103819 68.95684095492061 L 707.0764084662537 69.03156658892462 L 706.9028510236557 69.10551135847197 L 706.7276665381873 69.17866786914732 L 706.5508725281513 69.25102880536058 L 706.3724866728013 69.3225869310784 L 706.192526810574 69.39333509054786 L 706.011010937306 69.46326620901198 L 705.827957204433 69.53237329341717 L 705.643383917176 69.60064943311258 L 705.4573095327098 69.66808780054113 L 705.2697526583179 69.7346816519223 L 705.0807320495312 69.80042432792644 L 704.8902666082533 69.86530925434072 L 704.6983753808695 69.92932994272657 L 704.5050775563427 69.9924799910685 L 704.3103924642942 70.05475308441433 L 704.114339573071 70.1161429955066 L 703.9169384877988 70.17664358540536 L 703.7182089484218 70.23624880410202 L 703.518170827728 70.29495269112441 L 703.3168441293631 70.35274937613272 L 703.114248985829 70.40963307950663 L 702.9104056564712 70.46559811292322 L 702.7053345254529 70.52063887992576 L 702.4990560997162 70.57474987648341 L 702.2915910069319 70.62792569154163 L 702.0829599934361 70.68016100756323 L 701.8731839221567 70.73145060106012 L 701.6622837705257 70.78178934311569 L 701.4502806283826 70.8311721998977 L 701.237195695865 70.8795942331616 L 701.0230502812886 70.92705060074444 L 700.8078657990163 70.973536557049 L 700.5916637673171 71.01904745351838 L 700.374465806214 71.06357873910088 L 700.156293635322 71.10712596070502 L 699.9371690716764 71.14968476364494 L 699.717114027551 71.19125089207583 L 699.496150508267 71.23182018941947 L 699.274300609992 71.27138859877994 L 699.051586517531 71.30995216334925 L 698.8280305021075 71.34750702680313 L 698.603654919137 71.38404943368649 L 698.3784822059907 71.4195757297891 L 698.1525348797524 71.45408236251096 L 697.9258355349662 71.48756588121756 L 697.6984068413777 71.52002293758491 L 697.4702715416669 71.55145028593446 L 697.2414524491736 71.58184478355753 L 697.0119724456163 71.61120339102969 L 696.7818544788042 71.63952317251467 L 696.5511215603422 71.66680129605793 L 696.3197967633298 71.69303503386982 L 696.0879032200539 71.71822176259843 L 695.8554641196758 71.7423589635919 L 695.6225027059118 71.7654442231502 L 695.3890422747088 71.78747523276665 L 695.1551061719158 71.80844978935863 L 694.9207177909478 71.82836579548797 L 694.6859005704479 71.84722125957065 L 694.4506779919423 71.86501429607597 L 694.2150735774926 71.8817431257151 L 693.9791108873443 71.89740607561903 L 693.7428135175696 71.91200157950583 L 693.5062050977086 71.92552817783725 L 693.269309288406 71.93798451796474 L 693.0321497790455 71.94936935426468 L 692.7947502853804 71.95968154826289 L 692.5571345471619 71.96892006874862 L 692.3193263257663 71.97708399187748 L 692.0813494018172 71.98417250126396 L 691.8432275728088 71.99018488806304 L 691.6049846507257 71.99512055104105 L 691.3666444596613 71.99897899663581 L 691.1282308334363 72.00175983900598 L 690.8897676132145 72.00346280006961 L 690.6512786451194 72.00408770953204 L 690.4127877778488 72.00363450490285 L 690.174318860291 72.0021032315021 L 689.9358957391388 71.99949404245586 L 689.6975422565058 71.9958071986809 L 689.4592822475414 71.99104306885846 L 689.2211395380482 71.98520212939759 L 688.9831379420986 71.97828496438737 L 688.7453012596537 71.97029226553852 L 688.5076532741838 71.96122483211428 L 688.2702177502892 71.95108357085043 L 688.0330184313245 71.93986949586466 L 687.7960790370241 71.92758372855508 L 687.5594232611298 71.91422749748824 L 687.323074769022 71.89980213827607 L 687.0870571953529 71.8843090934425 L 686.8513941416834 71.86774991227908 L 686.6161091741222 71.85012625069015 L 686.3812258209703 71.83143987102717 L 686.1467675703669 71.81169264191253 L 685.9127578679421 71.79088653805269 L 685.6792201144707 71.7690236400407 L 685.4461776635338 71.74610613414815 L 685.2136538191821 71.72213631210651 L 684.9816718336062 71.69711657087802 L 684.7502549048116 71.67104941241597 L 684.5194261742981 71.64393744341446 L 684.2892087247466 71.6157833750478 L 684.05962557771 71.58659002269937 L 683.8306996913117 71.55636030568009 L 683.6024539579497 71.52509724693644 L 683.3749112020071 71.49280397274828 L 683.1480941775698 71.45948371241609 L 682.9220255661513 71.42513979793813 L 682.6967279744243 71.38977566367726 L 682.4722239319602 71.35339484601741 L 682.2485358889763 71.31600098301004 L 682.0256862140905 71.27759781401028 L 681.8036971920843 71.23818917930303 L 681.5825910216753 71.19777901971894 L 681.3623898132959 71.15637137624027 L 681.1431155868837 71.11397038959687 L 680.9247902696785 71.07058029985207 L 680.7074356940301 71.02620544597868 L 680.4910735952151 70.98085026542512 L 680.2757256092627 70.93451929367163 L 680.0614132707925 70.8872171637768 L 679.8481580108594 70.8389486059142 L 679.6359811548119 70.78971844689937 L 679.4249039201586 70.7395316097072 L 679.2149474144472 70.6883931129796 L 679.0061326331534 70.6363080705236 L 678.798480457581 70.58328169080006 L 678.5920116527749 70.52931927640276 L 678.3867468654432 70.47442622352818 L 678.1827066218938 70.41860802143584 L 677.9799113259808 70.36187025189946 L 677.778381257065 70.3042185886487 L 677.5781365679853 70.24565879680183 L 677.3791972830437 70.18619673228926 L 677.1815832960029 70.12583834126788 L 676.9853143680971 70.06458965952649 L 676.7904101260552 70.00245681188221 L 676.5968900601393 69.93944601156807 L 676.4047735221945 69.87556355961155 L 676.2140797237148 69.81081584420461 L 676.0248277339208 69.74520934006487 L 675.8370364778539 69.67875060778805 L 675.6507247344832 69.61144629319199 L 675.4659111348278 69.54330312665208 L 675.2826141600938 69.47432792242817 L 675.1008521398255 69.40452757798322 L 674.920643250074 69.3339090732935 L 674.7420055115778 69.26247947015062 L 674.5649567879618 69.19024591145539 L 674.389514783951 69.11721562050347 L 674.2156970435996 69.0433959002631 L 674.0435209485366 68.96879413264479 L 673.8730037162283 68.89341777776313 L 673.7041623982557 68.81727437319081 L 673.5370138786097 68.74037153320482 L 673.3715748720034 68.66271694802508 L 673.2078619221992 68.58431838304537 L 673.0458914003559 68.5051836780569 L 672.8856795033906 68.4253207464642 L 672.7272422523595 68.34473757449386 L 672.5705954908557 68.26344222039596 L 672.4157548834248 68.18144281363814 L 672.2627359139985 68.09874755409275 L 672.1115538843462 68.01536471121685 L 671.9622239125449 67.9313026232252 L 671.8147609314674 67.84656969625658 L 671.6691796872889 67.76117440353308 L 671.5254947380124 67.67512528451279 L 671.3837204520132 67.5884309440359 L 671.2438710066018 67.50110005146425 L 671.1059603866061 67.41314133981427 L 670.970002382973 67.32456360488388 L 670.8360105913899 67.23537570437271 L 670.7039984109242 67.14558655699653 L 670.5739790426838 67.05520514159522 L 670.4459654884973 66.96424049623502 L 670.3199705496135 66.87270171730466 L 670.1960068254211 66.78059795860575 L 670.0740867121895 66.68793843043741 L 669.954222401828 66.59473239867523 L 669.8364258806681 66.50098918384472 L 669.7207089282637 66.40671816018926 L 669.6070831162134 66.31192875473263 L 669.495559807004 66.2166304463364 L 669.3861501528734 66.120832764752 L 669.2788650946957 66.02454528966774 L 669.1737153608874 65.92777764975091 L 669.0707114663344 65.83053952168484 L 668.96986371134 65.73284062920132 L 668.871182180596 65.63469074210818 L 668.774676742173 65.53609967531233 L 668.6803570465346 65.4370772878383 L 668.5882325255716 65.33763348184232 L 668.4983123916594 65.23777820162212 L 668.4106056367365 65.13752143262249 L 668.3251210314052 65.03687320043682 L 668.2418671240549 64.93584356980442 L 668.1608522400069 64.83444264360419 L 668.082084480682 64.73268056184422 L 668.0055717227908 64.63056750064791 L 667.931321617545 64.52811367123628 L 667.8593415898935 64.42532931890689 L 667.7896388377787 64.32222472200931 L 667.7222203314183 64.21881019091732 L 667.6570928126063 64.11509606699785 L 667.5942627940403 64.01109272157687 L 667.5337365586702 63.90681055490224 L 667.4755201590687 63.80225999510374 L 667.4196194168275 63.697451497150205 L 667.366039921974 63.59239554180411 L 667.3147870324132 63.48710263457343 L 667.2658658733914 63.381583304661156 L 667.2192813369835 63.27584810391234 L 667.1750380816046 63.16990760575894 L 667.1331405315432 63.06377240416249 L 667.0935928765194 62.95745311255472 L 667.0563990712658 62.85096036277616 L 667.0215628351319 62.744304804013076 L 666.9890876517122 62.63749710173245 L 666.9589767684982 62.530547936615505 L 666.931233196553 62.423468003489624 L 666.9058597102106 62.316268010258895 L 666.8828588467986 62.208958676833305 L 666.8622329063842 62.10155073405677 L 666.843983951544 61.99405492263407 L 666.8281138071586 61.88648199205676 L 666.8146240602291 61.77884269952825 L 666.8035160597188 61.6711478088881 L 666.7947909164188 61.56340808953563 L 666.7884495028359 61.45563431535299 L 666.7844924531063 61.34783726362778 L 666.7829201629315 61.24002771397536 L 666.7837327895395 61.13221644726084 L 666.7869302516681 61.02441424452105 L 666.7925122295737 60.916631885886424 L 666.8004781650634 60.808880149503025 L 666.8108272615501 60.70116981045468 L 666.823558484133 60.59351163968555 L 666.8386705597001 60.48591640292299 L 666.8561619770567 60.378394859601016 L 666.8760309870754 60.27095776178435 L 666.8982756028721 60.163615853093255 L 666.9228936000036 60.05637986762915 L 666.9498825166905 59.949260528901206 L 666.9792396540639 59.84226854875404 L 667.0109620764345 59.7354146262965 L 667.0450466115864 59.62870944683179 L 667.0814898510944 59.52216368078894 L 667.1202881506651 59.41578798265577 L 667.1614376305008 59.30959298991343 L 667.2049341756879 59.203589321972714 L 667.2507734366079 59.09778757911208 L 667.2989508293731 58.992198341417634 L 667.3494615362844 58.88683216772516 L 667.4023005063129 58.78169959456423 L 667.4574624556061 58.67681113510454 L 667.5149418680147 58.57217727810464 L 667.5747329956455 58.46780848686303 L 667.6368298594354 58.36371519817185 L 667.7012262497499 58.25990782127324 L 667.7679157270037 58.15639673681838 L 667.8368916223045 58.053192295829454 L 667.9081470381203 57.950304818664556 L 667.981674848969 57.84774459398567 L 668.0574677021306 57.745521877729786 L 668.135518018383 57.64364689208335 L 668.2158179927598 57.54212982446004 L 668.2983595953301 57.44098082648201 L 668.3831345720029 57.340210012964775 L 668.4701344453508 57.2398274609057 L 668.5593505154592 57.13984320847635 L 668.6507738607953 57.040267254018644 L 668.7443953391008 56.94110955504505 L 668.8402055883058 56.84238002724283 L 668.9381950274654 56.74408854348249 L 669.0383538577173 56.646244932830506 L 669.1406720632618 56.54885897956639 L 669.2451394123636 56.45194042220433 L 669.3517454583751 56.35549895251929 L 669.4604795407804 56.25954421457787 L 669.5713307862617 56.16408580377391 L 669.6842881097871 56.06913326586893 L 669.7993402157182 55.974696096037604 L 669.9164755989403 55.88078373791821 L 670.0356825460127 55.7874055826683 L 670.1569491363401 55.694570968025594 L 670.2802632433645 55.60228917737418 L 670.405612535778 55.51056943881623 L 670.5329844787557 55.41942092424918 L 670.6623663352095 55.328852748448504 L 670.7937451670616 55.23887396815633 L 670.9271078365382 55.14949358117568 L 671.0624410074836 55.0607205254708 L 671.1997311466935 54.97256367827326 L 671.3389645252682 54.88503185519433 L 671.4801272199861 54.79813380934336 L 671.6232051146952 54.71187823045254 L 671.7681839017254 54.62627374400786 L 671.9150490833186 54.541328910386646 L 672.0637859730793 54.45705222400146 L 672.2143796974423 54.373452112450714 L 672.3668151971607 54.290536935675895 L 672.5210772288115 54.20831498512558 L 672.6771503663201 54.12679448292632 L 672.8350190025029 54.0459835810604 L 672.9946673506279 53.965890360550645 L 673.156079445993 53.88652283065238 L 673.3192391475235 53.80788892805245 L 673.484130139385 53.72999651607559 L 673.6507359326159 53.652853383898076 L 673.8190398667757 53.57646724576885 L 673.989025111611 53.50084574023808 L 674.1606746687393 53.42599642939328 L 674.3339713733477 53.35192679810317 L 674.5088978959102 53.278644253269164 L 674.6854367439204 53.20615612308466 L 674.8635702636404 53.13446965630228 L 675.043280641867 53.06359202150896 L 675.2245499077119 52.99353030640911 L 675.4073599343996 52.924291517115876 L 675.5916924410798 52.85588257745046 L 675.7775289946555 52.78831032824984 L 675.9648510116261 52.72158152668263 L 676.153639759946 52.65570284557336 L 676.3438763608979 52.590680872735255 L 676.53554179098 52.52652211031142 L 676.7286168838091 52.463232974124615 L 676.9230823320368 52.40081979303573 L 677.1189186892803 52.33928880831086 L 677.3161063720671 52.278646172997206 L 677.5146256617934 52.21889795130775 L 677.7144567066954 52.160050118014894 L 677.9155795238352 52.1021085578529 L 678.1179740010988 52.045079064929524 L 678.3216198992071 51.98896734214652 L 678.5264968537399 51.933779000629414 L 678.7325843771725 51.87951955916637 L 678.9398618609245 51.826194443656306 L 679.1483085774199 51.77380898656634 L 679.3579036821611 51.72236842639853 L 679.5686262158121 51.67187790716602 L 679.7804551062951 51.622342477878675 L 679.9933691708977 51.57376709203812 L 680.2073471183909 51.526156607142475 L 680.4223675511581 51.47951578420055 L 680.6384089673353 51.43384928725578 L 680.8554497629608 51.38916168291979 L 681.0734682341362 51.34545743991578 L 681.2924425791957 51.302740928631636 L 681.5123509008874 51.261016420682886 L 681.7331712085627 51.220288088485546 L 681.9548814203744 51.18056000483891 L 682.1774593654862 51.14183614251822 L 682.4008827862892 51.10412037387746 L 682.6251293406274 51.06741647046204 L 682.8501766040323 51.03172810263173 L 683.076002071965 50.99705883919358 L 683.3025831620671 50.96341214704502 L 683.5298972164182 50.930791390827245 L 683.7579215038023 50.899199832588685 L 683.9866332219808 50.86864063145883 L 684.2160094999724 50.83911684333235 L 684.4460274003405 50.81063142056343 L 684.6766639214867 50.78318721167063 L 684.907895999951 50.75678696105195 L 685.1397005127184 50.731433308710464 L 685.3720542795307 50.70712878999027 L 685.6049340652049 50.683875835323 L 685.8383165819565 50.66167676998473 L 686.0721784917283 50.6405338138635 L 686.3064964085241 50.6204490812373 L 686.5412469007476 50.60142458056266 L 686.7764064935452 50.583462214273794 L 687.0119516711536 50.566563778592354 L 687.2478588792512 50.55073096334783 L 687.484104527314 50.53596535180856 L 687.7206649909738 50.52226842052339 L 687.9575166143816 50.50964153917403 L 688.1946357125722 50.49808597043808 L 688.4319985738337 50.48760286986282 L 688.6695814620774 50.47819328574954 L 688.9073606192127 50.46985815904882 L 689.1453122675221 50.462598323266384 L 689.3834126120388 50.456414504379765 L 689.6216378429269 50.45130732076569 L 689.859964137862 50.44727728313828 L 690.098367664413 50.444324794497916 L 690.3368245824258 50.44245015009101 L 690.5753110464077 50.44165353738045 L 690.8138032079107 50.44193503602685 L 691.0522772179175 50.443294617880554 L 691.290709229226 50.445732146984525 L 691.5290753988335 50.44924737958788 L 691.7673518903217 50.45383996417029 L 692.0055148762402 50.459509441477124 L 692.2435405404888 50.46625524456538 L 692.4814050806992 50.474076698860365 L 692.7190847106159 50.48297302222316 L 692.956555662474 50.49294332502887 L 693.1937941893759 50.50398661025549 L 693.4307765676668 50.51610177358371 L 693.6674790993064 50.52928760350731 L 693.9038781142388 50.54354278145426 L 694.1399499727594 50.55886588191867 L 694.375671067879 50.575255372603245 L 694.6110178276847 50.592709614572584 L 694.8459667176966 50.61122686241703 L 695.0804942432213 50.630805264427224 L 695.3145769517021 50.651442862779284 L 695.5481914350628 50.67313759373059 L 695.7813143320499 50.695887287826096 L 696.013922330568 50.71968967011537 L 696.245992170011 50.74454236038002 L 696.4775006435885 50.77044287337172 L 696.708424600646 50.797388619060754 L 696.9387409489802 50.825376902895016 L 697.1684266571482 50.85440492606945 L 697.3974587567706 50.88446978580591 L 697.6258143448282 50.9155684756435 L 697.8534705859527 50.947697885739125 L 698.0804047147094 50.980854803178566 L 698.3065940378748 51.01503591229771 L 698.5320159367051 51.05023779501413 L 698.756647869198 51.08645693116888 L 698.9804673723477 51.12368969887854 L 699.2034520643903 51.16193237489736 L 699.4255796470422 51.201181134989596 L 699.6468279077308 51.241432054311964 L 699.8671747218139 51.28268110780607 L 700.0865980547937 51.32492417060092 L 700.3050759645201 51.368157018425464 L 700.5225866033841 51.41237532803093 L 700.7391082205029 51.45757467762322 L 700.9546191638952 51.503750547305025 L 701.1690978826465 51.55089831952786 L 701.3825229290635 51.5990132795538 L 701.5948729608194 51.64809061592693 L 701.8061267430882 51.69812542095451 L 702.0162631506673 51.749112691197745 L 702.2252611700914 51.801047327972086 L 702.4330999017326 51.85392413785714 L 702.6397585618909 51.90773783321599 L 702.8452164848726 51.962483032723924 L 703.0494531250565 52.01815426190663 L 703.2524480589489 52.07474595368758 L 703.4541809872254 52.132252448944755 L 703.6546317367615 52.190667997076545 L 703.8537802626491 52.24998675657682 L 704.0516066502017 52.310202795619055 L 704.2480911169454 52.371310092649544 L 704.4432140145972 52.43330253698949 L 704.6369558310299 52.49617392944612 L 704.8292971922233 52.559917982932596 L 705.0202188642018 52.62452832309667 L 705.2097017549569 52.68999848895818 L 705.3977269163578 52.7563219335551 L 705.5842755460449 52.823492024598224 L 705.7693289893106 52.89150204513444 L 705.9528687409648 52.960345194218355 L 706.1348764471855 53.03001458759244 L 706.3153339073536 53.10050325837541 L 706.4942230758735 53.171804157758935 L 706.6715260639772 53.243910155712484 L 706.8472251415141 53.31681404169635 L 707.0213027387224 53.39050852538269 L 707.1937414479877 53.46498623738456 L 707.3645240255827 53.5402397299928 L 707.5336333933919 53.61626147792087 L 707.7010526406195 53.69304387905734 L 707.8667650254804 53.770579255226075 L 708.030753976874 53.848859852954064 L 708.193003096042 53.92787784424677 L 708.3534961582077 54.00762532737092 L 708.5122171141985 54.08809432764465 L 708.669150092051 54.16927679823499 L 708.8242793985984 54.251164620962534 L 708.9775895210392 54.33374960711325 L 709.129065128489 54.41702349825734 L 709.2786910735131 54.500977967075094 L 709.4264523936419 54.58560461818958 L 709.5723343128664 54.670894989006214 L 709.7163222431162 54.75684055055899 L 709.8584017857185 54.84343270836337 L 709.9985587328372 54.93066280327574 L 710.1367790688944 55.0185221123593 L 710.2730489719718 55.107001849756344 L 710.4073548151925 55.196093167566886 L 710.5396831680844 55.28578715673337 L 710.670020797922 55.37607484793163 L 710.7983546710514 55.46694721246779 L 710.924671954192 55.55839516318112 L 711.0489600157207 55.65040955535275 L 711.1712064269351 55.742981187620146 L 711.2913989632958 55.83610080289723 L 711.4095256056495 55.92975908930006 L 711.5255745414302 56.02394668107806 L 711.639534165841 56.11865415955053 L 711.7513930830147 56.213872054048544 L 711.8611401071526 56.30959084286201 L 711.9687642636437 56.405800954191804 L 712.0742547901622 56.50249276710697 L 712.1776011377432 56.5996566125068 L 712.2787929718381 56.69728277408771 L 712.377820173348 56.79536148931491 L 712.474672839635 56.89388295039859 L 712.5693412855134 56.99283730527477 L 712.6618160442173 57.09221465859041 L 712.7520878683481 57.19200507269298 L 712.8401477307984 57.29219856862425 L 712.9259868256555 57.39278512711811 L 713.0095965690815 57.49375468960253 L 713.0909686001714 57.59509715920541 L 713.1700947817903 57.69680240176424 L 713.2469672013858 57.79886024683951 L 713.32157817178 57.90126048873177 L 713.393920231938 58.003992887502164 L 713.4639861477142 58.10704716999642 L 713.5317689125752 58.21041303087217 L 713.5972617483012 58.31408013362946 L 713.6604581056631 58.41803811164441 L 713.7213516650778 58.52227656920584 L 713.7799363372402 58.62678508255487 L 713.8362062637318 58.731553200927245 L 713.890155817607 58.83657044759845 L 713.9417796039553 58.94182632093131 L 713.9910724604409 59.04731029542622 L 714.0380294578196 59.153011822773635 L 714.0826459004304 59.25892033290889 L 714.1249173266665 59.36502523506925 L 714.1648395094203 59.471315918852895 L 714.202408456507 59.57778175528004 L 714.237620411063 59.684412097855756 L 714.2704718519224 59.79119628363465 L 714.3009594939682 59.89812363428712 L 714.3290802884619 60.005183457167206 L 714.3548314233473 60.11236504638185 L 714.3782103235325 60.21965768386144 L 714.3992146511467 60.327050640431644 L 714.417842305775 60.43453317688629 L 714.4340914246673 60.5420945450613 L 714.4479603829252 60.6497239889095 L 714.4594477936645 60.757410745576195 L 714.4685525081536 60.86514404647545 L 714.4752736159288 60.972913118366954 L 714.4796104448848 61.08070718443333 L 714.4815625613423 61.188515465357796 M 714.4816835513983 95.52678387991818 L 714.4804910914946 95.6345944248348 L 714.4769138310286 95.74239418878678 L 714.4709521277233 95.85017239188754 L 714.4626065777439 95.95791825640659 L 714.4518780156387 96.06562100784727 L 714.4387675142549 96.1732698760242 L 714.4232763846317 96.28085409614023 L 714.4054061758691 96.38836290986303 L 714.385158674973 96.49578556640084 L 714.3625359066768 96.60311132357748 L 714.3375401332385 96.7103294489067 L 714.3101738542144 96.8174292206653 L 714.2804398062099 96.92439992896537 L 714.2483409626047 97.0312308768252 L 714.2138805332567 97.13791138123905 L 714.1770619641799 97.24443077424536 L 714.1378889372005 97.35077840399362 L 714.0963653695887 97.45694363580944 L 714.0524954136667 97.56291585325815 L 714.0062834563934 97.66868445920629 L 713.957734118926 97.77423887688141 L 713.906852256158 97.8795685509297 L 713.8536429562331 97.98466294847155 L 713.7981115400369 98.08951156015478 L 713.7402635606649 98.19410390120557 L 713.6801048028667 98.29842951247699 L 713.6176412824681 98.40247796149485 L 713.5528792457688 98.50623884350097 L 713.4858251689188 98.60970178249359 L 713.4164857572699 98.71285643226504 L 713.3448679447052 98.81569247743631 L 713.2709788929466 98.91819963448859 L 713.1948259908376 99.02036765279156 L 713.1164168536047 99.12218631562857 L 713.0357593220966 99.22364544121817 L 712.9528614619992 99.32473488373233 L 712.8677315630293 99.42544453431107 L 712.7803781381059 99.52576432207324 L 712.6908099224987 99.62568421512367 L 712.5990358729547 99.72519422155631 L 712.5050651668023 99.82428439045346 L 712.4089072010337 99.92294481288079 L 712.3105715913656 100.02116562287829 L 712.2100681712768 100.11893699844678 L 712.1074069910256 100.2162491625302 L 712.0025983166446 100.31309238399325 L 711.8956526289137 100.40945697859446 L 711.7865806223127 100.50533330995468 L 711.6753932039514 100.60071179052068 L 711.5621014924789 100.69558288252388 L 711.446716816972 100.78993709893413 L 711.3292507158019 100.88376500440843 L 711.209714935481 100.97705721623441 L 711.0881214294877 101.06980440526866 L 710.9644823570713 101.16199729686952 L 710.8388100820359 101.25362667182469 L 710.7111171715045 101.34468336727302 L 710.5814163946615 101.43515827762084 L 710.4497207214765 101.52504235545253 L 710.3160433214073 101.61432661243519 L 710.1803975620824 101.70300212021755 L 710.0427970079645 101.7910600113227 L 709.9032554189946 101.87849148003492 L 709.7617867492153 101.9652877832802 L 709.6184051453755 102.05144024150056 L 709.4731249455164 102.13694023952193 L 709.3259606775365 102.22177922741581 L 709.1769270577404 102.30594872135407 L 709.0260389893655 102.38944030445748 L 708.8733115610931 102.47224562763729 L 708.7187600455388 102.5543564104302 L 708.5623998977254 102.63576444182635 L 708.4042467535371 102.71646158109044 L 708.2443164281568 102.79643975857579 L 708.0826249144836 102.8756909765313 L 707.9191883815344 102.95420730990122 L 707.7540231728258 103.03198090711763 L 707.5871458047415 103.10900399088564 L 707.418572964879 103.18526885896105 L 707.2483215103819 103.2607678849206 L 707.0764084662537 103.33549351892461 L 706.9028510236557 103.40943828847196 L 706.7276665381873 103.48259479914732 L 706.5508725281513 103.55495573536056 L 706.3724866728013 103.6265138610784 L 706.192526810574 103.69726202054787 L 706.011010937306 103.76719313901197 L 705.827957204433 103.83630022341715 L 705.643383917176 103.90457636311257 L 705.4573095327098 103.97201473054113 L 705.2697526583179 104.03860858192229 L 705.0807320495312 104.10435125792642 L 704.8902666082533 104.1692361843407 L 704.6983753808695 104.23325687272656 L 704.5050775563427 104.29640692106851 L 704.3103924642942 104.35868001441433 L 704.114339573071 104.4200699255066 L 703.9169384877988 104.48057051540535 L 703.7182089484218 104.54017573410202 L 703.518170827728 104.5988796211244 L 703.3168441293631 104.65667630613272 L 703.114248985829 104.71356000950664 L 702.9104056564712 104.7695250429232 L 702.7053345254529 104.82456580992574 L 702.4990560997162 104.87867680648341 L 702.2915910069319 104.93185262154162 L 702.0829599934361 104.98408793756322 L 701.8731839221567 105.0353775310601 L 701.6622837705257 105.08571627311568 L 701.4502806283826 105.13509912989768 L 701.237195695865 105.1835211631616 L 701.0230502812886 105.23097753074444 L 700.8078657990163 105.27746348704899 L 700.5916637673171 105.32297438351839 L 700.374465806214 105.36750566910086 L 700.156293635322 105.41105289070501 L 699.9371690716764 105.45361169364494 L 699.717114027551 105.49517782207583 L 699.496150508267 105.53574711941947 L 699.274300609992 105.57531552877992 L 699.051586517531 105.61387909334925 L 698.8280305021075 105.65143395680312 L 698.603654919137 105.68797636368647 L 698.3784822059907 105.72350265978909 L 698.1525348797524 105.75800929251095 L 697.9258355349662 105.79149281121755 L 697.6984068413777 105.82394986758491 L 697.4702715416669 105.85537721593445 L 697.2414524491736 105.88577171355752 L 697.0119724456163 105.9151303210297 L 696.7818544788042 105.94345010251467 L 696.5511215603422 105.97072822605791 L 696.3197967633298 105.99696196386981 L 696.0879032200539 106.02214869259844 L 695.8554641196758 106.04628589359189 L 695.6225027059118 106.0693711531502 L 695.3890422747088 106.09140216276666 L 695.1551061719158 106.11237671935864 L 694.9207177909478 106.13229272548797 L 694.6859005704479 106.15114818957065 L 694.4506779919423 106.16894122607596 L 694.2150735774926 106.1856700557151 L 693.9791108873443 106.20133300561903 L 693.7428135175696 106.21592850950582 L 693.5062050977086 106.22945510783724 L 693.269309288406 106.24191144796474 L 693.0321497790455 106.25329628426466 L 692.7947502853804 106.2636084782629 L 692.5571345471619 106.2728469987486 L 692.3193263257663 106.28101092187747 L 692.0813494018172 106.28809943126396 L 691.8432275728088 106.29411181806304 L 691.6049846507257 106.29904748104106 L 691.3666444596613 106.30290592663582 L 691.1282308334363 106.30568676900597 L 690.8897676132145 106.30738973006962 L 690.6512786451194 106.30801463953205 L 690.4127877778488 106.30756143490284 L 690.174318860291 106.3060301615021 L 689.9358957391388 106.30342097245587 L 689.6975422565058 106.29973412868088 L 689.4592822475414 106.29496999885845 L 689.2211395380482 106.28912905939758 L 688.9831379420986 106.28221189438736 L 688.7453012596537 106.27421919553852 L 688.5076532741838 106.26515176211427 L 688.2702177502892 106.25501050085043 L 688.0330184313245 106.24379642586464 L 687.7960790370241 106.23151065855508 L 687.5594232611298 106.21815442748823 L 687.323074769022 106.20372906827606 L 687.0870571953529 106.1882360234425 L 686.8513941416834 106.17167684227908 L 686.6161091741222 106.15405318069014 L 686.3812258209703 106.13536680102716 L 686.1467675703669 106.11561957191253 L 685.9127578679421 106.09481346805269 L 685.6792201144707 106.0729505700407 L 685.4461776635338 106.05003306414814 L 685.2136538191821 106.0260632421065 L 684.9816718336062 106.00104350087803 L 684.7502549048116 105.97497634241597 L 684.5194261742981 105.94786437341445 L 684.2892087247466 105.9197103050478 L 684.05962557771 105.89051695269937 L 683.8306996913117 105.86028723568009 L 683.6024539579497 105.82902417693644 L 683.3749112020071 105.79673090274827 L 683.1480941775698 105.76341064241608 L 682.9220255661513 105.72906672793813 L 682.6967279744243 105.69370259367726 L 682.4722239319602 105.6573217760174 L 682.2485358889763 105.61992791301003 L 682.0256862140905 105.58152474401028 L 681.8036971920843 105.54211610930304 L 681.5825910216753 105.50170594971894 L 681.3623898132959 105.46029830624026 L 681.1431155868837 105.41789731959686 L 680.9247902696785 105.37450722985206 L 680.7074356940301 105.33013237597868 L 680.4910735952151 105.28477719542511 L 680.2757256092627 105.23844622367163 L 680.0614132707925 105.1911440937768 L 679.8481580108594 105.14287553591419 L 679.6359811548119 105.09364537689936 L 679.4249039201586 105.0434585397072 L 679.2149474144472 104.99232004297959 L 679.0061326331534 104.9402350005236 L 678.798480457581 104.88720862080007 L 678.5920116527749 104.83324620640276 L 678.3867468654432 104.77835315352817 L 678.1827066218938 104.72253495143585 L 677.9799113259808 104.66579718189945 L 677.778381257065 104.60814551864868 L 677.5781365679853 104.54958572680184 L 677.3791972830437 104.49012366228926 L 677.1815832960029 104.42976527126788 L 676.9853143680971 104.36851658952648 L 676.7904101260552 104.30638374188221 L 676.5968900601393 104.24337294156805 L 676.4047735221945 104.17949048961154 L 676.2140797237148 104.11474277420461 L 676.0248277339208 104.04913627006486 L 675.8370364778539 103.98267753778805 L 675.6507247344832 103.91537322319199 L 675.4659111348278 103.84723005665208 L 675.2826141600938 103.77825485242818 L 675.1008521398255 103.70845450798322 L 674.920643250074 103.63783600329349 L 674.7420055115778 103.56640640015061 L 674.5649567879618 103.49417284145538 L 674.389514783951 103.42114255050346 L 674.2156970435996 103.3473228302631 L 674.0435209485366 103.27272106264479 L 673.8730037162283 103.19734470776314 L 673.7041623982557 103.1212013031908 L 673.5370138786097 103.04429846320481 L 673.3715748720034 102.96664387802507 L 673.2078619221992 102.88824531304537 L 673.0458914003559 102.8091106080569 L 672.8856795033906 102.72924767646418 L 672.7272422523595 102.64866450449387 L 672.5705954908557 102.56736915039596 L 672.4157548834248 102.48536974363815 L 672.2627359139985 102.40267448409276 L 672.1115538843462 102.31929164121684 L 671.9622239125449 102.2352295532252 L 671.8147609314674 102.15049662625658 L 671.6691796872889 102.06510133353308 L 671.5254947380124 101.97905221451278 L 671.3837204520132 101.89235787403591 L 671.2438710066018 101.80502698146424 L 671.1059603866061 101.71706826981428 L 670.970002382973 101.62849053488388 L 670.8360105913899 101.53930263437272 L 670.7039984109242 101.44951348699652 L 670.5739790426838 101.35913207159521 L 670.4459654884973 101.26816742623502 L 670.3199705496135 101.17662864730465 L 670.1960068254211 101.08452488860574 L 670.0740867121895 100.9918653604374 L 669.954222401828 100.89865932867522 L 669.8364258806681 100.80491611384473 L 669.7207089282637 100.71064509018925 L 669.6070831162134 100.61585568473262 L 669.495559807004 100.5205573763364 L 669.3861501528734 100.424759694752 L 669.2788650946957 100.32847221966773 L 669.1737153608874 100.2317045797509 L 669.0707114663344 100.13446645168483 L 668.96986371134 100.03676755920131 L 668.871182180596 99.93861767210817 L 668.774676742173 99.84002660531232 L 668.6803570465346 99.7410042178383 L 668.5882325255716 99.64156041184232 L 668.4983123916594 99.54170513162211 L 668.4106056367365 99.4414483626225 L 668.3251210314052 99.34080013043682 L 668.2418671240549 99.23977049980442 L 668.1608522400069 99.13836957360418 L 668.082084480682 99.03660749184422 L 668.0055717227908 98.9344944306479 L 667.931321617545 98.83204060123627 L 667.8593415898935 98.72925624890688 L 667.7896388377787 98.6261516520093 L 667.7222203314183 98.52273712091731 L 667.6570928126063 98.41902299699785 L 667.5942627940403 98.31501965157686 L 667.5337365586702 98.21073748490224 L 667.4755201590687 98.10618692510373 L 667.4196194168275 98.0013784271502 L 667.366039921974 97.89632247180411 L 667.3147870324132 97.79102956457344 L 667.2658658733914 97.68551023466115 L 667.2192813369835 97.57977503391233 L 667.1750380816046 97.47383453575894 L 667.1331405315432 97.3676993341625 L 667.0935928765194 97.2613800425547 L 667.0563990712658 97.15488729277617 L 667.0215628351319 97.04823173401307 L 666.9890876517122 96.94142403173245 L 666.9589767684982 96.8344748666155 L 666.931233196553 96.72739493348962 L 666.9058597102106 96.6201949402589 L 666.8828588467986 96.51288560683331 L 666.8622329063842 96.40547766405678 L 666.843983951544 96.29798185263407 L 666.8281138071586 96.19040892205675 L 666.8146240602291 96.08276962952824 L 666.8035160597188 95.9750747388881 L 666.7947909164188 95.86733501953563 L 666.7884495028359 95.75956124535298 L 666.7844924531063 95.65176419362778 L 666.7829201629315 95.54395464397535" stroke-miterlimit="10" stroke-width="2.7769845610000004" stroke-dasharray=""/></g><g><g/><text fill="black" stroke="none" font-family="sans-serif" font-size="11pt" font-style="normal" font-weight="normal" text-decoration="normal" x="650.7110220849609" y="123.83569119881818" text-anchor="start" dominant-baseline="alphabetic" xml:space="preserve">GameOnDB</text></g></g><g><g><text fill="black" stroke="none" font-family="sans-serif" font-size="16pt" font-style="normal" font-weight="normal" text-decoration="normal" x="152.57776641845703" y="24.651306798181814" text-anchor="start" dominant-baseline="alphabetic" xml:space="preserve">Navigating to Existing Group Sequence Diagram</text></g><g><rect fill="white" stroke="none" x="94.07318477957678" y="161.4066587888182" width="196.360766068125" height="21.23576429"/><text fill="black" stroke="none" font-family="sans-serif" font-size="11pt" font-style="normal" font-weight="normal" text-decoration="normal" x="96.52346527457678" y="176.10834175881817" text-anchor="start" dominant-baseline="alphabetic" xml:space="preserve">Click Existing Group GroupID</text></g><g><path fill="none" stroke="black" paint-order="fill stroke markers" d=" M 73.50841485 182.64242307881818 L 297.54940339361195 182.64242307881818" stroke-miterlimit="10" stroke-width="1.3612669416666667" stroke-dasharray=""/><g transform="translate(310.9987207772786,182.64242307881818) translate(-310.9987207772786,-182.64242307881818)"><path fill="black" stroke="none" paint-order="stroke fill markers" d=" M 297.38605136061193 175.83608837048484 L 310.9987207772786 182.64242307881818 L 297.38605136061193 189.44875778715152 Z"/></g></g><g><rect fill="white" stroke="none" x="341.3308628382031" y="207.1452280288182" width="131.19258369507813" height="21.23576429"/><text fill="black" stroke="none" font-family="sans-serif" font-size="11pt" font-style="normal" font-weight="normal" text-decoration="normal" x="343.7811433332031" y="221.84691099881817" text-anchor="start" dominant-baseline="alphabetic" xml:space="preserve">getGroup(GroupID)</text></g><g><path fill="none" stroke="black" paint-order="fill stroke markers" d=" M 310.9987207772786 228.3809923188182 L 489.406271210539 228.3809923188182" stroke-miterlimit="10" stroke-width="1.3612669416666667" stroke-dasharray=""/><g transform="translate(502.85558859420564,228.3809923188182) translate(-502.85558859420564,-228.3809923188182)"><path fill="black" stroke="none" paint-order="stroke fill markers" d=" M 489.24291917753897 221.57465761048485 L 502.85558859420564 228.3809923188182 L 489.24291917753897 235.18732702715153 Z"/></g></g><g><rect fill="white" stroke="none" x="522.1855791658722" y="252.88379726881823" width="149.11671699585938" height="21.23576429"/><text fill="black" stroke="none" font-family="sans-serif" font-size="11pt" font-style="normal" font-weight="normal" text-decoration="normal" x="524.6358596608723" y="267.5854802388182" text-anchor="start" dominant-baseline="alphabetic" xml:space="preserve">Query Group GroupID</text></g><g><path fill="none" stroke="black" paint-order="fill stroke markers" d=" M 502.85558859420564 274.1195615588182 L 677.1829693497317 274.1195615588182" stroke-miterlimit="10" stroke-width="1.3612669416666667" stroke-dasharray=""/><g transform="translate(690.6322867333984,274.1195615588182) translate(-690.6322867333984,-274.1195615588182)"><path fill="black" stroke="none" paint-order="stroke fill markers" d=" M 677.0196173167317 267.31322685048485 L 690.6322867333984 274.1195615588182 L 677.0196173167317 280.92589626715153 Z"/></g></g><g><rect fill="white" stroke="none" x="549.8842180818879" y="342.72741541881817" width="93.71943916382813" height="21.23576429"/><text fill="black" stroke="none" font-family="sans-serif" font-size="11pt" font-style="normal" font-weight="normal" text-decoration="normal" x="552.3344985768879" y="357.42909838881815" text-anchor="start" dominant-baseline="alphabetic" xml:space="preserve">Return Group</text></g><g><path fill="none" stroke="black" paint-order="fill stroke markers" d=" M 690.6322867333984 363.9631797088182 L 516.3049059778723 363.9631797088182" stroke-miterlimit="10" stroke-width="1.3612669416666667" stroke-dasharray="6.53408132"/><g transform="translate(502.85558859420564,363.9631797088182) translate(-502.85558859420564,-363.9631797088182)"><path fill="black" stroke="none" paint-order="stroke fill markers" d=" M 516.4682580108723 357.15684500048485 L 502.85558859420564 363.9631797088182 L 516.4682580108723 370.7695144171515 Z"/></g></g><g><rect fill="white" stroke="none" x="330.32871134894526" y="388.4659846588182" width="153.19688667359375" height="21.23576429"/><text fill="black" stroke="none" font-family="sans-serif" font-size="11pt" font-style="normal" font-weight="normal" text-decoration="normal" x="332.7789918439453" y="403.16766762881815" text-anchor="start" dominant-baseline="alphabetic" xml:space="preserve">Return Group GroupID</text></g><g><path fill="none" stroke="black" paint-order="fill stroke markers" d=" M 502.85558859420564 409.7017489488182 L 324.44803816094526 409.7017489488182" stroke-miterlimit="10" stroke-width="1.3612669416666667" stroke-dasharray="6.53408132"/><g transform="translate(310.9987207772786,409.7017489488182) translate(-310.9987207772786,-409.7017489488182)"><path fill="black" stroke="none" paint-order="stroke fill markers" d=" M 324.6113901939453 402.89541424048485 L 310.9987207772786 409.7017489488182 L 324.6113901939453 416.50808365715153 Z"/></g></g><g><rect fill="white" stroke="none" x="99.57783108084631" y="434.2045538988182" width="185.35147346558594" height="21.23576429"/><text fill="black" stroke="none" font-family="sans-serif" font-size="11pt" font-style="normal" font-weight="normal" text-decoration="normal" x="102.02811157584631" y="448.90623686881816" text-anchor="start" dominant-baseline="alphabetic" xml:space="preserve">Navigate to GroupID's page</text></g><g><path fill="none" stroke="black" paint-order="fill stroke markers" d=" M 310.9987207772786 455.4403181888182 L 86.95773223366666 455.4403181888182" stroke-miterlimit="10" stroke-width="1.3612669416666667" stroke-dasharray=""/><g transform="translate(73.50841485,455.4403181888182) translate(-73.50841485,-455.4403181888182)"><path fill="black" stroke="none" paint-order="stroke fill markers" d=" M 87.12108426666666 448.63398348048486 L 73.50841485 455.4403181888182 L 87.12108426666666 462.24665289715153 Z"/></g></g><g><rect fill="white" stroke="none" x="554.7804354280793" y="524.0481720488182" width="83.92700447144531" height="21.23576429"/><text fill="black" stroke="none" font-family="sans-serif" font-size="11pt" font-style="normal" font-weight="normal" text-decoration="normal" x="557.2307159230793" y="538.7498550188182" text-anchor="start" dominant-baseline="alphabetic" xml:space="preserve">Return error</text></g><g><path fill="none" stroke="black" paint-order="fill stroke markers" d=" M 690.6322867333984 545.2839363388182 L 516.3049059778723 545.2839363388182" stroke-miterlimit="10" stroke-width="1.3612669416666667" stroke-dasharray="6.53408132"/><g transform="translate(502.85558859420564,545.2839363388182) translate(-502.85558859420564,-545.2839363388182)"><path fill="black" stroke="none" paint-order="stroke fill markers" d=" M 516.4682580108723 538.4776016304849 L 502.85558859420564 545.2839363388182 L 516.4682580108723 552.0902710471515 Z"/></g></g><g><rect fill="white" stroke="none" x="364.9636524500195" y="569.7867412888181" width="83.92700447144531" height="21.23576429"/><text fill="black" stroke="none" font-family="sans-serif" font-size="11pt" font-style="normal" font-weight="normal" text-decoration="normal" x="367.4139329450195" y="584.4884242588181" text-anchor="start" dominant-baseline="alphabetic" xml:space="preserve">Return error</text></g><g><path fill="none" stroke="black" paint-order="fill stroke markers" d=" M 502.85558859420564 591.0225055788181 L 324.44803816094526 591.0225055788181" stroke-miterlimit="10" stroke-width="1.3612669416666667" stroke-dasharray="6.53408132"/><g transform="translate(310.9987207772786,591.0225055788181) translate(-310.9987207772786,-591.0225055788181)"><path fill="black" stroke="none" paint-order="stroke fill markers" d=" M 324.6113901939453 584.2161708704848 L 310.9987207772786 591.0225055788181 L 324.6113901939453 597.8288402871515 Z"/></g></g><g><rect fill="white" stroke="none" x="92.83840542166662" y="615.5253105288181" width="198.83032478394531" height="21.23576429"/><text fill="black" stroke="none" font-family="sans-serif" font-size="11pt" font-style="normal" font-weight="normal" text-decoration="normal" x="95.28868591666662" y="630.226993498818" text-anchor="start" dominant-baseline="alphabetic" xml:space="preserve">User remains on current page</text></g><g><path fill="none" stroke="black" paint-order="fill stroke markers" d=" M 310.9987207772786 636.7610748188181 L 86.95773223366666 636.7610748188181" stroke-miterlimit="10" stroke-width="1.3612669416666667" stroke-dasharray=""/><g transform="translate(73.50841485,636.7610748188181) translate(-73.50841485,-636.7610748188181)"><path fill="black" stroke="none" paint-order="stroke fill markers" d=" M 87.12108426666666 629.9547401104847 L 73.50841485 636.7610748188181 L 87.12108426666666 643.5674095271514 Z"/></g></g><g><g/><path fill="none" stroke="black" paint-order="fill stroke markers" d=" M 16.335203299999996 298.6223665088182 L 747.8054982833984 298.6223665088182 L 747.8054982833984 661.2638797688181 L 16.335203299999996 661.2638797688181 L 16.335203299999996 298.6223665088182 Z" stroke-miterlimit="10" stroke-width="2.3336004714285714" stroke-dasharray=""/><path fill="white" stroke="black" paint-order="fill stroke markers" d=" M 16.335203299999996 298.6223665088182 L 16.335203299999996 318.2246104688182 L 62.69440689707031 318.2246104688182 L 72.49552887707031 308.4234884888182 L 72.49552887707031 298.6223665088182 L 16.335203299999996 298.6223665088182" stroke-miterlimit="10" stroke-width="2.3336004714285714" stroke-dasharray=""/><text fill="black" stroke="none" font-family="sans-serif" font-size="8.8pt" font-style="normal" font-weight="bold" text-decoration="normal" x="32.67040659999999" y="311.6905291488182" text-anchor="start" dominant-baseline="alphabetic" xml:space="preserve">alt</text><g><rect fill="white" stroke="none" x="86.38045168207032" y="299.9291827728182" width="137.1550012976172" height="16.988611432000003"/></g><text fill="black" stroke="none" font-family="sans-serif" font-size="8.8pt" font-style="normal" font-weight="bold" text-decoration="normal" x="88.83073217707032" y="311.6905291488182" text-anchor="start" dominant-baseline="alphabetic" xml:space="preserve">[Group GroupID Found]</text><g><path fill="none" stroke="black" paint-order="fill stroke markers" d=" M 16.335203299999996 479.9431231388182 L 747.8054982833984 479.9431231388182" stroke-miterlimit="10" stroke-width="2.3336004714285714" stroke-dasharray="4.083800825"/></g><g/><g><rect fill="white" stroke="none" x="86.38045168207032" y="481.2499394028182" width="109.783129349375" height="16.988611432000003"/></g><text fill="black" stroke="none" font-family="sans-serif" font-size="8.8pt" font-style="normal" font-weight="bold" text-decoration="normal" x="88.83073217707032" y="493.0112857788182" text-anchor="start" dominant-baseline="alphabetic" xml:space="preserve">[Group Not Found]</text></g><g/></g><g/><g/><g/><g/></g></svg>