<svg xmlns="http://www.w3.org/2000/svg" xmlns:xlink="http://www.w3.org/1999/xlink" version="1.1" width="1001.5952468214492" height="901.3913682788182"><desc>title%20Report%20User%20Sequence%20Diagram%0A%0Aactor%20User%0Aparticipant%20Frontend%0Aparticipant%20ReportManagement%0Aparticipant%20UserManagement%0Adatabase%20GameOnDB%0A%0AFrontend-%3EUserManagement%3A%20getProfile(discordToken)%0AUserManagement-%3EGameOnDB%3A%20Query%20Database%0AGameOnDB-%3EUserManagement%3A%20Return%20User%0AUserManagement-%3EFrontend%3A%20offending%20user%20profile%20returned%0AUser-%3EFrontend%3A%20Click%20%22Report%20User%22%0AFrontend-%3EUser%3A%20Report%20Dialogue%20Opens%0AUser-%3EFrontend%3A%20Report%20Reason%20Entered%0AFrontend-%3EReportManagement%3A%20submitReport(reporterToken%2CreporteeToken%2C%20reason)%0AReportManagement-%3EGameOnDB%3A%20Create%20New%20Report%0Aalt%20Report%20Created%0A%20%20GameOnDB-%3EReportManagement%3A%20Return%20success%0A%20%20ReportManagement-%3EFrontend%3A%20Success%20shown%0Aelse%20Report%20Not%20Created%0A%20%20GameOnDB-%3EReportManagement%3A%20Return%20failure%0A%20%20ReportManagement-%3EFrontend%3A%20Failure%20Shown%0Aend</desc><defs/><g><g/><g/><g/><g/><g/><g/><g/><g/><g/><g/><g/><g/><g/><g/><g/><g/><g/><g/><g/><g/><g/><g/><g/><g/><g/><g/><g/><g/><g/><g/><g/><g/><g/><g/><g/><g/><g/><g/><g/><g/><g/><g/><g/><g/><g/><g/><g/><g/><g/><g/><g/><g/><g/><g/><g/><g/><g/><g/><g/><g/><g/><g/><g/><g/><g/><g/><g/><g/><g/><g/><g><rect fill="white" stroke="none" x="0" y="0" width="1001" height="901"/></g><g/><g><path fill="none" stroke="black" paint-order="fill stroke markers" d=" M 23.64361483359375 128.73625218881818 L 23.64361483359375 901.3913682788182" stroke-miterlimit="10" stroke-width="1.3612669416666667" stroke-dasharray="12.565541,5.445067766666667"/><path fill="none" stroke="black" paint-order="fill stroke markers" d=" M 221.22701463294268 128.73625218881818 L 221.22701463294268 901.3913682788182" stroke-miterlimit="10" stroke-width="1.3612669416666667" stroke-dasharray="12.565541,5.445067766666667"/><path fill="none" stroke="black" paint-order="fill stroke markers" d=" M 602.9477587926432 128.73625218881818 L 602.9477587926432 901.3913682788182" stroke-miterlimit="10" stroke-width="1.3612669416666667" stroke-dasharray="12.565541,5.445067766666667"/><path fill="none" stroke="black" paint-order="fill stroke markers" d=" M 777.7761372502252 128.73625218881818 L 777.7761372502252 901.3913682788182" stroke-miterlimit="10" stroke-width="1.3612669416666667" stroke-dasharray="12.565541,5.445067766666667"/><path fill="none" stroke="black" paint-order="fill stroke markers" d=" M 928.0868319714492 128.73625218881818 L 928.0868319714492 901.3913682788182" stroke-miterlimit="10" stroke-width="1.3612669416666667" stroke-dasharray="12.565541,5.445067766666667"/></g><g><g><path fill="white" stroke="black" paint-order="fill stroke markers" d=" M 32.95468071459375 59.63834222981819 A 9.311065881 9.311065881 0 1 1 32.9546760590612 59.62903116548903 M 23.64361483359375 68.9494081108182 L 23.64361483359375 88.8783561368182 M 11.882268457593753 76.13689756281819 L 35.40496120959375 76.13689756281819 M 23.64361483359375 88.8783561368182 L 11.882268457593753 107.50048789881819 M 23.64361483359375 88.8783561368182 L 35.40496120959375 107.50048789881819" stroke-miterlimit="10" stroke-width="2.7769845610000004" stroke-dasharray=""/></g><g><g/><text fill="black" stroke="none" font-family="sans-serif" font-size="11pt" font-style="normal" font-weight="normal" text-decoration="normal" x="8.167601650000002" y="123.83569119881818" text-anchor="start" dominant-baseline="alphabetic" xml:space="preserve">User</text></g><path fill="none" stroke="none"/><g><path fill="white" stroke="black" paint-order="fill stroke markers" d=" M 174.16545894502082 84.63120327881819 L 268.28857032086455 84.63120327881819 L 268.28857032086455 128.73625218881818 L 174.16545894502082 128.73625218881818 L 174.16545894502082 84.63120327881819 Z" stroke-miterlimit="10" stroke-width="2.613632528" stroke-dasharray=""/></g><g><g/><text fill="black" stroke="none" font-family="sans-serif" font-size="11pt" font-style="normal" font-weight="normal" text-decoration="normal" x="191.8891545255208" y="112.40104888881817" text-anchor="start" dominant-baseline="alphabetic" xml:space="preserve">Frontend</text></g><path fill="none" stroke="none"/><g><path fill="white" stroke="black" paint-order="fill stroke markers" d=" M 520.4388230388033 84.63120327881819 L 685.456694546483 84.63120327881819 L 685.456694546483 128.73625218881818 L 520.4388230388033 128.73625218881818 L 520.4388230388033 84.63120327881819 Z" stroke-miterlimit="10" stroke-width="2.613632528" stroke-dasharray=""/></g><g><g/><text fill="black" stroke="none" font-family="sans-serif" font-size="11pt" font-style="normal" font-weight="normal" text-decoration="normal" x="538.1625186193033" y="112.40104888881817" text-anchor="start" dominant-baseline="alphabetic" xml:space="preserve">ReportManagement</text></g><path fill="none" stroke="none"/><g><path fill="white" stroke="black" paint-order="fill stroke markers" d=" M 701.791897846483 84.63120327881819 L 853.7603766539675 84.63120327881819 L 853.7603766539675 128.73625218881818 L 701.791897846483 128.73625218881818 L 701.791897846483 84.63120327881819 Z" stroke-miterlimit="10" stroke-width="2.613632528" stroke-dasharray=""/></g><g><g/><text fill="black" stroke="none" font-family="sans-serif" font-size="11pt" font-style="normal" font-weight="normal" text-decoration="normal" x="719.5155934269831" y="112.40104888881817" text-anchor="start" dominant-baseline="alphabetic" xml:space="preserve">UserManagement</text></g><g><path fill="white" stroke="black" paint-order="fill stroke markers" d=" M 904.2374351534493 96.71925372081819 L 904.2374351534493 62.41532679081819 L 951.9362287894492 62.41532679081819 L 951.9362287894492 96.71925372081819" stroke-miterlimit="10" stroke-width="2.7769845610000004" stroke-dasharray=""/><path fill="white" stroke="black" paint-order="fill stroke markers" d=" M 951.9362287894492 61.22285694991819 L 951.9350363295455 61.33066749483481 L 951.9314590690794 61.43846725878678 L 951.9254973657742 61.546245461887544 L 951.9171518157948 61.65399132640659 L 951.9064232536896 61.761694077847274 L 951.8933127523057 61.86934294602419 L 951.8778216226825 61.976927166140236 L 951.8599514139199 62.084435979863045 L 951.8397039130239 62.19185863640084 L 951.8170811447277 62.299184393577484 L 951.7920853712893 62.4064025189067 L 951.7647190922653 62.51350229066531 L 951.7349850442607 62.62047299896537 L 951.7028862006556 62.7273039468252 L 951.6684257713075 62.83398445123905 L 951.6316072022307 62.94050384424536 L 951.5924341752514 63.04685147399361 L 951.5509106076396 63.15301670580944 L 951.5070406517176 63.25898892325815 L 951.4608286944442 63.364757529206294 L 951.4122793569769 63.47031194688142 L 951.3613974942089 63.575641620929716 L 951.308188194284 63.68073601847156 L 951.2526567780877 63.78558463015478 L 951.1948087987157 63.89017697120557 L 951.1346500409176 63.994502582477 L 951.0721865205189 64.09855103149486 L 951.0074244838197 64.20231191350096 L 950.9403704069697 64.3057748524936 L 950.8710309953208 64.40892950226505 L 950.7994131827561 64.51176554743633 L 950.7255241309974 64.61427270448858 L 950.6493712288884 64.71644072279157 L 950.5709620916556 64.81825938562858 L 950.4903045601475 64.91971851121816 L 950.40740670005 65.02080795373233 L 950.3222768010802 65.12151760431107 L 950.2349233761568 65.22183739207324 L 950.1453551605496 65.32175728512367 L 950.0535811110055 65.42126729155632 L 949.959610404853 65.52035746045347 L 949.8634524390845 65.6190178828808 L 949.7651168294165 65.71723869287828 L 949.6646134093276 65.81501006844678 L 949.5619522290765 65.91232223253022 L 949.4571435546954 66.00916545399325 L 949.3501978669645 66.10553004859446 L 949.2411258603636 66.20140637995469 L 949.1299384420023 66.29678486052069 L 949.0166467305297 66.39165595252388 L 948.9012620550228 66.48601016893414 L 948.7837959538527 66.57983807440844 L 948.6642601735318 66.67313028623443 L 948.5426666675386 66.76587747526865 L 948.4190275951222 66.85807036686953 L 948.2933553200868 66.94969974182469 L 948.1656624095554 67.04075643727302 L 948.0359616327123 67.13123134762085 L 947.9042659595274 67.22111542545254 L 947.7705885594581 67.3103996824352 L 947.6349428001332 67.39907519021754 L 947.4973422460154 67.4871330813227 L 947.3578006570455 67.57456455003492 L 947.2163319872661 67.6613608532802 L 947.0729503834264 67.74751331150055 L 946.9276701835672 67.83301330952195 L 946.7805059155874 67.91785229741582 L 946.6314722957912 68.00202179135408 L 946.4805842274163 68.08551337445749 L 946.327856799144 68.1683186976373 L 946.1733052835898 68.25042948043021 L 946.0169451357763 68.33183751182635 L 945.858791991588 68.41253465109044 L 945.6988616662077 68.4925128285758 L 945.5371701525345 68.5717640465313 L 945.3737336195852 68.65028037990122 L 945.2085684108766 68.72805397711764 L 945.0416910427923 68.80507706088565 L 944.8731182029298 68.88134192896105 L 944.7028667484327 68.95684095492061 L 944.5309537043046 69.03156658892462 L 944.3573962617065 69.10551135847197 L 944.1822117762382 69.17866786914732 L 944.0054177662022 69.25102880536058 L 943.8270319108522 69.3225869310784 L 943.6470720486249 69.39333509054786 L 943.4655561753568 69.46326620901198 L 943.2825024424839 69.53237329341717 L 943.0979291552269 69.60064943311258 L 942.9118547707607 69.66808780054113 L 942.7242978963687 69.7346816519223 L 942.5352772875821 69.80042432792644 L 942.3448118463042 69.86530925434072 L 942.1529206189203 69.92932994272657 L 941.9596227943936 69.9924799910685 L 941.764937702345 70.05475308441433 L 941.5688848111218 70.1161429955066 L 941.3714837258497 70.17664358540536 L 941.1727541864726 70.23624880410202 L 940.9727160657789 70.29495269112441 L 940.7713893674139 70.35274937613272 L 940.5687942238799 70.40963307950663 L 940.364950894522 70.46559811292322 L 940.1598797635038 70.52063887992576 L 939.953601337767 70.57474987648341 L 939.7461362449827 70.62792569154163 L 939.537505231487 70.68016100756323 L 939.3277291602076 70.73145060106012 L 939.1168290085766 70.78178934311569 L 938.9048258664335 70.8311721998977 L 938.6917409339159 70.8795942331616 L 938.4775955193395 70.92705060074444 L 938.2624110370672 70.973536557049 L 938.0462090053679 71.01904745351838 L 937.8290110442648 71.06357873910088 L 937.6108388733728 71.10712596070502 L 937.3917143097273 71.14968476364494 L 937.1716592656019 71.19125089207583 L 936.9506957463178 71.23182018941947 L 936.7288458480429 71.27138859877994 L 936.5061317555818 71.30995216334925 L 936.2825757401583 71.34750702680313 L 936.0582001571879 71.38404943368649 L 935.8330274440416 71.4195757297891 L 935.6070801178032 71.45408236251096 L 935.380380773017 71.48756588121756 L 935.1529520794286 71.52002293758491 L 934.9248167797177 71.55145028593446 L 934.6959976872245 71.58184478355753 L 934.4665176836671 71.61120339102969 L 934.2363997168551 71.63952317251467 L 934.005666798393 71.66680129605793 L 933.7743420013807 71.69303503386982 L 933.5424484581048 71.71822176259843 L 933.3100093577267 71.7423589635919 L 933.0770479439626 71.7654442231502 L 932.8435875127597 71.78747523276665 L 932.6096514099667 71.80844978935863 L 932.3752630289987 71.82836579548797 L 932.1404458084987 71.84722125957065 L 931.9052232299931 71.86501429607597 L 931.6696188155435 71.8817431257151 L 931.4336561253951 71.89740607561903 L 931.1973587556205 71.91200157950583 L 930.9607503357595 71.92552817783725 L 930.7238545264569 71.93798451796474 L 930.4866950170964 71.94936935426468 L 930.2492955234312 71.95968154826289 L 930.0116797852128 71.96892006874862 L 929.7738715638171 71.97708399187748 L 929.535894639868 71.98417250126396 L 929.2977728108597 71.99018488806304 L 929.0595298887765 71.99512055104105 L 928.8211896977122 71.99897899663581 L 928.5827760714872 72.00175983900598 L 928.3443128512654 72.00346280006961 L 928.1058238831703 72.00408770953204 L 927.8673330158997 72.00363450490285 L 927.6288640983419 72.0021032315021 L 927.3904409771897 71.99949404245586 L 927.1520874945567 71.9958071986809 L 926.9138274855923 71.99104306885846 L 926.675684776099 71.98520212939759 L 926.4376831801494 71.97828496438737 L 926.1998464977046 71.97029226553852 L 925.9621985122346 71.96122483211428 L 925.7247629883401 71.95108357085043 L 925.4875636693754 71.93986949586466 L 925.250624275075 71.92758372855508 L 925.0139684991807 71.91422749748824 L 924.7776200070729 71.89980213827607 L 924.5416024334038 71.8843090934425 L 924.3059393797342 71.86774991227908 L 924.0706544121731 71.85012625069015 L 923.8357710590211 71.83143987102717 L 923.6013128084178 71.81169264191253 L 923.367303105993 71.79088653805269 L 923.1337653525216 71.7690236400407 L 922.9007229015847 71.74610613414815 L 922.668199057233 71.72213631210651 L 922.4362170716571 71.69711657087802 L 922.2048001428625 71.67104941241597 L 921.973971412349 71.64393744341446 L 921.7437539627974 71.6157833750478 L 921.5141708157608 71.58659002269937 L 921.2852449293625 71.55636030568009 L 921.0569991960006 71.52509724693644 L 920.8294564400579 71.49280397274828 L 920.6026394156206 71.45948371241609 L 920.3765708042022 71.42513979793813 L 920.1512732124752 71.38977566367726 L 919.9267691700111 71.35339484601741 L 919.7030811270272 71.31600098301004 L 919.4802314521413 71.27759781401028 L 919.2582424301352 71.23818917930303 L 919.0371362597261 71.19777901971894 L 918.8169350513467 71.15637137624027 L 918.5976608249346 71.11397038959687 L 918.3793355077294 71.07058029985207 L 918.161980932081 71.02620544597868 L 917.9456188332659 70.98085026542512 L 917.7302708473136 70.93451929367163 L 917.5159585088434 70.8872171637768 L 917.3027032489102 70.8389486059142 L 917.0905263928628 70.78971844689937 L 916.8794491582095 70.7395316097072 L 916.6694926524981 70.6883931129796 L 916.4606778712042 70.6363080705236 L 916.2530256956319 70.58328169080006 L 916.0465568908257 70.52931927640276 L 915.8412921034941 70.47442622352818 L 915.6372518599446 70.41860802143584 L 915.4344565640316 70.36187025189946 L 915.2329264951159 70.3042185886487 L 915.0326818060362 70.24565879680183 L 914.8337425210946 70.18619673228926 L 914.6361285340538 70.12583834126788 L 914.4398596061479 70.06458965952649 L 914.2449553641061 70.00245681188221 L 914.0514352981902 69.93944601156807 L 913.8593187602454 69.87556355961155 L 913.6686249617657 69.81081584420461 L 913.4793729719717 69.74520934006487 L 913.2915817159047 69.67875060778805 L 913.1052699725341 69.61144629319199 L 912.9204563728787 69.54330312665208 L 912.7371593981446 69.47432792242817 L 912.5553973778765 69.40452757798322 L 912.3751884881249 69.3339090732935 L 912.1965507496286 69.26247947015062 L 912.0195020260127 69.19024591145539 L 911.8440600220018 69.11721562050347 L 911.6702422816504 69.0433959002631 L 911.4980661865875 68.96879413264479 L 911.3275489542791 68.89341777776313 L 911.1587076363065 68.81727437319081 L 910.9915591166606 68.74037153320482 L 910.8261201100543 68.66271694802508 L 910.66240716025 68.58431838304537 L 910.5004366384068 68.5051836780569 L 910.3402247414415 68.4253207464642 L 910.1817874904103 68.34473757449386 L 910.0251407289065 68.26344222039596 L 909.8703001214757 68.18144281363814 L 909.7172811520493 68.09874755409275 L 909.5660991223971 68.01536471121685 L 909.4167691505958 67.9313026232252 L 909.2693061695182 67.84656969625658 L 909.1237249253397 67.76117440353308 L 908.9800399760633 67.67512528451279 L 908.8382656900641 67.5884309440359 L 908.6984162446527 67.50110005146425 L 908.5605056246569 67.41314133981427 L 908.4245476210239 67.32456360488388 L 908.2905558294408 67.23537570437271 L 908.1585436489751 67.14558655699653 L 908.0285242807347 67.05520514159522 L 907.9005107265482 66.96424049623502 L 907.7745157876643 66.87270171730466 L 907.650552063472 66.78059795860575 L 907.5286319502403 66.68793843043741 L 907.4087676398789 66.59473239867523 L 907.290971118719 66.50098918384472 L 907.1752541663145 66.40671816018926 L 907.0616283542643 66.31192875473263 L 906.9501050450549 66.2166304463364 L 906.8406953909242 66.120832764752 L 906.7334103327465 66.02454528966774 L 906.6282605989383 65.92777764975091 L 906.5252567043852 65.83053952168484 L 906.4244089493909 65.73284062920132 L 906.3257274186468 65.63469074210818 L 906.2292219802239 65.53609967531233 L 906.1349022845855 65.4370772878383 L 906.0427777636224 65.33763348184232 L 905.9528576297103 65.23777820162212 L 905.8651508747873 65.13752143262249 L 905.779666269456 65.03687320043682 L 905.6964123621058 64.93584356980442 L 905.6153974780577 64.83444264360419 L 905.5366297187329 64.73268056184422 L 905.4601169608417 64.63056750064791 L 905.3858668555959 64.52811367123628 L 905.3138868279443 64.42532931890689 L 905.2441840758296 64.32222472200931 L 905.1767655694691 64.21881019091732 L 905.1116380506571 64.11509606699785 L 905.0488080320912 64.01109272157687 L 904.988281796721 63.90681055490224 L 904.9300653971195 63.80225999510374 L 904.8741646548783 63.697451497150205 L 904.8205851600248 63.59239554180411 L 904.769332270464 63.48710263457343 L 904.7204111114422 63.381583304661156 L 904.6738265750344 63.27584810391234 L 904.6295833196555 63.16990760575894 L 904.587685769594 63.06377240416249 L 904.5481381145703 62.95745311255472 L 904.5109443093166 62.85096036277616 L 904.4761080731828 62.744304804013076 L 904.4436328897631 62.63749710173245 L 904.4135220065491 62.530547936615505 L 904.3857784346038 62.423468003489624 L 904.3604049482615 62.316268010258895 L 904.3374040848495 62.208958676833305 L 904.316778144435 62.10155073405677 L 904.2985291895949 61.99405492263407 L 904.2826590452095 61.88648199205676 L 904.26916929828 61.77884269952825 L 904.2580612977697 61.6711478088881 L 904.2493361544697 61.56340808953563 L 904.2429947408867 61.45563431535299 L 904.2390376911571 61.34783726362778 L 904.2374654009824 61.24002771397536 L 904.2382780275904 61.13221644726084 L 904.2414754897189 61.02441424452105 L 904.2470574676246 60.916631885886424 L 904.2550234031143 60.808880149503025 L 904.265372499601 60.70116981045468 L 904.2781037221838 60.59351163968555 L 904.2932157977509 60.48591640292299 L 904.3107072151075 60.378394859601016 L 904.3305762251264 60.27095776178435 L 904.352820840923 60.163615853093255 L 904.3774388380544 60.05637986762915 L 904.4044277547414 59.949260528901206 L 904.4337848921148 59.84226854875404 L 904.4655073144853 59.7354146262965 L 904.4995918496372 59.62870944683179 L 904.5360350891452 59.52216368078894 L 904.574833388716 59.41578798265577 L 904.6159828685517 59.30959298991343 L 904.6594794137387 59.203589321972714 L 904.7053186746588 59.09778757911208 L 904.753496067424 58.992198341417634 L 904.8040067743352 58.88683216772516 L 904.8568457443638 58.78169959456423 L 904.912007693657 58.67681113510454 L 904.9694871060656 58.57217727810464 L 905.0292782336963 58.46780848686303 L 905.0913750974862 58.36371519817185 L 905.1557714878007 58.25990782127324 L 905.2224609650546 58.15639673681838 L 905.2914368603554 58.053192295829454 L 905.3626922761712 57.950304818664556 L 905.4362200870198 57.84774459398567 L 905.5120129401814 57.745521877729786 L 905.5900632564338 57.64364689208335 L 905.6703632308106 57.54212982446004 L 905.752904833381 57.44098082648201 L 905.8376798100537 57.340210012964775 L 905.9246796834017 57.2398274609057 L 906.01389575351 57.13984320847635 L 906.1053190988462 57.040267254018644 L 906.1989405771517 56.94110955504505 L 906.2947508263567 56.84238002724283 L 906.3927402655163 56.74408854348249 L 906.4928990957682 56.646244932830506 L 906.5952173013127 56.54885897956639 L 906.6996846504145 56.45194042220433 L 906.806290696426 56.35549895251929 L 906.9150247788313 56.25954421457787 L 907.0258760243125 56.16408580377391 L 907.1388333478379 56.06913326586893 L 907.253885453769 55.974696096037604 L 907.3710208369912 55.88078373791821 L 907.4902277840636 55.7874055826683 L 907.611494374391 55.694570968025594 L 907.7348084814155 55.60228917737418 L 907.8601577738289 55.51056943881623 L 907.9875297168065 55.41942092424918 L 908.1169115732604 55.328852748448504 L 908.2482904051125 55.23887396815633 L 908.381653074589 55.14949358117568 L 908.5169862455344 55.0607205254708 L 908.6542763847443 54.97256367827326 L 908.7935097633191 54.88503185519433 L 908.934672458037 54.79813380934336 L 909.0777503527461 54.71187823045254 L 909.2227291397762 54.62627374400786 L 909.3695943213695 54.541328910386646 L 909.5183312111302 54.45705222400146 L 909.6689249354931 54.373452112450714 L 909.8213604352115 54.290536935675895 L 909.9756224668623 54.20831498512558 L 910.131695604371 54.12679448292632 L 910.2895642405538 54.0459835810604 L 910.4492125886787 53.965890360550645 L 910.6106246840438 53.88652283065238 L 910.7737843855743 53.80788892805245 L 910.9386753774359 53.72999651607559 L 911.1052811706668 53.652853383898076 L 911.2735851048266 53.57646724576885 L 911.4435703496619 53.50084574023808 L 911.6152199067901 53.42599642939328 L 911.7885166113986 53.35192679810317 L 911.963443133961 53.278644253269164 L 912.1399819819712 53.20615612308466 L 912.3181155016913 53.13446965630228 L 912.4978258799179 53.06359202150896 L 912.6790951457627 52.99353030640911 L 912.8619051724504 52.924291517115876 L 913.0462376791306 52.85588257745046 L 913.2320742327064 52.78831032824984 L 913.419396249677 52.72158152668263 L 913.6081849979969 52.65570284557336 L 913.7984215989487 52.590680872735255 L 913.9900870290309 52.52652211031142 L 914.1831621218599 52.463232974124615 L 914.3776275700876 52.40081979303573 L 914.5734639273312 52.33928880831086 L 914.770651610118 52.278646172997206 L 914.9691708998442 52.21889795130775 L 915.1690019447462 52.160050118014894 L 915.370124761886 52.1021085578529 L 915.5725192391496 52.045079064929524 L 915.776165137258 51.98896734214652 L 915.9810420917908 51.933779000629414 L 916.1871296152234 51.87951955916637 L 916.3944070989753 51.826194443656306 L 916.6028538154708 51.77380898656634 L 916.812448920212 51.72236842639853 L 917.0231714538629 51.67187790716602 L 917.235000344346 51.622342477878675 L 917.4479144089486 51.57376709203812 L 917.6618923564417 51.526156607142475 L 917.876912789209 51.47951578420055 L 918.0929542053861 51.43384928725578 L 918.3099950010117 51.38916168291979 L 918.528013472187 51.34545743991578 L 918.7469878172466 51.302740928631636 L 918.9668961389384 51.261016420682886 L 919.1877164466135 51.220288088485546 L 919.4094266584252 51.18056000483891 L 919.6320046035371 51.14183614251822 L 919.8554280243401 51.10412037387746 L 920.0796745786782 51.06741647046204 L 920.3047218420832 51.03172810263173 L 920.5305473100159 50.99705883919358 L 920.757128400118 50.96341214704502 L 920.9844424544691 50.930791390827245 L 921.2124667418532 50.899199832588685 L 921.4411784600317 50.86864063145883 L 921.6705547380233 50.83911684333235 L 921.9005726383914 50.81063142056343 L 922.1312091595375 50.78318721167063 L 922.3624412380019 50.75678696105195 L 922.5942457507692 50.731433308710464 L 922.8265995175816 50.70712878999027 L 923.0594793032558 50.683875835323 L 923.2928618200074 50.66167676998473 L 923.5267237297792 50.6405338138635 L 923.761041646575 50.6204490812373 L 923.9957921387985 50.60142458056266 L 924.2309517315961 50.583462214273794 L 924.4664969092045 50.566563778592354 L 924.7024041173021 50.55073096334783 L 924.9386497653649 50.53596535180856 L 925.1752102290246 50.52226842052339 L 925.4120618524324 50.50964153917403 L 925.6491809506231 50.49808597043808 L 925.8865438118845 50.48760286986282 L 926.1241267001283 50.47819328574954 L 926.3619058572635 50.46985815904882 L 926.5998575055729 50.462598323266384 L 926.8379578500897 50.456414504379765 L 927.0761830809778 50.45130732076569 L 927.3145093759128 50.44727728313828 L 927.5529129024638 50.444324794497916 L 927.7913698204767 50.44245015009101 L 928.0298562844586 50.44165353738045 L 928.2683484459616 50.44193503602685 L 928.5068224559684 50.443294617880554 L 928.7452544672768 50.445732146984525 L 928.9836206368843 50.44924737958788 L 929.2218971283726 50.45383996417029 L 929.4600601142911 50.459509441477124 L 929.6980857785396 50.46625524456538 L 929.9359503187501 50.474076698860365 L 930.1736299486668 50.48297302222316 L 930.4111009005248 50.49294332502887 L 930.6483394274268 50.50398661025549 L 930.8853218057177 50.51610177358371 L 931.1220243373573 50.52928760350731 L 931.3584233522896 50.54354278145426 L 931.5944952108102 50.55886588191867 L 931.8302163059299 50.575255372603245 L 932.0655630657355 50.592709614572584 L 932.3005119557474 50.61122686241703 L 932.5350394812722 50.630805264427224 L 932.7691221897529 50.651442862779284 L 933.0027366731136 50.67313759373059 L 933.2358595701007 50.695887287826096 L 933.4684675686188 50.71968967011537 L 933.7005374080619 50.74454236038002 L 933.9320458816394 50.77044287337172 L 934.1629698386969 50.797388619060754 L 934.3932861870311 50.825376902895016 L 934.622971895199 50.85440492606945 L 934.8520039948214 50.88446978580591 L 935.080359582879 50.9155684756435 L 935.3080158240035 50.947697885739125 L 935.5349499527603 50.980854803178566 L 935.7611392759256 51.01503591229771 L 935.9865611747559 51.05023779501413 L 936.2111931072488 51.08645693116888 L 936.4350126103985 51.12368969887854 L 936.6579973024411 51.16193237489736 L 936.8801248850931 51.201181134989596 L 937.1013731457816 51.241432054311964 L 937.3217199598647 51.28268110780607 L 937.5411432928446 51.32492417060092 L 937.759621202571 51.368157018425464 L 937.9771318414349 51.41237532803093 L 938.1936534585537 51.45757467762322 L 938.4091644019461 51.503750547305025 L 938.6236431206974 51.55089831952786 L 938.8370681671144 51.5990132795538 L 939.0494181988703 51.64809061592693 L 939.260671981139 51.69812542095451 L 939.4708083887182 51.749112691197745 L 939.6798064081422 51.801047327972086 L 939.8876451397834 51.85392413785714 L 940.0943037999417 51.90773783321599 L 940.2997617229234 51.962483032723924 L 940.5039983631074 52.01815426190663 L 940.7069932969997 52.07474595368758 L 940.9087262252763 52.132252448944755 L 941.1091769748124 52.190667997076545 L 941.3083255007 52.24998675657682 L 941.5061518882526 52.310202795619055 L 941.7026363549962 52.371310092649544 L 941.897759252648 52.43330253698949 L 942.0915010690808 52.49617392944612 L 942.2838424302741 52.559917982932596 L 942.4747641022526 52.62452832309667 L 942.6642469930077 52.68999848895818 L 942.8522721544086 52.7563219335551 L 943.0388207840957 52.823492024598224 L 943.2238742273614 52.89150204513444 L 943.4074139790157 52.960345194218355 L 943.5894216852364 53.03001458759244 L 943.7698791454045 53.10050325837541 L 943.9487683139243 53.171804157758935 L 944.1260713020281 53.243910155712484 L 944.3017703795649 53.31681404169635 L 944.4758479767733 53.39050852538269 L 944.6482866860385 53.46498623738456 L 944.8190692636335 53.5402397299928 L 944.9881786314428 53.61626147792087 L 945.1555978786704 53.69304387905734 L 945.3213102635312 53.770579255226075 L 945.4852992149249 53.848859852954064 L 945.6475483340929 53.92787784424677 L 945.8080413962585 54.00762532737092 L 945.9667623522494 54.08809432764465 L 946.1236953301019 54.16927679823499 L 946.2788246366492 54.251164620962534 L 946.4321347590901 54.33374960711325 L 946.5836103665398 54.41702349825734 L 946.7332363115639 54.500977967075094 L 946.8809976316927 54.58560461818958 L 947.0268795509172 54.670894989006214 L 947.1708674811671 54.75684055055899 L 947.3129470237693 54.84343270836337 L 947.453103970888 54.93066280327574 L 947.5913243069452 55.0185221123593 L 947.7275942100226 55.107001849756344 L 947.8619000532434 55.196093167566886 L 947.9942284061352 55.28578715673337 L 948.1245660359729 55.37607484793163 L 948.2528999091022 55.46694721246779 L 948.3792171922429 55.55839516318112 L 948.5035052537716 55.65040955535275 L 948.625751664986 55.742981187620146 L 948.7459442013467 55.83610080289723 L 948.8640708437003 55.92975908930006 L 948.980119779481 56.02394668107806 L 949.0940794038919 56.11865415955053 L 949.2059383210656 56.213872054048544 L 949.3156853452034 56.30959084286201 L 949.4233095016946 56.405800954191804 L 949.528800028213 56.50249276710697 L 949.632146375794 56.5996566125068 L 949.733338209889 56.69728277408771 L 949.8323654113989 56.79536148931491 L 949.9292180776858 56.89388295039859 L 950.0238865235642 56.99283730527477 L 950.1163612822681 57.09221465859041 L 950.206633106399 57.19200507269298 L 950.2946929688493 57.29219856862425 L 950.3805320637064 57.39278512711811 L 950.4641418071324 57.49375468960253 L 950.5455138382223 57.59509715920541 L 950.6246400198412 57.69680240176424 L 950.7015124394367 57.79886024683951 L 950.7761234098308 57.90126048873177 L 950.8484654699889 58.003992887502164 L 950.918531385765 58.10704716999642 L 950.9863141506261 58.21041303087217 L 951.0518069863521 58.31408013362946 L 951.1150033437139 58.41803811164441 L 951.1758969031287 58.52227656920584 L 951.234481575291 58.62678508255487 L 951.2907515017827 58.731553200927245 L 951.3447010556579 58.83657044759845 L 951.3963248420062 58.94182632093131 L 951.4456176984918 59.04731029542622 L 951.4925746958704 59.153011822773635 L 951.5371911384813 59.25892033290889 L 951.5794625647173 59.36502523506925 L 951.6193847474711 59.471315918852895 L 951.6569536945578 59.57778175528004 L 951.6921656491138 59.684412097855756 L 951.7250170899731 59.79119628363465 L 951.7555047320191 59.89812363428712 L 951.7836255265128 60.005183457167206 L 951.8093766613981 60.11236504638185 L 951.8327555615833 60.21965768386144 L 951.8537598891976 60.327050640431644 L 951.8723875438259 60.43453317688629 L 951.8886366627181 60.5420945450613 L 951.9025056209761 60.6497239889095 L 951.9139930317153 60.757410745576195 L 951.9230977462045 60.86514404647545 L 951.9298188539797 60.972913118366954 L 951.9341556829356 61.08070718443333 L 951.9361077993932 61.188515465357796 M 951.9362287894492 95.52678387991818 L 951.9350363295455 95.6345944248348 L 951.9314590690794 95.74239418878678 L 951.9254973657742 95.85017239188754 L 951.9171518157948 95.95791825640659 L 951.9064232536896 96.06562100784727 L 951.8933127523057 96.1732698760242 L 951.8778216226825 96.28085409614023 L 951.8599514139199 96.38836290986303 L 951.8397039130239 96.49578556640084 L 951.8170811447277 96.60311132357748 L 951.7920853712893 96.7103294489067 L 951.7647190922653 96.8174292206653 L 951.7349850442607 96.92439992896537 L 951.7028862006556 97.0312308768252 L 951.6684257713075 97.13791138123905 L 951.6316072022307 97.24443077424536 L 951.5924341752514 97.35077840399362 L 951.5509106076396 97.45694363580944 L 951.5070406517176 97.56291585325815 L 951.4608286944442 97.66868445920629 L 951.4122793569769 97.77423887688141 L 951.3613974942089 97.8795685509297 L 951.308188194284 97.98466294847155 L 951.2526567780877 98.08951156015478 L 951.1948087987157 98.19410390120557 L 951.1346500409176 98.29842951247699 L 951.0721865205189 98.40247796149485 L 951.0074244838197 98.50623884350097 L 950.9403704069697 98.60970178249359 L 950.8710309953208 98.71285643226504 L 950.7994131827561 98.81569247743631 L 950.7255241309974 98.91819963448859 L 950.6493712288884 99.02036765279156 L 950.5709620916556 99.12218631562857 L 950.4903045601475 99.22364544121817 L 950.40740670005 99.32473488373233 L 950.3222768010802 99.42544453431107 L 950.2349233761568 99.52576432207324 L 950.1453551605496 99.62568421512367 L 950.0535811110055 99.72519422155631 L 949.959610404853 99.82428439045346 L 949.8634524390845 99.92294481288079 L 949.7651168294165 100.02116562287829 L 949.6646134093276 100.11893699844678 L 949.5619522290765 100.2162491625302 L 949.4571435546954 100.31309238399325 L 949.3501978669645 100.40945697859446 L 949.2411258603636 100.50533330995468 L 949.1299384420023 100.60071179052068 L 949.0166467305297 100.69558288252388 L 948.9012620550228 100.78993709893413 L 948.7837959538527 100.88376500440843 L 948.6642601735318 100.97705721623441 L 948.5426666675386 101.06980440526866 L 948.4190275951222 101.16199729686952 L 948.2933553200868 101.25362667182469 L 948.1656624095554 101.34468336727302 L 948.0359616327123 101.43515827762084 L 947.9042659595274 101.52504235545253 L 947.7705885594581 101.61432661243519 L 947.6349428001332 101.70300212021755 L 947.4973422460154 101.7910600113227 L 947.3578006570455 101.87849148003492 L 947.2163319872661 101.9652877832802 L 947.0729503834264 102.05144024150056 L 946.9276701835672 102.13694023952193 L 946.7805059155874 102.22177922741581 L 946.6314722957912 102.30594872135407 L 946.4805842274163 102.38944030445748 L 946.327856799144 102.47224562763729 L 946.1733052835898 102.5543564104302 L 946.0169451357763 102.63576444182635 L 945.858791991588 102.71646158109044 L 945.6988616662077 102.79643975857579 L 945.5371701525345 102.8756909765313 L 945.3737336195852 102.95420730990122 L 945.2085684108766 103.03198090711763 L 945.0416910427923 103.10900399088564 L 944.8731182029298 103.18526885896105 L 944.7028667484327 103.2607678849206 L 944.5309537043046 103.33549351892461 L 944.3573962617065 103.40943828847196 L 944.1822117762382 103.48259479914732 L 944.0054177662022 103.55495573536056 L 943.8270319108522 103.6265138610784 L 943.6470720486249 103.69726202054787 L 943.4655561753568 103.76719313901197 L 943.2825024424839 103.83630022341715 L 943.0979291552269 103.90457636311257 L 942.9118547707607 103.97201473054113 L 942.7242978963687 104.03860858192229 L 942.5352772875821 104.10435125792642 L 942.3448118463042 104.1692361843407 L 942.1529206189203 104.23325687272656 L 941.9596227943936 104.29640692106851 L 941.764937702345 104.35868001441433 L 941.5688848111218 104.4200699255066 L 941.3714837258497 104.48057051540535 L 941.1727541864726 104.54017573410202 L 940.9727160657789 104.5988796211244 L 940.7713893674139 104.65667630613272 L 940.5687942238799 104.71356000950664 L 940.364950894522 104.7695250429232 L 940.1598797635038 104.82456580992574 L 939.953601337767 104.87867680648341 L 939.7461362449827 104.93185262154162 L 939.537505231487 104.98408793756322 L 939.3277291602076 105.0353775310601 L 939.1168290085766 105.08571627311568 L 938.9048258664335 105.13509912989768 L 938.6917409339159 105.1835211631616 L 938.4775955193395 105.23097753074444 L 938.2624110370672 105.27746348704899 L 938.0462090053679 105.32297438351839 L 937.8290110442648 105.36750566910086 L 937.6108388733728 105.41105289070501 L 937.3917143097273 105.45361169364494 L 937.1716592656019 105.49517782207583 L 936.9506957463178 105.53574711941947 L 936.7288458480429 105.57531552877992 L 936.5061317555818 105.61387909334925 L 936.2825757401583 105.65143395680312 L 936.0582001571879 105.68797636368647 L 935.8330274440416 105.72350265978909 L 935.6070801178032 105.75800929251095 L 935.380380773017 105.79149281121755 L 935.1529520794286 105.82394986758491 L 934.9248167797177 105.85537721593445 L 934.6959976872245 105.88577171355752 L 934.4665176836671 105.9151303210297 L 934.2363997168551 105.94345010251467 L 934.005666798393 105.97072822605791 L 933.7743420013807 105.99696196386981 L 933.5424484581048 106.02214869259844 L 933.3100093577267 106.04628589359189 L 933.0770479439626 106.0693711531502 L 932.8435875127597 106.09140216276666 L 932.6096514099667 106.11237671935864 L 932.3752630289987 106.13229272548797 L 932.1404458084987 106.15114818957065 L 931.9052232299931 106.16894122607596 L 931.6696188155435 106.1856700557151 L 931.4336561253951 106.20133300561903 L 931.1973587556205 106.21592850950582 L 930.9607503357595 106.22945510783724 L 930.7238545264569 106.24191144796474 L 930.4866950170964 106.25329628426466 L 930.2492955234312 106.2636084782629 L 930.0116797852128 106.2728469987486 L 929.7738715638171 106.28101092187747 L 929.535894639868 106.28809943126396 L 929.2977728108597 106.29411181806304 L 929.0595298887765 106.29904748104106 L 928.8211896977122 106.30290592663582 L 928.5827760714872 106.30568676900597 L 928.3443128512654 106.30738973006962 L 928.1058238831703 106.30801463953205 L 927.8673330158997 106.30756143490284 L 927.6288640983419 106.3060301615021 L 927.3904409771897 106.30342097245587 L 927.1520874945567 106.29973412868088 L 926.9138274855923 106.29496999885845 L 926.675684776099 106.28912905939758 L 926.4376831801494 106.28221189438736 L 926.1998464977046 106.27421919553852 L 925.9621985122346 106.26515176211427 L 925.7247629883401 106.25501050085043 L 925.4875636693754 106.24379642586464 L 925.250624275075 106.23151065855508 L 925.0139684991807 106.21815442748823 L 924.7776200070729 106.20372906827606 L 924.5416024334038 106.1882360234425 L 924.3059393797342 106.17167684227908 L 924.0706544121731 106.15405318069014 L 923.8357710590211 106.13536680102716 L 923.6013128084178 106.11561957191253 L 923.367303105993 106.09481346805269 L 923.1337653525216 106.0729505700407 L 922.9007229015847 106.05003306414814 L 922.668199057233 106.0260632421065 L 922.4362170716571 106.00104350087803 L 922.2048001428625 105.97497634241597 L 921.973971412349 105.94786437341445 L 921.7437539627974 105.9197103050478 L 921.5141708157608 105.89051695269937 L 921.2852449293625 105.86028723568009 L 921.0569991960006 105.82902417693644 L 920.8294564400579 105.79673090274827 L 920.6026394156206 105.76341064241608 L 920.3765708042022 105.72906672793813 L 920.1512732124752 105.69370259367726 L 919.9267691700111 105.6573217760174 L 919.7030811270272 105.61992791301003 L 919.4802314521413 105.58152474401028 L 919.2582424301352 105.54211610930304 L 919.0371362597261 105.50170594971894 L 918.8169350513467 105.46029830624026 L 918.5976608249346 105.41789731959686 L 918.3793355077294 105.37450722985206 L 918.161980932081 105.33013237597868 L 917.9456188332659 105.28477719542511 L 917.7302708473136 105.23844622367163 L 917.5159585088434 105.1911440937768 L 917.3027032489102 105.14287553591419 L 917.0905263928628 105.09364537689936 L 916.8794491582095 105.0434585397072 L 916.6694926524981 104.99232004297959 L 916.4606778712042 104.9402350005236 L 916.2530256956319 104.88720862080007 L 916.0465568908257 104.83324620640276 L 915.8412921034941 104.77835315352817 L 915.6372518599446 104.72253495143585 L 915.4344565640316 104.66579718189945 L 915.2329264951159 104.60814551864868 L 915.0326818060362 104.54958572680184 L 914.8337425210946 104.49012366228926 L 914.6361285340538 104.42976527126788 L 914.4398596061479 104.36851658952648 L 914.2449553641061 104.30638374188221 L 914.0514352981902 104.24337294156805 L 913.8593187602454 104.17949048961154 L 913.6686249617657 104.11474277420461 L 913.4793729719717 104.04913627006486 L 913.2915817159047 103.98267753778805 L 913.1052699725341 103.91537322319199 L 912.9204563728787 103.84723005665208 L 912.7371593981446 103.77825485242818 L 912.5553973778765 103.70845450798322 L 912.3751884881249 103.63783600329349 L 912.1965507496286 103.56640640015061 L 912.0195020260127 103.49417284145538 L 911.8440600220018 103.42114255050346 L 911.6702422816504 103.3473228302631 L 911.4980661865875 103.27272106264479 L 911.3275489542791 103.19734470776314 L 911.1587076363065 103.1212013031908 L 910.9915591166606 103.04429846320481 L 910.8261201100543 102.96664387802507 L 910.66240716025 102.88824531304537 L 910.5004366384068 102.8091106080569 L 910.3402247414415 102.72924767646418 L 910.1817874904103 102.64866450449387 L 910.0251407289065 102.56736915039596 L 909.8703001214757 102.48536974363815 L 909.7172811520493 102.40267448409276 L 909.5660991223971 102.31929164121684 L 909.4167691505958 102.2352295532252 L 909.2693061695182 102.15049662625658 L 909.1237249253397 102.06510133353308 L 908.9800399760633 101.97905221451278 L 908.8382656900641 101.89235787403591 L 908.6984162446527 101.80502698146424 L 908.5605056246569 101.71706826981428 L 908.4245476210239 101.62849053488388 L 908.2905558294408 101.53930263437272 L 908.1585436489751 101.44951348699652 L 908.0285242807347 101.35913207159521 L 907.9005107265482 101.26816742623502 L 907.7745157876643 101.17662864730465 L 907.650552063472 101.08452488860574 L 907.5286319502403 100.9918653604374 L 907.4087676398789 100.89865932867522 L 907.290971118719 100.80491611384473 L 907.1752541663145 100.71064509018925 L 907.0616283542643 100.61585568473262 L 906.9501050450549 100.5205573763364 L 906.8406953909242 100.424759694752 L 906.7334103327465 100.32847221966773 L 906.6282605989383 100.2317045797509 L 906.5252567043852 100.13446645168483 L 906.4244089493909 100.03676755920131 L 906.3257274186468 99.93861767210817 L 906.2292219802239 99.84002660531232 L 906.1349022845855 99.7410042178383 L 906.0427777636224 99.64156041184232 L 905.9528576297103 99.54170513162211 L 905.8651508747873 99.4414483626225 L 905.779666269456 99.34080013043682 L 905.6964123621058 99.23977049980442 L 905.6153974780577 99.13836957360418 L 905.5366297187329 99.03660749184422 L 905.4601169608417 98.9344944306479 L 905.3858668555959 98.83204060123627 L 905.3138868279443 98.72925624890688 L 905.2441840758296 98.6261516520093 L 905.1767655694691 98.52273712091731 L 905.1116380506571 98.41902299699785 L 905.0488080320912 98.31501965157686 L 904.988281796721 98.21073748490224 L 904.9300653971195 98.10618692510373 L 904.8741646548783 98.0013784271502 L 904.8205851600248 97.89632247180411 L 904.769332270464 97.79102956457344 L 904.7204111114422 97.68551023466115 L 904.6738265750344 97.57977503391233 L 904.6295833196555 97.47383453575894 L 904.587685769594 97.3676993341625 L 904.5481381145703 97.2613800425547 L 904.5109443093166 97.15488729277617 L 904.4761080731828 97.04823173401307 L 904.4436328897631 96.94142403173245 L 904.4135220065491 96.8344748666155 L 904.3857784346038 96.72739493348962 L 904.3604049482615 96.6201949402589 L 904.3374040848495 96.51288560683331 L 904.316778144435 96.40547766405678 L 904.2985291895949 96.29798185263407 L 904.2826590452095 96.19040892205675 L 904.26916929828 96.08276962952824 L 904.2580612977697 95.9750747388881 L 904.2493361544697 95.86733501953563 L 904.2429947408867 95.75956124535298 L 904.2390376911571 95.65176419362778 L 904.2374654009824 95.54395464397535" stroke-miterlimit="10" stroke-width="2.7769845610000004" stroke-dasharray=""/></g><g><g/><text fill="black" stroke="none" font-family="sans-serif" font-size="11pt" font-style="normal" font-weight="normal" text-decoration="normal" x="888.1655673230117" y="123.83569119881818" text-anchor="start" dominant-baseline="alphabetic" xml:space="preserve">GameOnDB</text></g></g><g><g><text fill="black" stroke="none" font-family="sans-serif" font-size="16pt" font-style="normal" font-weight="normal" text-decoration="normal" x="348.7478256225586" y="24.651306798181814" text-anchor="start" dominant-baseline="alphabetic" xml:space="preserve">Report User Sequence Diagram</text></g><g><rect fill="white" stroke="none" x="418.01411740703315" y="161.4066587888182" width="162.97491706910156" height="21.23576429"/><text fill="black" stroke="none" font-family="sans-serif" font-size="11pt" font-style="normal" font-weight="normal" text-decoration="normal" x="420.46439790203317" y="176.10834175881817" text-anchor="start" dominant-baseline="alphabetic" xml:space="preserve">getProfile(discordToken)</text></g><g><path fill="none" stroke="black" paint-order="fill stroke markers" d=" M 221.22701463294268 182.64242307881818 L 764.3268198665586 182.64242307881818" stroke-miterlimit="10" stroke-width="1.3612669416666667" stroke-dasharray=""/><g transform="translate(777.7761372502252,182.64242307881818) translate(-777.7761372502252,-182.64242307881818)"><path fill="black" stroke="none" paint-order="stroke fill markers" d=" M 764.1634678335586 175.83608837048484 L 777.7761372502252 182.64242307881818 L 764.1634678335586 189.44875778715152 Z"/></g></g><g><rect fill="white" stroke="none" x="797.106127821892" y="207.1452280288182" width="111.65071357789063" height="21.23576429"/><text fill="black" stroke="none" font-family="sans-serif" font-size="11pt" font-style="normal" font-weight="normal" text-decoration="normal" x="799.556408316892" y="221.84691099881817" text-anchor="start" dominant-baseline="alphabetic" xml:space="preserve">Query Database</text></g><g><path fill="none" stroke="black" paint-order="fill stroke markers" d=" M 777.7761372502252 228.3809923188182 L 914.6375145877826 228.3809923188182" stroke-miterlimit="10" stroke-width="1.3612669416666667" stroke-dasharray=""/><g transform="translate(928.0868319714492,228.3809923188182) translate(-928.0868319714492,-228.3809923188182)"><path fill="black" stroke="none" paint-order="stroke fill markers" d=" M 914.4741625547825 221.57465761048485 L 928.0868319714492 228.3809923188182 L 914.4741625547825 235.18732702715153 Z"/></g></g><g><rect fill="white" stroke="none" x="810.9679747457201" y="252.88379726881823" width="83.92701973023438" height="21.23576429"/><text fill="black" stroke="none" font-family="sans-serif" font-size="11pt" font-style="normal" font-weight="normal" text-decoration="normal" x="813.4182552407201" y="267.5854802388182" text-anchor="start" dominant-baseline="alphabetic" xml:space="preserve">Return User</text></g><g><path fill="none" stroke="black" paint-order="fill stroke markers" d=" M 928.0868319714492 274.1195615588182 L 791.2254546338919 274.1195615588182" stroke-miterlimit="10" stroke-width="1.3612669416666667" stroke-dasharray=""/><g transform="translate(777.7761372502252,274.1195615588182) translate(-777.7761372502252,-274.1195615588182)"><path fill="black" stroke="none" paint-order="stroke fill markers" d=" M 791.3888066668919 267.31322685048485 L 777.7761372502252 274.1195615588182 L 791.3888066668919 280.92589626715153 Z"/></g></g><g><rect fill="white" stroke="none" x="399.3884917966816" y="298.6223665088182" width="200.2261682898047" height="21.23576429"/><text fill="black" stroke="none" font-family="sans-serif" font-size="11pt" font-style="normal" font-weight="normal" text-decoration="normal" x="401.8387722916816" y="313.32404947881815" text-anchor="start" dominant-baseline="alphabetic" xml:space="preserve">offending user profile returned</text></g><g><path fill="none" stroke="black" paint-order="fill stroke markers" d=" M 777.7761372502252 319.8581307988182 L 234.67633201660936 319.8581307988182" stroke-miterlimit="10" stroke-width="1.3612669416666667" stroke-dasharray=""/><g transform="translate(221.22701463294268,319.8581307988182) translate(-221.22701463294268,-319.8581307988182)"><path fill="black" stroke="none" paint-order="stroke fill markers" d=" M 234.83968404960936 313.05179609048486 L 221.22701463294268 319.8581307988182 L 234.83968404960936 326.66446550715153 Z"/></g></g><g><rect fill="white" stroke="none" x="57.35084081785807" y="344.3609357488182" width="130.16894783082031" height="21.23576429"/><text fill="black" stroke="none" font-family="sans-serif" font-size="11pt" font-style="normal" font-weight="normal" text-decoration="normal" x="59.80112131285807" y="359.06261871881816" text-anchor="start" dominant-baseline="alphabetic" xml:space="preserve">Click "Report User"</text></g><g><path fill="none" stroke="black" paint-order="fill stroke markers" d=" M 23.64361483359375 365.5967000388182 L 207.777697249276 365.5967000388182" stroke-miterlimit="10" stroke-width="1.3612669416666667" stroke-dasharray=""/><g transform="translate(221.22701463294268,365.5967000388182) translate(-221.22701463294268,-365.5967000388182)"><path fill="black" stroke="none" paint-order="stroke fill markers" d=" M 207.614345216276 358.79036533048486 L 221.22701463294268 365.5967000388182 L 207.614345216276 372.40303474715154 Z"/></g></g><g><rect fill="white" stroke="none" x="43.38161779539713" y="390.0995049888182" width="158.1073938757422" height="21.23576429"/><text fill="black" stroke="none" font-family="sans-serif" font-size="11pt" font-style="normal" font-weight="normal" text-decoration="normal" x="45.831898290397135" y="404.80118795881816" text-anchor="start" dominant-baseline="alphabetic" xml:space="preserve">Report Dialogue Opens</text></g><g><path fill="none" stroke="black" paint-order="fill stroke markers" d=" M 221.22701463294268 411.3352692788182 L 37.09293221726042 411.3352692788182" stroke-miterlimit="10" stroke-width="1.3612669416666667" stroke-dasharray=""/><g transform="translate(23.64361483359375,411.3352692788182) translate(-23.64361483359375,-411.3352692788182)"><path fill="black" stroke="none" paint-order="stroke fill markers" d=" M 37.25628425026042 404.52893457048486 L 23.64361483359375 411.3352692788182 L 37.25628425026042 418.14160398715154 Z"/></g></g><g><rect fill="white" stroke="none" x="42.973605405260415" y="435.8380742288182" width="158.92341865601563" height="21.23576429"/><text fill="black" stroke="none" font-family="sans-serif" font-size="11pt" font-style="normal" font-weight="normal" text-decoration="normal" x="45.423885900260416" y="450.53975719881817" text-anchor="start" dominant-baseline="alphabetic" xml:space="preserve">Report Reason Entered</text></g><g><path fill="none" stroke="black" paint-order="fill stroke markers" d=" M 23.64361483359375 457.0738385188182 L 207.777697249276 457.0738385188182" stroke-miterlimit="10" stroke-width="1.3612669416666667" stroke-dasharray=""/><g transform="translate(221.22701463294268,457.0738385188182) translate(-221.22701463294268,-457.0738385188182)"><path fill="black" stroke="none" paint-order="stroke fill markers" d=" M 207.614345216276 450.26750381048487 L 221.22701463294268 457.0738385188182 L 207.614345216276 463.88017322715154 Z"/></g></g><g><rect fill="white" stroke="none" x="240.5570052046094" y="481.5766434688182" width="343.0607782751562" height="21.23576429"/><text fill="black" stroke="none" font-family="sans-serif" font-size="11pt" font-style="normal" font-weight="normal" text-decoration="normal" x="243.00728569960938" y="496.27832643881817" text-anchor="start" dominant-baseline="alphabetic" xml:space="preserve">submitReport(reporterToken,reporteeToken, reason)</text></g><g><path fill="none" stroke="black" paint-order="fill stroke markers" d=" M 221.22701463294268 502.8124077588182 L 589.4984414089765 502.8124077588182" stroke-miterlimit="10" stroke-width="1.3612669416666667" stroke-dasharray=""/><g transform="translate(602.9477587926432,502.8124077588182) translate(-602.9477587926432,-502.8124077588182)"><path fill="black" stroke="none" paint-order="stroke fill markers" d=" M 589.3350893759765 496.0060730504849 L 602.9477587926432 502.8124077588182 L 589.3350893759765 509.61874246715155 Z"/></g></g><g><rect fill="white" stroke="none" x="700.3290159246438" y="527.3152127088182" width="130.3765589148047" height="21.23576429"/><text fill="black" stroke="none" font-family="sans-serif" font-size="11pt" font-style="normal" font-weight="normal" text-decoration="normal" x="702.7792964196439" y="542.0168956788182" text-anchor="start" dominant-baseline="alphabetic" xml:space="preserve">Create New Report</text></g><g><path fill="none" stroke="black" paint-order="fill stroke markers" d=" M 602.9477587926432 548.5509769988182 L 914.6375145877826 548.5509769988182" stroke-miterlimit="10" stroke-width="1.3612669416666667" stroke-dasharray=""/><g transform="translate(928.0868319714492,548.5509769988182) translate(-928.0868319714492,-548.5509769988182)"><path fill="black" stroke="none" paint-order="stroke fill markers" d=" M 914.4741625547825 541.7446422904849 L 928.0868319714492 548.5509769988182 L 914.4741625547825 555.3573117071516 Z"/></g></g><g><rect fill="white" stroke="none" x="712.5516492864602" y="617.1588308588182" width="105.93129219117188" height="21.23576429"/><text fill="black" stroke="none" font-family="sans-serif" font-size="11pt" font-style="normal" font-weight="normal" text-decoration="normal" x="715.0019297814603" y="631.8605138288182" text-anchor="start" dominant-baseline="alphabetic" xml:space="preserve">Return success</text></g><g><path fill="none" stroke="black" paint-order="fill stroke markers" d=" M 928.0868319714492 638.3945951488182 L 616.3970761763098 638.3945951488182" stroke-miterlimit="10" stroke-width="1.3612669416666667" stroke-dasharray=""/><g transform="translate(602.9477587926432,638.3945951488182) translate(-602.9477587926432,-638.3945951488182)"><path fill="black" stroke="none" paint-order="stroke fill markers" d=" M 616.5604282093099 631.5882604404849 L 602.9477587926432 638.3945951488182 L 616.5604282093099 645.2009298571516 Z"/></g></g><g><rect fill="white" stroke="none" x="358.7101424116406" y="662.8974000988181" width="106.75448860230469" height="21.23576429"/><text fill="black" stroke="none" font-family="sans-serif" font-size="11pt" font-style="normal" font-weight="normal" text-decoration="normal" x="361.16042290664063" y="677.5990830688181" text-anchor="start" dominant-baseline="alphabetic" xml:space="preserve">Success shown</text></g><g><path fill="none" stroke="black" paint-order="fill stroke markers" d=" M 602.9477587926432 684.1331643888182 L 234.67633201660936 684.1331643888182" stroke-miterlimit="10" stroke-width="1.3612669416666667" stroke-dasharray=""/><g transform="translate(221.22701463294268,684.1331643888182) translate(-221.22701463294268,-684.1331643888182)"><path fill="black" stroke="none" paint-order="stroke fill markers" d=" M 234.83968404960936 677.3268296804848 L 221.22701463294268 684.1331643888182 L 234.83968404960936 690.9394990971515 Z"/></g></g><g><rect fill="white" stroke="none" x="719.0656034490579" y="752.7410182488181" width="92.90338386597656" height="21.23576429"/><text fill="black" stroke="none" font-family="sans-serif" font-size="11pt" font-style="normal" font-weight="normal" text-decoration="normal" x="721.5158839440579" y="767.4427012188181" text-anchor="start" dominant-baseline="alphabetic" xml:space="preserve">Return failure</text></g><g><path fill="none" stroke="black" paint-order="fill stroke markers" d=" M 928.0868319714492 773.9767825388182 L 616.3970761763098 773.9767825388182" stroke-miterlimit="10" stroke-width="1.3612669416666667" stroke-dasharray=""/><g transform="translate(602.9477587926432,773.9767825388182) translate(-602.9477587926432,-773.9767825388182)"><path fill="black" stroke="none" paint-order="stroke fill markers" d=" M 616.5604282093099 767.1704478304848 L 602.9477587926432 773.9767825388182 L 616.5604282093099 780.7831172471515 Z"/></g></g><g><rect fill="white" stroke="none" x="362.78314808791015" y="798.4795874888181" width="98.60847724976563" height="21.23576429"/><text fill="black" stroke="none" font-family="sans-serif" font-size="11pt" font-style="normal" font-weight="normal" text-decoration="normal" x="365.23342858291016" y="813.1812704588181" text-anchor="start" dominant-baseline="alphabetic" xml:space="preserve">Failure Shown</text></g><g><path fill="none" stroke="black" paint-order="fill stroke markers" d=" M 602.9477587926432 819.7153517788181 L 234.67633201660936 819.7153517788181" stroke-miterlimit="10" stroke-width="1.3612669416666667" stroke-dasharray=""/><g transform="translate(221.22701463294268,819.7153517788181) translate(-221.22701463294268,-819.7153517788181)"><path fill="black" stroke="none" paint-order="stroke fill markers" d=" M 234.83968404960936 812.9090170704848 L 221.22701463294268 819.7153517788181 L 234.83968404960936 826.5216864871514 Z"/></g></g><g><g/><path fill="none" stroke="black" paint-order="fill stroke markers" d=" M 164.0538030829427 573.0537819488183 L 985.2600435214492 573.0537819488183 L 985.2600435214492 844.2181567288181 L 164.0538030829427 844.2181567288181 L 164.0538030829427 573.0537819488183 Z" stroke-miterlimit="10" stroke-width="2.3336004714285714" stroke-dasharray=""/><path fill="white" stroke="black" paint-order="fill stroke markers" d=" M 164.0538030829427 573.0537819488183 L 164.0538030829427 592.6560259088183 L 210.413006680013 592.6560259088183 L 220.21412866001302 582.8549039288182 L 220.21412866001302 573.0537819488183 L 164.0538030829427 573.0537819488183" stroke-miterlimit="10" stroke-width="2.3336004714285714" stroke-dasharray=""/><text fill="black" stroke="none" font-family="sans-serif" font-size="8.8pt" font-style="normal" font-weight="bold" text-decoration="normal" x="180.38900638294268" y="586.1219445888182" text-anchor="start" dominant-baseline="alphabetic" xml:space="preserve">alt</text><g><rect fill="white" stroke="none" x="234.09905146501302" y="574.3605982128182" width="97.44603218140625" height="16.988611432000003"/></g><text fill="black" stroke="none" font-family="sans-serif" font-size="8.8pt" font-style="normal" font-weight="bold" text-decoration="normal" x="236.549331960013" y="586.1219445888182" text-anchor="start" dominant-baseline="alphabetic" xml:space="preserve">[Report Created]</text><g><path fill="none" stroke="black" paint-order="fill stroke markers" d=" M 164.0538030829427 708.6359693388182 L 985.2600435214492 708.6359693388182" stroke-miterlimit="10" stroke-width="2.3336004714285714" stroke-dasharray="4.083800825"/></g><g/><g><rect fill="white" stroke="none" x="234.09905146501302" y="709.9427856028182" width="120.24733223023438" height="16.988611432000003"/></g><text fill="black" stroke="none" font-family="sans-serif" font-size="8.8pt" font-style="normal" font-weight="bold" text-decoration="normal" x="236.549331960013" y="721.7041319788182" text-anchor="start" dominant-baseline="alphabetic" xml:space="preserve">[Report Not Created]</text></g><g/></g><g/><g/><g/><g/><g/></g></svg>