<svg xmlns="http://www.w3.org/2000/svg" xmlns:xlink="http://www.w3.org/1999/xlink" version="1.1" width="1191.01636525016" height="1174.1892633888176"><desc>title%20Report%20User%20Sequence%20Diagram%0A%0Aactor%20User%0Aparticipant%20Frontend%0Aparticipant%20ReportManagement%0Aparticipant%20UserManagement%0Adatabase%20GameOnDB%0A%0Aalt%20Profile%20Lookup%20Needed%0A%20%20%20%20Frontend-%3EUserManagement%3A%20getProfile(discordToken)%0A%20%20%20%20UserManagement-%3EGameOnDB%3A%20Query%20Database%0A%20%20%20%20GameOnDB--%3EUserManagement%3A%20Return%20User%0A%20%20%20%20UserManagement--%3E%3EFrontend%3A%20Return%20Offending%20User%20Profile%0Aend%0A%0AUser-%3EFrontend%3A%20Long-press%20on%20user%20-%3E%20Click%20%22Report%20User%22%0AFrontend-%3EUser%3A%20Display%20%22Report%20User%22%20Dialogue%0AUser-%3EFrontend%3A%20Enter%20Report%20Reason%0A%0Aalt%20User%20Clicks%20Submit%0A%20%20%20%20User-%3EFrontend%3A%20Click%20%22Submit%22%0A%20%20%20%20Frontend-%3EReportManagement%3A%20submitReport(reporterToken%2C%20reporteeToken%2C%20reason)%0A%20%20%20%20ReportManagement-%3EGameOnDB%3A%20Create%20New%20Report%0A%0A%20%20%20%20alt%20Report%20Created%20Successfully%0A%20%20%20%20%20%20%20%20GameOnDB--%3EReportManagement%3A%20Return%20success%0A%20%20%20%20%20%20%20%20ReportManagement--%3E%3EFrontend%3A%20Display%20%22Report%20Submitted%20Successfully%22%0A%20%20%20%20else%20Report%20Creation%20Failed%0A%20%20%20%20%20%20%20%20GameOnDB--%3EReportManagement%3A%20Return%20failure%0A%20%20%20%20%20%20%20%20ReportManagement--%3E%3EFrontend%3A%20Display%20%22Error%20Submitting%20Report%22%0A%20%20%20%20end%0A%0Aelse%20User%20Closes%20Report%20Dialogue%0A%20%20%20%20Frontend-%3EUser%3A%20No%20action%20taken%2C%20report%20not%20submitted%0Aend</desc><defs/><g><g/><g/><g/><g/><g/><g/><g/><g/><g/><g/><g/><g/><g/><g/><g/><g/><g/><g/><g/><g/><g/><g/><g/><g/><g/><g/><g/><g/><g/><g/><g/><g/><g/><g/><g/><g/><g/><g/><g/><g/><g/><g/><g/><g/><g/><g/><g/><g/><g/><g/><g/><g/><g/><g/><g/><g/><g/><g/><g/><g/><g/><g/><g/><g/><g/><g/><g/><g/><g/><g/><g/><g/><g/><g/><g/><g/><g/><g/><g/><g/><g/><g/><g/><g/><g/><g/><g/><g/><g/><g/><g/><g/><g/><g/><g/><g/><g/><g/><g/><g/><g/><g/><g/><g/><g/><g/><g><rect fill="white" stroke="none" x="0" y="0" width="1191" height="1174"/></g><g/><g><path fill="none" stroke="black" paint-order="fill stroke markers" d=" M 73.50841485 128.73625218881818 L 73.50841485 1174.1892633888176" stroke-miterlimit="10" stroke-width="1.3612669416666667" stroke-dasharray="12.565541,5.445067766666667"/><path fill="none" stroke="black" paint-order="fill stroke markers" d=" M 390.2399164559896 128.73625218881818 L 390.2399164559896 1174.1892633888176" stroke-miterlimit="10" stroke-width="1.3612669416666667" stroke-dasharray="12.565541,5.445067766666667"/><path fill="none" stroke="black" paint-order="fill stroke markers" d=" M 776.0336739213542 128.73625218881818 L 776.0336739213542 1174.1892633888176" stroke-miterlimit="10" stroke-width="1.3612669416666667" stroke-dasharray="12.565541,5.445067766666667"/><path fill="none" stroke="black" paint-order="fill stroke markers" d=" M 950.8620523789363 128.73625218881818 L 950.8620523789363 1174.1892633888176" stroke-miterlimit="10" stroke-width="1.3612669416666667" stroke-dasharray="12.565541,5.445067766666667"/><path fill="none" stroke="black" paint-order="fill stroke markers" d=" M 1101.1727471001602 128.73625218881818 L 1101.1727471001602 1174.1892633888176" stroke-miterlimit="10" stroke-width="1.3612669416666667" stroke-dasharray="12.565541,5.445067766666667"/></g><g><g><path fill="white" stroke="black" paint-order="fill stroke markers" d=" M 82.819480731 59.63834222981819 A 9.311065881 9.311065881 0 1 1 82.81947607546743 59.62903116548903 M 73.50841485 68.9494081108182 L 73.50841485 88.8783561368182 M 61.747068473999995 76.13689756281819 L 85.26976122599999 76.13689756281819 M 73.50841485 88.8783561368182 L 61.747068473999995 107.50048789881819 M 73.50841485 88.8783561368182 L 85.26976122599999 107.50048789881819" stroke-miterlimit="10" stroke-width="2.7769845610000004" stroke-dasharray=""/></g><g><g/><text fill="black" stroke="none" font-family="sans-serif" font-size="11pt" font-style="normal" font-weight="normal" text-decoration="normal" x="58.032401666406244" y="123.83569119881818" text-anchor="start" dominant-baseline="alphabetic" xml:space="preserve">User</text></g><path fill="none" stroke="none"/><g><path fill="white" stroke="black" paint-order="fill stroke markers" d=" M 343.1783607680677 84.63120327881819 L 437.3014721439115 84.63120327881819 L 437.3014721439115 128.73625218881818 L 343.1783607680677 128.73625218881818 L 343.1783607680677 84.63120327881819 Z" stroke-miterlimit="10" stroke-width="2.613632528" stroke-dasharray=""/></g><g><g/><text fill="black" stroke="none" font-family="sans-serif" font-size="11pt" font-style="normal" font-weight="normal" text-decoration="normal" x="360.9020563485677" y="112.40104888881817" text-anchor="start" dominant-baseline="alphabetic" xml:space="preserve">Frontend</text></g><path fill="none" stroke="none"/><g><path fill="white" stroke="black" paint-order="fill stroke markers" d=" M 693.5247381675143 84.63120327881819 L 858.5426096751941 84.63120327881819 L 858.5426096751941 128.73625218881818 L 693.5247381675143 128.73625218881818 L 693.5247381675143 84.63120327881819 Z" stroke-miterlimit="10" stroke-width="2.613632528" stroke-dasharray=""/></g><g><g/><text fill="black" stroke="none" font-family="sans-serif" font-size="11pt" font-style="normal" font-weight="normal" text-decoration="normal" x="711.2484337480143" y="112.40104888881817" text-anchor="start" dominant-baseline="alphabetic" xml:space="preserve">ReportManagement</text></g><path fill="none" stroke="none"/><g><path fill="white" stroke="black" paint-order="fill stroke markers" d=" M 874.877812975194 84.63120327881819 L 1026.8462917826785 84.63120327881819 L 1026.8462917826785 128.73625218881818 L 874.877812975194 128.73625218881818 L 874.877812975194 84.63120327881819 Z" stroke-miterlimit="10" stroke-width="2.613632528" stroke-dasharray=""/></g><g><g/><text fill="black" stroke="none" font-family="sans-serif" font-size="11pt" font-style="normal" font-weight="normal" text-decoration="normal" x="892.6015085556941" y="112.40104888881817" text-anchor="start" dominant-baseline="alphabetic" xml:space="preserve">UserManagement</text></g><g><path fill="white" stroke="black" paint-order="fill stroke markers" d=" M 1077.3233502821602 96.71925372081819 L 1077.3233502821602 62.41532679081819 L 1125.0221439181603 62.41532679081819 L 1125.0221439181603 96.71925372081819" stroke-miterlimit="10" stroke-width="2.7769845610000004" stroke-dasharray=""/><path fill="white" stroke="black" paint-order="fill stroke markers" d=" M 1125.0221439181603 61.22285694991819 L 1125.0209514582566 61.33066749483481 L 1125.0173741977906 61.43846725878678 L 1125.011412494485 61.546245461887544 L 1125.003066944506 61.65399132640659 L 1124.9923383824007 61.761694077847274 L 1124.9792278810169 61.86934294602419 L 1124.9637367513935 61.976927166140236 L 1124.945866542631 62.084435979863045 L 1124.925619041735 62.19185863640084 L 1124.9029962734387 62.299184393577484 L 1124.8780005000003 62.4064025189067 L 1124.8506342209764 62.51350229066531 L 1124.8209001729717 62.62047299896537 L 1124.7888013293666 62.7273039468252 L 1124.7543409000184 62.83398445123905 L 1124.7175223309416 62.94050384424536 L 1124.6783493039625 63.04685147399361 L 1124.6368257363506 63.15301670580944 L 1124.5929557804286 63.25898892325815 L 1124.5467438231553 63.364757529206294 L 1124.498194485688 63.47031194688142 L 1124.44731262292 63.575641620929716 L 1124.3941033229949 63.68073601847156 L 1124.3385719067987 63.78558463015478 L 1124.2807239274268 63.89017697120557 L 1124.2205651696286 63.994502582477 L 1124.1581016492298 64.09855103149486 L 1124.0933396125308 64.20231191350096 L 1124.0262855356807 64.3057748524936 L 1123.9569461240317 64.40892950226505 L 1123.8853283114672 64.51176554743633 L 1123.8114392597085 64.61427270448858 L 1123.7352863575993 64.71644072279157 L 1123.6568772203666 64.81825938562858 L 1123.5762196888586 64.91971851121816 L 1123.493321828761 65.02080795373233 L 1123.4081919297912 65.12151760431107 L 1123.3208385048679 65.22183739207324 L 1123.2312702892607 65.32175728512367 L 1123.1394962397164 65.42126729155632 L 1123.0455255335642 65.52035746045347 L 1122.9493675677957 65.6190178828808 L 1122.8510319581274 65.71723869287828 L 1122.7505285380387 65.81501006844678 L 1122.6478673577874 65.91232223253022 L 1122.5430586834063 66.00916545399325 L 1122.4361129956756 66.10553004859446 L 1122.3270409890747 66.20140637995469 L 1122.2158535707133 66.29678486052069 L 1122.1025618592407 66.39165595252388 L 1121.9871771837338 66.48601016893414 L 1121.8697110825638 66.57983807440844 L 1121.750175302243 66.67313028623443 L 1121.6285817962496 66.76587747526865 L 1121.5049427238332 66.85807036686953 L 1121.3792704487978 66.94969974182469 L 1121.2515775382662 67.04075643727302 L 1121.1218767614234 67.13123134762085 L 1120.9901810882384 67.22111542545254 L 1120.8565036881691 67.3103996824352 L 1120.7208579288442 67.39907519021754 L 1120.5832573747264 67.4871330813227 L 1120.4437157857565 67.57456455003492 L 1120.3022471159773 67.6613608532802 L 1120.1588655121375 67.74751331150055 L 1120.013585312278 67.83301330952195 L 1119.8664210442985 67.91785229741582 L 1119.7173874245022 68.00202179135408 L 1119.5664993561275 68.08551337445749 L 1119.4137719278551 68.1683186976373 L 1119.2592204123007 68.25042948043021 L 1119.1028602644872 68.33183751182635 L 1118.944707120299 68.41253465109044 L 1118.7847767949188 68.4925128285758 L 1118.6230852812455 68.5717640465313 L 1118.459648748296 68.65028037990122 L 1118.2944835395876 68.72805397711764 L 1118.1276061715034 68.80507706088565 L 1117.959033331641 68.88134192896105 L 1117.7887818771437 68.95684095492061 L 1117.6168688330156 69.03156658892462 L 1117.4433113904176 69.10551135847197 L 1117.2681269049492 69.17866786914732 L 1117.0913328949132 69.25102880536058 L 1116.912947039563 69.3225869310784 L 1116.7329871773359 69.39333509054786 L 1116.5514713040677 69.46326620901198 L 1116.3684175711949 69.53237329341717 L 1116.1838442839378 69.60064943311258 L 1115.9977698994717 69.66808780054113 L 1115.8102130250797 69.7346816519223 L 1115.621192416293 69.80042432792644 L 1115.4307269750152 69.86530925434072 L 1115.2388357476314 69.92932994272657 L 1115.0455379231046 69.9924799910685 L 1114.850852831056 70.05475308441433 L 1114.6547999398329 70.1161429955066 L 1114.4573988545608 70.17664358540536 L 1114.2586693151836 70.23624880410202 L 1114.0586311944899 70.29495269112441 L 1113.857304496125 70.35274937613272 L 1113.6547093525908 70.40963307950663 L 1113.4508660232332 70.46559811292322 L 1113.2457948922147 70.52063887992576 L 1113.039516466478 70.57474987648341 L 1112.8320513736937 70.62792569154163 L 1112.623420360198 70.68016100756323 L 1112.4136442889185 70.73145060106012 L 1112.2027441372875 70.78178934311569 L 1111.9907409951445 70.8311721998977 L 1111.7776560626269 70.8795942331616 L 1111.5635106480504 70.92705060074444 L 1111.3483261657782 70.973536557049 L 1111.132124134079 71.01904745351838 L 1110.9149261729758 71.06357873910088 L 1110.6967540020837 71.10712596070502 L 1110.4776294384383 71.14968476364494 L 1110.257574394313 71.19125089207583 L 1110.0366108750288 71.23182018941947 L 1109.8147609767539 71.27138859877994 L 1109.5920468842928 71.30995216334925 L 1109.3684908688695 71.34750702680313 L 1109.1441152858988 71.38404943368649 L 1108.9189425727525 71.4195757297891 L 1108.692995246514 71.45408236251096 L 1108.466295901728 71.48756588121756 L 1108.2388672081395 71.52002293758491 L 1108.0107319084289 71.55145028593446 L 1107.7819128159354 71.58184478355753 L 1107.5524328123781 71.61120339102969 L 1107.322314845566 71.63952317251467 L 1107.091581927104 71.66680129605793 L 1106.8602571300917 71.69303503386982 L 1106.6283635868158 71.71822176259843 L 1106.3959244864377 71.7423589635919 L 1106.1629630726736 71.7654442231502 L 1105.9295026414707 71.78747523276665 L 1105.6955665386777 71.80844978935863 L 1105.4611781577098 71.82836579548797 L 1105.2263609372098 71.84722125957065 L 1104.9911383587041 71.86501429607597 L 1104.7555339442545 71.8817431257151 L 1104.5195712541063 71.89740607561903 L 1104.2832738843315 71.91200157950583 L 1104.0466654644704 71.92552817783725 L 1103.8097696551679 71.93798451796474 L 1103.5726101458074 71.94936935426468 L 1103.3352106521422 71.95968154826289 L 1103.0975949139238 71.96892006874862 L 1102.8597866925281 71.97708399187748 L 1102.6218097685792 71.98417250126396 L 1102.3836879395708 71.99018488806304 L 1102.1454450174874 71.99512055104105 L 1101.9071048264232 71.99897899663581 L 1101.668691200198 72.00175983900598 L 1101.4302279799765 72.00346280006961 L 1101.1917390118813 72.00408770953204 L 1100.9532481446108 72.00363450490285 L 1100.714779227053 72.0021032315021 L 1100.4763561059008 71.99949404245586 L 1100.2380026232677 71.9958071986809 L 1099.9997426143034 71.99104306885846 L 1099.76159990481 71.98520212939759 L 1099.5235983088603 71.97828496438737 L 1099.2857616264155 71.97029226553852 L 1099.0481136409455 71.96122483211428 L 1098.810678117051 71.95108357085043 L 1098.5734787980864 71.93986949586466 L 1098.336539403786 71.92758372855508 L 1098.0998836278916 71.91422749748824 L 1097.8635351357839 71.89980213827607 L 1097.627517562115 71.8843090934425 L 1097.3918545084452 71.86774991227908 L 1097.1565695408842 71.85012625069015 L 1096.9216861877321 71.83143987102717 L 1096.687227937129 71.81169264191253 L 1096.4532182347039 71.79088653805269 L 1096.2196804812327 71.7690236400407 L 1095.9866380302956 71.74610613414815 L 1095.754114185944 71.72213631210651 L 1095.522132200368 71.69711657087802 L 1095.2907152715734 71.67104941241597 L 1095.05988654106 71.64393744341446 L 1094.8296690915083 71.6157833750478 L 1094.6000859444719 71.58659002269937 L 1094.3711600580737 71.55636030568009 L 1094.1429143247117 71.52509724693644 L 1093.915371568769 71.49280397274828 L 1093.6885545443317 71.45948371241609 L 1093.462485932913 71.42513979793813 L 1093.237188341186 71.38977566367726 L 1093.0126842987222 71.35339484601741 L 1092.7889962557383 71.31600098301004 L 1092.5661465808523 71.27759781401028 L 1092.3441575588463 71.23818917930303 L 1092.123051388437 71.19777901971894 L 1091.9028501800578 71.15637137624027 L 1091.6835759536455 71.11397038959687 L 1091.4652506364403 71.07058029985207 L 1091.247896060792 71.02620544597868 L 1091.031533961977 70.98085026542512 L 1090.8161859760246 70.93451929367163 L 1090.6018736375543 70.8872171637768 L 1090.3886183776212 70.8389486059142 L 1090.1764415215737 70.78971844689937 L 1089.9653642869205 70.7395316097072 L 1089.7554077812092 70.6883931129796 L 1089.5465929999152 70.6363080705236 L 1089.338940824343 70.58328169080006 L 1089.1324720195366 70.52931927640276 L 1088.927207232205 70.47442622352818 L 1088.7231669886555 70.41860802143584 L 1088.5203716927426 70.36187025189946 L 1088.318841623827 70.3042185886487 L 1088.118596934747 70.24565879680183 L 1087.9196576498057 70.18619673228926 L 1087.722043662765 70.12583834126788 L 1087.525774734859 70.06458965952649 L 1087.3308704928172 70.00245681188221 L 1087.137350426901 69.93944601156807 L 1086.9452338889564 69.87556355961155 L 1086.7545400904767 69.81081584420461 L 1086.5652881006827 69.74520934006487 L 1086.3774968446157 69.67875060778805 L 1086.191185101245 69.61144629319199 L 1086.0063715015897 69.54330312665208 L 1085.8230745268556 69.47432792242817 L 1085.6413125065874 69.40452757798322 L 1085.4611036168358 69.3339090732935 L 1085.2824658783395 69.26247947015062 L 1085.1054171547237 69.19024591145539 L 1084.9299751507128 69.11721562050347 L 1084.7561574103613 69.0433959002631 L 1084.5839813152984 68.96879413264479 L 1084.4134640829902 68.89341777776313 L 1084.2446227650175 68.81727437319081 L 1084.0774742453716 68.74037153320482 L 1083.9120352387652 68.66271694802508 L 1083.7483222889612 68.58431838304537 L 1083.5863517671178 68.5051836780569 L 1083.4261398701524 68.4253207464642 L 1083.2677026191213 68.34473757449386 L 1083.1110558576177 68.26344222039596 L 1082.9562152501867 68.18144281363814 L 1082.8031962807604 68.09874755409275 L 1082.652014251108 68.01536471121685 L 1082.5026842793068 67.9313026232252 L 1082.3552212982293 67.84656969625658 L 1082.2096400540509 67.76117440353308 L 1082.0659551047743 67.67512528451279 L 1081.924180818775 67.5884309440359 L 1081.7843313733636 67.50110005146425 L 1081.646420753368 67.41314133981427 L 1081.5104627497349 67.32456360488388 L 1081.376470958152 67.23537570437271 L 1081.244458777686 67.14558655699653 L 1081.1144394094458 67.05520514159522 L 1080.9864258552593 66.96424049623502 L 1080.8604309163754 66.87270171730466 L 1080.736467192183 66.78059795860575 L 1080.6145470789513 66.68793843043741 L 1080.4946827685899 66.59473239867523 L 1080.3768862474299 66.50098918384472 L 1080.2611692950254 66.40671816018926 L 1080.1475434829754 66.31192875473263 L 1080.0360201737658 66.2166304463364 L 1079.9266105196352 66.120832764752 L 1079.8193254614575 66.02454528966774 L 1079.7141757276493 65.92777764975091 L 1079.6111718330963 65.83053952168484 L 1079.510324078102 65.73284062920132 L 1079.4116425473578 65.63469074210818 L 1079.315137108935 65.53609967531233 L 1079.2208174132963 65.4370772878383 L 1079.1286928923334 65.33763348184232 L 1079.0387727584211 65.23777820162212 L 1078.9510660034982 65.13752143262249 L 1078.865581398167 65.03687320043682 L 1078.7823274908167 64.93584356980442 L 1078.7013126067689 64.83444264360419 L 1078.622544847444 64.73268056184422 L 1078.5460320895527 64.63056750064791 L 1078.471781984307 64.52811367123628 L 1078.3998019566552 64.42532931890689 L 1078.3300992045406 64.32222472200931 L 1078.26268069818 64.21881019091732 L 1078.197553179368 64.11509606699785 L 1078.1347231608022 64.01109272157687 L 1078.074196925432 63.90681055490224 L 1078.0159805258306 63.80225999510374 L 1077.9600797835892 63.697451497150205 L 1077.9065002887357 63.59239554180411 L 1077.8552473991751 63.48710263457343 L 1077.806326240153 63.381583304661156 L 1077.7597417037455 63.27584810391234 L 1077.7154984483664 63.16990760575894 L 1077.673600898305 63.06377240416249 L 1077.6340532432812 62.95745311255472 L 1077.5968594380276 62.85096036277616 L 1077.5620232018937 62.744304804013076 L 1077.529548018474 62.63749710173245 L 1077.49943713526 62.530547936615505 L 1077.4716935633148 62.423468003489624 L 1077.4463200769724 62.316268010258895 L 1077.4233192135605 62.208958676833305 L 1077.402693273146 62.10155073405677 L 1077.384444318306 61.99405492263407 L 1077.3685741739205 61.88648199205676 L 1077.355084426991 61.77884269952825 L 1077.3439764264808 61.6711478088881 L 1077.3352512831807 61.56340808953563 L 1077.3289098695977 61.45563431535299 L 1077.324952819868 61.34783726362778 L 1077.3233805296934 61.24002771397536 L 1077.3241931563014 61.13221644726084 L 1077.32739061843 61.02441424452105 L 1077.3329725963356 60.916631885886424 L 1077.3409385318253 60.808880149503025 L 1077.351287628312 60.70116981045468 L 1077.3640188508948 60.59351163968555 L 1077.379130926462 60.48591640292299 L 1077.3966223438185 60.378394859601016 L 1077.4164913538373 60.27095776178435 L 1077.438735969634 60.163615853093255 L 1077.4633539667655 60.05637986762915 L 1077.4903428834525 59.949260528901206 L 1077.519700020826 59.84226854875404 L 1077.5514224431963 59.7354146262965 L 1077.5855069783481 59.62870944683179 L 1077.6219502178562 59.52216368078894 L 1077.660748517427 59.41578798265577 L 1077.7018979972627 59.30959298991343 L 1077.7453945424497 59.203589321972714 L 1077.7912338033698 59.09778757911208 L 1077.839411196135 58.992198341417634 L 1077.8899219030461 58.88683216772516 L 1077.9427608730748 58.78169959456423 L 1077.9979228223679 58.67681113510454 L 1078.0554022347765 58.57217727810464 L 1078.1151933624074 58.46780848686303 L 1078.1772902261973 58.36371519817185 L 1078.2416866165117 58.25990782127324 L 1078.3083760937654 58.15639673681838 L 1078.3773519890663 58.053192295829454 L 1078.448607404882 57.950304818664556 L 1078.5221352157307 57.84774459398567 L 1078.5979280688923 57.745521877729786 L 1078.6759783851448 57.64364689208335 L 1078.7562783595215 57.54212982446004 L 1078.838819962092 57.44098082648201 L 1078.9235949387648 57.340210012964775 L 1079.0105948121127 57.2398274609057 L 1079.0998108822212 57.13984320847635 L 1079.191234227557 57.040267254018644 L 1079.2848557058626 56.94110955504505 L 1079.3806659550678 56.84238002724283 L 1079.4786553942274 56.74408854348249 L 1079.5788142244792 56.646244932830506 L 1079.6811324300236 56.54885897956639 L 1079.7855997791255 56.45194042220433 L 1079.892205825137 56.35549895251929 L 1080.0009399075423 56.25954421457787 L 1080.1117911530237 56.16408580377391 L 1080.224748476549 56.06913326586893 L 1080.33980058248 55.974696096037604 L 1080.456935965702 55.88078373791821 L 1080.5761429127747 55.7874055826683 L 1080.697409503102 55.694570968025594 L 1080.8207236101264 55.60228917737418 L 1080.94607290254 55.51056943881623 L 1081.0734448455175 55.41942092424918 L 1081.2028267019714 55.328852748448504 L 1081.3342055338235 55.23887396815633 L 1081.4675682033 55.14949358117568 L 1081.6029013742454 55.0607205254708 L 1081.7401915134553 54.97256367827326 L 1081.87942489203 54.88503185519433 L 1082.020587586748 54.79813380934336 L 1082.1636654814572 54.71187823045254 L 1082.3086442684873 54.62627374400786 L 1082.4555094500806 54.541328910386646 L 1082.6042463398412 54.45705222400146 L 1082.7548400642042 54.373452112450714 L 1082.9072755639224 54.290536935675895 L 1083.0615375955733 54.20831498512558 L 1083.217610733082 54.12679448292632 L 1083.375479369265 54.0459835810604 L 1083.5351277173897 53.965890360550645 L 1083.696539812755 53.88652283065238 L 1083.8596995142852 53.80788892805245 L 1084.024590506147 53.72999651607559 L 1084.191196299378 53.652853383898076 L 1084.3595002335376 53.57646724576885 L 1084.5294854783729 53.50084574023808 L 1084.7011350355012 53.42599642939328 L 1084.8744317401095 53.35192679810317 L 1085.049358262672 53.278644253269164 L 1085.2258971106821 53.20615612308466 L 1085.4040306304023 53.13446965630228 L 1085.5837410086287 53.06359202150896 L 1085.7650102744738 52.99353030640911 L 1085.9478203011615 52.924291517115876 L 1086.1321528078417 52.85588257745046 L 1086.3179893614174 52.78831032824984 L 1086.505311378388 52.72158152668263 L 1086.694100126708 52.65570284557336 L 1086.8843367276597 52.590680872735255 L 1087.0760021577419 52.52652211031142 L 1087.269077250571 52.463232974124615 L 1087.4635426987986 52.40081979303573 L 1087.659379056042 52.33928880831086 L 1087.856566738829 52.278646172997206 L 1088.0550860285553 52.21889795130775 L 1088.2549170734571 52.160050118014894 L 1088.4560398905971 52.1021085578529 L 1088.6584343678608 52.045079064929524 L 1088.8620802659689 51.98896734214652 L 1089.0669572205018 51.933779000629414 L 1089.2730447439344 51.87951955916637 L 1089.4803222276864 51.826194443656306 L 1089.688768944182 51.77380898656634 L 1089.898364048923 51.72236842639853 L 1090.109086582574 51.67187790716602 L 1090.320915473057 51.622342477878675 L 1090.5338295376596 51.57376709203812 L 1090.7478074851526 51.526156607142475 L 1090.9628279179199 51.47951578420055 L 1091.178869334097 51.43384928725578 L 1091.3959101297228 51.38916168291979 L 1091.613928600898 51.34545743991578 L 1091.8329029459576 51.302740928631636 L 1092.0528112676493 51.261016420682886 L 1092.2736315753245 51.220288088485546 L 1092.495341787136 51.18056000483891 L 1092.717919732248 51.14183614251822 L 1092.941343153051 51.10412037387746 L 1093.1655897073892 51.06741647046204 L 1093.3906369707943 51.03172810263173 L 1093.616462438727 50.99705883919358 L 1093.843043528829 50.96341214704502 L 1094.07035758318 50.930791390827245 L 1094.2983818705643 50.899199832588685 L 1094.5270935887427 50.86864063145883 L 1094.7564698667343 50.83911684333235 L 1094.9864877671023 50.81063142056343 L 1095.2171242882484 50.78318721167063 L 1095.448356366713 50.75678696105195 L 1095.6801608794804 50.731433308710464 L 1095.9125146462927 50.70712878999027 L 1096.145394431967 50.683875835323 L 1096.3787769487185 50.66167676998473 L 1096.61263885849 50.6405338138635 L 1096.846956775286 50.6204490812373 L 1097.0817072675095 50.60142458056266 L 1097.316866860307 50.583462214273794 L 1097.5524120379155 50.566563778592354 L 1097.788319246013 50.55073096334783 L 1098.0245648940759 50.53596535180856 L 1098.2611253577356 50.52226842052339 L 1098.4979769811434 50.50964153917403 L 1098.735096079334 50.49808597043808 L 1098.9724589405955 50.48760286986282 L 1099.2100418288392 50.47819328574954 L 1099.4478209859747 50.46985815904882 L 1099.685772634284 50.462598323266384 L 1099.9238729788008 50.456414504379765 L 1100.1620982096888 50.45130732076569 L 1100.4004245046237 50.44727728313828 L 1100.6388280311749 50.444324794497916 L 1100.8772849491877 50.44245015009101 L 1101.1157714131696 50.44165353738045 L 1101.3542635746726 50.44193503602685 L 1101.5927375846795 50.443294617880554 L 1101.8311695959878 50.445732146984525 L 1102.0695357655952 50.44924737958788 L 1102.3078122570837 50.45383996417029 L 1102.545975243002 50.459509441477124 L 1102.7840009072506 50.46625524456538 L 1103.021865447461 50.474076698860365 L 1103.2595450773779 50.48297302222316 L 1103.4970160292357 50.49294332502887 L 1103.7342545561378 50.50398661025549 L 1103.9712369344288 50.51610177358371 L 1104.2079394660684 50.52928760350731 L 1104.4443384810006 50.54354278145426 L 1104.6804103395211 50.55886588191867 L 1104.9161314346409 50.575255372603245 L 1105.1514781944466 50.592709614572584 L 1105.3864270844583 50.61122686241703 L 1105.6209546099833 50.630805264427224 L 1105.855037318464 50.651442862779284 L 1106.0886518018247 50.67313759373059 L 1106.3217746988119 50.695887287826096 L 1106.5543826973299 50.71968967011537 L 1106.786452536773 50.74454236038002 L 1107.0179610103505 50.77044287337172 L 1107.2488849674078 50.797388619060754 L 1107.479201315742 50.825376902895016 L 1107.70888702391 50.85440492606945 L 1107.9379191235323 50.88446978580591 L 1108.16627471159 50.9155684756435 L 1108.3939309527145 50.947697885739125 L 1108.6208650814713 50.980854803178566 L 1108.8470544046368 51.01503591229771 L 1109.0724763034668 51.05023779501413 L 1109.29710823596 51.08645693116888 L 1109.5209277391095 51.12368969887854 L 1109.743912431152 51.16193237489736 L 1109.966040013804 51.201181134989596 L 1110.1872882744926 51.241432054311964 L 1110.4076350885757 51.28268110780607 L 1110.6270584215556 51.32492417060092 L 1110.8455363312821 51.368157018425464 L 1111.063046970146 51.41237532803093 L 1111.2795685872647 51.45757467762322 L 1111.4950795306572 51.503750547305025 L 1111.7095582494085 51.55089831952786 L 1111.9229832958254 51.5990132795538 L 1112.1353333275813 51.64809061592693 L 1112.34658710985 51.69812542095451 L 1112.5567235174292 51.749112691197745 L 1112.7657215368533 51.801047327972086 L 1112.9735602684943 51.85392413785714 L 1113.1802189286527 51.90773783321599 L 1113.3856768516343 51.962483032723924 L 1113.5899134918184 52.01815426190663 L 1113.7929084257107 52.07474595368758 L 1113.9946413539874 52.132252448944755 L 1114.1950921035234 52.190667997076545 L 1114.3942406294111 52.24998675657682 L 1114.5920670169637 52.310202795619055 L 1114.7885514837074 52.371310092649544 L 1114.983674381359 52.43330253698949 L 1115.1774161977917 52.49617392944612 L 1115.3697575589852 52.559917982932596 L 1115.5606792309636 52.62452832309667 L 1115.7501621217189 52.68999848895818 L 1115.9381872831198 52.7563219335551 L 1116.1247359128067 52.823492024598224 L 1116.3097893560725 52.89150204513444 L 1116.4933291077268 52.960345194218355 L 1116.6753368139475 53.03001458759244 L 1116.8557942741154 53.10050325837541 L 1117.0346834426352 53.171804157758935 L 1117.2119864307392 53.243910155712484 L 1117.3876855082758 53.31681404169635 L 1117.5617631054843 53.39050852538269 L 1117.7342018147494 53.46498623738456 L 1117.9049843923444 53.5402397299928 L 1118.0740937601538 53.61626147792087 L 1118.2415130073814 53.69304387905734 L 1118.4072253922423 53.770579255226075 L 1118.571214343636 53.848859852954064 L 1118.733463462804 53.92787784424677 L 1118.8939565249696 54.00762532737092 L 1119.0526774809603 54.08809432764465 L 1119.209610458813 54.16927679823499 L 1119.3647397653604 54.251164620962534 L 1119.518049887801 54.33374960711325 L 1119.6695254952508 54.41702349825734 L 1119.819151440275 54.500977967075094 L 1119.9669127604038 54.58560461818958 L 1120.1127946796282 54.670894989006214 L 1120.2567826098782 54.75684055055899 L 1120.3988621524804 54.84343270836337 L 1120.539019099599 54.93066280327574 L 1120.6772394356562 55.0185221123593 L 1120.8135093387336 55.107001849756344 L 1120.9478151819544 55.196093167566886 L 1121.0801435348462 55.28578715673337 L 1121.2104811646839 55.37607484793163 L 1121.3388150378132 55.46694721246779 L 1121.465132320954 55.55839516318112 L 1121.5894203824826 55.65040955535275 L 1121.711666793697 55.742981187620146 L 1121.8318593300578 55.83610080289723 L 1121.9499859724112 55.92975908930006 L 1122.066034908192 56.02394668107806 L 1122.179994532603 56.11865415955053 L 1122.2918534497765 56.213872054048544 L 1122.4016004739144 56.30959084286201 L 1122.5092246304055 56.405800954191804 L 1122.614715156924 56.50249276710697 L 1122.7180615045052 56.5996566125068 L 1122.8192533386 56.69728277408771 L 1122.91828054011 56.79536148931491 L 1123.015133206397 56.89388295039859 L 1123.1098016522753 56.99283730527477 L 1123.2022764109793 57.09221465859041 L 1123.29254823511 57.19200507269298 L 1123.3806080975603 57.29219856862425 L 1123.4664471924175 57.39278512711811 L 1123.5500569358433 57.49375468960253 L 1123.6314289669333 57.59509715920541 L 1123.7105551485522 57.69680240176424 L 1123.7874275681477 57.79886024683951 L 1123.8620385385418 57.90126048873177 L 1123.9343805986998 58.003992887502164 L 1124.004446514476 58.10704716999642 L 1124.072229279337 58.21041303087217 L 1124.137722115063 58.31408013362946 L 1124.200918472425 58.41803811164441 L 1124.2618120318396 58.52227656920584 L 1124.3203967040022 58.62678508255487 L 1124.3766666304937 58.731553200927245 L 1124.430616184369 58.83657044759845 L 1124.482239970717 58.94182632093131 L 1124.531532827203 59.04731029542622 L 1124.5784898245813 59.153011822773635 L 1124.6231062671923 59.25892033290889 L 1124.6653776934284 59.36502523506925 L 1124.7052998761822 59.471315918852895 L 1124.7428688232687 59.57778175528004 L 1124.778080777825 59.684412097855756 L 1124.8109322186842 59.79119628363465 L 1124.84141986073 59.89812363428712 L 1124.8695406552238 60.005183457167206 L 1124.8952917901092 60.11236504638185 L 1124.9186706902942 60.21965768386144 L 1124.9396750179087 60.327050640431644 L 1124.9583026725368 60.43453317688629 L 1124.9745517914291 60.5420945450613 L 1124.988420749687 60.6497239889095 L 1124.9999081604262 60.757410745576195 L 1125.0090128749155 60.86514404647545 L 1125.0157339826906 60.972913118366954 L 1125.0200708116467 61.08070718443333 L 1125.0220229281042 61.188515465357796 M 1125.0221439181603 95.52678387991818 L 1125.0209514582566 95.6345944248348 L 1125.0173741977906 95.74239418878678 L 1125.011412494485 95.85017239188754 L 1125.003066944506 95.95791825640659 L 1124.9923383824007 96.06562100784727 L 1124.9792278810169 96.1732698760242 L 1124.9637367513935 96.28085409614023 L 1124.945866542631 96.38836290986303 L 1124.925619041735 96.49578556640084 L 1124.9029962734387 96.60311132357748 L 1124.8780005000003 96.7103294489067 L 1124.8506342209764 96.8174292206653 L 1124.8209001729717 96.92439992896537 L 1124.7888013293666 97.0312308768252 L 1124.7543409000184 97.13791138123905 L 1124.7175223309416 97.24443077424536 L 1124.6783493039625 97.35077840399362 L 1124.6368257363506 97.45694363580944 L 1124.5929557804286 97.56291585325815 L 1124.5467438231553 97.66868445920629 L 1124.498194485688 97.77423887688141 L 1124.44731262292 97.8795685509297 L 1124.3941033229949 97.98466294847155 L 1124.3385719067987 98.08951156015478 L 1124.2807239274268 98.19410390120557 L 1124.2205651696286 98.29842951247699 L 1124.1581016492298 98.40247796149485 L 1124.0933396125308 98.50623884350097 L 1124.0262855356807 98.60970178249359 L 1123.9569461240317 98.71285643226504 L 1123.8853283114672 98.81569247743631 L 1123.8114392597085 98.91819963448859 L 1123.7352863575993 99.02036765279156 L 1123.6568772203666 99.12218631562857 L 1123.5762196888586 99.22364544121817 L 1123.493321828761 99.32473488373233 L 1123.4081919297912 99.42544453431107 L 1123.3208385048679 99.52576432207324 L 1123.2312702892607 99.62568421512367 L 1123.1394962397164 99.72519422155631 L 1123.0455255335642 99.82428439045346 L 1122.9493675677957 99.92294481288079 L 1122.8510319581274 100.02116562287829 L 1122.7505285380387 100.11893699844678 L 1122.6478673577874 100.2162491625302 L 1122.5430586834063 100.31309238399325 L 1122.4361129956756 100.40945697859446 L 1122.3270409890747 100.50533330995468 L 1122.2158535707133 100.60071179052068 L 1122.1025618592407 100.69558288252388 L 1121.9871771837338 100.78993709893413 L 1121.8697110825638 100.88376500440843 L 1121.750175302243 100.97705721623441 L 1121.6285817962496 101.06980440526866 L 1121.5049427238332 101.16199729686952 L 1121.3792704487978 101.25362667182469 L 1121.2515775382662 101.34468336727302 L 1121.1218767614234 101.43515827762084 L 1120.9901810882384 101.52504235545253 L 1120.8565036881691 101.61432661243519 L 1120.7208579288442 101.70300212021755 L 1120.5832573747264 101.7910600113227 L 1120.4437157857565 101.87849148003492 L 1120.3022471159773 101.9652877832802 L 1120.1588655121375 102.05144024150056 L 1120.013585312278 102.13694023952193 L 1119.8664210442985 102.22177922741581 L 1119.7173874245022 102.30594872135407 L 1119.5664993561275 102.38944030445748 L 1119.4137719278551 102.47224562763729 L 1119.2592204123007 102.5543564104302 L 1119.1028602644872 102.63576444182635 L 1118.944707120299 102.71646158109044 L 1118.7847767949188 102.79643975857579 L 1118.6230852812455 102.8756909765313 L 1118.459648748296 102.95420730990122 L 1118.2944835395876 103.03198090711763 L 1118.1276061715034 103.10900399088564 L 1117.959033331641 103.18526885896105 L 1117.7887818771437 103.2607678849206 L 1117.6168688330156 103.33549351892461 L 1117.4433113904176 103.40943828847196 L 1117.2681269049492 103.48259479914732 L 1117.0913328949132 103.55495573536056 L 1116.912947039563 103.6265138610784 L 1116.7329871773359 103.69726202054787 L 1116.5514713040677 103.76719313901197 L 1116.3684175711949 103.83630022341715 L 1116.1838442839378 103.90457636311257 L 1115.9977698994717 103.97201473054113 L 1115.8102130250797 104.03860858192229 L 1115.621192416293 104.10435125792642 L 1115.4307269750152 104.1692361843407 L 1115.2388357476314 104.23325687272656 L 1115.0455379231046 104.29640692106851 L 1114.850852831056 104.35868001441433 L 1114.6547999398329 104.4200699255066 L 1114.4573988545608 104.48057051540535 L 1114.2586693151836 104.54017573410202 L 1114.0586311944899 104.5988796211244 L 1113.857304496125 104.65667630613272 L 1113.6547093525908 104.71356000950664 L 1113.4508660232332 104.7695250429232 L 1113.2457948922147 104.82456580992574 L 1113.039516466478 104.87867680648341 L 1112.8320513736937 104.93185262154162 L 1112.623420360198 104.98408793756322 L 1112.4136442889185 105.0353775310601 L 1112.2027441372875 105.08571627311568 L 1111.9907409951445 105.13509912989768 L 1111.7776560626269 105.1835211631616 L 1111.5635106480504 105.23097753074444 L 1111.3483261657782 105.27746348704899 L 1111.132124134079 105.32297438351839 L 1110.9149261729758 105.36750566910086 L 1110.6967540020837 105.41105289070501 L 1110.4776294384383 105.45361169364494 L 1110.257574394313 105.49517782207583 L 1110.0366108750288 105.53574711941947 L 1109.8147609767539 105.57531552877992 L 1109.5920468842928 105.61387909334925 L 1109.3684908688695 105.65143395680312 L 1109.1441152858988 105.68797636368647 L 1108.9189425727525 105.72350265978909 L 1108.692995246514 105.75800929251095 L 1108.466295901728 105.79149281121755 L 1108.2388672081395 105.82394986758491 L 1108.0107319084289 105.85537721593445 L 1107.7819128159354 105.88577171355752 L 1107.5524328123781 105.9151303210297 L 1107.322314845566 105.94345010251467 L 1107.091581927104 105.97072822605791 L 1106.8602571300917 105.99696196386981 L 1106.6283635868158 106.02214869259844 L 1106.3959244864377 106.04628589359189 L 1106.1629630726736 106.0693711531502 L 1105.9295026414707 106.09140216276666 L 1105.6955665386777 106.11237671935864 L 1105.4611781577098 106.13229272548797 L 1105.2263609372098 106.15114818957065 L 1104.9911383587041 106.16894122607596 L 1104.7555339442545 106.1856700557151 L 1104.5195712541063 106.20133300561903 L 1104.2832738843315 106.21592850950582 L 1104.0466654644704 106.22945510783724 L 1103.8097696551679 106.24191144796474 L 1103.5726101458074 106.25329628426466 L 1103.3352106521422 106.2636084782629 L 1103.0975949139238 106.2728469987486 L 1102.8597866925281 106.28101092187747 L 1102.6218097685792 106.28809943126396 L 1102.3836879395708 106.29411181806304 L 1102.1454450174874 106.29904748104106 L 1101.9071048264232 106.30290592663582 L 1101.668691200198 106.30568676900597 L 1101.4302279799765 106.30738973006962 L 1101.1917390118813 106.30801463953205 L 1100.9532481446108 106.30756143490284 L 1100.714779227053 106.3060301615021 L 1100.4763561059008 106.30342097245587 L 1100.2380026232677 106.29973412868088 L 1099.9997426143034 106.29496999885845 L 1099.76159990481 106.28912905939758 L 1099.5235983088603 106.28221189438736 L 1099.2857616264155 106.27421919553852 L 1099.0481136409455 106.26515176211427 L 1098.810678117051 106.25501050085043 L 1098.5734787980864 106.24379642586464 L 1098.336539403786 106.23151065855508 L 1098.0998836278916 106.21815442748823 L 1097.8635351357839 106.20372906827606 L 1097.627517562115 106.1882360234425 L 1097.3918545084452 106.17167684227908 L 1097.1565695408842 106.15405318069014 L 1096.9216861877321 106.13536680102716 L 1096.687227937129 106.11561957191253 L 1096.4532182347039 106.09481346805269 L 1096.2196804812327 106.0729505700407 L 1095.9866380302956 106.05003306414814 L 1095.754114185944 106.0260632421065 L 1095.522132200368 106.00104350087803 L 1095.2907152715734 105.97497634241597 L 1095.05988654106 105.94786437341445 L 1094.8296690915083 105.9197103050478 L 1094.6000859444719 105.89051695269937 L 1094.3711600580737 105.86028723568009 L 1094.1429143247117 105.82902417693644 L 1093.915371568769 105.79673090274827 L 1093.6885545443317 105.76341064241608 L 1093.462485932913 105.72906672793813 L 1093.237188341186 105.69370259367726 L 1093.0126842987222 105.6573217760174 L 1092.7889962557383 105.61992791301003 L 1092.5661465808523 105.58152474401028 L 1092.3441575588463 105.54211610930304 L 1092.123051388437 105.50170594971894 L 1091.9028501800578 105.46029830624026 L 1091.6835759536455 105.41789731959686 L 1091.4652506364403 105.37450722985206 L 1091.247896060792 105.33013237597868 L 1091.031533961977 105.28477719542511 L 1090.8161859760246 105.23844622367163 L 1090.6018736375543 105.1911440937768 L 1090.3886183776212 105.14287553591419 L 1090.1764415215737 105.09364537689936 L 1089.9653642869205 105.0434585397072 L 1089.7554077812092 104.99232004297959 L 1089.5465929999152 104.9402350005236 L 1089.338940824343 104.88720862080007 L 1089.1324720195366 104.83324620640276 L 1088.927207232205 104.77835315352817 L 1088.7231669886555 104.72253495143585 L 1088.5203716927426 104.66579718189945 L 1088.318841623827 104.60814551864868 L 1088.118596934747 104.54958572680184 L 1087.9196576498057 104.49012366228926 L 1087.722043662765 104.42976527126788 L 1087.525774734859 104.36851658952648 L 1087.3308704928172 104.30638374188221 L 1087.137350426901 104.24337294156805 L 1086.9452338889564 104.17949048961154 L 1086.7545400904767 104.11474277420461 L 1086.5652881006827 104.04913627006486 L 1086.3774968446157 103.98267753778805 L 1086.191185101245 103.91537322319199 L 1086.0063715015897 103.84723005665208 L 1085.8230745268556 103.77825485242818 L 1085.6413125065874 103.70845450798322 L 1085.4611036168358 103.63783600329349 L 1085.2824658783395 103.56640640015061 L 1085.1054171547237 103.49417284145538 L 1084.9299751507128 103.42114255050346 L 1084.7561574103613 103.3473228302631 L 1084.5839813152984 103.27272106264479 L 1084.4134640829902 103.19734470776314 L 1084.2446227650175 103.1212013031908 L 1084.0774742453716 103.04429846320481 L 1083.9120352387652 102.96664387802507 L 1083.7483222889612 102.88824531304537 L 1083.5863517671178 102.8091106080569 L 1083.4261398701524 102.72924767646418 L 1083.2677026191213 102.64866450449387 L 1083.1110558576177 102.56736915039596 L 1082.9562152501867 102.48536974363815 L 1082.8031962807604 102.40267448409276 L 1082.652014251108 102.31929164121684 L 1082.5026842793068 102.2352295532252 L 1082.3552212982293 102.15049662625658 L 1082.2096400540509 102.06510133353308 L 1082.0659551047743 101.97905221451278 L 1081.924180818775 101.89235787403591 L 1081.7843313733636 101.80502698146424 L 1081.646420753368 101.71706826981428 L 1081.5104627497349 101.62849053488388 L 1081.376470958152 101.53930263437272 L 1081.244458777686 101.44951348699652 L 1081.1144394094458 101.35913207159521 L 1080.9864258552593 101.26816742623502 L 1080.8604309163754 101.17662864730465 L 1080.736467192183 101.08452488860574 L 1080.6145470789513 100.9918653604374 L 1080.4946827685899 100.89865932867522 L 1080.3768862474299 100.80491611384473 L 1080.2611692950254 100.71064509018925 L 1080.1475434829754 100.61585568473262 L 1080.0360201737658 100.5205573763364 L 1079.9266105196352 100.424759694752 L 1079.8193254614575 100.32847221966773 L 1079.7141757276493 100.2317045797509 L 1079.6111718330963 100.13446645168483 L 1079.510324078102 100.03676755920131 L 1079.4116425473578 99.93861767210817 L 1079.315137108935 99.84002660531232 L 1079.2208174132963 99.7410042178383 L 1079.1286928923334 99.64156041184232 L 1079.0387727584211 99.54170513162211 L 1078.9510660034982 99.4414483626225 L 1078.865581398167 99.34080013043682 L 1078.7823274908167 99.23977049980442 L 1078.7013126067689 99.13836957360418 L 1078.622544847444 99.03660749184422 L 1078.5460320895527 98.9344944306479 L 1078.471781984307 98.83204060123627 L 1078.3998019566552 98.72925624890688 L 1078.3300992045406 98.6261516520093 L 1078.26268069818 98.52273712091731 L 1078.197553179368 98.41902299699785 L 1078.1347231608022 98.31501965157686 L 1078.074196925432 98.21073748490224 L 1078.0159805258306 98.10618692510373 L 1077.9600797835892 98.0013784271502 L 1077.9065002887357 97.89632247180411 L 1077.8552473991751 97.79102956457344 L 1077.806326240153 97.68551023466115 L 1077.7597417037455 97.57977503391233 L 1077.7154984483664 97.47383453575894 L 1077.673600898305 97.3676993341625 L 1077.6340532432812 97.2613800425547 L 1077.5968594380276 97.15488729277617 L 1077.5620232018937 97.04823173401307 L 1077.529548018474 96.94142403173245 L 1077.49943713526 96.8344748666155 L 1077.4716935633148 96.72739493348962 L 1077.4463200769724 96.6201949402589 L 1077.4233192135605 96.51288560683331 L 1077.402693273146 96.40547766405678 L 1077.384444318306 96.29798185263407 L 1077.3685741739205 96.19040892205675 L 1077.355084426991 96.08276962952824 L 1077.3439764264808 95.9750747388881 L 1077.3352512831807 95.86733501953563 L 1077.3289098695977 95.75956124535298 L 1077.324952819868 95.65176419362778 L 1077.3233805296934 95.54395464397535" stroke-miterlimit="10" stroke-width="2.7769845610000004" stroke-dasharray=""/></g><g><g/><text fill="black" stroke="none" font-family="sans-serif" font-size="11pt" font-style="normal" font-weight="normal" text-decoration="normal" x="1061.2514824517227" y="123.83569119881818" text-anchor="start" dominant-baseline="alphabetic" xml:space="preserve">GameOnDB</text></g></g><g><g><text fill="black" stroke="none" font-family="sans-serif" font-size="16pt" font-style="normal" font-weight="normal" text-decoration="normal" x="443.7478256225586" y="24.651306798181814" text-anchor="start" dominant-baseline="alphabetic" xml:space="preserve">Report User Sequence Diagram</text></g><g><rect fill="white" stroke="none" x="589.0635258829121" y="205.51170769881819" width="162.97491706910156" height="21.23576429"/><text fill="black" stroke="none" font-family="sans-serif" font-size="11pt" font-style="normal" font-weight="normal" text-decoration="normal" x="591.5138063779121" y="220.21339066881816" text-anchor="start" dominant-baseline="alphabetic" xml:space="preserve">getProfile(discordToken)</text></g><g><path fill="none" stroke="black" paint-order="fill stroke markers" d=" M 390.2399164559896 226.74747198881818 L 937.4127349952696 226.74747198881818" stroke-miterlimit="10" stroke-width="1.3612669416666667" stroke-dasharray=""/><g transform="translate(950.8620523789363,226.74747198881818) translate(-950.8620523789363,-226.74747198881818)"><path fill="black" stroke="none" paint-order="stroke fill markers" d=" M 937.2493829622696 219.94113728048484 L 950.8620523789363 226.74747198881818 L 937.2493829622696 233.55380669715151 Z"/></g></g><g><rect fill="white" stroke="none" x="970.1920429506029" y="251.25027693881822" width="111.65071357789063" height="21.23576429"/><text fill="black" stroke="none" font-family="sans-serif" font-size="11pt" font-style="normal" font-weight="normal" text-decoration="normal" x="972.6423234456029" y="265.9519599088182" text-anchor="start" dominant-baseline="alphabetic" xml:space="preserve">Query Database</text></g><g><path fill="none" stroke="black" paint-order="fill stroke markers" d=" M 950.8620523789363 272.4860412288182 L 1087.7234297164935 272.4860412288182" stroke-miterlimit="10" stroke-width="1.3612669416666667" stroke-dasharray=""/><g transform="translate(1101.1727471001602,272.4860412288182) translate(-1101.1727471001602,-272.4860412288182)"><path fill="black" stroke="none" paint-order="stroke fill markers" d=" M 1087.5600776834935 265.67970652048484 L 1101.1727471001602 272.4860412288182 L 1087.5600776834935 279.2923759371515 Z"/></g></g><g><rect fill="white" stroke="none" x="984.053889874431" y="296.98884617881816" width="83.92701973023438" height="21.23576429"/><text fill="black" stroke="none" font-family="sans-serif" font-size="11pt" font-style="normal" font-weight="normal" text-decoration="normal" x="986.504170369431" y="311.69052914881814" text-anchor="start" dominant-baseline="alphabetic" xml:space="preserve">Return User</text></g><g><path fill="none" stroke="black" paint-order="fill stroke markers" d=" M 1101.1727471001602 318.2246104688182 L 964.3113697626029 318.2246104688182" stroke-miterlimit="10" stroke-width="1.3612669416666667" stroke-dasharray="6.53408132"/><g transform="translate(950.8620523789363,318.2246104688182) translate(-950.8620523789363,-318.2246104688182)"><path fill="black" stroke="none" paint-order="stroke fill markers" d=" M 964.4747217956029 311.41827576048485 L 950.8620523789363 318.2246104688182 L 964.4747217956029 325.0309451771515 Z"/></g></g><g><rect fill="white" stroke="none" x="572.0842702066426" y="342.72741541881817" width="196.93342842164063" height="21.23576429"/><text fill="black" stroke="none" font-family="sans-serif" font-size="11pt" font-style="normal" font-weight="normal" text-decoration="normal" x="574.5345507016426" y="357.42909838881815" text-anchor="start" dominant-baseline="alphabetic" xml:space="preserve">Return Offending User Profile</text></g><g><path fill="none" stroke="black" paint-order="fill stroke markers" d=" M 950.8620523789363 363.9631797088182 L 392.2818168684896 363.9631797088182" stroke-miterlimit="10" stroke-width="1.3612669416666667" stroke-dasharray="6.53408132"/><g transform="translate(390.2399164559896,363.9631797088182) translate(-390.2399164559896,-363.9631797088182)"><path fill="none" stroke="black" paint-order="fill stroke markers" d=" M 404.23516083904366 357.7197822231947 L 391.77021632153907 363.9631797088182 L 404.23516083904366 370.20657719444165" stroke-miterlimit="10" stroke-width="1.3612669416666667"/></g></g><g><rect fill="white" stroke="none" x="92.83840542166668" y="412.96878960881816" width="278.0715204626562" height="21.23576429"/><text fill="black" stroke="none" font-family="sans-serif" font-size="11pt" font-style="normal" font-weight="normal" text-decoration="normal" x="95.28868591666668" y="427.67047257881813" text-anchor="start" dominant-baseline="alphabetic" xml:space="preserve">Long-press on user -&gt; Click "Report User"</text></g><g><path fill="none" stroke="black" paint-order="fill stroke markers" d=" M 73.50841485 434.2045538988182 L 376.79059907232295 434.2045538988182" stroke-miterlimit="10" stroke-width="1.3612669416666667" stroke-dasharray=""/><g transform="translate(390.2399164559896,434.2045538988182) translate(-390.2399164559896,-434.2045538988182)"><path fill="black" stroke="none" paint-order="stroke fill markers" d=" M 376.6272470393229 427.39821919048484 L 390.2399164559896 434.2045538988182 L 376.6272470393229 441.0108886071515 Z"/></g></g><g><rect fill="white" stroke="none" x="127.6665838274284" y="458.70735884881816" width="208.41516365113281" height="21.23576429"/><text fill="black" stroke="none" font-family="sans-serif" font-size="11pt" font-style="normal" font-weight="normal" text-decoration="normal" x="130.1168643224284" y="473.40904181881814" text-anchor="start" dominant-baseline="alphabetic" xml:space="preserve">Display "Report User" Dialogue</text></g><g><path fill="none" stroke="black" paint-order="fill stroke markers" d=" M 390.2399164559896 479.9431231388182 L 86.95773223366666 479.9431231388182" stroke-miterlimit="10" stroke-width="1.3612669416666667" stroke-dasharray=""/><g transform="translate(73.50841485,479.9431231388182) translate(-73.50841485,-479.9431231388182)"><path fill="black" stroke="none" paint-order="stroke fill markers" d=" M 87.12108426666666 473.13678843048484 L 73.50841485 479.9431231388182 L 87.12108426666666 486.7494578471515 Z"/></g></g><g><rect fill="white" stroke="none" x="160.56563930838544" y="504.44592808881816" width="142.61705268921875" height="21.23576429"/><text fill="black" stroke="none" font-family="sans-serif" font-size="11pt" font-style="normal" font-weight="normal" text-decoration="normal" x="163.01591980338543" y="519.1476110588181" text-anchor="start" dominant-baseline="alphabetic" xml:space="preserve">Enter Report Reason</text></g><g><path fill="none" stroke="black" paint-order="fill stroke markers" d=" M 73.50841485 525.6816923788182 L 376.79059907232295 525.6816923788182" stroke-miterlimit="10" stroke-width="1.3612669416666667" stroke-dasharray=""/><g transform="translate(390.2399164559896,525.6816923788182) translate(-390.2399164559896,-525.6816923788182)"><path fill="black" stroke="none" paint-order="stroke fill markers" d=" M 376.6272470393229 518.8753576704848 L 390.2399164559896 525.6816923788182 L 376.6272470393229 532.4880270871515 Z"/></g></g><g><rect fill="white" stroke="none" x="183.48975735037763" y="594.289546238818" width="96.76881660523438" height="21.23576429"/><text fill="black" stroke="none" font-family="sans-serif" font-size="11pt" font-style="normal" font-weight="normal" text-decoration="normal" x="185.94003784537762" y="608.991229208818" text-anchor="start" dominant-baseline="alphabetic" xml:space="preserve">Click "Submit"</text></g><g><path fill="none" stroke="black" paint-order="fill stroke markers" d=" M 73.50841485 615.5253105288181 L 376.79059907232295 615.5253105288181" stroke-miterlimit="10" stroke-width="1.3612669416666667" stroke-dasharray=""/><g transform="translate(390.2399164559896,615.5253105288181) translate(-390.2399164559896,-615.5253105288181)"><path fill="black" stroke="none" paint-order="stroke fill markers" d=" M 376.6272470393229 608.7189758204847 L 390.2399164559896 615.5253105288181 L 376.6272470393229 622.3316452371514 Z"/></g></g><g><rect fill="white" stroke="none" x="409.5699070276562" y="640.028115478818" width="347.1337763220312" height="21.23576429"/><text fill="black" stroke="none" font-family="sans-serif" font-size="11pt" font-style="normal" font-weight="normal" text-decoration="normal" x="412.0201875226562" y="654.729798448818" text-anchor="start" dominant-baseline="alphabetic" xml:space="preserve">submitReport(reporterToken, reporteeToken, reason)</text></g><g><path fill="none" stroke="black" paint-order="fill stroke markers" d=" M 390.2399164559896 661.263879768818 L 762.5843565376875 661.263879768818" stroke-miterlimit="10" stroke-width="1.3612669416666667" stroke-dasharray=""/><g transform="translate(776.0336739213542,661.263879768818) translate(-776.0336739213542,-661.263879768818)"><path fill="black" stroke="none" paint-order="stroke fill markers" d=" M 762.4210045046875 654.4575450604847 L 776.0336739213542 661.263879768818 L 762.4210045046875 668.0702144771514 Z"/></g></g><g><rect fill="white" stroke="none" x="873.4149310533548" y="685.7666847188179" width="130.3765589148047" height="21.23576429"/><text fill="black" stroke="none" font-family="sans-serif" font-size="11pt" font-style="normal" font-weight="normal" text-decoration="normal" x="875.8652115483549" y="700.4683676888179" text-anchor="start" dominant-baseline="alphabetic" xml:space="preserve">Create New Report</text></g><g><path fill="none" stroke="black" paint-order="fill stroke markers" d=" M 776.0336739213542 707.002449008818 L 1087.7234297164935 707.002449008818" stroke-miterlimit="10" stroke-width="1.3612669416666667" stroke-dasharray=""/><g transform="translate(1101.1727471001602,707.002449008818) translate(-1101.1727471001602,-707.002449008818)"><path fill="black" stroke="none" paint-order="stroke fill markers" d=" M 1087.5600776834935 700.1961143004846 L 1101.1727471001602 707.002449008818 L 1087.5600776834935 713.8087837171513 Z"/></g></g><g><rect fill="white" stroke="none" x="885.6375644151713" y="775.6103028688178" width="105.93129219117188" height="21.23576429"/><text fill="black" stroke="none" font-family="sans-serif" font-size="11pt" font-style="normal" font-weight="normal" text-decoration="normal" x="888.0878449101713" y="790.3119858388178" text-anchor="start" dominant-baseline="alphabetic" xml:space="preserve">Return success</text></g><g><path fill="none" stroke="black" paint-order="fill stroke markers" d=" M 1101.1727471001602 796.8460671588178 L 789.4829913050208 796.8460671588178" stroke-miterlimit="10" stroke-width="1.3612669416666667" stroke-dasharray="6.53408132"/><g transform="translate(776.0336739213542,796.8460671588178) translate(-776.0336739213542,-796.8460671588178)"><path fill="black" stroke="none" paint-order="stroke fill markers" d=" M 789.6463433380209 790.0397324504845 L 776.0336739213542 796.8460671588178 L 789.6463433380209 803.6524018671512 Z"/></g></g><g><rect fill="white" stroke="none" x="449.5985248865429" y="821.3488721088178" width="267.0765253454687" height="21.23576429"/><text fill="black" stroke="none" font-family="sans-serif" font-size="11pt" font-style="normal" font-weight="normal" text-decoration="normal" x="452.04880538154293" y="836.0505550788178" text-anchor="start" dominant-baseline="alphabetic" xml:space="preserve">Display "Report Submitted Successfully"</text></g><g><path fill="none" stroke="black" paint-order="fill stroke markers" d=" M 776.0336739213542 842.5846363988178 L 392.2818168684896 842.5846363988178" stroke-miterlimit="10" stroke-width="1.3612669416666667" stroke-dasharray="6.53408132"/><g transform="translate(390.2399164559896,842.5846363988178) translate(-390.2399164559896,-842.5846363988178)"><path fill="none" stroke="black" paint-order="fill stroke markers" d=" M 404.23516083904366 836.3412389131944 L 391.77021632153907 842.5846363988178 L 404.23516083904366 848.8280338844412" stroke-miterlimit="10" stroke-width="1.3612669416666667"/></g></g><g><rect fill="white" stroke="none" x="892.1515185777689" y="911.1924902588178" width="92.90338386597656" height="21.23576429"/><text fill="black" stroke="none" font-family="sans-serif" font-size="11pt" font-style="normal" font-weight="normal" text-decoration="normal" x="894.6017990727689" y="925.8941732288177" text-anchor="start" dominant-baseline="alphabetic" xml:space="preserve">Return failure</text></g><g><path fill="none" stroke="black" paint-order="fill stroke markers" d=" M 1101.1727471001602 932.4282545488178 L 789.4829913050208 932.4282545488178" stroke-miterlimit="10" stroke-width="1.3612669416666667" stroke-dasharray="6.53408132"/><g transform="translate(776.0336739213542,932.4282545488178) translate(-776.0336739213542,-932.4282545488178)"><path fill="black" stroke="none" paint-order="stroke fill markers" d=" M 789.6463433380209 925.6219198404845 L 776.0336739213542 932.4282545488178 L 789.6463433380209 939.2345892571511 Z"/></g></g><g><rect fill="white" stroke="none" x="472.41884501593745" y="956.9310594988177" width="221.43590034546875" height="21.23576429"/><text fill="black" stroke="none" font-family="sans-serif" font-size="11pt" font-style="normal" font-weight="normal" text-decoration="normal" x="474.86912551093747" y="971.6327424688177" text-anchor="start" dominant-baseline="alphabetic" xml:space="preserve">Display "Error Submitting Report"</text></g><g><path fill="none" stroke="black" paint-order="fill stroke markers" d=" M 776.0336739213542 978.1668237888177 L 392.2818168684896 978.1668237888177" stroke-miterlimit="10" stroke-width="1.3612669416666667" stroke-dasharray="6.53408132"/><g transform="translate(390.2399164559896,978.1668237888177) translate(-390.2399164559896,-978.1668237888177)"><path fill="none" stroke="black" paint-order="fill stroke markers" d=" M 404.23516083904366 971.9234263031943 L 391.77021632153907 978.1668237888177 L 404.23516083904366 984.4102212744411" stroke-miterlimit="10" stroke-width="1.3612669416666667"/></g></g><g><rect fill="white" stroke="none" x="109.22707729666668" y="1071.2774825988179" width="245.29417671265625" height="21.23576429"/><text fill="black" stroke="none" font-family="sans-serif" font-size="11pt" font-style="normal" font-weight="normal" text-decoration="normal" x="111.67735779166668" y="1085.979165568818" text-anchor="start" dominant-baseline="alphabetic" xml:space="preserve">No action taken, report not submitted</text></g><g><path fill="none" stroke="black" paint-order="fill stroke markers" d=" M 390.2399164559896 1092.5132468888178 L 86.95773223366666 1092.5132468888178" stroke-miterlimit="10" stroke-width="1.3612669416666667" stroke-dasharray=""/><g transform="translate(73.50841485,1092.5132468888178) translate(-73.50841485,-1092.5132468888178)"><path fill="black" stroke="none" paint-order="stroke fill markers" d=" M 87.12108426666666 1085.7069121804846 L 73.50841485 1092.5132468888178 L 87.12108426666666 1099.319581597151 Z"/></g></g><g><g/><path fill="none" stroke="black" paint-order="fill stroke markers" d=" M 333.0667049059896 161.40665878881816 L 1158.3459586501601 161.40665878881816 L 1158.3459586501601 388.4659846588182 L 333.0667049059896 388.4659846588182 L 333.0667049059896 161.40665878881816 Z" stroke-miterlimit="10" stroke-width="2.3336004714285714" stroke-dasharray=""/><path fill="white" stroke="black" paint-order="fill stroke markers" d=" M 333.0667049059896 161.40665878881816 L 333.0667049059896 181.00890274881817 L 379.4259085030599 181.00890274881817 L 389.2270304830599 171.20778076881817 L 389.2270304830599 161.40665878881816 L 333.0667049059896 161.40665878881816" stroke-miterlimit="10" stroke-width="2.3336004714285714" stroke-dasharray=""/><text fill="black" stroke="none" font-family="sans-serif" font-size="8.8pt" font-style="normal" font-weight="bold" text-decoration="normal" x="349.40190820598957" y="174.47482142881816" text-anchor="start" dominant-baseline="alphabetic" xml:space="preserve">alt</text><g><rect fill="white" stroke="none" x="403.11195328805985" y="162.71347505281815" width="140.4540735632422" height="16.988611432000003"/></g><text fill="black" stroke="none" font-family="sans-serif" font-size="8.8pt" font-style="normal" font-weight="bold" text-decoration="normal" x="405.56223378305987" y="174.47482142881816" text-anchor="start" dominant-baseline="alphabetic" xml:space="preserve">[Profile Lookup Needed]</text></g><g><g/><path fill="none" stroke="black" paint-order="fill stroke markers" d=" M 16.335203299999996 550.1844973288181 L 1174.6811619501602 550.1844973288181 L 1174.6811619501602 1117.0160518388177 L 16.335203299999996 1117.0160518388177 L 16.335203299999996 550.1844973288181 Z" stroke-miterlimit="10" stroke-width="2.3336004714285714" stroke-dasharray=""/><path fill="white" stroke="black" paint-order="fill stroke markers" d=" M 16.335203299999996 550.1844973288181 L 16.335203299999996 569.7867412888181 L 62.69440689707031 569.7867412888181 L 72.49552887707031 559.9856193088181 L 72.49552887707031 550.1844973288181 L 16.335203299999996 550.1844973288181" stroke-miterlimit="10" stroke-width="2.3336004714285714" stroke-dasharray=""/><text fill="black" stroke="none" font-family="sans-serif" font-size="8.8pt" font-style="normal" font-weight="bold" text-decoration="normal" x="32.67040659999999" y="563.2526599688181" text-anchor="start" dominant-baseline="alphabetic" xml:space="preserve">alt</text><g><rect fill="white" stroke="none" x="86.38045168207032" y="551.4913135928181" width="119.62301887574219" height="16.988611432000003"/></g><text fill="black" stroke="none" font-family="sans-serif" font-size="8.8pt" font-style="normal" font-weight="bold" text-decoration="normal" x="88.83073217707032" y="563.2526599688181" text-anchor="start" dominant-baseline="alphabetic" xml:space="preserve">[User Clicks Submit]</text><g><path fill="none" stroke="black" paint-order="fill stroke markers" d=" M 16.335203299999996 1027.1724336888178 L 1174.6811619501602 1027.1724336888178" stroke-miterlimit="10" stroke-width="2.3336004714285714" stroke-dasharray="4.083800825"/></g><g/><g><rect fill="white" stroke="none" x="86.38045168207032" y="1028.4792499528178" width="174.3667932898047" height="16.988611432000003"/></g><text fill="black" stroke="none" font-family="sans-serif" font-size="8.8pt" font-style="normal" font-weight="bold" text-decoration="normal" x="88.83073217707032" y="1040.2405963288177" text-anchor="start" dominant-baseline="alphabetic" xml:space="preserve">[User Closes Report Dialogue]</text></g><g><g/><path fill="none" stroke="black" paint-order="fill stroke markers" d=" M 333.0667049059896 731.5052539588179 L 1158.3459586501601 731.5052539588179 L 1158.3459586501601 1002.6696287388178 L 333.0667049059896 1002.6696287388178 L 333.0667049059896 731.5052539588179 Z" stroke-miterlimit="10" stroke-width="2.3336004714285714" stroke-dasharray=""/><path fill="white" stroke="black" paint-order="fill stroke markers" d=" M 333.0667049059896 731.5052539588179 L 333.0667049059896 751.1074979188179 L 379.4259085030599 751.1074979188179 L 389.2270304830599 741.3063759388178 L 389.2270304830599 731.5052539588179 L 333.0667049059896 731.5052539588179" stroke-miterlimit="10" stroke-width="2.3336004714285714" stroke-dasharray=""/><text fill="black" stroke="none" font-family="sans-serif" font-size="8.8pt" font-style="normal" font-weight="bold" text-decoration="normal" x="349.40190820598957" y="744.5734165988179" text-anchor="start" dominant-baseline="alphabetic" xml:space="preserve">alt</text><g><rect fill="white" stroke="none" x="403.11195328805985" y="732.8120702228179" width="172.42517341675781" height="16.988611432000003"/></g><text fill="black" stroke="none" font-family="sans-serif" font-size="8.8pt" font-style="normal" font-weight="bold" text-decoration="normal" x="405.56223378305987" y="744.5734165988179" text-anchor="start" dominant-baseline="alphabetic" xml:space="preserve">[Report Created Successfully]</text><g><path fill="none" stroke="black" paint-order="fill stroke markers" d=" M 333.0667049059896 867.0874413488178 L 1158.3459586501601 867.0874413488178" stroke-miterlimit="10" stroke-width="2.3336004714285714" stroke-dasharray="4.083800825"/></g><g/><g><rect fill="white" stroke="none" x="403.11195328805985" y="868.3942576128178" width="138.50096382203125" height="16.988611432000003"/></g><text fill="black" stroke="none" font-family="sans-serif" font-size="8.8pt" font-style="normal" font-weight="bold" text-decoration="normal" x="405.56223378305987" y="880.1556039888178" text-anchor="start" dominant-baseline="alphabetic" xml:space="preserve">[Report Creation Failed]</text></g><g/><g/></g><g/><g/><g/><g/><g/></g></svg>