<svg xmlns="http://www.w3.org/2000/svg" xmlns:xlink="http://www.w3.org/1999/xlink" version="1.1" width="1368.4753960089843" height="1267.2999221988177"><desc>title%20Sign%20In%20Sequence%20Diagram%0A%0Aactor%20User%0Aparticipant%20Frontend%0Aparticipant%20Authentication%0Aparticipant%20Sign%20In%0Aparticipant%20User%20Management%0Adatabase%20GameOnDB%0A%0AUser-%3EFrontend%3A%20Click%20%22Sign%20In%20with%20Discord%22%0AFrontend-%3EAuthentication%3A%20discordAuthenticate(DiscordParams)%0AAuthentication--%3EFrontend%3A%20Returns%20DiscordToken%0AFrontend-%3ESign%20In%3A%20signIn(DiscordToken%2C%20SessionToken)%0ASign%20In-%3EUser%20Management%3A%20getProfile(DiscordToken)%0Aalt%20User%20Exists%0A%20%20%20%20User%20Management--%3EGameOnDB%3A%20Retrieve%20user%20profile%0A%20%20%20%20GameOnDB--%3EUser%20Management%3A%20User%20profile%20found%0A%20%20%20%20User%20Management--%3ESign%20In%3A%20User%20profile%20exists%0A%20%20%20%20Sign%20In--%3EFrontend%3A%20Redirect%20to%20Home%20Screen%0A%20%20%20%20Frontend-%3EUser%3A%20Redirect%20to%20Home%20Screen%0Aelse%20User%20Does%20Not%20Exist%0A%20%20%20%20User%20Management--%3EGameOnDB%3A%20User%20not%20found%0A%20%20%20%20GameOnDB--%3EUser%20Management%3A%20No%20user%20profile%20found%0A%20%20%20%20Sign%20In--%3EFrontend%3A%20Redirect%20to%20Registration%20Page%0A%20%20%20%20Frontend-%3EUser%3A%20Prompt%20for%20additional%20details%20(screen%20name%2C%20avatar%2C%20etc.)%0A%20%20%20%20User-%3EFrontend%3A%20Submit%20registration%20details%0A%20%20%20%20Frontend-%3EUser%20Management%3A%20createProfile(UserProfile)%0A%20%20%20%20User%20Management-%3EGameOnDB%3A%20Save%20new%20user%20details%0A%20%20%20%20GameOnDB--%3EUser%20Management%3A%20User%20profile%20created%0A%20%20%20%20User%20Management--%3ESign%20In%3A%20User%20registration%20success%0A%20%20%20%20Sign%20In--%3EFrontend%3A%20Redirect%20to%20Home%20Screen%0A%20%20%20%20Frontend-%3EUser%3A%20Redirect%20to%20Home%20Screen%0Aend%0A</desc><defs/><g><g/><g/><g/><g/><g/><g/><g/><g/><g/><g/><g/><g/><g/><g/><g/><g/><g/><g/><g/><g/><g/><g/><g/><g/><g/><g/><g/><g/><g/><g/><g/><g/><g/><g/><g/><g/><g/><g/><g/><g/><g/><g/><g/><g/><g/><g/><g/><g/><g/><g/><g/><g/><g/><g/><g/><g/><g/><g/><g/><g/><g/><g/><g/><g/><g/><g/><g/><g/><g/><g/><g/><g/><g/><g/><g/><g/><g/><g/><g/><g/><g/><g/><g/><g/><g/><g/><g/><g/><g/><g/><g/><g/><g/><g/><g/><g/><g/><g/><g/><g/><g/><g/><g/><g/><g/><g/><g/><g/><g/><g/><g/><g/><g/><g/><g/><g/><g/><g/><g/><g/><g/><g/><g/><g/><g/><g/><g/><g/><g/><g/><g/><g/><g/><g/><g/><g/><g/><g/><g/><g/><g/><g/><g/><g/><g/><g/><g><rect fill="white" stroke="none" x="0" y="0" width="1368" height="1267"/></g><g/><g><path fill="none" stroke="black" paint-order="fill stroke markers" d=" M 73.50841485 128.73625218881818 L 73.50841485 1267.2999221988177" stroke-miterlimit="10" stroke-width="1.3612669416666667" stroke-dasharray="12.565541,5.445067766666667"/><path fill="none" stroke="black" paint-order="fill stroke markers" d=" M 477.22625983977866 128.73625218881818 L 477.22625983977866 1267.2999221988177" stroke-miterlimit="10" stroke-width="1.3612669416666667" stroke-dasharray="12.565541,5.445067766666667"/><path fill="none" stroke="black" paint-order="fill stroke markers" d=" M 759.5125099809245 128.73625218881818 L 759.5125099809245 1267.2999221988177" stroke-miterlimit="10" stroke-width="1.3612669416666667" stroke-dasharray="12.565541,5.445067766666667"/><path fill="none" stroke="black" paint-order="fill stroke markers" d=" M 899.850352458724 128.73625218881818 L 899.850352458724 1267.2999221988177" stroke-miterlimit="10" stroke-width="1.3612669416666667" stroke-dasharray="12.565541,5.445067766666667"/><path fill="none" stroke="black" paint-order="fill stroke markers" d=" M 1107.9848844602213 128.73625218881818 L 1107.9848844602213 1267.2999221988177" stroke-miterlimit="10" stroke-width="1.3612669416666667" stroke-dasharray="12.565541,5.445067766666667"/><path fill="none" stroke="black" paint-order="fill stroke markers" d=" M 1294.9669811589843 128.73625218881818 L 1294.9669811589843 1267.2999221988177" stroke-miterlimit="10" stroke-width="1.3612669416666667" stroke-dasharray="12.565541,5.445067766666667"/></g><g><g><path fill="white" stroke="black" paint-order="fill stroke markers" d=" M 82.819480731 59.63834222981819 A 9.311065881 9.311065881 0 1 1 82.81947607546743 59.62903116548903 M 73.50841485 68.9494081108182 L 73.50841485 88.8783561368182 M 61.747068473999995 76.13689756281819 L 85.26976122599999 76.13689756281819 M 73.50841485 88.8783561368182 L 61.747068473999995 107.50048789881819 M 73.50841485 88.8783561368182 L 85.26976122599999 107.50048789881819" stroke-miterlimit="10" stroke-width="2.7769845610000004" stroke-dasharray=""/></g><g><g/><text fill="black" stroke="none" font-family="sans-serif" font-size="11pt" font-style="normal" font-weight="normal" text-decoration="normal" x="58.032401666406244" y="123.83569119881818" text-anchor="start" dominant-baseline="alphabetic" xml:space="preserve">User</text></g><path fill="none" stroke="none"/><g><path fill="white" stroke="black" paint-order="fill stroke markers" d=" M 430.16470415185677 84.63120327881819 L 524.2878155277006 84.63120327881819 L 524.2878155277006 128.73625218881818 L 430.16470415185677 128.73625218881818 L 430.16470415185677 84.63120327881819 Z" stroke-miterlimit="10" stroke-width="2.613632528" stroke-dasharray=""/></g><g><g/><text fill="black" stroke="none" font-family="sans-serif" font-size="11pt" font-style="normal" font-weight="normal" text-decoration="normal" x="447.8883997323568" y="112.40104888881817" text-anchor="start" dominant-baseline="alphabetic" xml:space="preserve">Frontend</text></g><path fill="none" stroke="none"/><g><path fill="white" stroke="black" paint-order="fill stroke markers" d=" M 695.3321417319675 84.63120327881819 L 823.6928782298816 84.63120327881819 L 823.6928782298816 128.73625218881818 L 695.3321417319675 128.73625218881818 L 695.3321417319675 84.63120327881819 Z" stroke-miterlimit="10" stroke-width="2.613632528" stroke-dasharray=""/></g><g><g/><text fill="black" stroke="none" font-family="sans-serif" font-size="11pt" font-style="normal" font-weight="normal" text-decoration="normal" x="713.0558373124675" y="112.40104888881817" text-anchor="start" dominant-baseline="alphabetic" xml:space="preserve">Authentication</text></g><path fill="none" stroke="none"/><g><path fill="white" stroke="black" paint-order="fill stroke markers" d=" M 859.3063367488295 84.63120327881819 L 940.3943681686186 84.63120327881819 L 940.3943681686186 128.73625218881818 L 859.3063367488295 128.73625218881818 L 859.3063367488295 84.63120327881819 Z" stroke-miterlimit="10" stroke-width="2.613632528" stroke-dasharray=""/></g><g><g/><text fill="black" stroke="none" font-family="sans-serif" font-size="11pt" font-style="normal" font-weight="normal" text-decoration="normal" x="877.0300323293295" y="112.40104888881817" text-anchor="start" dominant-baseline="alphabetic" xml:space="preserve">Sign In</text></g><path fill="none" stroke="none"/><g><path fill="white" stroke="black" paint-order="fill stroke markers" d=" M 1029.9641384036472 84.63120327881819 L 1186.0056305167957 84.63120327881819 L 1186.0056305167957 128.73625218881818 L 1029.9641384036472 128.73625218881818 L 1029.9641384036472 84.63120327881819 Z" stroke-miterlimit="10" stroke-width="2.613632528" stroke-dasharray=""/></g><g><g/><text fill="black" stroke="none" font-family="sans-serif" font-size="11pt" font-style="normal" font-weight="normal" text-decoration="normal" x="1047.6878339841471" y="112.40104888881817" text-anchor="start" dominant-baseline="alphabetic" xml:space="preserve">User Management</text></g><g><path fill="white" stroke="black" paint-order="fill stroke markers" d=" M 1271.1175843409842 96.71925372081819 L 1271.1175843409842 62.41532679081819 L 1318.8163779769843 62.41532679081819 L 1318.8163779769843 96.71925372081819" stroke-miterlimit="10" stroke-width="2.7769845610000004" stroke-dasharray=""/><path fill="white" stroke="black" paint-order="fill stroke markers" d=" M 1318.8163779769843 61.22285694991819 L 1318.8151855170806 61.33066749483481 L 1318.8116082566146 61.43846725878678 L 1318.805646553309 61.546245461887544 L 1318.79730100333 61.65399132640659 L 1318.7865724412247 61.761694077847274 L 1318.773461939841 61.86934294602419 L 1318.7579708102176 61.976927166140236 L 1318.740100601455 62.084435979863045 L 1318.719853100559 62.19185863640084 L 1318.6972303322627 62.299184393577484 L 1318.6722345588244 62.4064025189067 L 1318.6448682798004 62.51350229066531 L 1318.6151342317958 62.62047299896537 L 1318.5830353881906 62.7273039468252 L 1318.5485749588424 62.83398445123905 L 1318.5117563897657 62.94050384424536 L 1318.4725833627865 63.04685147399361 L 1318.4310597951746 63.15301670580944 L 1318.3871898392526 63.25898892325815 L 1318.3409778819794 63.364757529206294 L 1318.292428544512 63.47031194688142 L 1318.241546681744 63.575641620929716 L 1318.1883373818189 63.68073601847156 L 1318.1328059656228 63.78558463015478 L 1318.0749579862509 63.89017697120557 L 1318.0147992284526 63.994502582477 L 1317.9523357080539 64.09855103149486 L 1317.8875736713549 64.20231191350096 L 1317.8205195945047 64.3057748524936 L 1317.7511801828557 64.40892950226505 L 1317.6795623702913 64.51176554743633 L 1317.6056733185326 64.61427270448858 L 1317.5295204164233 64.71644072279157 L 1317.4511112791906 64.81825938562858 L 1317.3704537476826 64.91971851121816 L 1317.287555887585 65.02080795373233 L 1317.2024259886152 65.12151760431107 L 1317.115072563692 65.22183739207324 L 1317.0255043480847 65.32175728512367 L 1316.9337302985405 65.42126729155632 L 1316.8397595923882 65.52035746045347 L 1316.7436016266197 65.6190178828808 L 1316.6452660169514 65.71723869287828 L 1316.5447625968627 65.81501006844678 L 1316.4421014166114 65.91232223253022 L 1316.3372927422304 66.00916545399325 L 1316.2303470544996 66.10553004859446 L 1316.1212750478987 66.20140637995469 L 1316.0100876295373 66.29678486052069 L 1315.8967959180648 66.39165595252388 L 1315.7814112425579 66.48601016893414 L 1315.6639451413878 66.57983807440844 L 1315.544409361067 66.67313028623443 L 1315.4228158550736 66.76587747526865 L 1315.2991767826572 66.85807036686953 L 1315.1735045076218 66.94969974182469 L 1315.0458115970903 67.04075643727302 L 1314.9161108202475 67.13123134762085 L 1314.7844151470624 67.22111542545254 L 1314.6507377469932 67.3103996824352 L 1314.5150919876683 67.39907519021754 L 1314.3774914335504 67.4871330813227 L 1314.2379498445805 67.57456455003492 L 1314.0964811748013 67.6613608532802 L 1313.9530995709615 67.74751331150055 L 1313.8078193711021 67.83301330952195 L 1313.6606551031225 67.91785229741582 L 1313.5116214833263 68.00202179135408 L 1313.3607334149515 68.08551337445749 L 1313.2080059866792 68.1683186976373 L 1313.0534544711247 68.25042948043021 L 1312.8970943233112 68.33183751182635 L 1312.738941179123 68.41253465109044 L 1312.5790108537428 68.4925128285758 L 1312.4173193400695 68.5717640465313 L 1312.2538828071201 68.65028037990122 L 1312.0887175984117 68.72805397711764 L 1311.9218402303275 68.80507706088565 L 1311.753267390465 68.88134192896105 L 1311.5830159359678 68.95684095492061 L 1311.4111028918396 69.03156658892462 L 1311.2375454492417 69.10551135847197 L 1311.0623609637732 69.17866786914732 L 1310.8855669537372 69.25102880536058 L 1310.707181098387 69.3225869310784 L 1310.52722123616 69.39333509054786 L 1310.3457053628917 69.46326620901198 L 1310.162651630019 69.53237329341717 L 1309.9780783427618 69.60064943311258 L 1309.7920039582957 69.66808780054113 L 1309.6044470839038 69.7346816519223 L 1309.415426475117 69.80042432792644 L 1309.2249610338392 69.86530925434072 L 1309.0330698064554 69.92932994272657 L 1308.8397719819286 69.9924799910685 L 1308.64508688988 70.05475308441433 L 1308.449033998657 70.1161429955066 L 1308.2516329133848 70.17664358540536 L 1308.0529033740077 70.23624880410202 L 1307.852865253314 70.29495269112441 L 1307.651538554949 70.35274937613272 L 1307.4489434114148 70.40963307950663 L 1307.2451000820572 70.46559811292322 L 1307.0400289510387 70.52063887992576 L 1306.833750525302 70.57474987648341 L 1306.6262854325178 70.62792569154163 L 1306.417654419022 70.68016100756323 L 1306.2078783477425 70.73145060106012 L 1305.9969781961115 70.78178934311569 L 1305.7849750539685 70.8311721998977 L 1305.571890121451 70.8795942331616 L 1305.3577447068744 70.92705060074444 L 1305.1425602246022 70.973536557049 L 1304.926358192903 71.01904745351838 L 1304.7091602317998 71.06357873910088 L 1304.4909880609077 71.10712596070502 L 1304.2718634972623 71.14968476364494 L 1304.051808453137 71.19125089207583 L 1303.8308449338529 71.23182018941947 L 1303.608995035578 71.27138859877994 L 1303.3862809431168 71.30995216334925 L 1303.1627249276935 71.34750702680313 L 1302.9383493447228 71.38404943368649 L 1302.7131766315765 71.4195757297891 L 1302.4872293053381 71.45408236251096 L 1302.260529960552 71.48756588121756 L 1302.0331012669635 71.52002293758491 L 1301.8049659672529 71.55145028593446 L 1301.5761468747594 71.58184478355753 L 1301.3466668712022 71.61120339102969 L 1301.1165489043901 71.63952317251467 L 1300.885815985928 71.66680129605793 L 1300.6544911889157 71.69303503386982 L 1300.4225976456398 71.71822176259843 L 1300.1901585452617 71.7423589635919 L 1299.9571971314977 71.7654442231502 L 1299.7237367002947 71.78747523276665 L 1299.4898005975017 71.80844978935863 L 1299.2554122165338 71.82836579548797 L 1299.0205949960339 71.84722125957065 L 1298.7853724175282 71.86501429607597 L 1298.5497680030785 71.8817431257151 L 1298.3138053129303 71.89740607561903 L 1298.0775079431555 71.91200157950583 L 1297.8408995232944 71.92552817783725 L 1297.604003713992 71.93798451796474 L 1297.3668442046314 71.94936935426468 L 1297.1294447109663 71.95968154826289 L 1296.8918289727478 71.96892006874862 L 1296.6540207513522 71.97708399187748 L 1296.4160438274032 71.98417250126396 L 1296.1779219983948 71.99018488806304 L 1295.9396790763114 71.99512055104105 L 1295.7013388852472 71.99897899663581 L 1295.462925259022 72.00175983900598 L 1295.2244620388005 72.00346280006961 L 1294.9859730707053 72.00408770953204 L 1294.7474822034349 72.00363450490285 L 1294.509013285877 72.0021032315021 L 1294.2705901647248 71.99949404245586 L 1294.0322366820917 71.9958071986809 L 1293.7939766731274 71.99104306885846 L 1293.555833963634 71.98520212939759 L 1293.3178323676843 71.97828496438737 L 1293.0799956852395 71.97029226553852 L 1292.8423476997696 71.96122483211428 L 1292.6049121758751 71.95108357085043 L 1292.3677128569104 71.93986949586466 L 1292.13077346261 71.92758372855508 L 1291.8941176867156 71.91422749748824 L 1291.657769194608 71.89980213827607 L 1291.421751620939 71.8843090934425 L 1291.1860885672693 71.86774991227908 L 1290.9508035997083 71.85012625069015 L 1290.7159202465562 71.83143987102717 L 1290.481461995953 71.81169264191253 L 1290.2474522935279 71.79088653805269 L 1290.0139145400567 71.7690236400407 L 1289.7808720891196 71.74610613414815 L 1289.548348244768 71.72213631210651 L 1289.3163662591921 71.69711657087802 L 1289.0849493303974 71.67104941241597 L 1288.854120599884 71.64393744341446 L 1288.6239031503324 71.6157833750478 L 1288.394320003296 71.58659002269937 L 1288.1653941168977 71.55636030568009 L 1287.9371483835357 71.52509724693644 L 1287.709605627593 71.49280397274828 L 1287.4827886031558 71.45948371241609 L 1287.256719991737 71.42513979793813 L 1287.0314224000101 71.38977566367726 L 1286.8069183575462 71.35339484601741 L 1286.5832303145623 71.31600098301004 L 1286.3603806396764 71.27759781401028 L 1286.1383916176703 71.23818917930303 L 1285.917285447261 71.19777901971894 L 1285.6970842388819 71.15637137624027 L 1285.4778100124695 71.11397038959687 L 1285.2594846952643 71.07058029985207 L 1285.042130119616 71.02620544597868 L 1284.825768020801 70.98085026542512 L 1284.6104200348486 70.93451929367163 L 1284.3961076963783 70.8872171637768 L 1284.1828524364453 70.8389486059142 L 1283.9706755803977 70.78971844689937 L 1283.7595983457445 70.7395316097072 L 1283.5496418400332 70.6883931129796 L 1283.3408270587393 70.6363080705236 L 1283.133174883167 70.58328169080006 L 1282.9267060783607 70.52931927640276 L 1282.7214412910291 70.47442622352818 L 1282.5174010474796 70.41860802143584 L 1282.3146057515667 70.36187025189946 L 1282.113075682651 70.3042185886487 L 1281.912830993571 70.24565879680183 L 1281.7138917086297 70.18619673228926 L 1281.516277721589 70.12583834126788 L 1281.320008793683 70.06458965952649 L 1281.1251045516412 70.00245681188221 L 1280.9315844857251 69.93944601156807 L 1280.7394679477804 69.87556355961155 L 1280.5487741493007 69.81081584420461 L 1280.3595221595067 69.74520934006487 L 1280.1717309034398 69.67875060778805 L 1279.9854191600691 69.61144629319199 L 1279.8006055604137 69.54330312665208 L 1279.6173085856797 69.47432792242817 L 1279.4355465654114 69.40452757798322 L 1279.2553376756598 69.3339090732935 L 1279.0766999371635 69.26247947015062 L 1278.8996512135477 69.19024591145539 L 1278.7242092095369 69.11721562050347 L 1278.5503914691853 69.0433959002631 L 1278.3782153741224 68.96879413264479 L 1278.2076981418143 68.89341777776313 L 1278.0388568238416 68.81727437319081 L 1277.8717083041956 68.74037153320482 L 1277.7062692975892 68.66271694802508 L 1277.5425563477852 68.58431838304537 L 1277.3805858259418 68.5051836780569 L 1277.2203739289764 68.4253207464642 L 1277.0619366779454 68.34473757449386 L 1276.9052899164417 68.26344222039596 L 1276.7504493090107 68.18144281363814 L 1276.5974303395844 68.09874755409275 L 1276.4462483099321 68.01536471121685 L 1276.2969183381308 67.9313026232252 L 1276.1494553570533 67.84656969625658 L 1276.0038741128749 67.76117440353308 L 1275.8601891635983 67.67512528451279 L 1275.7184148775991 67.5884309440359 L 1275.5785654321876 67.50110005146425 L 1275.440654812192 67.41314133981427 L 1275.304696808559 67.32456360488388 L 1275.170705016976 67.23537570437271 L 1275.03869283651 67.14558655699653 L 1274.9086734682699 67.05520514159522 L 1274.7806599140833 66.96424049623502 L 1274.6546649751995 66.87270171730466 L 1274.530701251007 66.78059795860575 L 1274.4087811377753 66.68793843043741 L 1274.288916827414 66.59473239867523 L 1274.171120306254 66.50098918384472 L 1274.0554033538494 66.40671816018926 L 1273.9417775417994 66.31192875473263 L 1273.8302542325898 66.2166304463364 L 1273.7208445784593 66.120832764752 L 1273.6135595202816 66.02454528966774 L 1273.5084097864733 65.92777764975091 L 1273.4054058919203 65.83053952168484 L 1273.304558136926 65.73284062920132 L 1273.2058766061818 65.63469074210818 L 1273.109371167759 65.53609967531233 L 1273.0150514721204 65.4370772878383 L 1272.9229269511575 65.33763348184232 L 1272.8330068172454 65.23777820162212 L 1272.7453000623223 65.13752143262249 L 1272.659815456991 65.03687320043682 L 1272.5765615496407 64.93584356980442 L 1272.4955466655929 64.83444264360419 L 1272.416778906268 64.73268056184422 L 1272.3402661483767 64.63056750064791 L 1272.266016043131 64.52811367123628 L 1272.1940360154792 64.42532931890689 L 1272.1243332633646 64.32222472200931 L 1272.056914757004 64.21881019091732 L 1271.991787238192 64.11509606699785 L 1271.9289572196262 64.01109272157687 L 1271.868430984256 63.90681055490224 L 1271.8102145846547 63.80225999510374 L 1271.7543138424132 63.697451497150205 L 1271.7007343475598 63.59239554180411 L 1271.6494814579992 63.48710263457343 L 1271.6005602989771 63.381583304661156 L 1271.5539757625695 63.27584810391234 L 1271.5097325071904 63.16990760575894 L 1271.467834957129 63.06377240416249 L 1271.4282873021052 62.95745311255472 L 1271.3910934968517 62.85096036277616 L 1271.3562572607177 62.744304804013076 L 1271.3237820772981 62.63749710173245 L 1271.293671194084 62.530547936615505 L 1271.2659276221389 62.423468003489624 L 1271.2405541357964 62.316268010258895 L 1271.2175532723845 62.208958676833305 L 1271.19692733197 62.10155073405677 L 1271.17867837713 61.99405492263407 L 1271.1628082327445 61.88648199205676 L 1271.149318485815 61.77884269952825 L 1271.1382104853049 61.6711478088881 L 1271.1294853420047 61.56340808953563 L 1271.1231439284218 61.45563431535299 L 1271.119186878692 61.34783726362778 L 1271.1176145885174 61.24002771397536 L 1271.1184272151254 61.13221644726084 L 1271.121624677254 61.02441424452105 L 1271.1272066551596 60.916631885886424 L 1271.1351725906493 60.808880149503025 L 1271.1455216871361 60.70116981045468 L 1271.1582529097188 60.59351163968555 L 1271.173364985286 60.48591640292299 L 1271.1908564026426 60.378394859601016 L 1271.2107254126613 60.27095776178435 L 1271.232970028458 60.163615853093255 L 1271.2575880255895 60.05637986762915 L 1271.2845769422765 59.949260528901206 L 1271.31393407965 59.84226854875404 L 1271.3456565020203 59.7354146262965 L 1271.3797410371722 59.62870944683179 L 1271.4161842766803 59.52216368078894 L 1271.454982576251 59.41578798265577 L 1271.4961320560867 59.30959298991343 L 1271.5396286012738 59.203589321972714 L 1271.5854678621938 59.09778757911208 L 1271.633645254959 58.992198341417634 L 1271.6841559618701 58.88683216772516 L 1271.7369949318988 58.78169959456423 L 1271.7921568811919 58.67681113510454 L 1271.8496362936005 58.57217727810464 L 1271.9094274212314 58.46780848686303 L 1271.9715242850214 58.36371519817185 L 1272.0359206753358 58.25990782127324 L 1272.1026101525895 58.15639673681838 L 1272.1715860478903 58.053192295829454 L 1272.242841463706 57.950304818664556 L 1272.3163692745547 57.84774459398567 L 1272.3921621277163 57.745521877729786 L 1272.4702124439689 57.64364689208335 L 1272.5505124183455 57.54212982446004 L 1272.633054020916 57.44098082648201 L 1272.7178289975889 57.340210012964775 L 1272.8048288709367 57.2398274609057 L 1272.8940449410452 57.13984320847635 L 1272.985468286381 57.040267254018644 L 1273.0790897646866 56.94110955504505 L 1273.1749000138918 56.84238002724283 L 1273.2728894530514 56.74408854348249 L 1273.3730482833032 56.646244932830506 L 1273.4753664888476 56.54885897956639 L 1273.5798338379495 56.45194042220433 L 1273.686439883961 56.35549895251929 L 1273.7951739663663 56.25954421457787 L 1273.9060252118477 56.16408580377391 L 1274.018982535373 56.06913326586893 L 1274.134034641304 55.974696096037604 L 1274.2511700245261 55.88078373791821 L 1274.3703769715987 55.7874055826683 L 1274.4916435619261 55.694570968025594 L 1274.6149576689504 55.60228917737418 L 1274.740306961364 55.51056943881623 L 1274.8676789043416 55.41942092424918 L 1274.9970607607954 55.328852748448504 L 1275.1284395926475 55.23887396815633 L 1275.261802262124 55.14949358117568 L 1275.3971354330695 55.0607205254708 L 1275.5344255722794 54.97256367827326 L 1275.6736589508541 54.88503185519433 L 1275.814821645572 54.79813380934336 L 1275.9578995402812 54.71187823045254 L 1276.1028783273114 54.62627374400786 L 1276.2497435089047 54.541328910386646 L 1276.3984803986652 54.45705222400146 L 1276.5490741230283 54.373452112450714 L 1276.7015096227465 54.290536935675895 L 1276.8557716543974 54.20831498512558 L 1277.011844791906 54.12679448292632 L 1277.169713428089 54.0459835810604 L 1277.3293617762138 53.965890360550645 L 1277.490773871579 53.88652283065238 L 1277.6539335731093 53.80788892805245 L 1277.818824564971 53.72999651607559 L 1277.985430358202 53.652853383898076 L 1278.1537342923616 53.57646724576885 L 1278.323719537197 53.50084574023808 L 1278.4953690943253 53.42599642939328 L 1278.6686657989335 53.35192679810317 L 1278.843592321496 53.278644253269164 L 1279.0201311695062 53.20615612308466 L 1279.1982646892263 53.13446965630228 L 1279.3779750674528 53.06359202150896 L 1279.5592443332978 52.99353030640911 L 1279.7420543599856 52.924291517115876 L 1279.9263868666658 52.85588257745046 L 1280.1122234202414 52.78831032824984 L 1280.299545437212 52.72158152668263 L 1280.488334185532 52.65570284557336 L 1280.6785707864838 52.590680872735255 L 1280.870236216566 52.52652211031142 L 1281.063311309395 52.463232974124615 L 1281.2577767576227 52.40081979303573 L 1281.4536131148661 52.33928880831086 L 1281.6508007976531 52.278646172997206 L 1281.8493200873793 52.21889795130775 L 1282.0491511322812 52.160050118014894 L 1282.2502739494212 52.1021085578529 L 1282.4526684266848 52.045079064929524 L 1282.656314324793 51.98896734214652 L 1282.8611912793258 51.933779000629414 L 1283.0672788027584 51.87951955916637 L 1283.2745562865105 51.826194443656306 L 1283.483003003006 51.77380898656634 L 1283.692598107747 51.72236842639853 L 1283.903320641398 51.67187790716602 L 1284.1151495318811 51.622342477878675 L 1284.3280635964836 51.57376709203812 L 1284.5420415439767 51.526156607142475 L 1284.757061976744 51.47951578420055 L 1284.973103392921 51.43384928725578 L 1285.1901441885468 51.38916168291979 L 1285.408162659722 51.34545743991578 L 1285.6271370047816 51.302740928631636 L 1285.8470453264733 51.261016420682886 L 1286.0678656341486 51.220288088485546 L 1286.2895758459601 51.18056000483891 L 1286.512153791072 51.14183614251822 L 1286.7355772118751 51.10412037387746 L 1286.9598237662133 51.06741647046204 L 1287.1848710296183 51.03172810263173 L 1287.410696497551 50.99705883919358 L 1287.637277587653 50.96341214704502 L 1287.8645916420041 50.930791390827245 L 1288.0926159293883 50.899199832588685 L 1288.3213276475667 50.86864063145883 L 1288.5507039255583 50.83911684333235 L 1288.7807218259263 50.81063142056343 L 1289.0113583470725 50.78318721167063 L 1289.242590425537 50.75678696105195 L 1289.4743949383044 50.731433308710464 L 1289.7067487051168 50.70712878999027 L 1289.939628490791 50.683875835323 L 1290.1730110075425 50.66167676998473 L 1290.406872917314 50.6405338138635 L 1290.64119083411 50.6204490812373 L 1290.8759413263335 50.60142458056266 L 1291.111100919131 50.583462214273794 L 1291.3466460967395 50.566563778592354 L 1291.5825533048371 50.55073096334783 L 1291.8187989529 50.53596535180856 L 1292.0553594165597 50.52226842052339 L 1292.2922110399675 50.50964153917403 L 1292.529330138158 50.49808597043808 L 1292.7666929994195 50.48760286986282 L 1293.0042758876632 50.47819328574954 L 1293.2420550447987 50.46985815904882 L 1293.480006693108 50.462598323266384 L 1293.7181070376248 50.456414504379765 L 1293.9563322685128 50.45130732076569 L 1294.1946585634478 50.44727728313828 L 1294.4330620899989 50.444324794497916 L 1294.6715190080117 50.44245015009101 L 1294.9100054719936 50.44165353738045 L 1295.1484976334966 50.44193503602685 L 1295.3869716435036 50.443294617880554 L 1295.6254036548119 50.445732146984525 L 1295.8637698244193 50.44924737958788 L 1296.1020463159077 50.45383996417029 L 1296.340209301826 50.459509441477124 L 1296.5782349660747 50.46625524456538 L 1296.8160995062851 50.474076698860365 L 1297.053779136202 50.48297302222316 L 1297.2912500880598 50.49294332502887 L 1297.5284886149618 50.50398661025549 L 1297.7654709932528 50.51610177358371 L 1298.0021735248924 50.52928760350731 L 1298.2385725398246 50.54354278145426 L 1298.4746443983452 50.55886588191867 L 1298.710365493465 50.575255372603245 L 1298.9457122532706 50.592709614572584 L 1299.1806611432824 50.61122686241703 L 1299.4151886688073 50.630805264427224 L 1299.649271377288 50.651442862779284 L 1299.8828858606487 50.67313759373059 L 1300.1160087576359 50.695887287826096 L 1300.348616756154 50.71968967011537 L 1300.580686595597 50.74454236038002 L 1300.8121950691745 50.77044287337172 L 1301.0431190262318 50.797388619060754 L 1301.2734353745661 50.825376902895016 L 1301.503121082734 50.85440492606945 L 1301.7321531823563 50.88446978580591 L 1301.960508770414 50.9155684756435 L 1302.1881650115386 50.947697885739125 L 1302.4150991402953 50.980854803178566 L 1302.6412884634608 51.01503591229771 L 1302.8667103622909 51.05023779501413 L 1303.091342294784 51.08645693116888 L 1303.3151617979336 51.12368969887854 L 1303.538146489976 51.16193237489736 L 1303.7602740726281 51.201181134989596 L 1303.9815223333167 51.241432054311964 L 1304.2018691473997 51.28268110780607 L 1304.4212924803796 51.32492417060092 L 1304.6397703901062 51.368157018425464 L 1304.85728102897 51.41237532803093 L 1305.0738026460888 51.45757467762322 L 1305.2893135894813 51.503750547305025 L 1305.5037923082325 51.55089831952786 L 1305.7172173546494 51.5990132795538 L 1305.9295673864053 51.64809061592693 L 1306.140821168674 51.69812542095451 L 1306.3509575762532 51.749112691197745 L 1306.5599555956774 51.801047327972086 L 1306.7677943273184 51.85392413785714 L 1306.9744529874768 51.90773783321599 L 1307.1799109104584 51.962483032723924 L 1307.3841475506424 52.01815426190663 L 1307.5871424845348 52.07474595368758 L 1307.7888754128114 52.132252448944755 L 1307.9893261623474 52.190667997076545 L 1308.1884746882351 52.24998675657682 L 1308.3863010757877 52.310202795619055 L 1308.5827855425314 52.371310092649544 L 1308.777908440183 52.43330253698949 L 1308.9716502566157 52.49617392944612 L 1309.1639916178092 52.559917982932596 L 1309.3549132897876 52.62452832309667 L 1309.544396180543 52.68999848895818 L 1309.7324213419438 52.7563219335551 L 1309.9189699716308 52.823492024598224 L 1310.1040234148966 52.89150204513444 L 1310.2875631665509 52.960345194218355 L 1310.4695708727716 53.03001458759244 L 1310.6500283329394 53.10050325837541 L 1310.8289175014593 53.171804157758935 L 1311.0062204895632 53.243910155712484 L 1311.1819195670998 53.31681404169635 L 1311.3559971643083 53.39050852538269 L 1311.5284358735735 53.46498623738456 L 1311.6992184511685 53.5402397299928 L 1311.8683278189778 53.61626147792087 L 1312.0357470662054 53.69304387905734 L 1312.2014594510663 53.770579255226075 L 1312.36544840246 53.848859852954064 L 1312.527697521628 53.92787784424677 L 1312.6881905837936 54.00762532737092 L 1312.8469115397843 54.08809432764465 L 1313.003844517637 54.16927679823499 L 1313.1589738241844 54.251164620962534 L 1313.312283946625 54.33374960711325 L 1313.4637595540748 54.41702349825734 L 1313.613385499099 54.500977967075094 L 1313.7611468192279 54.58560461818958 L 1313.9070287384523 54.670894989006214 L 1314.0510166687022 54.75684055055899 L 1314.1930962113042 54.84343270836337 L 1314.333253158423 54.93066280327574 L 1314.4714734944803 55.0185221123593 L 1314.6077433975577 55.107001849756344 L 1314.7420492407784 55.196093167566886 L 1314.8743775936703 55.28578715673337 L 1315.004715223508 55.37607484793163 L 1315.1330490966373 55.46694721246779 L 1315.259366379778 55.55839516318112 L 1315.3836544413066 55.65040955535275 L 1315.505900852521 55.742981187620146 L 1315.6260933888818 55.83610080289723 L 1315.7442200312353 55.92975908930006 L 1315.860268967016 56.02394668107806 L 1315.974228591427 56.11865415955053 L 1316.0860875086005 56.213872054048544 L 1316.1958345327384 56.30959084286201 L 1316.3034586892295 56.405800954191804 L 1316.408949215748 56.50249276710697 L 1316.5122955633292 56.5996566125068 L 1316.613487397424 56.69728277408771 L 1316.712514598934 56.79536148931491 L 1316.809367265221 56.89388295039859 L 1316.9040357110994 56.99283730527477 L 1316.9965104698033 57.09221465859041 L 1317.086782293934 57.19200507269298 L 1317.1748421563843 57.29219856862425 L 1317.2606812512415 57.39278512711811 L 1317.3442909946673 57.49375468960253 L 1317.4256630257573 57.59509715920541 L 1317.5047892073762 57.69680240176424 L 1317.5816616269717 57.79886024683951 L 1317.6562725973658 57.90126048873177 L 1317.7286146575238 58.003992887502164 L 1317.7986805733 58.10704716999642 L 1317.866463338161 58.21041303087217 L 1317.931956173887 58.31408013362946 L 1317.995152531249 58.41803811164441 L 1318.0560460906636 58.52227656920584 L 1318.114630762826 58.62678508255487 L 1318.1709006893177 58.731553200927245 L 1318.224850243193 58.83657044759845 L 1318.276474029541 58.94182632093131 L 1318.325766886027 59.04731029542622 L 1318.3727238834053 59.153011822773635 L 1318.4173403260163 59.25892033290889 L 1318.4596117522524 59.36502523506925 L 1318.4995339350062 59.471315918852895 L 1318.5371028820928 59.57778175528004 L 1318.572314836649 59.684412097855756 L 1318.6051662775083 59.79119628363465 L 1318.635653919554 59.89812363428712 L 1318.6637747140478 60.005183457167206 L 1318.6895258489333 60.11236504638185 L 1318.7129047491183 60.21965768386144 L 1318.7339090767327 60.327050640431644 L 1318.7525367313608 60.43453317688629 L 1318.7687858502532 60.5420945450613 L 1318.782654808511 60.6497239889095 L 1318.7941422192503 60.757410745576195 L 1318.8032469337395 60.86514404647545 L 1318.8099680415146 60.972913118366954 L 1318.8143048704708 61.08070718443333 L 1318.8162569869282 61.188515465357796 M 1318.8163779769843 95.52678387991818 L 1318.8151855170806 95.6345944248348 L 1318.8116082566146 95.74239418878678 L 1318.805646553309 95.85017239188754 L 1318.79730100333 95.95791825640659 L 1318.7865724412247 96.06562100784727 L 1318.773461939841 96.1732698760242 L 1318.7579708102176 96.28085409614023 L 1318.740100601455 96.38836290986303 L 1318.719853100559 96.49578556640084 L 1318.6972303322627 96.60311132357748 L 1318.6722345588244 96.7103294489067 L 1318.6448682798004 96.8174292206653 L 1318.6151342317958 96.92439992896537 L 1318.5830353881906 97.0312308768252 L 1318.5485749588424 97.13791138123905 L 1318.5117563897657 97.24443077424536 L 1318.4725833627865 97.35077840399362 L 1318.4310597951746 97.45694363580944 L 1318.3871898392526 97.56291585325815 L 1318.3409778819794 97.66868445920629 L 1318.292428544512 97.77423887688141 L 1318.241546681744 97.8795685509297 L 1318.1883373818189 97.98466294847155 L 1318.1328059656228 98.08951156015478 L 1318.0749579862509 98.19410390120557 L 1318.0147992284526 98.29842951247699 L 1317.9523357080539 98.40247796149485 L 1317.8875736713549 98.50623884350097 L 1317.8205195945047 98.60970178249359 L 1317.7511801828557 98.71285643226504 L 1317.6795623702913 98.81569247743631 L 1317.6056733185326 98.91819963448859 L 1317.5295204164233 99.02036765279156 L 1317.4511112791906 99.12218631562857 L 1317.3704537476826 99.22364544121817 L 1317.287555887585 99.32473488373233 L 1317.2024259886152 99.42544453431107 L 1317.115072563692 99.52576432207324 L 1317.0255043480847 99.62568421512367 L 1316.9337302985405 99.72519422155631 L 1316.8397595923882 99.82428439045346 L 1316.7436016266197 99.92294481288079 L 1316.6452660169514 100.02116562287829 L 1316.5447625968627 100.11893699844678 L 1316.4421014166114 100.2162491625302 L 1316.3372927422304 100.31309238399325 L 1316.2303470544996 100.40945697859446 L 1316.1212750478987 100.50533330995468 L 1316.0100876295373 100.60071179052068 L 1315.8967959180648 100.69558288252388 L 1315.7814112425579 100.78993709893413 L 1315.6639451413878 100.88376500440843 L 1315.544409361067 100.97705721623441 L 1315.4228158550736 101.06980440526866 L 1315.2991767826572 101.16199729686952 L 1315.1735045076218 101.25362667182469 L 1315.0458115970903 101.34468336727302 L 1314.9161108202475 101.43515827762084 L 1314.7844151470624 101.52504235545253 L 1314.6507377469932 101.61432661243519 L 1314.5150919876683 101.70300212021755 L 1314.3774914335504 101.7910600113227 L 1314.2379498445805 101.87849148003492 L 1314.0964811748013 101.9652877832802 L 1313.9530995709615 102.05144024150056 L 1313.8078193711021 102.13694023952193 L 1313.6606551031225 102.22177922741581 L 1313.5116214833263 102.30594872135407 L 1313.3607334149515 102.38944030445748 L 1313.2080059866792 102.47224562763729 L 1313.0534544711247 102.5543564104302 L 1312.8970943233112 102.63576444182635 L 1312.738941179123 102.71646158109044 L 1312.5790108537428 102.79643975857579 L 1312.4173193400695 102.8756909765313 L 1312.2538828071201 102.95420730990122 L 1312.0887175984117 103.03198090711763 L 1311.9218402303275 103.10900399088564 L 1311.753267390465 103.18526885896105 L 1311.5830159359678 103.2607678849206 L 1311.4111028918396 103.33549351892461 L 1311.2375454492417 103.40943828847196 L 1311.0623609637732 103.48259479914732 L 1310.8855669537372 103.55495573536056 L 1310.707181098387 103.6265138610784 L 1310.52722123616 103.69726202054787 L 1310.3457053628917 103.76719313901197 L 1310.162651630019 103.83630022341715 L 1309.9780783427618 103.90457636311257 L 1309.7920039582957 103.97201473054113 L 1309.6044470839038 104.03860858192229 L 1309.415426475117 104.10435125792642 L 1309.2249610338392 104.1692361843407 L 1309.0330698064554 104.23325687272656 L 1308.8397719819286 104.29640692106851 L 1308.64508688988 104.35868001441433 L 1308.449033998657 104.4200699255066 L 1308.2516329133848 104.48057051540535 L 1308.0529033740077 104.54017573410202 L 1307.852865253314 104.5988796211244 L 1307.651538554949 104.65667630613272 L 1307.4489434114148 104.71356000950664 L 1307.2451000820572 104.7695250429232 L 1307.0400289510387 104.82456580992574 L 1306.833750525302 104.87867680648341 L 1306.6262854325178 104.93185262154162 L 1306.417654419022 104.98408793756322 L 1306.2078783477425 105.0353775310601 L 1305.9969781961115 105.08571627311568 L 1305.7849750539685 105.13509912989768 L 1305.571890121451 105.1835211631616 L 1305.3577447068744 105.23097753074444 L 1305.1425602246022 105.27746348704899 L 1304.926358192903 105.32297438351839 L 1304.7091602317998 105.36750566910086 L 1304.4909880609077 105.41105289070501 L 1304.2718634972623 105.45361169364494 L 1304.051808453137 105.49517782207583 L 1303.8308449338529 105.53574711941947 L 1303.608995035578 105.57531552877992 L 1303.3862809431168 105.61387909334925 L 1303.1627249276935 105.65143395680312 L 1302.9383493447228 105.68797636368647 L 1302.7131766315765 105.72350265978909 L 1302.4872293053381 105.75800929251095 L 1302.260529960552 105.79149281121755 L 1302.0331012669635 105.82394986758491 L 1301.8049659672529 105.85537721593445 L 1301.5761468747594 105.88577171355752 L 1301.3466668712022 105.9151303210297 L 1301.1165489043901 105.94345010251467 L 1300.885815985928 105.97072822605791 L 1300.6544911889157 105.99696196386981 L 1300.4225976456398 106.02214869259844 L 1300.1901585452617 106.04628589359189 L 1299.9571971314977 106.0693711531502 L 1299.7237367002947 106.09140216276666 L 1299.4898005975017 106.11237671935864 L 1299.2554122165338 106.13229272548797 L 1299.0205949960339 106.15114818957065 L 1298.7853724175282 106.16894122607596 L 1298.5497680030785 106.1856700557151 L 1298.3138053129303 106.20133300561903 L 1298.0775079431555 106.21592850950582 L 1297.8408995232944 106.22945510783724 L 1297.604003713992 106.24191144796474 L 1297.3668442046314 106.25329628426466 L 1297.1294447109663 106.2636084782629 L 1296.8918289727478 106.2728469987486 L 1296.6540207513522 106.28101092187747 L 1296.4160438274032 106.28809943126396 L 1296.1779219983948 106.29411181806304 L 1295.9396790763114 106.29904748104106 L 1295.7013388852472 106.30290592663582 L 1295.462925259022 106.30568676900597 L 1295.2244620388005 106.30738973006962 L 1294.9859730707053 106.30801463953205 L 1294.7474822034349 106.30756143490284 L 1294.509013285877 106.3060301615021 L 1294.2705901647248 106.30342097245587 L 1294.0322366820917 106.29973412868088 L 1293.7939766731274 106.29496999885845 L 1293.555833963634 106.28912905939758 L 1293.3178323676843 106.28221189438736 L 1293.0799956852395 106.27421919553852 L 1292.8423476997696 106.26515176211427 L 1292.6049121758751 106.25501050085043 L 1292.3677128569104 106.24379642586464 L 1292.13077346261 106.23151065855508 L 1291.8941176867156 106.21815442748823 L 1291.657769194608 106.20372906827606 L 1291.421751620939 106.1882360234425 L 1291.1860885672693 106.17167684227908 L 1290.9508035997083 106.15405318069014 L 1290.7159202465562 106.13536680102716 L 1290.481461995953 106.11561957191253 L 1290.2474522935279 106.09481346805269 L 1290.0139145400567 106.0729505700407 L 1289.7808720891196 106.05003306414814 L 1289.548348244768 106.0260632421065 L 1289.3163662591921 106.00104350087803 L 1289.0849493303974 105.97497634241597 L 1288.854120599884 105.94786437341445 L 1288.6239031503324 105.9197103050478 L 1288.394320003296 105.89051695269937 L 1288.1653941168977 105.86028723568009 L 1287.9371483835357 105.82902417693644 L 1287.709605627593 105.79673090274827 L 1287.4827886031558 105.76341064241608 L 1287.256719991737 105.72906672793813 L 1287.0314224000101 105.69370259367726 L 1286.8069183575462 105.6573217760174 L 1286.5832303145623 105.61992791301003 L 1286.3603806396764 105.58152474401028 L 1286.1383916176703 105.54211610930304 L 1285.917285447261 105.50170594971894 L 1285.6970842388819 105.46029830624026 L 1285.4778100124695 105.41789731959686 L 1285.2594846952643 105.37450722985206 L 1285.042130119616 105.33013237597868 L 1284.825768020801 105.28477719542511 L 1284.6104200348486 105.23844622367163 L 1284.3961076963783 105.1911440937768 L 1284.1828524364453 105.14287553591419 L 1283.9706755803977 105.09364537689936 L 1283.7595983457445 105.0434585397072 L 1283.5496418400332 104.99232004297959 L 1283.3408270587393 104.9402350005236 L 1283.133174883167 104.88720862080007 L 1282.9267060783607 104.83324620640276 L 1282.7214412910291 104.77835315352817 L 1282.5174010474796 104.72253495143585 L 1282.3146057515667 104.66579718189945 L 1282.113075682651 104.60814551864868 L 1281.912830993571 104.54958572680184 L 1281.7138917086297 104.49012366228926 L 1281.516277721589 104.42976527126788 L 1281.320008793683 104.36851658952648 L 1281.1251045516412 104.30638374188221 L 1280.9315844857251 104.24337294156805 L 1280.7394679477804 104.17949048961154 L 1280.5487741493007 104.11474277420461 L 1280.3595221595067 104.04913627006486 L 1280.1717309034398 103.98267753778805 L 1279.9854191600691 103.91537322319199 L 1279.8006055604137 103.84723005665208 L 1279.6173085856797 103.77825485242818 L 1279.4355465654114 103.70845450798322 L 1279.2553376756598 103.63783600329349 L 1279.0766999371635 103.56640640015061 L 1278.8996512135477 103.49417284145538 L 1278.7242092095369 103.42114255050346 L 1278.5503914691853 103.3473228302631 L 1278.3782153741224 103.27272106264479 L 1278.2076981418143 103.19734470776314 L 1278.0388568238416 103.1212013031908 L 1277.8717083041956 103.04429846320481 L 1277.7062692975892 102.96664387802507 L 1277.5425563477852 102.88824531304537 L 1277.3805858259418 102.8091106080569 L 1277.2203739289764 102.72924767646418 L 1277.0619366779454 102.64866450449387 L 1276.9052899164417 102.56736915039596 L 1276.7504493090107 102.48536974363815 L 1276.5974303395844 102.40267448409276 L 1276.4462483099321 102.31929164121684 L 1276.2969183381308 102.2352295532252 L 1276.1494553570533 102.15049662625658 L 1276.0038741128749 102.06510133353308 L 1275.8601891635983 101.97905221451278 L 1275.7184148775991 101.89235787403591 L 1275.5785654321876 101.80502698146424 L 1275.440654812192 101.71706826981428 L 1275.304696808559 101.62849053488388 L 1275.170705016976 101.53930263437272 L 1275.03869283651 101.44951348699652 L 1274.9086734682699 101.35913207159521 L 1274.7806599140833 101.26816742623502 L 1274.6546649751995 101.17662864730465 L 1274.530701251007 101.08452488860574 L 1274.4087811377753 100.9918653604374 L 1274.288916827414 100.89865932867522 L 1274.171120306254 100.80491611384473 L 1274.0554033538494 100.71064509018925 L 1273.9417775417994 100.61585568473262 L 1273.8302542325898 100.5205573763364 L 1273.7208445784593 100.424759694752 L 1273.6135595202816 100.32847221966773 L 1273.5084097864733 100.2317045797509 L 1273.4054058919203 100.13446645168483 L 1273.304558136926 100.03676755920131 L 1273.2058766061818 99.93861767210817 L 1273.109371167759 99.84002660531232 L 1273.0150514721204 99.7410042178383 L 1272.9229269511575 99.64156041184232 L 1272.8330068172454 99.54170513162211 L 1272.7453000623223 99.4414483626225 L 1272.659815456991 99.34080013043682 L 1272.5765615496407 99.23977049980442 L 1272.4955466655929 99.13836957360418 L 1272.416778906268 99.03660749184422 L 1272.3402661483767 98.9344944306479 L 1272.266016043131 98.83204060123627 L 1272.1940360154792 98.72925624890688 L 1272.1243332633646 98.6261516520093 L 1272.056914757004 98.52273712091731 L 1271.991787238192 98.41902299699785 L 1271.9289572196262 98.31501965157686 L 1271.868430984256 98.21073748490224 L 1271.8102145846547 98.10618692510373 L 1271.7543138424132 98.0013784271502 L 1271.7007343475598 97.89632247180411 L 1271.6494814579992 97.79102956457344 L 1271.6005602989771 97.68551023466115 L 1271.5539757625695 97.57977503391233 L 1271.5097325071904 97.47383453575894 L 1271.467834957129 97.3676993341625 L 1271.4282873021052 97.2613800425547 L 1271.3910934968517 97.15488729277617 L 1271.3562572607177 97.04823173401307 L 1271.3237820772981 96.94142403173245 L 1271.293671194084 96.8344748666155 L 1271.2659276221389 96.72739493348962 L 1271.2405541357964 96.6201949402589 L 1271.2175532723845 96.51288560683331 L 1271.19692733197 96.40547766405678 L 1271.17867837713 96.29798185263407 L 1271.1628082327445 96.19040892205675 L 1271.149318485815 96.08276962952824 L 1271.1382104853049 95.9750747388881 L 1271.1294853420047 95.86733501953563 L 1271.1231439284218 95.75956124535298 L 1271.119186878692 95.65176419362778 L 1271.1176145885174 95.54395464397535" stroke-miterlimit="10" stroke-width="2.7769845610000004" stroke-dasharray=""/></g><g><g/><text fill="black" stroke="none" font-family="sans-serif" font-size="11pt" font-style="normal" font-weight="normal" text-decoration="normal" x="1255.0457165105468" y="123.83569119881818" text-anchor="start" dominant-baseline="alphabetic" xml:space="preserve">GameOnDB</text></g></g><g><g><text fill="black" stroke="none" font-family="sans-serif" font-size="16pt" font-style="normal" font-weight="normal" text-decoration="normal" x="556.5356826782227" y="24.651306798181814" text-anchor="start" dominant-baseline="alphabetic" xml:space="preserve">Sign In Sequence Diagram</text></g><g><rect fill="white" stroke="none" x="185.02160244315107" y="161.4066587888182" width="180.69146980347656" height="21.23576429"/><text fill="black" stroke="none" font-family="sans-serif" font-size="11pt" font-style="normal" font-weight="normal" text-decoration="normal" x="187.47188293815105" y="176.10834175881817" text-anchor="start" dominant-baseline="alphabetic" xml:space="preserve">Click "Sign In with Discord"</text></g><g><path fill="none" stroke="black" paint-order="fill stroke markers" d=" M 73.50841485 182.64242307881818 L 463.776942456112 182.64242307881818" stroke-miterlimit="10" stroke-width="1.3612669416666667" stroke-dasharray=""/><g transform="translate(477.22625983977866,182.64242307881818) translate(-477.22625983977866,-182.64242307881818)"><path fill="black" stroke="none" paint-order="stroke fill markers" d=" M 463.613590423112 175.83608837048484 L 477.22625983977866 182.64242307881818 L 463.613590423112 189.44875778715152 Z"/></g></g><g><rect fill="white" stroke="none" x="496.55625041144526" y="207.1452280288182" width="243.6262689978125" height="21.23576429"/><text fill="black" stroke="none" font-family="sans-serif" font-size="11pt" font-style="normal" font-weight="normal" text-decoration="normal" x="499.0065309064453" y="221.84691099881817" text-anchor="start" dominant-baseline="alphabetic" xml:space="preserve">discordAuthenticate(DiscordParams)</text></g><g><path fill="none" stroke="black" paint-order="fill stroke markers" d=" M 477.22625983977866 228.3809923188182 L 746.0631925972579 228.3809923188182" stroke-miterlimit="10" stroke-width="1.3612669416666667" stroke-dasharray=""/><g transform="translate(759.5125099809245,228.3809923188182) translate(-759.5125099809245,-228.3809923188182)"><path fill="black" stroke="none" paint-order="stroke fill markers" d=" M 745.8998405642578 221.57465761048485 L 759.5125099809245 228.3809923188182 L 745.8998405642578 235.18732702715153 Z"/></g></g><g><rect fill="white" stroke="none" x="543.8110416712109" y="252.88379726881823" width="149.11668647828125" height="21.23576429"/><text fill="black" stroke="none" font-family="sans-serif" font-size="11pt" font-style="normal" font-weight="normal" text-decoration="normal" x="546.2613221662109" y="267.5854802388182" text-anchor="start" dominant-baseline="alphabetic" xml:space="preserve">Returns DiscordToken</text></g><g><path fill="none" stroke="black" paint-order="fill stroke markers" d=" M 759.5125099809245 274.1195615588182 L 490.6755772234453 274.1195615588182" stroke-miterlimit="10" stroke-width="1.3612669416666667" stroke-dasharray="6.53408132"/><g transform="translate(477.22625983977866,274.1195615588182) translate(-477.22625983977866,-274.1195615588182)"><path fill="black" stroke="none" paint-order="stroke fill markers" d=" M 490.83892925644534 267.31322685048485 L 477.22625983977866 274.1195615588182 L 490.83892925644534 280.92589626715153 Z"/></g></g><g><rect fill="white" stroke="none" x="567.5304542431186" y="298.6223665088182" width="242.01570381226563" height="21.23576429"/><text fill="black" stroke="none" font-family="sans-serif" font-size="11pt" font-style="normal" font-weight="normal" text-decoration="normal" x="569.9807347381186" y="313.32404947881815" text-anchor="start" dominant-baseline="alphabetic" xml:space="preserve">signIn(DiscordToken, SessionToken)</text></g><g><path fill="none" stroke="black" paint-order="fill stroke markers" d=" M 477.22625983977866 319.8581307988182 L 886.4010350750574 319.8581307988182" stroke-miterlimit="10" stroke-width="1.3612669416666667" stroke-dasharray=""/><g transform="translate(899.850352458724,319.8581307988182) translate(-899.850352458724,-319.8581307988182)"><path fill="black" stroke="none" paint-order="stroke fill markers" d=" M 886.2376830420574 313.05179609048486 L 899.850352458724 319.8581307988182 L 886.2376830420574 326.66446550715153 Z"/></g></g><g><rect fill="white" stroke="none" x="921.213263867793" y="344.3609357488182" width="165.40870918335938" height="21.23576429"/><text fill="black" stroke="none" font-family="sans-serif" font-size="11pt" font-style="normal" font-weight="normal" text-decoration="normal" x="923.663544362793" y="359.06261871881816" text-anchor="start" dominant-baseline="alphabetic" xml:space="preserve">getProfile(DiscordToken)</text></g><g><path fill="none" stroke="black" paint-order="fill stroke markers" d=" M 899.850352458724 365.5967000388182 L 1094.5355670765546 365.5967000388182" stroke-miterlimit="10" stroke-width="1.3612669416666667" stroke-dasharray=""/><g transform="translate(1107.9848844602213,365.5967000388182) translate(-1107.9848844602213,-365.5967000388182)"><path fill="black" stroke="none" paint-order="stroke fill markers" d=" M 1094.3722150435547 358.79036533048486 L 1107.9848844602213 365.5967000388182 L 1094.3722150435547 372.40303474715154 Z"/></g></g><g><rect fill="white" stroke="none" x="1133.4351371778841" y="434.2045538988182" width="136.0815912634375" height="21.23576429"/><text fill="black" stroke="none" font-family="sans-serif" font-size="11pt" font-style="normal" font-weight="normal" text-decoration="normal" x="1135.8854176728842" y="448.90623686881816" text-anchor="start" dominant-baseline="alphabetic" xml:space="preserve">Retrieve user profile</text></g><g><path fill="none" stroke="black" paint-order="fill stroke markers" d=" M 1107.9848844602213 455.4403181888182 L 1281.5176637753175 455.4403181888182" stroke-miterlimit="10" stroke-width="1.3612669416666667" stroke-dasharray="6.53408132"/><g transform="translate(1294.9669811589843,455.4403181888182) translate(-1294.9669811589843,-455.4403181888182)"><path fill="black" stroke="none" paint-order="stroke fill markers" d=" M 1281.3543117423176 448.63398348048486 L 1294.9669811589843 455.4403181888182 L 1281.3543117423176 462.24665289715153 Z"/></g></g><g><rect fill="white" stroke="none" x="1141.1695579542513" y="479.9431231388182" width="120.61274971070313" height="21.23576429"/><text fill="black" stroke="none" font-family="sans-serif" font-size="11pt" font-style="normal" font-weight="normal" text-decoration="normal" x="1143.6198384492513" y="494.64480610881816" text-anchor="start" dominant-baseline="alphabetic" xml:space="preserve">User profile found</text></g><g><path fill="none" stroke="black" paint-order="fill stroke markers" d=" M 1294.9669811589843 501.1788874288182 L 1121.434201843888 501.1788874288182" stroke-miterlimit="10" stroke-width="1.3612669416666667" stroke-dasharray="6.53408132"/><g transform="translate(1107.9848844602213,501.1788874288182) translate(-1107.9848844602213,-501.1788874288182)"><path fill="black" stroke="none" paint-order="stroke fill markers" d=" M 1121.597553876888 494.37255272048486 L 1107.9848844602213 501.1788874288182 L 1121.597553876888 507.98522213715154 Z"/></g></g><g><rect fill="white" stroke="none" x="943.2175515875196" y="525.6816923788182" width="121.40013374390625" height="21.23576429"/><text fill="black" stroke="none" font-family="sans-serif" font-size="11pt" font-style="normal" font-weight="normal" text-decoration="normal" x="945.6678320825196" y="540.3833753488182" text-anchor="start" dominant-baseline="alphabetic" xml:space="preserve">User profile exists</text></g><g><path fill="none" stroke="black" paint-order="fill stroke markers" d=" M 1107.9848844602213 546.9174566688182 L 913.2996698423907 546.9174566688182" stroke-miterlimit="10" stroke-width="1.3612669416666667" stroke-dasharray="6.53408132"/><g transform="translate(899.850352458724,546.9174566688182) translate(-899.850352458724,-546.9174566688182)"><path fill="black" stroke="none" paint-order="stroke fill markers" d=" M 913.4630218753907 540.1111219604849 L 899.850352458724 546.9174566688182 L 913.4630218753907 553.7237913771515 Z"/></g></g><g><rect fill="white" stroke="none" x="603.7938514599155" y="571.4202616188181" width="169.48890937867188" height="21.23576429"/><text fill="black" stroke="none" font-family="sans-serif" font-size="11pt" font-style="normal" font-weight="normal" text-decoration="normal" x="606.2441319549155" y="586.1219445888181" text-anchor="start" dominant-baseline="alphabetic" xml:space="preserve">Redirect to Home Screen</text></g><g><path fill="none" stroke="black" paint-order="fill stroke markers" d=" M 899.850352458724 592.6560259088182 L 490.6755772234453 592.6560259088182" stroke-miterlimit="10" stroke-width="1.3612669416666667" stroke-dasharray="6.53408132"/><g transform="translate(477.22625983977866,592.6560259088182) translate(-477.22625983977866,-592.6560259088182)"><path fill="black" stroke="none" paint-order="stroke fill markers" d=" M 490.83892925644534 585.8496912004848 L 477.22625983977866 592.6560259088182 L 490.83892925644534 599.4623606171515 Z"/></g></g><g><rect fill="white" stroke="none" x="190.6228826555534" y="617.1588308588181" width="169.48890937867188" height="21.23576429"/><text fill="black" stroke="none" font-family="sans-serif" font-size="11pt" font-style="normal" font-weight="normal" text-decoration="normal" x="193.0731631505534" y="631.8605138288181" text-anchor="start" dominant-baseline="alphabetic" xml:space="preserve">Redirect to Home Screen</text></g><g><path fill="none" stroke="black" paint-order="fill stroke markers" d=" M 477.22625983977866 638.3945951488181 L 86.95773223366666 638.3945951488181" stroke-miterlimit="10" stroke-width="1.3612669416666667" stroke-dasharray=""/><g transform="translate(73.50841485,638.3945951488181) translate(-73.50841485,-638.3945951488181)"><path fill="black" stroke="none" paint-order="stroke fill markers" d=" M 87.12108426666666 631.5882604404848 L 73.50841485 638.3945951488181 L 87.12108426666666 645.2009298571514 Z"/></g></g><g><rect fill="white" stroke="none" x="1150.9440635694857" y="707.0024490088181" width="101.06373848023438" height="21.23576429"/><text fill="black" stroke="none" font-family="sans-serif" font-size="11pt" font-style="normal" font-weight="normal" text-decoration="normal" x="1153.3943440644857" y="721.704131978818" text-anchor="start" dominant-baseline="alphabetic" xml:space="preserve">User not found</text></g><g><path fill="none" stroke="black" paint-order="fill stroke markers" d=" M 1107.9848844602213 728.2382132988181 L 1281.5176637753175 728.2382132988181" stroke-miterlimit="10" stroke-width="1.3612669416666667" stroke-dasharray="6.53408132"/><g transform="translate(1294.9669811589843,728.2382132988181) translate(-1294.9669811589843,-728.2382132988181)"><path fill="black" stroke="none" paint-order="stroke fill markers" d=" M 1281.3543117423176 721.4318785904848 L 1294.9669811589843 728.2382132988181 L 1281.3543117423176 735.0445480071514 Z"/></g></g><g><rect fill="white" stroke="none" x="1130.9798683180209" y="752.741018248818" width="140.99212898316406" height="21.23576429"/><text fill="black" stroke="none" font-family="sans-serif" font-size="11pt" font-style="normal" font-weight="normal" text-decoration="normal" x="1133.4301488130209" y="767.442701218818" text-anchor="start" dominant-baseline="alphabetic" xml:space="preserve">No user profile found</text></g><g><path fill="none" stroke="black" paint-order="fill stroke markers" d=" M 1294.9669811589843 773.976782538818 L 1121.434201843888 773.976782538818" stroke-miterlimit="10" stroke-width="1.3612669416666667" stroke-dasharray="6.53408132"/><g transform="translate(1107.9848844602213,773.976782538818) translate(-1107.9848844602213,-773.976782538818)"><path fill="black" stroke="none" paint-order="stroke fill markers" d=" M 1121.597553876888 767.1704478304847 L 1107.9848844602213 773.976782538818 L 1121.597553876888 780.7831172471514 Z"/></g></g><g><rect fill="white" stroke="none" x="590.3400321850131" y="798.479587488818" width="196.39654792847656" height="21.23576429"/><text fill="black" stroke="none" font-family="sans-serif" font-size="11pt" font-style="normal" font-weight="normal" text-decoration="normal" x="592.7903126800131" y="813.181270458818" text-anchor="start" dominant-baseline="alphabetic" xml:space="preserve">Redirect to Registration Page</text></g><g><path fill="none" stroke="black" paint-order="fill stroke markers" d=" M 899.850352458724 819.715351778818 L 490.6755772234453 819.715351778818" stroke-miterlimit="10" stroke-width="1.3612669416666667" stroke-dasharray="6.53408132"/><g transform="translate(477.22625983977866,819.715351778818) translate(-477.22625983977866,-819.715351778818)"><path fill="black" stroke="none" paint-order="stroke fill markers" d=" M 490.83892925644534 812.9090170704847 L 477.22625983977866 819.715351778818 L 490.83892925644534 826.5216864871513 Z"/></g></g><g><rect fill="white" stroke="none" x="92.83840542166668" y="844.2181567288179" width="365.0578180700781" height="21.23576429"/><text fill="black" stroke="none" font-family="sans-serif" font-size="11pt" font-style="normal" font-weight="normal" text-decoration="normal" x="95.28868591666668" y="858.9198396988179" text-anchor="start" dominant-baseline="alphabetic" xml:space="preserve">Prompt for additional details (screen name, avatar, etc.)</text></g><g><path fill="none" stroke="black" paint-order="fill stroke markers" d=" M 477.22625983977866 865.4539210188179 L 86.95773223366666 865.4539210188179" stroke-miterlimit="10" stroke-width="1.3612669416666667" stroke-dasharray=""/><g transform="translate(73.50841485,865.4539210188179) translate(-73.50841485,-865.4539210188179)"><path fill="black" stroke="none" paint-order="stroke fill markers" d=" M 87.12108426666666 858.6475863104846 L 73.50841485 865.4539210188179 L 87.12108426666666 872.2602557271513 Z"/></g></g><g><rect fill="white" stroke="none" x="188.5828130754753" y="889.9567259688179" width="173.56904853882813" height="21.23576429"/><text fill="black" stroke="none" font-family="sans-serif" font-size="11pt" font-style="normal" font-weight="normal" text-decoration="normal" x="191.03309357047527" y="904.6584089388178" text-anchor="start" dominant-baseline="alphabetic" xml:space="preserve">Submit registration details</text></g><g><path fill="none" stroke="black" paint-order="fill stroke markers" d=" M 73.50841485 911.1924902588179 L 463.776942456112 911.1924902588179" stroke-miterlimit="10" stroke-width="1.3612669416666667" stroke-dasharray=""/><g transform="translate(477.22625983977866,911.1924902588179) translate(-477.22625983977866,-911.1924902588179)"><path fill="black" stroke="none" paint-order="stroke fill markers" d=" M 463.613590423112 904.3861555504845 L 477.22625983977866 911.1924902588179 L 463.613590423112 917.9988249671512 Z"/></g></g><g><rect fill="white" stroke="none" x="707.8718825363476" y="935.6952952088178" width="169.4673792273047" height="21.23576429"/><text fill="black" stroke="none" font-family="sans-serif" font-size="11pt" font-style="normal" font-weight="normal" text-decoration="normal" x="710.3221630313476" y="950.3969781788178" text-anchor="start" dominant-baseline="alphabetic" xml:space="preserve">createProfile(UserProfile)</text></g><g><path fill="none" stroke="black" paint-order="fill stroke markers" d=" M 477.22625983977866 956.9310594988178 L 1094.5355670765546 956.9310594988178" stroke-miterlimit="10" stroke-width="1.3612669416666667" stroke-dasharray=""/><g transform="translate(1107.9848844602213,956.9310594988178) translate(-1107.9848844602213,-956.9310594988178)"><path fill="black" stroke="none" paint-order="stroke fill markers" d=" M 1094.3722150435547 950.1247247904845 L 1107.9848844602213 956.9310594988178 L 1094.3722150435547 963.7373942071512 Z"/></g></g><g><rect fill="white" stroke="none" x="1127.314875031888" y="981.4338644488178" width="148.3221155554297" height="21.23576429"/><text fill="black" stroke="none" font-family="sans-serif" font-size="11pt" font-style="normal" font-weight="normal" text-decoration="normal" x="1129.765155526888" y="996.1355474188177" text-anchor="start" dominant-baseline="alphabetic" xml:space="preserve">Save new user details</text></g><g><path fill="none" stroke="black" paint-order="fill stroke markers" d=" M 1107.9848844602213 1002.6696287388178 L 1281.5176637753175 1002.6696287388178" stroke-miterlimit="10" stroke-width="1.3612669416666667" stroke-dasharray=""/><g transform="translate(1294.9669811589843,1002.6696287388178) translate(-1294.9669811589843,-1002.6696287388178)"><path fill="black" stroke="none" paint-order="stroke fill markers" d=" M 1281.3543117423176 995.8632940304844 L 1294.9669811589843 1002.6696287388178 L 1281.3543117423176 1009.4759634471511 Z"/></g></g><g><rect fill="white" stroke="none" x="1135.063623811185" y="1027.1724336888178" width="132.82461799683594" height="21.23576429"/><text fill="black" stroke="none" font-family="sans-serif" font-size="11pt" font-style="normal" font-weight="normal" text-decoration="normal" x="1137.513904306185" y="1041.874116658818" text-anchor="start" dominant-baseline="alphabetic" xml:space="preserve">User profile created</text></g><g><path fill="none" stroke="black" paint-order="fill stroke markers" d=" M 1294.9669811589843 1048.4081979788177 L 1121.434201843888 1048.4081979788177" stroke-miterlimit="10" stroke-width="1.3612669416666667" stroke-dasharray="6.53408132"/><g transform="translate(1107.9848844602213,1048.4081979788177) translate(-1107.9848844602213,-1048.4081979788177)"><path fill="black" stroke="none" paint-order="stroke fill markers" d=" M 1121.597553876888 1041.6018632704845 L 1107.9848844602213 1048.4081979788177 L 1121.597553876888 1055.214532687151 Z"/></g></g><g><rect fill="white" stroke="none" x="919.1803430303906" y="1072.9110029288179" width="169.47455085816406" height="21.23576429"/><text fill="black" stroke="none" font-family="sans-serif" font-size="11pt" font-style="normal" font-weight="normal" text-decoration="normal" x="921.6306235253907" y="1087.612685898818" text-anchor="start" dominant-baseline="alphabetic" xml:space="preserve">User registration success</text></g><g><path fill="none" stroke="black" paint-order="fill stroke markers" d=" M 1107.9848844602213 1094.1467672188178 L 913.2996698423907 1094.1467672188178" stroke-miterlimit="10" stroke-width="1.3612669416666667" stroke-dasharray="6.53408132"/><g transform="translate(899.850352458724,1094.1467672188178) translate(-899.850352458724,-1094.1467672188178)"><path fill="black" stroke="none" paint-order="stroke fill markers" d=" M 913.4630218753907 1087.3404325104846 L 899.850352458724 1094.1467672188178 L 913.4630218753907 1100.953101927151 Z"/></g></g><g><rect fill="white" stroke="none" x="603.7938514599155" y="1118.649572168818" width="169.48890937867188" height="21.23576429"/><text fill="black" stroke="none" font-family="sans-serif" font-size="11pt" font-style="normal" font-weight="normal" text-decoration="normal" x="606.2441319549155" y="1133.351255138818" text-anchor="start" dominant-baseline="alphabetic" xml:space="preserve">Redirect to Home Screen</text></g><g><path fill="none" stroke="black" paint-order="fill stroke markers" d=" M 899.850352458724 1139.8853364588178 L 490.6755772234453 1139.8853364588178" stroke-miterlimit="10" stroke-width="1.3612669416666667" stroke-dasharray="6.53408132"/><g transform="translate(477.22625983977866,1139.8853364588178) translate(-477.22625983977866,-1139.8853364588178)"><path fill="black" stroke="none" paint-order="stroke fill markers" d=" M 490.83892925644534 1133.0790017504846 L 477.22625983977866 1139.8853364588178 L 490.83892925644534 1146.691671167151 Z"/></g></g><g><rect fill="white" stroke="none" x="190.6228826555534" y="1164.388141408818" width="169.48890937867188" height="21.23576429"/><text fill="black" stroke="none" font-family="sans-serif" font-size="11pt" font-style="normal" font-weight="normal" text-decoration="normal" x="193.0731631505534" y="1179.089824378818" text-anchor="start" dominant-baseline="alphabetic" xml:space="preserve">Redirect to Home Screen</text></g><g><path fill="none" stroke="black" paint-order="fill stroke markers" d=" M 477.22625983977866 1185.623905698818 L 86.95773223366666 1185.623905698818" stroke-miterlimit="10" stroke-width="1.3612669416666667" stroke-dasharray=""/><g transform="translate(73.50841485,1185.623905698818) translate(-73.50841485,-1185.623905698818)"><path fill="black" stroke="none" paint-order="stroke fill markers" d=" M 87.12108426666666 1178.8175709904847 L 73.50841485 1185.623905698818 L 87.12108426666666 1192.4302404071511 Z"/></g></g><g><g/><path fill="none" stroke="black" paint-order="fill stroke markers" d=" M 16.335203299999996 390.0995049888182 L 1352.1401927089842 390.0995049888182 L 1352.1401927089842 1210.1267106488178 L 16.335203299999996 1210.1267106488178 L 16.335203299999996 390.0995049888182 Z" stroke-miterlimit="10" stroke-width="2.3336004714285714" stroke-dasharray=""/><path fill="white" stroke="black" paint-order="fill stroke markers" d=" M 16.335203299999996 390.0995049888182 L 16.335203299999996 409.7017489488182 L 62.69440689707031 409.7017489488182 L 72.49552887707031 399.9006269688182 L 72.49552887707031 390.0995049888182 L 16.335203299999996 390.0995049888182" stroke-miterlimit="10" stroke-width="2.3336004714285714" stroke-dasharray=""/><text fill="black" stroke="none" font-family="sans-serif" font-size="8.8pt" font-style="normal" font-weight="bold" text-decoration="normal" x="32.67040659999999" y="403.1676676288182" text-anchor="start" dominant-baseline="alphabetic" xml:space="preserve">alt</text><g><rect fill="white" stroke="none" x="86.38045168207032" y="391.4063212528182" width="76.61499275269531" height="16.988611432000003"/></g><text fill="black" stroke="none" font-family="sans-serif" font-size="8.8pt" font-style="normal" font-weight="bold" text-decoration="normal" x="88.83073217707032" y="403.1676676288182" text-anchor="start" dominant-baseline="alphabetic" xml:space="preserve">[User Exists]</text><g><path fill="none" stroke="black" paint-order="fill stroke markers" d=" M 16.335203299999996 662.8974000988181 L 1352.1401927089842 662.8974000988181" stroke-miterlimit="10" stroke-width="2.3336004714285714" stroke-dasharray="4.083800825"/></g><g/><g><rect fill="white" stroke="none" x="86.38045168207032" y="664.2042163628181" width="124.83508552613281" height="16.988611432000003"/></g><text fill="black" stroke="none" font-family="sans-serif" font-size="8.8pt" font-style="normal" font-weight="bold" text-decoration="normal" x="88.83073217707032" y="675.9655627388181" text-anchor="start" dominant-baseline="alphabetic" xml:space="preserve">[User Does Not Exist]</text></g><g/></g><g/><g/><g/><g/><g/><g/></g></svg>