<svg xmlns="http://www.w3.org/2000/svg" xmlns:xlink="http://www.w3.org/1999/xlink" version="1.1" width="1587.0531758322916" height="1629.941435458818"><desc>title%20Sign%20In%20Sequence%20Diagram%0A%0Aactor%20User%0Aparticipant%20Frontend%0Aparticipant%20Authentication%0Aparticipant%20Sign%20In%0Aparticipant%20User%20Management%0Adatabase%20GameOnDB%0A%0AUser-%3EFrontend%3A%20Click%20%22Sign%20In%20with%20Discord%22%0AFrontend-%3E%3EAuthentication%3A%20discordAuthenticate(DiscordParams)%0A%0Aalt%20Authentication%20Successful%0A%20%20%20%20Authentication-%3ESign%20In%3A%20signIn(DiscordToken%2C%20SessionToken)%0A%20%20%20%20Sign%20In-%3EGameOnDB%3A%20Save%20session%20details%0A%20%20%20%20Sign%20In-%3EUser%20Management%3A%20getProfile(DiscordToken)%0A%0A%20%20%20%20alt%20User%20Exists%0A%20%20%20%20%20%20%20%20User%20Management-%3EGameOnDB%3A%20Retrieve%20user%20profile%0A%20%20%20%20%20%20%20%20GameOnDB--%3EUser%20Management%3A%20Return%20User%20profile%0A%20%20%20%20%20%20%20%20User%20Management--%3ESign%20In%3A%20User%20profile%20found%0A%20%20%20%20%20%20%20%20Sign%20In-%3EFrontend%3A%20Redirect%20to%20Home%20Screen%0A%20%20%20%20%20%20%20%20Frontend-%3EUser%3A%20Redirect%20to%20Home%20Screen%0A%0A%20%20%20%20else%20User%20Does%20Not%20Exist%0A%20%20%20%20%20%20%20%20GameOnDB--%3EUser%20Management%3A%20No%20user%20profile%20found%0A%20%20%20%20%20%20%20%20User%20Management--%3ESign%20In%3A%20No%20user%20profile%20found%0A%20%20%20%20%20%20%20%20Sign%20In-%3EFrontend%3A%20Redirect%20to%20Registration%20Page%0A%20%20%20%20%20%20%20%20Frontend-%3EUser%3A%20Prompt%20for%20additional%20details%20(screen%20name%2C%20avatar%2C%20etc.)%0A%0A%20%20%20%20%20%20%20%20alt%20User%20Completes%20Registration%0A%20%20%20%20%20%20%20%20%20%20%20%20User-%3EFrontend%3A%20Submit%20registration%20details%0A%20%20%20%20%20%20%20%20%20%20%20%20Frontend-%3EUser%20Management%3A%20createProfile(UserProfile)%0A%20%20%20%20%20%20%20%20%20%20%20%20User%20Management-%3EGameOnDB%3A%20Save%20new%20user%20details%0A%20%20%20%20%20%20%20%20%20%20%20%20GameOnDB--%3EUser%20Management%3A%20Return%20User%20profile%0A%20%20%20%20%20%20%20%20%20%20%20%20User%20Management-%3ESign%20In%3A%20User%20registration%20success%0A%20%20%20%20%20%20%20%20%20%20%20%20Sign%20In-%3EFrontend%3A%20Redirect%20to%20Home%20Screen%0A%20%20%20%20%20%20%20%20%20%20%20%20Frontend-%3EUser%3A%20Redirect%20to%20Home%20Screen%0A%0A%20%20%20%20%20%20%20%20else%20User%20Fails%20Registration%20(Missing%20Fields%2C%20Invalid%20Avatar)%0A%20%20%20%20%20%20%20%20%20%20%20%20Frontend-%3EUser%3A%20Show%20error%20message%20and%20prompt%20user%20to%20fix%20errors%0A%20%20%20%20%20%20%20%20end%0A%20%20%20%20end%0A%0Aelse%20Authentication%20Fails%0A%20%20%20%20Authentication-%3EFrontend%3A%20Show%20%22Authentication%20Failed%22%20message%0A%20%20%20%20Frontend-%3EUser%3A%20Display%20error%20and%20prompt%20retry%0Aend</desc><defs/><g><g/><g/><g/><g/><g/><g/><g/><g/><g/><g/><g/><g/><g/><g/><g/><g/><g/><g/><g/><g/><g/><g/><g/><g/><g/><g/><g/><g/><g/><g/><g/><g/><g/><g/><g/><g/><g/><g/><g/><g/><g/><g/><g/><g/><g/><g/><g/><g/><g/><g/><g/><g/><g/><g/><g/><g/><g/><g/><g/><g/><g/><g/><g/><g/><g/><g/><g/><g/><g/><g/><g/><g/><g/><g/><g/><g/><g/><g/><g/><g/><g/><g/><g/><g/><g/><g/><g/><g/><g/><g/><g/><g/><g/><g/><g/><g/><g/><g/><g/><g/><g/><g/><g/><g/><g/><g/><g/><g/><g/><g/><g/><g/><g/><g/><g/><g/><g/><g/><g/><g/><g/><g/><g/><g/><g/><g/><g/><g/><g/><g/><g/><g/><g/><g/><g/><g/><g/><g/><g/><g/><g/><g/><g/><g/><g/><g/><g/><g/><g/><g/><g/><g/><g/><g/><g/><g/><g/><g/><g/><g/><g/><g/><g/><g/><g/><g/><g/><g/><g/><g/><g/><g/><g/><g/><g/><g/><g/><g/><g/><g/><g/><g/><g/><g/><g/><g/><g><rect fill="white" stroke="none" x="0" y="0" width="1587" height="1629"/></g><g/><g><path fill="none" stroke="black" paint-order="fill stroke markers" d=" M 106.17882145 128.73625218881818 L 106.17882145 1629.941435458818" stroke-miterlimit="10" stroke-width="1.3612669416666667" stroke-dasharray="12.565541,5.445067766666667"/><path fill="none" stroke="black" paint-order="fill stroke markers" d=" M 509.89666643977864 128.73625218881818 L 509.89666643977864 1629.941435458818" stroke-miterlimit="10" stroke-width="1.3612669416666667" stroke-dasharray="12.565541,5.445067766666667"/><path fill="none" stroke="black" paint-order="fill stroke markers" d=" M 805.0820407264323 128.73625218881818 L 805.0820407264323 1629.941435458818" stroke-miterlimit="10" stroke-width="1.3612669416666667" stroke-dasharray="12.565541,5.445067766666667"/><path fill="none" stroke="black" paint-order="fill stroke markers" d=" M 1085.7577256820314 128.73625218881818 L 1085.7577256820314 1629.941435458818" stroke-miterlimit="10" stroke-width="1.3612669416666667" stroke-dasharray="12.565541,5.445067766666667"/><path fill="none" stroke="black" paint-order="fill stroke markers" d=" M 1293.8922576835287 128.73625218881818 L 1293.8922576835287 1629.941435458818" stroke-miterlimit="10" stroke-width="1.3612669416666667" stroke-dasharray="12.565541,5.445067766666667"/><path fill="none" stroke="black" paint-order="fill stroke markers" d=" M 1480.8743543822916 128.73625218881818 L 1480.8743543822916 1629.941435458818" stroke-miterlimit="10" stroke-width="1.3612669416666667" stroke-dasharray="12.565541,5.445067766666667"/></g><g><g><path fill="white" stroke="black" paint-order="fill stroke markers" d=" M 115.489887331 59.63834222981819 A 9.311065881 9.311065881 0 1 1 115.48988267546744 59.62903116548903 M 106.17882145 68.9494081108182 L 106.17882145 88.8783561368182 M 94.41747507400001 76.13689756281819 L 117.94016782599999 76.13689756281819 M 106.17882145 88.8783561368182 L 94.41747507400001 107.50048789881819 M 106.17882145 88.8783561368182 L 117.94016782599999 107.50048789881819" stroke-miterlimit="10" stroke-width="2.7769845610000004" stroke-dasharray=""/></g><g><g/><text fill="black" stroke="none" font-family="sans-serif" font-size="11pt" font-style="normal" font-weight="normal" text-decoration="normal" x="90.70280826640625" y="123.83569119881818" text-anchor="start" dominant-baseline="alphabetic" xml:space="preserve">User</text></g><path fill="none" stroke="none"/><g><path fill="white" stroke="black" paint-order="fill stroke markers" d=" M 462.83511075185675 84.63120327881819 L 556.9582221277005 84.63120327881819 L 556.9582221277005 128.73625218881818 L 462.83511075185675 128.73625218881818 L 462.83511075185675 84.63120327881819 Z" stroke-miterlimit="10" stroke-width="2.613632528" stroke-dasharray=""/></g><g><g/><text fill="black" stroke="none" font-family="sans-serif" font-size="11pt" font-style="normal" font-weight="normal" text-decoration="normal" x="480.55880633235677" y="112.40104888881817" text-anchor="start" dominant-baseline="alphabetic" xml:space="preserve">Frontend</text></g><path fill="none" stroke="none"/><g><path fill="white" stroke="black" paint-order="fill stroke markers" d=" M 740.9016724774752 84.63120327881819 L 869.2624089753893 84.63120327881819 L 869.2624089753893 128.73625218881818 L 740.9016724774752 128.73625218881818 L 740.9016724774752 84.63120327881819 Z" stroke-miterlimit="10" stroke-width="2.613632528" stroke-dasharray=""/></g><g><g/><text fill="black" stroke="none" font-family="sans-serif" font-size="11pt" font-style="normal" font-weight="normal" text-decoration="normal" x="758.6253680579753" y="112.40104888881817" text-anchor="start" dominant-baseline="alphabetic" xml:space="preserve">Authentication</text></g><path fill="none" stroke="none"/><g><path fill="white" stroke="black" paint-order="fill stroke markers" d=" M 1045.213709972137 84.63120327881819 L 1126.301741391926 84.63120327881819 L 1126.301741391926 128.73625218881818 L 1045.213709972137 128.73625218881818 L 1045.213709972137 84.63120327881819 Z" stroke-miterlimit="10" stroke-width="2.613632528" stroke-dasharray=""/></g><g><g/><text fill="black" stroke="none" font-family="sans-serif" font-size="11pt" font-style="normal" font-weight="normal" text-decoration="normal" x="1062.9374055526368" y="112.40104888881817" text-anchor="start" dominant-baseline="alphabetic" xml:space="preserve">Sign In</text></g><path fill="none" stroke="none"/><g><path fill="white" stroke="black" paint-order="fill stroke markers" d=" M 1215.8715116269545 84.63120327881819 L 1371.913003740103 84.63120327881819 L 1371.913003740103 128.73625218881818 L 1215.8715116269545 128.73625218881818 L 1215.8715116269545 84.63120327881819 Z" stroke-miterlimit="10" stroke-width="2.613632528" stroke-dasharray=""/></g><g><g/><text fill="black" stroke="none" font-family="sans-serif" font-size="11pt" font-style="normal" font-weight="normal" text-decoration="normal" x="1233.5952072074545" y="112.40104888881817" text-anchor="start" dominant-baseline="alphabetic" xml:space="preserve">User Management</text></g><g><path fill="white" stroke="black" paint-order="fill stroke markers" d=" M 1457.0249575642915 96.71925372081819 L 1457.0249575642915 62.41532679081819 L 1504.7237512002916 62.41532679081819 L 1504.7237512002916 96.71925372081819" stroke-miterlimit="10" stroke-width="2.7769845610000004" stroke-dasharray=""/><path fill="white" stroke="black" paint-order="fill stroke markers" d=" M 1504.7237512002916 61.22285694991819 L 1504.722558740388 61.33066749483481 L 1504.718981479922 61.43846725878678 L 1504.7130197766164 61.546245461887544 L 1504.7046742266373 61.65399132640659 L 1504.693945664532 61.761694077847274 L 1504.6808351631482 61.86934294602419 L 1504.665344033525 61.976927166140236 L 1504.6474738247623 62.084435979863045 L 1504.6272263238664 62.19185863640084 L 1504.60460355557 62.299184393577484 L 1504.5796077821317 62.4064025189067 L 1504.5522415031078 62.51350229066531 L 1504.522507455103 62.62047299896537 L 1504.490408611498 62.7273039468252 L 1504.4559481821498 62.83398445123905 L 1504.419129613073 62.94050384424536 L 1504.3799565860938 63.04685147399361 L 1504.338433018482 63.15301670580944 L 1504.29456306256 63.25898892325815 L 1504.2483511052867 63.364757529206294 L 1504.1998017678193 63.47031194688142 L 1504.1489199050513 63.575641620929716 L 1504.0957106051262 63.68073601847156 L 1504.04017918893 63.78558463015478 L 1503.9823312095582 63.89017697120557 L 1503.92217245176 63.994502582477 L 1503.8597089313612 64.09855103149486 L 1503.7949468946622 64.20231191350096 L 1503.727892817812 64.3057748524936 L 1503.658553406163 64.40892950226505 L 1503.5869355935986 64.51176554743633 L 1503.51304654184 64.61427270448858 L 1503.4368936397307 64.71644072279157 L 1503.358484502498 64.81825938562858 L 1503.27782697099 64.91971851121816 L 1503.1949291108924 65.02080795373233 L 1503.1097992119226 65.12151760431107 L 1503.0224457869992 65.22183739207324 L 1502.932877571392 65.32175728512367 L 1502.8411035218478 65.42126729155632 L 1502.7471328156955 65.52035746045347 L 1502.650974849927 65.6190178828808 L 1502.5526392402587 65.71723869287828 L 1502.45213582017 65.81501006844678 L 1502.3494746399188 65.91232223253022 L 1502.2446659655377 66.00916545399325 L 1502.137720277807 66.10553004859446 L 1502.028648271206 66.20140637995469 L 1501.9174608528447 66.29678486052069 L 1501.804169141372 66.39165595252388 L 1501.6887844658652 66.48601016893414 L 1501.5713183646951 66.57983807440844 L 1501.4517825843743 66.67313028623443 L 1501.330189078381 66.76587747526865 L 1501.2065500059646 66.85807036686953 L 1501.0808777309292 66.94969974182469 L 1500.9531848203976 67.04075643727302 L 1500.8234840435548 67.13123134762085 L 1500.6917883703697 67.22111542545254 L 1500.5581109703005 67.3103996824352 L 1500.4224652109756 67.39907519021754 L 1500.2848646568577 67.4871330813227 L 1500.1453230678878 67.57456455003492 L 1500.0038543981086 67.6613608532802 L 1499.8604727942688 67.74751331150055 L 1499.7151925944095 67.83301330952195 L 1499.5680283264298 67.91785229741582 L 1499.4189947066336 68.00202179135408 L 1499.2681066382588 68.08551337445749 L 1499.1153792099865 68.1683186976373 L 1498.960827694432 68.25042948043021 L 1498.8044675466185 68.33183751182635 L 1498.6463144024303 68.41253465109044 L 1498.4863840770502 68.4925128285758 L 1498.3246925633769 68.5717640465313 L 1498.1612560304275 68.65028037990122 L 1497.996090821719 68.72805397711764 L 1497.8292134536348 68.80507706088565 L 1497.6606406137723 68.88134192896105 L 1497.490389159275 68.95684095492061 L 1497.318476115147 69.03156658892462 L 1497.144918672549 69.10551135847197 L 1496.9697341870806 69.17866786914732 L 1496.7929401770446 69.25102880536058 L 1496.6145543216944 69.3225869310784 L 1496.4345944594672 69.39333509054786 L 1496.253078586199 69.46326620901198 L 1496.0700248533262 69.53237329341717 L 1495.8854515660692 69.60064943311258 L 1495.699377181603 69.66808780054113 L 1495.511820307211 69.7346816519223 L 1495.3227996984244 69.80042432792644 L 1495.1323342571466 69.86530925434072 L 1494.9404430297627 69.92932994272657 L 1494.747145205236 69.9924799910685 L 1494.5524601131874 70.05475308441433 L 1494.3564072219642 70.1161429955066 L 1494.1590061366921 70.17664358540536 L 1493.960276597315 70.23624880410202 L 1493.7602384766212 70.29495269112441 L 1493.5589117782563 70.35274937613272 L 1493.3563166347221 70.40963307950663 L 1493.1524733053645 70.46559811292322 L 1492.947402174346 70.52063887992576 L 1492.7411237486094 70.57474987648341 L 1492.533658655825 70.62792569154163 L 1492.3250276423294 70.68016100756323 L 1492.1152515710498 70.73145060106012 L 1491.9043514194188 70.78178934311569 L 1491.6923482772759 70.8311721998977 L 1491.4792633447582 70.8795942331616 L 1491.2651179301818 70.92705060074444 L 1491.0499334479096 70.973536557049 L 1490.8337314162104 71.01904745351838 L 1490.6165334551072 71.06357873910088 L 1490.398361284215 71.10712596070502 L 1490.1792367205696 71.14968476364494 L 1489.9591816764444 71.19125089207583 L 1489.7382181571602 71.23182018941947 L 1489.5163682588852 71.27138859877994 L 1489.2936541664242 71.30995216334925 L 1489.0700981510008 71.34750702680313 L 1488.8457225680302 71.38404943368649 L 1488.6205498548838 71.4195757297891 L 1488.3946025286455 71.45408236251096 L 1488.1679031838594 71.48756588121756 L 1487.9404744902708 71.52002293758491 L 1487.7123391905602 71.55145028593446 L 1487.4835200980667 71.58184478355753 L 1487.2540400945095 71.61120339102969 L 1487.0239221276975 71.63952317251467 L 1486.7931892092354 71.66680129605793 L 1486.561864412223 71.69303503386982 L 1486.3299708689472 71.71822176259843 L 1486.097531768569 71.7423589635919 L 1485.864570354805 71.7654442231502 L 1485.631109923602 71.78747523276665 L 1485.397173820809 71.80844978935863 L 1485.1627854398412 71.82836579548797 L 1484.9279682193412 71.84722125957065 L 1484.6927456408355 71.86501429607597 L 1484.4571412263858 71.8817431257151 L 1484.2211785362376 71.89740607561903 L 1483.9848811664629 71.91200157950583 L 1483.7482727466017 71.92552817783725 L 1483.5113769372992 71.93798451796474 L 1483.2742174279388 71.94936935426468 L 1483.0368179342736 71.95968154826289 L 1482.7992021960551 71.96892006874862 L 1482.5613939746595 71.97708399187748 L 1482.3234170507105 71.98417250126396 L 1482.0852952217022 71.99018488806304 L 1481.8470522996188 71.99512055104105 L 1481.6087121085545 71.99897899663581 L 1481.3702984823294 72.00175983900598 L 1481.1318352621079 72.00346280006961 L 1480.8933462940126 72.00408770953204 L 1480.6548554267422 72.00363450490285 L 1480.4163865091843 72.0021032315021 L 1480.1779633880321 71.99949404245586 L 1479.939609905399 71.9958071986809 L 1479.7013498964347 71.99104306885846 L 1479.4632071869414 71.98520212939759 L 1479.2252055909917 71.97828496438737 L 1478.9873689085468 71.97029226553852 L 1478.749720923077 71.96122483211428 L 1478.5122853991825 71.95108357085043 L 1478.2750860802178 71.93986949586466 L 1478.0381466859174 71.92758372855508 L 1477.801490910023 71.91422749748824 L 1477.5651424179152 71.89980213827607 L 1477.3291248442463 71.8843090934425 L 1477.0934617905766 71.86774991227908 L 1476.8581768230156 71.85012625069015 L 1476.6232934698635 71.83143987102717 L 1476.3888352192603 71.81169264191253 L 1476.1548255168352 71.79088653805269 L 1475.921287763364 71.7690236400407 L 1475.688245312427 71.74610613414815 L 1475.4557214680754 71.72213631210651 L 1475.2237394824995 71.69711657087802 L 1474.9923225537048 71.67104941241597 L 1474.7614938231914 71.64393744341446 L 1474.5312763736397 71.6157833750478 L 1474.3016932266032 71.58659002269937 L 1474.072767340205 71.55636030568009 L 1473.844521606843 71.52509724693644 L 1473.6169788509003 71.49280397274828 L 1473.390161826463 71.45948371241609 L 1473.1640932150444 71.42513979793813 L 1472.9387956233174 71.38977566367726 L 1472.7142915808536 71.35339484601741 L 1472.4906035378697 71.31600098301004 L 1472.2677538629837 71.27759781401028 L 1472.0457648409777 71.23818917930303 L 1471.8246586705684 71.19777901971894 L 1471.6044574621892 71.15637137624027 L 1471.3851832357768 71.11397038959687 L 1471.1668579185716 71.07058029985207 L 1470.9495033429234 71.02620544597868 L 1470.7331412441083 70.98085026542512 L 1470.517793258156 70.93451929367163 L 1470.3034809196856 70.8872171637768 L 1470.0902256597526 70.8389486059142 L 1469.878048803705 70.78971844689937 L 1469.6669715690518 70.7395316097072 L 1469.4570150633406 70.6883931129796 L 1469.2482002820466 70.6363080705236 L 1469.0405481064743 70.58328169080006 L 1468.834079301668 70.52931927640276 L 1468.6288145143365 70.47442622352818 L 1468.4247742707869 70.41860802143584 L 1468.221978974874 70.36187025189946 L 1468.0204489059583 70.3042185886487 L 1467.8202042168784 70.24565879680183 L 1467.621264931937 70.18619673228926 L 1467.4236509448963 70.12583834126788 L 1467.2273820169903 70.06458965952649 L 1467.0324777749486 70.00245681188221 L 1466.8389577090325 69.93944601156807 L 1466.6468411710878 69.87556355961155 L 1466.456147372608 69.81081584420461 L 1466.266895382814 69.74520934006487 L 1466.079104126747 69.67875060778805 L 1465.8927923833764 69.61144629319199 L 1465.707978783721 69.54330312665208 L 1465.524681808987 69.47432792242817 L 1465.3429197887187 69.40452757798322 L 1465.1627108989671 69.3339090732935 L 1464.9840731604709 69.26247947015062 L 1464.807024436855 69.19024591145539 L 1464.6315824328442 69.11721562050347 L 1464.4577646924927 69.0433959002631 L 1464.2855885974298 68.96879413264479 L 1464.1150713651216 68.89341777776313 L 1463.946230047149 68.81727437319081 L 1463.779081527503 68.74037153320482 L 1463.6136425208965 68.66271694802508 L 1463.4499295710925 68.58431838304537 L 1463.2879590492491 68.5051836780569 L 1463.1277471522837 68.4253207464642 L 1462.9693099012527 68.34473757449386 L 1462.812663139749 68.26344222039596 L 1462.657822532318 68.18144281363814 L 1462.5048035628918 68.09874755409275 L 1462.3536215332394 68.01536471121685 L 1462.2042915614381 67.9313026232252 L 1462.0568285803606 67.84656969625658 L 1461.9112473361822 67.76117440353308 L 1461.7675623869056 67.67512528451279 L 1461.6257881009064 67.5884309440359 L 1461.485938655495 67.50110005146425 L 1461.3480280354993 67.41314133981427 L 1461.2120700318662 67.32456360488388 L 1461.0780782402833 67.23537570437271 L 1460.9460660598174 67.14558655699653 L 1460.8160466915772 67.05520514159522 L 1460.6880331373907 66.96424049623502 L 1460.5620381985068 66.87270171730466 L 1460.4380744743144 66.78059795860575 L 1460.3161543610827 66.68793843043741 L 1460.1962900507212 66.59473239867523 L 1460.0784935295612 66.50098918384472 L 1459.9627765771568 66.40671816018926 L 1459.8491507651067 66.31192875473263 L 1459.7376274558972 66.2166304463364 L 1459.6282178017666 66.120832764752 L 1459.520932743589 66.02454528966774 L 1459.4157830097806 65.92777764975091 L 1459.3127791152276 65.83053952168484 L 1459.2119313602334 65.73284062920132 L 1459.1132498294892 65.63469074210818 L 1459.0167443910664 65.53609967531233 L 1458.9224246954277 65.4370772878383 L 1458.8303001744648 65.33763348184232 L 1458.7403800405527 65.23777820162212 L 1458.6526732856296 65.13752143262249 L 1458.5671886802984 65.03687320043682 L 1458.483934772948 64.93584356980442 L 1458.4029198889002 64.83444264360419 L 1458.3241521295754 64.73268056184422 L 1458.247639371684 64.63056750064791 L 1458.1733892664383 64.52811367123628 L 1458.1014092387866 64.42532931890689 L 1458.031706486672 64.32222472200931 L 1457.9642879803114 64.21881019091732 L 1457.8991604614994 64.11509606699785 L 1457.8363304429336 64.01109272157687 L 1457.7758042075634 63.90681055490224 L 1457.717587807962 63.80225999510374 L 1457.6616870657206 63.697451497150205 L 1457.608107570867 63.59239554180411 L 1457.5568546813065 63.48710263457343 L 1457.5079335222845 63.381583304661156 L 1457.4613489858768 63.27584810391234 L 1457.4171057304977 63.16990760575894 L 1457.3752081804364 63.06377240416249 L 1457.3356605254125 62.95745311255472 L 1457.298466720159 62.85096036277616 L 1457.263630484025 62.744304804013076 L 1457.2311553006055 62.63749710173245 L 1457.2010444173914 62.530547936615505 L 1457.1733008454462 62.423468003489624 L 1457.1479273591037 62.316268010258895 L 1457.1249264956919 62.208958676833305 L 1457.1043005552774 62.10155073405677 L 1457.0860516004373 61.99405492263407 L 1457.0701814560518 61.88648199205676 L 1457.0566917091223 61.77884269952825 L 1457.0455837086122 61.6711478088881 L 1457.036858565312 61.56340808953563 L 1457.030517151729 61.45563431535299 L 1457.0265601019994 61.34783726362778 L 1457.0249878118248 61.24002771397536 L 1457.0258004384327 61.13221644726084 L 1457.0289979005613 61.02441424452105 L 1457.034579878467 60.916631885886424 L 1457.0425458139566 60.808880149503025 L 1457.0528949104435 60.70116981045468 L 1457.0656261330262 60.59351163968555 L 1457.0807382085934 60.48591640292299 L 1457.09822962595 60.378394859601016 L 1457.1180986359686 60.27095776178435 L 1457.1403432517654 60.163615853093255 L 1457.1649612488968 60.05637986762915 L 1457.1919501655839 59.949260528901206 L 1457.2213073029573 59.84226854875404 L 1457.2530297253277 59.7354146262965 L 1457.2871142604795 59.62870944683179 L 1457.3235574999876 59.52216368078894 L 1457.3623557995584 59.41578798265577 L 1457.403505279394 59.30959298991343 L 1457.447001824581 59.203589321972714 L 1457.4928410855011 59.09778757911208 L 1457.5410184782663 58.992198341417634 L 1457.5915291851775 58.88683216772516 L 1457.6443681552062 58.78169959456423 L 1457.6995301044992 58.67681113510454 L 1457.7570095169078 58.57217727810464 L 1457.8168006445387 58.46780848686303 L 1457.8788975083287 58.36371519817185 L 1457.943293898643 58.25990782127324 L 1458.0099833758968 58.15639673681838 L 1458.0789592711976 58.053192295829454 L 1458.1502146870134 57.950304818664556 L 1458.223742497862 57.84774459398567 L 1458.2995353510237 57.745521877729786 L 1458.3775856672762 57.64364689208335 L 1458.4578856416529 57.54212982446004 L 1458.5404272442233 57.44098082648201 L 1458.6252022208962 57.340210012964775 L 1458.712202094244 57.2398274609057 L 1458.8014181643525 57.13984320847635 L 1458.8928415096884 57.040267254018644 L 1458.986462987994 56.94110955504505 L 1459.0822732371992 56.84238002724283 L 1459.1802626763588 56.74408854348249 L 1459.2804215066105 56.646244932830506 L 1459.382739712155 56.54885897956639 L 1459.4872070612569 56.45194042220433 L 1459.5938131072683 56.35549895251929 L 1459.7025471896736 56.25954421457787 L 1459.813398435155 56.16408580377391 L 1459.9263557586803 56.06913326586893 L 1460.0414078646113 55.974696096037604 L 1460.1585432478334 55.88078373791821 L 1460.277750194906 55.7874055826683 L 1460.3990167852335 55.694570968025594 L 1460.5223308922577 55.60228917737418 L 1460.6476801846713 55.51056943881623 L 1460.775052127649 55.41942092424918 L 1460.9044339841028 55.328852748448504 L 1461.0358128159548 55.23887396815633 L 1461.1691754854314 55.14949358117568 L 1461.3045086563768 55.0607205254708 L 1461.4417987955867 54.97256367827326 L 1461.5810321741615 54.88503185519433 L 1461.7221948688793 54.79813380934336 L 1461.8652727635886 54.71187823045254 L 1462.0102515506187 54.62627374400786 L 1462.157116732212 54.541328910386646 L 1462.3058536219726 54.45705222400146 L 1462.4564473463356 54.373452112450714 L 1462.6088828460538 54.290536935675895 L 1462.7631448777047 54.20831498512558 L 1462.9192180152133 54.12679448292632 L 1463.0770866513963 54.0459835810604 L 1463.236734999521 53.965890360550645 L 1463.3981470948863 53.88652283065238 L 1463.5613067964166 53.80788892805245 L 1463.7261977882783 53.72999651607559 L 1463.8928035815093 53.652853383898076 L 1464.061107515669 53.57646724576885 L 1464.2310927605042 53.50084574023808 L 1464.4027423176326 53.42599642939328 L 1464.5760390222408 53.35192679810317 L 1464.7509655448034 53.278644253269164 L 1464.9275043928135 53.20615612308466 L 1465.1056379125337 53.13446965630228 L 1465.28534829076 53.06359202150896 L 1465.4666175566051 52.99353030640911 L 1465.649427583293 52.924291517115876 L 1465.833760089973 52.85588257745046 L 1466.0195966435488 52.78831032824984 L 1466.2069186605192 52.72158152668263 L 1466.3957074088394 52.65570284557336 L 1466.585944009791 52.590680872735255 L 1466.7776094398732 52.52652211031142 L 1466.9706845327023 52.463232974124615 L 1467.16514998093 52.40081979303573 L 1467.3609863381735 52.33928880831086 L 1467.5581740209605 52.278646172997206 L 1467.7566933106866 52.21889795130775 L 1467.9565243555885 52.160050118014894 L 1468.1576471727285 52.1021085578529 L 1468.3600416499921 52.045079064929524 L 1468.5636875481002 51.98896734214652 L 1468.7685645026331 51.933779000629414 L 1468.9746520260658 51.87951955916637 L 1469.1819295098178 51.826194443656306 L 1469.3903762263133 51.77380898656634 L 1469.5999713310543 51.72236842639853 L 1469.8106938647054 51.67187790716602 L 1470.0225227551884 51.622342477878675 L 1470.235436819791 51.57376709203812 L 1470.449414767284 51.526156607142475 L 1470.6644352000512 51.47951578420055 L 1470.8804766162284 51.43384928725578 L 1471.0975174118541 51.38916168291979 L 1471.3155358830293 51.34545743991578 L 1471.534510228089 51.302740928631636 L 1471.7544185497807 51.261016420682886 L 1471.975238857456 51.220288088485546 L 1472.1969490692675 51.18056000483891 L 1472.4195270143794 51.14183614251822 L 1472.6429504351825 51.10412037387746 L 1472.8671969895206 51.06741647046204 L 1473.0922442529256 51.03172810263173 L 1473.3180697208584 50.99705883919358 L 1473.5446508109603 50.96341214704502 L 1473.7719648653115 50.930791390827245 L 1473.9999891526957 50.899199832588685 L 1474.228700870874 50.86864063145883 L 1474.4580771488656 50.83911684333235 L 1474.6880950492337 50.81063142056343 L 1474.9187315703798 50.78318721167063 L 1475.1499636488443 50.75678696105195 L 1475.3817681616117 50.731433308710464 L 1475.614121928424 50.70712878999027 L 1475.8470017140983 50.683875835323 L 1476.0803842308499 50.66167676998473 L 1476.3142461406214 50.6405338138635 L 1476.5485640574173 50.6204490812373 L 1476.7833145496409 50.60142458056266 L 1477.0184741424384 50.583462214273794 L 1477.2540193200468 50.566563778592354 L 1477.4899265281445 50.55073096334783 L 1477.7261721762072 50.53596535180856 L 1477.962732639867 50.52226842052339 L 1478.1995842632748 50.50964153917403 L 1478.4367033614653 50.49808597043808 L 1478.6740662227269 50.48760286986282 L 1478.9116491109705 50.47819328574954 L 1479.149428268106 50.46985815904882 L 1479.3873799164153 50.462598323266384 L 1479.6254802609321 50.456414504379765 L 1479.8637054918202 50.45130732076569 L 1480.102031786755 50.44727728313828 L 1480.3404353133062 50.444324794497916 L 1480.578892231319 50.44245015009101 L 1480.817378695301 50.44165353738045 L 1481.055870856804 50.44193503602685 L 1481.294344866811 50.443294617880554 L 1481.5327768781192 50.445732146984525 L 1481.7711430477266 50.44924737958788 L 1482.009419539215 50.45383996417029 L 1482.2475825251333 50.459509441477124 L 1482.485608189382 50.46625524456538 L 1482.7234727295925 50.474076698860365 L 1482.9611523595092 50.48297302222316 L 1483.198623311367 50.49294332502887 L 1483.4358618382691 50.50398661025549 L 1483.6728442165602 50.51610177358371 L 1483.9095467481998 50.52928760350731 L 1484.145945763132 50.54354278145426 L 1484.3820176216525 50.55886588191867 L 1484.6177387167722 50.575255372603245 L 1484.853085476578 50.592709614572584 L 1485.0880343665897 50.61122686241703 L 1485.3225618921147 50.630805264427224 L 1485.5566446005953 50.651442862779284 L 1485.790259083956 50.67313759373059 L 1486.0233819809432 50.695887287826096 L 1486.2559899794612 50.71968967011537 L 1486.4880598189043 50.74454236038002 L 1486.7195682924819 50.77044287337172 L 1486.9504922495391 50.797388619060754 L 1487.1808085978735 50.825376902895016 L 1487.4104943060413 50.85440492606945 L 1487.6395264056637 50.88446978580591 L 1487.8678819937213 50.9155684756435 L 1488.095538234846 50.947697885739125 L 1488.3224723636026 50.980854803178566 L 1488.5486616867681 51.01503591229771 L 1488.7740835855982 51.05023779501413 L 1488.9987155180913 51.08645693116888 L 1489.222535021241 51.12368969887854 L 1489.4455197132834 51.16193237489736 L 1489.6676472959355 51.201181134989596 L 1489.888895556624 51.241432054311964 L 1490.109242370707 51.28268110780607 L 1490.328665703687 51.32492417060092 L 1490.5471436134135 51.368157018425464 L 1490.7646542522773 51.41237532803093 L 1490.981175869396 51.45757467762322 L 1491.1966868127886 51.503750547305025 L 1491.4111655315398 51.55089831952786 L 1491.6245905779567 51.5990132795538 L 1491.8369406097127 51.64809061592693 L 1492.0481943919813 51.69812542095451 L 1492.2583307995606 51.749112691197745 L 1492.4673288189847 51.801047327972086 L 1492.6751675506257 51.85392413785714 L 1492.881826210784 51.90773783321599 L 1493.0872841337657 51.962483032723924 L 1493.2915207739497 52.01815426190663 L 1493.494515707842 52.07474595368758 L 1493.6962486361188 52.132252448944755 L 1493.8966993856548 52.190667997076545 L 1494.0958479115425 52.24998675657682 L 1494.293674299095 52.310202795619055 L 1494.4901587658387 52.371310092649544 L 1494.6852816634903 52.43330253698949 L 1494.879023479923 52.49617392944612 L 1495.0713648411165 52.559917982932596 L 1495.262286513095 52.62452832309667 L 1495.4517694038502 52.68999848895818 L 1495.6397945652511 52.7563219335551 L 1495.826343194938 52.823492024598224 L 1496.011396638204 52.89150204513444 L 1496.1949363898582 52.960345194218355 L 1496.376944096079 53.03001458759244 L 1496.5574015562468 53.10050325837541 L 1496.7362907247666 53.171804157758935 L 1496.9135937128706 53.243910155712484 L 1497.0892927904072 53.31681404169635 L 1497.2633703876156 53.39050852538269 L 1497.4358090968808 53.46498623738456 L 1497.6065916744758 53.5402397299928 L 1497.7757010422852 53.61626147792087 L 1497.9431202895128 53.69304387905734 L 1498.1088326743736 53.770579255226075 L 1498.2728216257674 53.848859852954064 L 1498.4350707449353 53.92787784424677 L 1498.595563807101 54.00762532737092 L 1498.7542847630916 54.08809432764465 L 1498.9112177409443 54.16927679823499 L 1499.0663470474917 54.251164620962534 L 1499.2196571699324 54.33374960711325 L 1499.3711327773822 54.41702349825734 L 1499.5207587224063 54.500977967075094 L 1499.6685200425352 54.58560461818958 L 1499.8144019617596 54.670894989006214 L 1499.9583898920096 54.75684055055899 L 1500.1004694346116 54.84343270836337 L 1500.2406263817304 54.93066280327574 L 1500.3788467177876 55.0185221123593 L 1500.515116620865 55.107001849756344 L 1500.6494224640858 55.196093167566886 L 1500.7817508169776 55.28578715673337 L 1500.9120884468152 55.37607484793163 L 1501.0404223199446 55.46694721246779 L 1501.1667396030853 55.55839516318112 L 1501.291027664614 55.65040955535275 L 1501.4132740758284 55.742981187620146 L 1501.5334666121892 55.83610080289723 L 1501.6515932545426 55.92975908930006 L 1501.7676421903234 56.02394668107806 L 1501.8816018147343 56.11865415955053 L 1501.9934607319078 56.213872054048544 L 1502.1032077560458 56.30959084286201 L 1502.2108319125368 56.405800954191804 L 1502.3163224390553 56.50249276710697 L 1502.4196687866365 56.5996566125068 L 1502.5208606207314 56.69728277408771 L 1502.6198878222413 56.79536148931491 L 1502.7167404885283 56.89388295039859 L 1502.8114089344067 56.99283730527477 L 1502.9038836931106 57.09221465859041 L 1502.9941555172413 57.19200507269298 L 1503.0822153796917 57.29219856862425 L 1503.1680544745489 57.39278512711811 L 1503.2516642179746 57.49375468960253 L 1503.3330362490647 57.59509715920541 L 1503.4121624306836 57.69680240176424 L 1503.489034850279 57.79886024683951 L 1503.5636458206732 57.90126048873177 L 1503.6359878808312 58.003992887502164 L 1503.7060537966074 58.10704716999642 L 1503.7738365614684 58.21041303087217 L 1503.8393293971944 58.31408013362946 L 1503.9025257545563 58.41803811164441 L 1503.963419313971 58.52227656920584 L 1504.0220039861333 58.62678508255487 L 1504.078273912625 58.731553200927245 L 1504.1322234665004 58.83657044759845 L 1504.1838472528484 58.94182632093131 L 1504.2331401093343 59.04731029542622 L 1504.2800971067127 59.153011822773635 L 1504.3247135493236 59.25892033290889 L 1504.3669849755597 59.36502523506925 L 1504.4069071583135 59.471315918852895 L 1504.4444761054 59.57778175528004 L 1504.4796880599563 59.684412097855756 L 1504.5125395008156 59.79119628363465 L 1504.5430271428613 59.89812363428712 L 1504.5711479373551 60.005183457167206 L 1504.5968990722406 60.11236504638185 L 1504.6202779724256 60.21965768386144 L 1504.64128230004 60.327050640431644 L 1504.6599099546681 60.43453317688629 L 1504.6761590735605 60.5420945450613 L 1504.6900280318184 60.6497239889095 L 1504.7015154425576 60.757410745576195 L 1504.7106201570468 60.86514404647545 L 1504.717341264822 60.972913118366954 L 1504.721678093778 61.08070718443333 L 1504.7236302102356 61.188515465357796 M 1504.7237512002916 95.52678387991818 L 1504.722558740388 95.6345944248348 L 1504.718981479922 95.74239418878678 L 1504.7130197766164 95.85017239188754 L 1504.7046742266373 95.95791825640659 L 1504.693945664532 96.06562100784727 L 1504.6808351631482 96.1732698760242 L 1504.665344033525 96.28085409614023 L 1504.6474738247623 96.38836290986303 L 1504.6272263238664 96.49578556640084 L 1504.60460355557 96.60311132357748 L 1504.5796077821317 96.7103294489067 L 1504.5522415031078 96.8174292206653 L 1504.522507455103 96.92439992896537 L 1504.490408611498 97.0312308768252 L 1504.4559481821498 97.13791138123905 L 1504.419129613073 97.24443077424536 L 1504.3799565860938 97.35077840399362 L 1504.338433018482 97.45694363580944 L 1504.29456306256 97.56291585325815 L 1504.2483511052867 97.66868445920629 L 1504.1998017678193 97.77423887688141 L 1504.1489199050513 97.8795685509297 L 1504.0957106051262 97.98466294847155 L 1504.04017918893 98.08951156015478 L 1503.9823312095582 98.19410390120557 L 1503.92217245176 98.29842951247699 L 1503.8597089313612 98.40247796149485 L 1503.7949468946622 98.50623884350097 L 1503.727892817812 98.60970178249359 L 1503.658553406163 98.71285643226504 L 1503.5869355935986 98.81569247743631 L 1503.51304654184 98.91819963448859 L 1503.4368936397307 99.02036765279156 L 1503.358484502498 99.12218631562857 L 1503.27782697099 99.22364544121817 L 1503.1949291108924 99.32473488373233 L 1503.1097992119226 99.42544453431107 L 1503.0224457869992 99.52576432207324 L 1502.932877571392 99.62568421512367 L 1502.8411035218478 99.72519422155631 L 1502.7471328156955 99.82428439045346 L 1502.650974849927 99.92294481288079 L 1502.5526392402587 100.02116562287829 L 1502.45213582017 100.11893699844678 L 1502.3494746399188 100.2162491625302 L 1502.2446659655377 100.31309238399325 L 1502.137720277807 100.40945697859446 L 1502.028648271206 100.50533330995468 L 1501.9174608528447 100.60071179052068 L 1501.804169141372 100.69558288252388 L 1501.6887844658652 100.78993709893413 L 1501.5713183646951 100.88376500440843 L 1501.4517825843743 100.97705721623441 L 1501.330189078381 101.06980440526866 L 1501.2065500059646 101.16199729686952 L 1501.0808777309292 101.25362667182469 L 1500.9531848203976 101.34468336727302 L 1500.8234840435548 101.43515827762084 L 1500.6917883703697 101.52504235545253 L 1500.5581109703005 101.61432661243519 L 1500.4224652109756 101.70300212021755 L 1500.2848646568577 101.7910600113227 L 1500.1453230678878 101.87849148003492 L 1500.0038543981086 101.9652877832802 L 1499.8604727942688 102.05144024150056 L 1499.7151925944095 102.13694023952193 L 1499.5680283264298 102.22177922741581 L 1499.4189947066336 102.30594872135407 L 1499.2681066382588 102.38944030445748 L 1499.1153792099865 102.47224562763729 L 1498.960827694432 102.5543564104302 L 1498.8044675466185 102.63576444182635 L 1498.6463144024303 102.71646158109044 L 1498.4863840770502 102.79643975857579 L 1498.3246925633769 102.8756909765313 L 1498.1612560304275 102.95420730990122 L 1497.996090821719 103.03198090711763 L 1497.8292134536348 103.10900399088564 L 1497.6606406137723 103.18526885896105 L 1497.490389159275 103.2607678849206 L 1497.318476115147 103.33549351892461 L 1497.144918672549 103.40943828847196 L 1496.9697341870806 103.48259479914732 L 1496.7929401770446 103.55495573536056 L 1496.6145543216944 103.6265138610784 L 1496.4345944594672 103.69726202054787 L 1496.253078586199 103.76719313901197 L 1496.0700248533262 103.83630022341715 L 1495.8854515660692 103.90457636311257 L 1495.699377181603 103.97201473054113 L 1495.511820307211 104.03860858192229 L 1495.3227996984244 104.10435125792642 L 1495.1323342571466 104.1692361843407 L 1494.9404430297627 104.23325687272656 L 1494.747145205236 104.29640692106851 L 1494.5524601131874 104.35868001441433 L 1494.3564072219642 104.4200699255066 L 1494.1590061366921 104.48057051540535 L 1493.960276597315 104.54017573410202 L 1493.7602384766212 104.5988796211244 L 1493.5589117782563 104.65667630613272 L 1493.3563166347221 104.71356000950664 L 1493.1524733053645 104.7695250429232 L 1492.947402174346 104.82456580992574 L 1492.7411237486094 104.87867680648341 L 1492.533658655825 104.93185262154162 L 1492.3250276423294 104.98408793756322 L 1492.1152515710498 105.0353775310601 L 1491.9043514194188 105.08571627311568 L 1491.6923482772759 105.13509912989768 L 1491.4792633447582 105.1835211631616 L 1491.2651179301818 105.23097753074444 L 1491.0499334479096 105.27746348704899 L 1490.8337314162104 105.32297438351839 L 1490.6165334551072 105.36750566910086 L 1490.398361284215 105.41105289070501 L 1490.1792367205696 105.45361169364494 L 1489.9591816764444 105.49517782207583 L 1489.7382181571602 105.53574711941947 L 1489.5163682588852 105.57531552877992 L 1489.2936541664242 105.61387909334925 L 1489.0700981510008 105.65143395680312 L 1488.8457225680302 105.68797636368647 L 1488.6205498548838 105.72350265978909 L 1488.3946025286455 105.75800929251095 L 1488.1679031838594 105.79149281121755 L 1487.9404744902708 105.82394986758491 L 1487.7123391905602 105.85537721593445 L 1487.4835200980667 105.88577171355752 L 1487.2540400945095 105.9151303210297 L 1487.0239221276975 105.94345010251467 L 1486.7931892092354 105.97072822605791 L 1486.561864412223 105.99696196386981 L 1486.3299708689472 106.02214869259844 L 1486.097531768569 106.04628589359189 L 1485.864570354805 106.0693711531502 L 1485.631109923602 106.09140216276666 L 1485.397173820809 106.11237671935864 L 1485.1627854398412 106.13229272548797 L 1484.9279682193412 106.15114818957065 L 1484.6927456408355 106.16894122607596 L 1484.4571412263858 106.1856700557151 L 1484.2211785362376 106.20133300561903 L 1483.9848811664629 106.21592850950582 L 1483.7482727466017 106.22945510783724 L 1483.5113769372992 106.24191144796474 L 1483.2742174279388 106.25329628426466 L 1483.0368179342736 106.2636084782629 L 1482.7992021960551 106.2728469987486 L 1482.5613939746595 106.28101092187747 L 1482.3234170507105 106.28809943126396 L 1482.0852952217022 106.29411181806304 L 1481.8470522996188 106.29904748104106 L 1481.6087121085545 106.30290592663582 L 1481.3702984823294 106.30568676900597 L 1481.1318352621079 106.30738973006962 L 1480.8933462940126 106.30801463953205 L 1480.6548554267422 106.30756143490284 L 1480.4163865091843 106.3060301615021 L 1480.1779633880321 106.30342097245587 L 1479.939609905399 106.29973412868088 L 1479.7013498964347 106.29496999885845 L 1479.4632071869414 106.28912905939758 L 1479.2252055909917 106.28221189438736 L 1478.9873689085468 106.27421919553852 L 1478.749720923077 106.26515176211427 L 1478.5122853991825 106.25501050085043 L 1478.2750860802178 106.24379642586464 L 1478.0381466859174 106.23151065855508 L 1477.801490910023 106.21815442748823 L 1477.5651424179152 106.20372906827606 L 1477.3291248442463 106.1882360234425 L 1477.0934617905766 106.17167684227908 L 1476.8581768230156 106.15405318069014 L 1476.6232934698635 106.13536680102716 L 1476.3888352192603 106.11561957191253 L 1476.1548255168352 106.09481346805269 L 1475.921287763364 106.0729505700407 L 1475.688245312427 106.05003306414814 L 1475.4557214680754 106.0260632421065 L 1475.2237394824995 106.00104350087803 L 1474.9923225537048 105.97497634241597 L 1474.7614938231914 105.94786437341445 L 1474.5312763736397 105.9197103050478 L 1474.3016932266032 105.89051695269937 L 1474.072767340205 105.86028723568009 L 1473.844521606843 105.82902417693644 L 1473.6169788509003 105.79673090274827 L 1473.390161826463 105.76341064241608 L 1473.1640932150444 105.72906672793813 L 1472.9387956233174 105.69370259367726 L 1472.7142915808536 105.6573217760174 L 1472.4906035378697 105.61992791301003 L 1472.2677538629837 105.58152474401028 L 1472.0457648409777 105.54211610930304 L 1471.8246586705684 105.50170594971894 L 1471.6044574621892 105.46029830624026 L 1471.3851832357768 105.41789731959686 L 1471.1668579185716 105.37450722985206 L 1470.9495033429234 105.33013237597868 L 1470.7331412441083 105.28477719542511 L 1470.517793258156 105.23844622367163 L 1470.3034809196856 105.1911440937768 L 1470.0902256597526 105.14287553591419 L 1469.878048803705 105.09364537689936 L 1469.6669715690518 105.0434585397072 L 1469.4570150633406 104.99232004297959 L 1469.2482002820466 104.9402350005236 L 1469.0405481064743 104.88720862080007 L 1468.834079301668 104.83324620640276 L 1468.6288145143365 104.77835315352817 L 1468.4247742707869 104.72253495143585 L 1468.221978974874 104.66579718189945 L 1468.0204489059583 104.60814551864868 L 1467.8202042168784 104.54958572680184 L 1467.621264931937 104.49012366228926 L 1467.4236509448963 104.42976527126788 L 1467.2273820169903 104.36851658952648 L 1467.0324777749486 104.30638374188221 L 1466.8389577090325 104.24337294156805 L 1466.6468411710878 104.17949048961154 L 1466.456147372608 104.11474277420461 L 1466.266895382814 104.04913627006486 L 1466.079104126747 103.98267753778805 L 1465.8927923833764 103.91537322319199 L 1465.707978783721 103.84723005665208 L 1465.524681808987 103.77825485242818 L 1465.3429197887187 103.70845450798322 L 1465.1627108989671 103.63783600329349 L 1464.9840731604709 103.56640640015061 L 1464.807024436855 103.49417284145538 L 1464.6315824328442 103.42114255050346 L 1464.4577646924927 103.3473228302631 L 1464.2855885974298 103.27272106264479 L 1464.1150713651216 103.19734470776314 L 1463.946230047149 103.1212013031908 L 1463.779081527503 103.04429846320481 L 1463.6136425208965 102.96664387802507 L 1463.4499295710925 102.88824531304537 L 1463.2879590492491 102.8091106080569 L 1463.1277471522837 102.72924767646418 L 1462.9693099012527 102.64866450449387 L 1462.812663139749 102.56736915039596 L 1462.657822532318 102.48536974363815 L 1462.5048035628918 102.40267448409276 L 1462.3536215332394 102.31929164121684 L 1462.2042915614381 102.2352295532252 L 1462.0568285803606 102.15049662625658 L 1461.9112473361822 102.06510133353308 L 1461.7675623869056 101.97905221451278 L 1461.6257881009064 101.89235787403591 L 1461.485938655495 101.80502698146424 L 1461.3480280354993 101.71706826981428 L 1461.2120700318662 101.62849053488388 L 1461.0780782402833 101.53930263437272 L 1460.9460660598174 101.44951348699652 L 1460.8160466915772 101.35913207159521 L 1460.6880331373907 101.26816742623502 L 1460.5620381985068 101.17662864730465 L 1460.4380744743144 101.08452488860574 L 1460.3161543610827 100.9918653604374 L 1460.1962900507212 100.89865932867522 L 1460.0784935295612 100.80491611384473 L 1459.9627765771568 100.71064509018925 L 1459.8491507651067 100.61585568473262 L 1459.7376274558972 100.5205573763364 L 1459.6282178017666 100.424759694752 L 1459.520932743589 100.32847221966773 L 1459.4157830097806 100.2317045797509 L 1459.3127791152276 100.13446645168483 L 1459.2119313602334 100.03676755920131 L 1459.1132498294892 99.93861767210817 L 1459.0167443910664 99.84002660531232 L 1458.9224246954277 99.7410042178383 L 1458.8303001744648 99.64156041184232 L 1458.7403800405527 99.54170513162211 L 1458.6526732856296 99.4414483626225 L 1458.5671886802984 99.34080013043682 L 1458.483934772948 99.23977049980442 L 1458.4029198889002 99.13836957360418 L 1458.3241521295754 99.03660749184422 L 1458.247639371684 98.9344944306479 L 1458.1733892664383 98.83204060123627 L 1458.1014092387866 98.72925624890688 L 1458.031706486672 98.6261516520093 L 1457.9642879803114 98.52273712091731 L 1457.8991604614994 98.41902299699785 L 1457.8363304429336 98.31501965157686 L 1457.7758042075634 98.21073748490224 L 1457.717587807962 98.10618692510373 L 1457.6616870657206 98.0013784271502 L 1457.608107570867 97.89632247180411 L 1457.5568546813065 97.79102956457344 L 1457.5079335222845 97.68551023466115 L 1457.4613489858768 97.57977503391233 L 1457.4171057304977 97.47383453575894 L 1457.3752081804364 97.3676993341625 L 1457.3356605254125 97.2613800425547 L 1457.298466720159 97.15488729277617 L 1457.263630484025 97.04823173401307 L 1457.2311553006055 96.94142403173245 L 1457.2010444173914 96.8344748666155 L 1457.1733008454462 96.72739493348962 L 1457.1479273591037 96.6201949402589 L 1457.1249264956919 96.51288560683331 L 1457.1043005552774 96.40547766405678 L 1457.0860516004373 96.29798185263407 L 1457.0701814560518 96.19040892205675 L 1457.0566917091223 96.08276962952824 L 1457.0455837086122 95.9750747388881 L 1457.036858565312 95.86733501953563 L 1457.030517151729 95.75956124535298 L 1457.0265601019994 95.65176419362778 L 1457.0249878118248 95.54395464397535" stroke-miterlimit="10" stroke-width="2.7769845610000004" stroke-dasharray=""/></g><g><g/><text fill="black" stroke="none" font-family="sans-serif" font-size="11pt" font-style="normal" font-weight="normal" text-decoration="normal" x="1440.953089733854" y="123.83569119881818" text-anchor="start" dominant-baseline="alphabetic" xml:space="preserve">GameOnDB</text></g></g><g><g><text fill="black" stroke="none" font-family="sans-serif" font-size="16pt" font-style="normal" font-weight="normal" text-decoration="normal" x="666.0356826782227" y="24.651306798181814" text-anchor="start" dominant-baseline="alphabetic" xml:space="preserve">Sign In Sequence Diagram</text></g><g><rect fill="white" stroke="none" x="217.69200904315105" y="161.4066587888182" width="180.69146980347656" height="21.23576429"/><text fill="black" stroke="none" font-family="sans-serif" font-size="11pt" font-style="normal" font-weight="normal" text-decoration="normal" x="220.14228953815103" y="176.10834175881817" text-anchor="start" dominant-baseline="alphabetic" xml:space="preserve">Click "Sign In with Discord"</text></g><g><path fill="none" stroke="black" paint-order="fill stroke markers" d=" M 106.17882145 182.64242307881818 L 496.447349056112 182.64242307881818" stroke-miterlimit="10" stroke-width="1.3612669416666667" stroke-dasharray=""/><g transform="translate(509.89666643977864,182.64242307881818) translate(-509.89666643977864,-182.64242307881818)"><path fill="black" stroke="none" paint-order="stroke fill markers" d=" M 496.28399702311197 175.83608837048484 L 509.89666643977864 182.64242307881818 L 496.28399702311197 189.44875778715152 Z"/></g></g><g><rect fill="white" stroke="none" x="535.6762190841991" y="207.1452280288182" width="243.6262689978125" height="21.23576429"/><text fill="black" stroke="none" font-family="sans-serif" font-size="11pt" font-style="normal" font-weight="normal" text-decoration="normal" x="538.1264995791992" y="221.84691099881817" text-anchor="start" dominant-baseline="alphabetic" xml:space="preserve">discordAuthenticate(DiscordParams)</text></g><g><path fill="none" stroke="black" paint-order="fill stroke markers" d=" M 509.89666643977864 228.3809923188182 L 803.0401403139323 228.3809923188182" stroke-miterlimit="10" stroke-width="1.3612669416666667" stroke-dasharray=""/><g transform="translate(805.0820407264323,228.3809923188182) translate(-805.0820407264323,-228.3809923188182)"><path fill="none" stroke="black" paint-order="fill stroke markers" d=" M 791.0867963433783 222.13759483319475 L 803.5517408608828 228.3809923188182 L 791.0867963433783 234.62438980444162" stroke-miterlimit="10" stroke-width="1.3612669416666667"/></g></g><g><rect fill="white" stroke="none" x="824.412031298099" y="296.98884617881816" width="242.01570381226563" height="21.23576429"/><text fill="black" stroke="none" font-family="sans-serif" font-size="11pt" font-style="normal" font-weight="normal" text-decoration="normal" x="826.862311793099" y="311.69052914881814" text-anchor="start" dominant-baseline="alphabetic" xml:space="preserve">signIn(DiscordToken, SessionToken)</text></g><g><path fill="none" stroke="black" paint-order="fill stroke markers" d=" M 805.0820407264323 318.2246104688182 L 1072.3084082983646 318.2246104688182" stroke-miterlimit="10" stroke-width="1.3612669416666667" stroke-dasharray=""/><g transform="translate(1085.7577256820314,318.2246104688182) translate(-1085.7577256820314,-318.2246104688182)"><path fill="black" stroke="none" paint-order="stroke fill markers" d=" M 1072.1450562653647 311.41827576048485 L 1085.7577256820314 318.2246104688182 L 1072.1450562653647 325.0309451771515 Z"/></g></g><g><rect fill="white" stroke="none" x="1214.0440355991732" y="342.72741541881817" width="138.54400886597656" height="21.23576429"/><text fill="black" stroke="none" font-family="sans-serif" font-size="11pt" font-style="normal" font-weight="normal" text-decoration="normal" x="1216.4943160941732" y="357.42909838881815" text-anchor="start" dominant-baseline="alphabetic" xml:space="preserve">Save session details</text></g><g><path fill="none" stroke="black" paint-order="fill stroke markers" d=" M 1085.7577256820314 363.9631797088182 L 1467.4250369986248 363.9631797088182" stroke-miterlimit="10" stroke-width="1.3612669416666667" stroke-dasharray=""/><g transform="translate(1480.8743543822916,363.9631797088182) translate(-1480.8743543822916,-363.9631797088182)"><path fill="black" stroke="none" paint-order="stroke fill markers" d=" M 1467.261684965625 357.15684500048485 L 1480.8743543822916 363.9631797088182 L 1467.261684965625 370.7695144171515 Z"/></g></g><g><rect fill="white" stroke="none" x="1107.1206370911002" y="388.4659846588182" width="165.40870918335938" height="21.23576429"/><text fill="black" stroke="none" font-family="sans-serif" font-size="11pt" font-style="normal" font-weight="normal" text-decoration="normal" x="1109.5709175861002" y="403.16766762881815" text-anchor="start" dominant-baseline="alphabetic" xml:space="preserve">getProfile(DiscordToken)</text></g><g><path fill="none" stroke="black" paint-order="fill stroke markers" d=" M 1085.7577256820314 409.7017489488182 L 1280.442940299862 409.7017489488182" stroke-miterlimit="10" stroke-width="1.3612669416666667" stroke-dasharray=""/><g transform="translate(1293.8922576835287,409.7017489488182) translate(-1293.8922576835287,-409.7017489488182)"><path fill="black" stroke="none" paint-order="stroke fill markers" d=" M 1280.279588266862 402.89541424048485 L 1293.8922576835287 409.7017489488182 L 1280.279588266862 416.50808365715153 Z"/></g></g><g><rect fill="white" stroke="none" x="1319.3425104011915" y="478.30960280881817" width="136.0815912634375" height="21.23576429"/><text fill="black" stroke="none" font-family="sans-serif" font-size="11pt" font-style="normal" font-weight="normal" text-decoration="normal" x="1321.7927908961915" y="493.01128577881815" text-anchor="start" dominant-baseline="alphabetic" xml:space="preserve">Retrieve user profile</text></g><g><path fill="none" stroke="black" paint-order="fill stroke markers" d=" M 1293.8922576835287 499.5453670988182 L 1467.4250369986248 499.5453670988182" stroke-miterlimit="10" stroke-width="1.3612669416666667" stroke-dasharray=""/><g transform="translate(1480.8743543822916,499.5453670988182) translate(-1480.8743543822916,-499.5453670988182)"><path fill="black" stroke="none" paint-order="stroke fill markers" d=" M 1467.261684965625 492.73903239048485 L 1480.8743543822916 499.5453670988182 L 1467.261684965625 506.3517018071515 Z"/></g></g><g><rect fill="white" stroke="none" x="1323.4190942634962" y="524.0481720488182" width="127.92842353882813" height="21.23576429"/><text fill="black" stroke="none" font-family="sans-serif" font-size="11pt" font-style="normal" font-weight="normal" text-decoration="normal" x="1325.8693747584962" y="538.7498550188182" text-anchor="start" dominant-baseline="alphabetic" xml:space="preserve">Return User profile</text></g><g><path fill="none" stroke="black" paint-order="fill stroke markers" d=" M 1480.8743543822916 545.2839363388182 L 1307.3415750671954 545.2839363388182" stroke-miterlimit="10" stroke-width="1.3612669416666667" stroke-dasharray="6.53408132"/><g transform="translate(1293.8922576835287,545.2839363388182) translate(-1293.8922576835287,-545.2839363388182)"><path fill="black" stroke="none" paint-order="stroke fill markers" d=" M 1307.5049271001953 538.4776016304849 L 1293.8922576835287 545.2839363388182 L 1307.5049271001953 552.0902710471515 Z"/></g></g><g><rect fill="white" stroke="none" x="1129.5186168274283" y="569.7867412888181" width="120.61274971070313" height="21.23576429"/><text fill="black" stroke="none" font-family="sans-serif" font-size="11pt" font-style="normal" font-weight="normal" text-decoration="normal" x="1131.9688973224283" y="584.4884242588181" text-anchor="start" dominant-baseline="alphabetic" xml:space="preserve">User profile found</text></g><g><path fill="none" stroke="black" paint-order="fill stroke markers" d=" M 1293.8922576835287 591.0225055788181 L 1099.2070430656981 591.0225055788181" stroke-miterlimit="10" stroke-width="1.3612669416666667" stroke-dasharray="6.53408132"/><g transform="translate(1085.7577256820314,591.0225055788181) translate(-1085.7577256820314,-591.0225055788181)"><path fill="black" stroke="none" paint-order="stroke fill markers" d=" M 1099.370395098698 584.2161708704848 L 1085.7577256820314 591.0225055788181 L 1099.370395098698 597.8288402871515 Z"/></g></g><g><rect fill="white" stroke="none" x="713.082741371569" y="615.5253105288181" width="169.48890937867188" height="21.23576429"/><text fill="black" stroke="none" font-family="sans-serif" font-size="11pt" font-style="normal" font-weight="normal" text-decoration="normal" x="715.533021866569" y="630.226993498818" text-anchor="start" dominant-baseline="alphabetic" xml:space="preserve">Redirect to Home Screen</text></g><g><path fill="none" stroke="black" paint-order="fill stroke markers" d=" M 1085.7577256820314 636.7610748188181 L 523.3459838234453 636.7610748188181" stroke-miterlimit="10" stroke-width="1.3612669416666667" stroke-dasharray=""/><g transform="translate(509.89666643977864,636.7610748188181) translate(-509.89666643977864,-636.7610748188181)"><path fill="black" stroke="none" paint-order="stroke fill markers" d=" M 523.5093358564453 629.9547401104847 L 509.89666643977864 636.7610748188181 L 523.5093358564453 643.5674095271514 Z"/></g></g><g><rect fill="white" stroke="none" x="223.2932892555534" y="661.263879768818" width="169.48890937867188" height="21.23576429"/><text fill="black" stroke="none" font-family="sans-serif" font-size="11pt" font-style="normal" font-weight="normal" text-decoration="normal" x="225.74356975055338" y="675.965562738818" text-anchor="start" dominant-baseline="alphabetic" xml:space="preserve">Redirect to Home Screen</text></g><g><path fill="none" stroke="black" paint-order="fill stroke markers" d=" M 509.89666643977864 682.499644058818 L 119.62813883366667 682.499644058818" stroke-miterlimit="10" stroke-width="1.3612669416666667" stroke-dasharray=""/><g transform="translate(106.17882145,682.499644058818) translate(-106.17882145,-682.499644058818)"><path fill="black" stroke="none" paint-order="stroke fill markers" d=" M 119.79149086666666 675.6933093504847 L 106.17882145 682.499644058818 L 119.79149086666666 689.3059787671514 Z"/></g></g><g><rect fill="white" stroke="none" x="1316.8872415413282" y="751.1074979188179" width="140.99212898316406" height="21.23576429"/><text fill="black" stroke="none" font-family="sans-serif" font-size="11pt" font-style="normal" font-weight="normal" text-decoration="normal" x="1319.3375220363282" y="765.8091808888179" text-anchor="start" dominant-baseline="alphabetic" xml:space="preserve">No user profile found</text></g><g><path fill="none" stroke="black" paint-order="fill stroke markers" d=" M 1480.8743543822916 772.3432622088179 L 1307.3415750671954 772.3432622088179" stroke-miterlimit="10" stroke-width="1.3612669416666667" stroke-dasharray="6.53408132"/><g transform="translate(1293.8922576835287,772.3432622088179) translate(-1293.8922576835287,-772.3432622088179)"><path fill="black" stroke="none" paint-order="stroke fill markers" d=" M 1307.5049271001953 765.5369275004846 L 1293.8922576835287 772.3432622088179 L 1307.5049271001953 779.1495969171513 Z"/></g></g><g><rect fill="white" stroke="none" x="1119.3289271911979" y="796.8460671588178" width="140.99212898316406" height="21.23576429"/><text fill="black" stroke="none" font-family="sans-serif" font-size="11pt" font-style="normal" font-weight="normal" text-decoration="normal" x="1121.7792076861979" y="811.5477501288178" text-anchor="start" dominant-baseline="alphabetic" xml:space="preserve">No user profile found</text></g><g><path fill="none" stroke="black" paint-order="fill stroke markers" d=" M 1293.8922576835287 818.0818314488179 L 1099.2070430656981 818.0818314488179" stroke-miterlimit="10" stroke-width="1.3612669416666667" stroke-dasharray="6.53408132"/><g transform="translate(1085.7577256820314,818.0818314488179) translate(-1085.7577256820314,-818.0818314488179)"><path fill="black" stroke="none" paint-order="stroke fill markers" d=" M 1099.370395098698 811.2754967404845 L 1085.7577256820314 818.0818314488179 L 1099.370395098698 824.8881661571512 Z"/></g></g><g><rect fill="white" stroke="none" x="699.6289220966667" y="842.5846363988178" width="196.39654792847656" height="21.23576429"/><text fill="black" stroke="none" font-family="sans-serif" font-size="11pt" font-style="normal" font-weight="normal" text-decoration="normal" x="702.0792025916667" y="857.2863193688178" text-anchor="start" dominant-baseline="alphabetic" xml:space="preserve">Redirect to Registration Page</text></g><g><path fill="none" stroke="black" paint-order="fill stroke markers" d=" M 1085.7577256820314 863.8204006888178 L 523.3459838234453 863.8204006888178" stroke-miterlimit="10" stroke-width="1.3612669416666667" stroke-dasharray=""/><g transform="translate(509.89666643977864,863.8204006888178) translate(-509.89666643977864,-863.8204006888178)"><path fill="black" stroke="none" paint-order="stroke fill markers" d=" M 523.5093358564453 857.0140659804845 L 509.89666643977864 863.8204006888178 L 523.5093358564453 870.6267353971512 Z"/></g></g><g><rect fill="white" stroke="none" x="125.50881202166666" y="888.3232056388177" width="365.0578180700781" height="21.23576429"/><text fill="black" stroke="none" font-family="sans-serif" font-size="11pt" font-style="normal" font-weight="normal" text-decoration="normal" x="127.95909251666666" y="903.0248886088177" text-anchor="start" dominant-baseline="alphabetic" xml:space="preserve">Prompt for additional details (screen name, avatar, etc.)</text></g><g><path fill="none" stroke="black" paint-order="fill stroke markers" d=" M 509.89666643977864 909.5589699288178 L 119.62813883366667 909.5589699288178" stroke-miterlimit="10" stroke-width="1.3612669416666667" stroke-dasharray=""/><g transform="translate(106.17882145,909.5589699288178) translate(-106.17882145,-909.5589699288178)"><path fill="black" stroke="none" paint-order="stroke fill markers" d=" M 119.79149086666666 902.7526352204844 L 106.17882145 909.5589699288178 L 119.79149086666666 916.3653046371511 Z"/></g></g><g><rect fill="white" stroke="none" x="221.25321967547526" y="978.1668237888177" width="173.56904853882813" height="21.23576429"/><text fill="black" stroke="none" font-family="sans-serif" font-size="11pt" font-style="normal" font-weight="normal" text-decoration="normal" x="223.70350017047525" y="992.8685067588177" text-anchor="start" dominant-baseline="alphabetic" xml:space="preserve">Submit registration details</text></g><g><path fill="none" stroke="black" paint-order="fill stroke markers" d=" M 106.17882145 999.4025880788178 L 496.447349056112 999.4025880788178" stroke-miterlimit="10" stroke-width="1.3612669416666667" stroke-dasharray=""/><g transform="translate(509.89666643977864,999.4025880788178) translate(-509.89666643977864,-999.4025880788178)"><path fill="black" stroke="none" paint-order="stroke fill markers" d=" M 496.28399702311197 992.5962533704844 L 509.89666643977864 999.4025880788178 L 496.28399702311197 1006.2089227871511 Z"/></g></g><g><rect fill="white" stroke="none" x="817.1607724480014" y="1023.9053930288177" width="169.4673792273047" height="21.23576429"/><text fill="black" stroke="none" font-family="sans-serif" font-size="11pt" font-style="normal" font-weight="normal" text-decoration="normal" x="819.6110529430014" y="1038.6070759988177" text-anchor="start" dominant-baseline="alphabetic" xml:space="preserve">createProfile(UserProfile)</text></g><g><path fill="none" stroke="black" paint-order="fill stroke markers" d=" M 509.89666643977864 1045.1411573188177 L 1280.442940299862 1045.1411573188177" stroke-miterlimit="10" stroke-width="1.3612669416666667" stroke-dasharray=""/><g transform="translate(1293.8922576835287,1045.1411573188177) translate(-1293.8922576835287,-1045.1411573188177)"><path fill="black" stroke="none" paint-order="stroke fill markers" d=" M 1280.279588266862 1038.3348226104845 L 1293.8922576835287 1045.1411573188177 L 1280.279588266862 1051.947492027151 Z"/></g></g><g><rect fill="white" stroke="none" x="1313.2222482551954" y="1069.6439622688179" width="148.3221155554297" height="21.23576429"/><text fill="black" stroke="none" font-family="sans-serif" font-size="11pt" font-style="normal" font-weight="normal" text-decoration="normal" x="1315.6725287501954" y="1084.345645238818" text-anchor="start" dominant-baseline="alphabetic" xml:space="preserve">Save new user details</text></g><g><path fill="none" stroke="black" paint-order="fill stroke markers" d=" M 1293.8922576835287 1090.8797265588178 L 1467.4250369986248 1090.8797265588178" stroke-miterlimit="10" stroke-width="1.3612669416666667" stroke-dasharray=""/><g transform="translate(1480.8743543822916,1090.8797265588178) translate(-1480.8743543822916,-1090.8797265588178)"><path fill="black" stroke="none" paint-order="stroke fill markers" d=" M 1467.261684965625 1084.0733918504845 L 1480.8743543822916 1090.8797265588178 L 1467.261684965625 1097.686061267151 Z"/></g></g><g><rect fill="white" stroke="none" x="1323.4190942634962" y="1115.382531508818" width="127.92842353882813" height="21.23576429"/><text fill="black" stroke="none" font-family="sans-serif" font-size="11pt" font-style="normal" font-weight="normal" text-decoration="normal" x="1325.8693747584962" y="1130.084214478818" text-anchor="start" dominant-baseline="alphabetic" xml:space="preserve">Return User profile</text></g><g><path fill="none" stroke="black" paint-order="fill stroke markers" d=" M 1480.8743543822916 1136.6182957988178 L 1307.3415750671954 1136.6182957988178" stroke-miterlimit="10" stroke-width="1.3612669416666667" stroke-dasharray="6.53408132"/><g transform="translate(1293.8922576835287,1136.6182957988178) translate(-1293.8922576835287,-1136.6182957988178)"><path fill="black" stroke="none" paint-order="stroke fill markers" d=" M 1307.5049271001953 1129.8119610904846 L 1293.8922576835287 1136.6182957988178 L 1307.5049271001953 1143.424630507151 Z"/></g></g><g><rect fill="white" stroke="none" x="1105.0877162536979" y="1161.121100748818" width="169.47455085816406" height="21.23576429"/><text fill="black" stroke="none" font-family="sans-serif" font-size="11pt" font-style="normal" font-weight="normal" text-decoration="normal" x="1107.5379967486979" y="1175.822783718818" text-anchor="start" dominant-baseline="alphabetic" xml:space="preserve">User registration success</text></g><g><path fill="none" stroke="black" paint-order="fill stroke markers" d=" M 1293.8922576835287 1182.356865038818 L 1099.2070430656981 1182.356865038818" stroke-miterlimit="10" stroke-width="1.3612669416666667" stroke-dasharray=""/><g transform="translate(1085.7577256820314,1182.356865038818) translate(-1085.7577256820314,-1182.356865038818)"><path fill="black" stroke="none" paint-order="stroke fill markers" d=" M 1099.370395098698 1175.5505303304847 L 1085.7577256820314 1182.356865038818 L 1099.370395098698 1189.163199747151 Z"/></g></g><g><rect fill="white" stroke="none" x="713.082741371569" y="1206.859669988818" width="169.48890937867188" height="21.23576429"/><text fill="black" stroke="none" font-family="sans-serif" font-size="11pt" font-style="normal" font-weight="normal" text-decoration="normal" x="715.533021866569" y="1221.5613529588181" text-anchor="start" dominant-baseline="alphabetic" xml:space="preserve">Redirect to Home Screen</text></g><g><path fill="none" stroke="black" paint-order="fill stroke markers" d=" M 1085.7577256820314 1228.095434278818 L 523.3459838234453 1228.095434278818" stroke-miterlimit="10" stroke-width="1.3612669416666667" stroke-dasharray=""/><g transform="translate(509.89666643977864,1228.095434278818) translate(-509.89666643977864,-1228.095434278818)"><path fill="black" stroke="none" paint-order="stroke fill markers" d=" M 523.5093358564453 1221.2890995704847 L 509.89666643977864 1228.095434278818 L 523.5093358564453 1234.9017689871512 Z"/></g></g><g><rect fill="white" stroke="none" x="223.2932892555534" y="1252.598239228818" width="169.48890937867188" height="21.23576429"/><text fill="black" stroke="none" font-family="sans-serif" font-size="11pt" font-style="normal" font-weight="normal" text-decoration="normal" x="225.74356975055338" y="1267.2999221988182" text-anchor="start" dominant-baseline="alphabetic" xml:space="preserve">Redirect to Home Screen</text></g><g><path fill="none" stroke="black" paint-order="fill stroke markers" d=" M 509.89666643977864 1273.834003518818 L 119.62813883366667 1273.834003518818" stroke-miterlimit="10" stroke-width="1.3612669416666667" stroke-dasharray=""/><g transform="translate(106.17882145,1273.834003518818) translate(-106.17882145,-1273.834003518818)"><path fill="black" stroke="none" paint-order="stroke fill markers" d=" M 119.79149086666666 1267.0276688104848 L 106.17882145 1273.834003518818 L 119.79149086666666 1280.6403382271512 Z"/></g></g><g><rect fill="white" stroke="none" x="143.8552551979362" y="1342.4418573788182" width="328.36491645875" height="21.23576429"/><text fill="black" stroke="none" font-family="sans-serif" font-size="11pt" font-style="normal" font-weight="normal" text-decoration="normal" x="146.3055356929362" y="1357.1435403488183" text-anchor="start" dominant-baseline="alphabetic" xml:space="preserve">Show error message and prompt user to fix errors</text></g><g><path fill="none" stroke="black" paint-order="fill stroke markers" d=" M 509.89666643977864 1363.6776216688181 L 119.62813883366667 1363.6776216688181" stroke-miterlimit="10" stroke-width="1.3612669416666667" stroke-dasharray=""/><g transform="translate(106.17882145,1363.6776216688181) translate(-106.17882145,-1363.6776216688181)"><path fill="black" stroke="none" paint-order="stroke fill markers" d=" M 119.79149086666666 1356.871286960485 L 106.17882145 1363.6776216688181 L 119.79149086666666 1370.4839563771513 Z"/></g></g><g><rect fill="white" stroke="none" x="529.2266570114452" y="1481.2910854288182" width="256.5253931433203" height="21.23576429"/><text fill="black" stroke="none" font-family="sans-serif" font-size="11pt" font-style="normal" font-weight="normal" text-decoration="normal" x="531.6769375064453" y="1495.9927683988183" text-anchor="start" dominant-baseline="alphabetic" xml:space="preserve">Show "Authentication Failed" message</text></g><g><path fill="none" stroke="black" paint-order="fill stroke markers" d=" M 805.0820407264323 1502.526849718818 L 523.3459838234453 1502.526849718818" stroke-miterlimit="10" stroke-width="1.3612669416666667" stroke-dasharray=""/><g transform="translate(509.89666643977864,1502.526849718818) translate(-509.89666643977864,-1502.526849718818)"><path fill="black" stroke="none" paint-order="stroke fill markers" d=" M 523.5093358564453 1495.7205150104849 L 509.89666643977864 1502.526849718818 L 523.5093358564453 1509.3331844271513 Z"/></g></g><g><rect fill="white" stroke="none" x="208.2288895363151" y="1527.0296546688182" width="199.61770881714844" height="21.23576429"/><text fill="black" stroke="none" font-family="sans-serif" font-size="11pt" font-style="normal" font-weight="normal" text-decoration="normal" x="210.6791700313151" y="1541.7313376388183" text-anchor="start" dominant-baseline="alphabetic" xml:space="preserve">Display error and prompt retry</text></g><g><path fill="none" stroke="black" paint-order="fill stroke markers" d=" M 509.89666643977864 1548.2654189588181 L 119.62813883366667 1548.2654189588181" stroke-miterlimit="10" stroke-width="1.3612669416666667" stroke-dasharray=""/><g transform="translate(106.17882145,1548.2654189588181) translate(-106.17882145,-1548.2654189588181)"><path fill="black" stroke="none" paint-order="stroke fill markers" d=" M 119.79149086666666 1541.459084250485 L 106.17882145 1548.2654189588181 L 119.79149086666666 1555.0717536671514 Z"/></g></g><g><g/><path fill="none" stroke="black" paint-order="fill stroke markers" d=" M 16.335203300000003 252.88379726881817 L 1570.7179725322917 252.88379726881817 L 1570.7179725322917 1572.768223908818 L 16.335203300000003 1572.768223908818 L 16.335203300000003 252.88379726881817 Z" stroke-miterlimit="10" stroke-width="2.3336004714285714" stroke-dasharray=""/><path fill="white" stroke="black" paint-order="fill stroke markers" d=" M 16.335203300000003 252.88379726881817 L 16.335203300000003 272.4860412288182 L 62.694406897070316 272.4860412288182 L 72.49552887707031 262.6849192488182 L 72.49552887707031 252.88379726881817 L 16.335203300000003 252.88379726881817" stroke-miterlimit="10" stroke-width="2.3336004714285714" stroke-dasharray=""/><text fill="black" stroke="none" font-family="sans-serif" font-size="8.8pt" font-style="normal" font-weight="bold" text-decoration="normal" x="32.67040660000001" y="265.9519599088182" text-anchor="start" dominant-baseline="alphabetic" xml:space="preserve">alt</text><g><rect fill="white" stroke="none" x="86.38045168207032" y="254.1906135328182" width="160.01361335816406" height="16.988611432000003"/></g><text fill="black" stroke="none" font-family="sans-serif" font-size="8.8pt" font-style="normal" font-weight="bold" text-decoration="normal" x="88.83073217707032" y="265.9519599088182" text-anchor="start" dominant-baseline="alphabetic" xml:space="preserve">[Authentication Successful]</text><g><path fill="none" stroke="black" paint-order="fill stroke markers" d=" M 16.335203300000003 1437.1860365188181 L 1570.7179725322917 1437.1860365188181" stroke-miterlimit="10" stroke-width="2.3336004714285714" stroke-dasharray="4.083800825"/></g><g/><g><rect fill="white" stroke="none" x="86.38045168207032" y="1438.492852782818" width="124.8064447790625" height="16.988611432000003"/></g><text fill="black" stroke="none" font-family="sans-serif" font-size="8.8pt" font-style="normal" font-weight="bold" text-decoration="normal" x="88.83073217707032" y="1450.254199158818" text-anchor="start" dominant-baseline="alphabetic" xml:space="preserve">[Authentication Fails]</text></g><g><g/><path fill="none" stroke="black" paint-order="fill stroke markers" d=" M 32.67040660000001 434.2045538988182 L 1554.3827692322916 434.2045538988182 L 1554.3827692322916 1412.683231568818 L 32.67040660000001 1412.683231568818 L 32.67040660000001 434.2045538988182 Z" stroke-miterlimit="10" stroke-width="2.3336004714285714" stroke-dasharray=""/><path fill="white" stroke="black" paint-order="fill stroke markers" d=" M 32.67040660000001 434.2045538988182 L 32.67040660000001 453.8067978588182 L 79.02961019707033 453.8067978588182 L 88.83073217707033 444.0056758788182 L 88.83073217707033 434.2045538988182 L 32.67040660000001 434.2045538988182" stroke-miterlimit="10" stroke-width="2.3336004714285714" stroke-dasharray=""/><text fill="black" stroke="none" font-family="sans-serif" font-size="8.8pt" font-style="normal" font-weight="bold" text-decoration="normal" x="49.00560990000001" y="447.2727165388182" text-anchor="start" dominant-baseline="alphabetic" xml:space="preserve">alt</text><g><rect fill="white" stroke="none" x="102.71565498207033" y="435.5113701628182" width="76.61499275269531" height="16.988611432000003"/></g><text fill="black" stroke="none" font-family="sans-serif" font-size="8.8pt" font-style="normal" font-weight="bold" text-decoration="normal" x="105.16593547707033" y="447.2727165388182" text-anchor="start" dominant-baseline="alphabetic" xml:space="preserve">[User Exists]</text><g><path fill="none" stroke="black" paint-order="fill stroke markers" d=" M 32.67040660000001 707.002449008818 L 1554.3827692322916 707.002449008818" stroke-miterlimit="10" stroke-width="2.3336004714285714" stroke-dasharray="4.083800825"/></g><g/><g><rect fill="white" stroke="none" x="102.71565498207033" y="708.3092652728179" width="124.83508552613281" height="16.988611432000003"/></g><text fill="black" stroke="none" font-family="sans-serif" font-size="8.8pt" font-style="normal" font-weight="bold" text-decoration="normal" x="105.16593547707033" y="720.0706116488179" text-anchor="start" dominant-baseline="alphabetic" xml:space="preserve">[User Does Not Exist]</text></g><g/><g><g/><path fill="none" stroke="black" paint-order="fill stroke markers" d=" M 49.0056099 934.0617748788178 L 1538.0475659322915 934.0617748788178 L 1538.0475659322915 1388.180426618818 L 49.0056099 1388.180426618818 L 49.0056099 934.0617748788178 Z" stroke-miterlimit="10" stroke-width="2.3336004714285714" stroke-dasharray=""/><path fill="white" stroke="black" paint-order="fill stroke markers" d=" M 49.0056099 934.0617748788178 L 49.0056099 953.6640188388178 L 95.36481349707032 953.6640188388178 L 105.16593547707032 943.8628968588177 L 105.16593547707032 934.0617748788178 L 49.0056099 934.0617748788178" stroke-miterlimit="10" stroke-width="2.3336004714285714" stroke-dasharray=""/><text fill="black" stroke="none" font-family="sans-serif" font-size="8.8pt" font-style="normal" font-weight="bold" text-decoration="normal" x="65.3408132" y="947.1299375188178" text-anchor="start" dominant-baseline="alphabetic" xml:space="preserve">alt</text><g><rect fill="white" stroke="none" x="119.05085828207032" y="935.3685911428178" width="173.71385444703125" height="16.988611432000003"/></g><text fill="black" stroke="none" font-family="sans-serif" font-size="8.8pt" font-style="normal" font-weight="bold" text-decoration="normal" x="121.50113877707032" y="947.1299375188178" text-anchor="start" dominant-baseline="alphabetic" xml:space="preserve">[User Completes Registration]</text><g><path fill="none" stroke="black" paint-order="fill stroke markers" d=" M 49.0056099 1298.3368084688182 L 1538.0475659322915 1298.3368084688182" stroke-miterlimit="10" stroke-width="2.3336004714285714" stroke-dasharray="4.083800825"/></g><g/><g><rect fill="white" stroke="none" x="119.05085828207032" y="1299.6436247328181" width="315.37858833375" height="16.988611432000003"/></g><text fill="black" stroke="none" font-family="sans-serif" font-size="8.8pt" font-style="normal" font-weight="bold" text-decoration="normal" x="121.50113877707032" y="1311.404971108818" text-anchor="start" dominant-baseline="alphabetic" xml:space="preserve">[User Fails Registration (Missing Fields, Invalid Avatar)]</text></g><g/><g/></g><g/><g/><g/><g/><g/><g/></g></svg>