<svg xmlns="http://www.w3.org/2000/svg" xmlns:xlink="http://www.w3.org/1999/xlink" version="1.1" width="896.2092440638672" height="947.129937518818"><desc>title%20User%20Settings%20Sequence%20Diagram%0A%0Aactor%20User%0Aparticipant%20Frontend%0Aparticipant%20User%20Management%0Adatabase%20GameOnDB%0A%0A%0A%20%20%20%20User-%3EFrontend%3A%20Click%20%22Profile%20Settings%22%0A%20%20%20%20Frontend-%3EUser%20Management%3A%20getProfile(discordToken)%0A%20%20%20%0A%20%20%20%20User%20Management-%3EGameOnDB%3A%20Retrieve%20user%20profile%0A%0A%20%20%20%20User%20Management--%3EFrontend%3A%20Return%20UserProfile%0A%20%20%20%20Frontend-%3EUser%3A%20Display%20user%20profile%0A%0Aalt%20User%20Updates%20Settings%0A%20%20%20%20User-%3EFrontend%3A%20Modify%20settings%20(avatar%2C%20language%2C%20etc.)%0A%20%20%20%20User-%3EFrontend%3A%20Click%20%22Submit%22%0A%20%20%20%20Frontend-%3EUser%20Management%3A%20updateProfile(discordToken%2C%20profile)%0A%20%20%20%20User%20Management-%3EGameOnDB%3A%20Store%20updated%20profile%0A%20%20%20%20GameOnDB--%3EUser%20Management%3A%20Profile%20updated%0A%20%20%20%20User%20Management--%3EFrontend%3A%20Update%20success%0A%20%20%20%20Frontend-%3EUser%3A%20Display%20success%20message%0Aelse%20User%20Closes%20Without%20Saving%0A%20%20%20%20User-%3EFrontend%3A%20Close%20settings%20screen%0A%20%20%20%20Frontend-%3EUser%3A%20No%20changes%20saved%0Aend%0A</desc><defs/><g><g/><g/><g/><g/><g/><g/><g/><g/><g/><g/><g/><g/><g/><g/><g/><g/><g/><g/><g/><g/><g/><g/><g/><g/><g/><g/><g/><g/><g/><g/><g/><g/><g/><g/><g/><g/><g/><g/><g/><g/><g/><g/><g/><g/><g/><g/><g/><g/><g/><g/><g/><g/><g/><g/><g/><g/><g/><g/><g/><g/><g/><g/><g/><g/><g/><g/><g/><g/><g/><g/><g/><g/><g/><g/><g/><g/><g/><g/><g/><g/><g/><g/><g><rect fill="white" stroke="none" x="0" y="0" width="896" height="947"/></g><g/><g><path fill="none" stroke="black" paint-order="fill stroke markers" d=" M 73.50841485 128.73625218881818 L 73.50841485 947.129937518818" stroke-miterlimit="10" stroke-width="1.3612669416666667" stroke-dasharray="12.565541,5.445067766666667"/><path fill="none" stroke="black" paint-order="fill stroke markers" d=" M 368.86554206634116 128.73625218881818 L 368.86554206634116 947.129937518818" stroke-miterlimit="10" stroke-width="1.3612669416666667" stroke-dasharray="12.565541,5.445067766666667"/><path fill="none" stroke="black" paint-order="fill stroke markers" d=" M 643.0344063432292 128.73625218881818 L 643.0344063432292 947.129937518818" stroke-miterlimit="10" stroke-width="1.3612669416666667" stroke-dasharray="12.565541,5.445067766666667"/><path fill="none" stroke="black" paint-order="fill stroke markers" d=" M 822.7008292138672 128.73625218881818 L 822.7008292138672 947.129937518818" stroke-miterlimit="10" stroke-width="1.3612669416666667" stroke-dasharray="12.565541,5.445067766666667"/></g><g><g><path fill="white" stroke="black" paint-order="fill stroke markers" d=" M 82.819480731 59.63834222981819 A 9.311065881 9.311065881 0 1 1 82.81947607546743 59.62903116548903 M 73.50841485 68.9494081108182 L 73.50841485 88.8783561368182 M 61.747068473999995 76.13689756281819 L 85.26976122599999 76.13689756281819 M 73.50841485 88.8783561368182 L 61.747068473999995 107.50048789881819 M 73.50841485 88.8783561368182 L 85.26976122599999 107.50048789881819" stroke-miterlimit="10" stroke-width="2.7769845610000004" stroke-dasharray=""/></g><g><g/><text fill="black" stroke="none" font-family="sans-serif" font-size="11pt" font-style="normal" font-weight="normal" text-decoration="normal" x="58.032401666406244" y="123.83569119881818" text-anchor="start" dominant-baseline="alphabetic" xml:space="preserve">User</text></g><path fill="none" stroke="none"/><g><path fill="white" stroke="black" paint-order="fill stroke markers" d=" M 321.80398637841927 84.63120327881819 L 415.92709775426306 84.63120327881819 L 415.92709775426306 128.73625218881818 L 321.80398637841927 128.73625218881818 L 321.80398637841927 84.63120327881819 Z" stroke-miterlimit="10" stroke-width="2.613632528" stroke-dasharray=""/></g><g><g/><text fill="black" stroke="none" font-family="sans-serif" font-size="11pt" font-style="normal" font-weight="normal" text-decoration="normal" x="339.5276819589193" y="112.40104888881817" text-anchor="start" dominant-baseline="alphabetic" xml:space="preserve">Frontend</text></g><path fill="none" stroke="none"/><g><path fill="white" stroke="black" paint-order="fill stroke markers" d=" M 565.013660286655 84.63120327881819 L 721.0551523998034 84.63120327881819 L 721.0551523998034 128.73625218881818 L 565.013660286655 128.73625218881818 L 565.013660286655 84.63120327881819 Z" stroke-miterlimit="10" stroke-width="2.613632528" stroke-dasharray=""/></g><g><g/><text fill="black" stroke="none" font-family="sans-serif" font-size="11pt" font-style="normal" font-weight="normal" text-decoration="normal" x="582.737355867155" y="112.40104888881817" text-anchor="start" dominant-baseline="alphabetic" xml:space="preserve">User Management</text></g><g><path fill="white" stroke="black" paint-order="fill stroke markers" d=" M 798.8514323958673 96.71925372081819 L 798.8514323958673 62.41532679081819 L 846.5502260318672 62.41532679081819 L 846.5502260318672 96.71925372081819" stroke-miterlimit="10" stroke-width="2.7769845610000004" stroke-dasharray=""/><path fill="white" stroke="black" paint-order="fill stroke markers" d=" M 846.5502260318672 61.22285694991819 L 846.5490335719635 61.33066749483481 L 846.5454563114974 61.43846725878678 L 846.5394946081922 61.546245461887544 L 846.5311490582128 61.65399132640659 L 846.5204204961076 61.761694077847274 L 846.5073099947238 61.86934294602419 L 846.4918188651005 61.976927166140236 L 846.4739486563379 62.084435979863045 L 846.4537011554419 62.19185863640084 L 846.4310783871457 62.299184393577484 L 846.4060826137073 62.4064025189067 L 846.3787163346833 62.51350229066531 L 846.3489822866787 62.62047299896537 L 846.3168834430736 62.7273039468252 L 846.2824230137255 62.83398445123905 L 846.2456044446487 62.94050384424536 L 846.2064314176694 63.04685147399361 L 846.1649078500576 63.15301670580944 L 846.1210378941356 63.25898892325815 L 846.0748259368622 63.364757529206294 L 846.0262765993949 63.47031194688142 L 845.9753947366269 63.575641620929716 L 845.922185436702 63.68073601847156 L 845.8666540205057 63.78558463015478 L 845.8088060411337 63.89017697120557 L 845.7486472833356 63.994502582477 L 845.6861837629369 64.09855103149486 L 845.6214217262377 64.20231191350096 L 845.5543676493877 64.3057748524936 L 845.4850282377388 64.40892950226505 L 845.4134104251741 64.51176554743633 L 845.3395213734154 64.61427270448858 L 845.2633684713064 64.71644072279157 L 845.1849593340736 64.81825938562858 L 845.1043018025655 64.91971851121816 L 845.021403942468 65.02080795373233 L 844.9362740434982 65.12151760431107 L 844.8489206185748 65.22183739207324 L 844.7593524029676 65.32175728512367 L 844.6675783534236 65.42126729155632 L 844.573607647271 65.52035746045347 L 844.4774496815025 65.6190178828808 L 844.3791140718345 65.71723869287828 L 844.2786106517456 65.81501006844678 L 844.1759494714945 65.91232223253022 L 844.0711407971135 66.00916545399325 L 843.9641951093826 66.10553004859446 L 843.8551231027816 66.20140637995469 L 843.7439356844203 66.29678486052069 L 843.6306439729477 66.39165595252388 L 843.5152592974408 66.48601016893414 L 843.3977931962708 66.57983807440844 L 843.2782574159498 66.67313028623443 L 843.1566639099566 66.76587747526865 L 843.0330248375402 66.85807036686953 L 842.9073525625048 66.94969974182469 L 842.7796596519734 67.04075643727302 L 842.6499588751303 67.13123134762085 L 842.5182632019454 67.22111542545254 L 842.3845858018761 67.3103996824352 L 842.2489400425512 67.39907519021754 L 842.1113394884334 67.4871330813227 L 841.9717978994635 67.57456455003492 L 841.8303292296841 67.6613608532802 L 841.6869476258444 67.74751331150055 L 841.5416674259852 67.83301330952195 L 841.3945031580054 67.91785229741582 L 841.2454695382092 68.00202179135408 L 841.0945814698343 68.08551337445749 L 840.941854041562 68.1683186976373 L 840.7873025260078 68.25042948043021 L 840.6309423781943 68.33183751182635 L 840.472789234006 68.41253465109044 L 840.3128589086257 68.4925128285758 L 840.1511673949525 68.5717640465313 L 839.9877308620032 68.65028037990122 L 839.8225656532946 68.72805397711764 L 839.6556882852103 68.80507706088565 L 839.4871154453479 68.88134192896105 L 839.3168639908507 68.95684095492061 L 839.1449509467226 69.03156658892462 L 838.9713935041245 69.10551135847197 L 838.7962090186562 69.17866786914732 L 838.6194150086202 69.25102880536058 L 838.4410291532702 69.3225869310784 L 838.2610692910429 69.39333509054786 L 838.0795534177748 69.46326620901198 L 837.8964996849019 69.53237329341717 L 837.7119263976449 69.60064943311258 L 837.5258520131787 69.66808780054113 L 837.3382951387867 69.7346816519223 L 837.1492745300001 69.80042432792644 L 836.9588090887222 69.86530925434072 L 836.7669178613384 69.92932994272657 L 836.5736200368116 69.9924799910685 L 836.378934944763 70.05475308441433 L 836.1828820535399 70.1161429955066 L 835.9854809682677 70.17664358540536 L 835.7867514288906 70.23624880410202 L 835.5867133081969 70.29495269112441 L 835.3853866098319 70.35274937613272 L 835.1827914662979 70.40963307950663 L 834.9789481369401 70.46559811292322 L 834.7738770059218 70.52063887992576 L 834.5675985801851 70.57474987648341 L 834.3601334874007 70.62792569154163 L 834.151502473905 70.68016100756323 L 833.9417264026256 70.73145060106012 L 833.7308262509946 70.78178934311569 L 833.5188231088515 70.8311721998977 L 833.3057381763339 70.8795942331616 L 833.0915927617575 70.92705060074444 L 832.8764082794852 70.973536557049 L 832.6602062477859 71.01904745351838 L 832.4430082866828 71.06357873910088 L 832.2248361157908 71.10712596070502 L 832.0057115521453 71.14968476364494 L 831.7856565080199 71.19125089207583 L 831.5646929887358 71.23182018941947 L 831.3428430904609 71.27138859877994 L 831.1201289979998 71.30995216334925 L 830.8965729825763 71.34750702680313 L 830.6721973996059 71.38404943368649 L 830.4470246864596 71.4195757297891 L 830.2210773602212 71.45408236251096 L 829.994378015435 71.48756588121756 L 829.7669493218466 71.52002293758491 L 829.5388140221357 71.55145028593446 L 829.3099949296425 71.58184478355753 L 829.0805149260851 71.61120339102969 L 828.8503969592731 71.63952317251467 L 828.619664040811 71.66680129605793 L 828.3883392437987 71.69303503386982 L 828.1564457005228 71.71822176259843 L 827.9240066001447 71.7423589635919 L 827.6910451863806 71.7654442231502 L 827.4575847551777 71.78747523276665 L 827.2236486523847 71.80844978935863 L 826.9892602714167 71.82836579548797 L 826.7544430509167 71.84722125957065 L 826.5192204724111 71.86501429607597 L 826.2836160579615 71.8817431257151 L 826.0476533678132 71.89740607561903 L 825.8113559980385 71.91200157950583 L 825.5747475781775 71.92552817783725 L 825.3378517688749 71.93798451796474 L 825.1006922595144 71.94936935426468 L 824.8632927658492 71.95968154826289 L 824.6256770276308 71.96892006874862 L 824.3878688062351 71.97708399187748 L 824.149891882286 71.98417250126396 L 823.9117700532777 71.99018488806304 L 823.6735271311945 71.99512055104105 L 823.4351869401302 71.99897899663581 L 823.1967733139052 72.00175983900598 L 822.9583100936834 72.00346280006961 L 822.7198211255883 72.00408770953204 L 822.4813302583177 72.00363450490285 L 822.2428613407599 72.0021032315021 L 822.0044382196077 71.99949404245586 L 821.7660847369747 71.9958071986809 L 821.5278247280103 71.99104306885846 L 821.289682018517 71.98520212939759 L 821.0516804225674 71.97828496438737 L 820.8138437401226 71.97029226553852 L 820.5761957546526 71.96122483211428 L 820.3387602307581 71.95108357085043 L 820.1015609117934 71.93986949586466 L 819.864621517493 71.92758372855508 L 819.6279657415987 71.91422749748824 L 819.3916172494909 71.89980213827607 L 819.1555996758218 71.8843090934425 L 818.9199366221522 71.86774991227908 L 818.6846516545911 71.85012625069015 L 818.4497683014391 71.83143987102717 L 818.2153100508358 71.81169264191253 L 817.981300348411 71.79088653805269 L 817.7477625949396 71.7690236400407 L 817.5147201440027 71.74610613414815 L 817.282196299651 71.72213631210651 L 817.0502143140751 71.69711657087802 L 816.8187973852805 71.67104941241597 L 816.587968654767 71.64393744341446 L 816.3577512052154 71.6157833750478 L 816.1281680581789 71.58659002269937 L 815.8992421717805 71.55636030568009 L 815.6709964384186 71.52509724693644 L 815.4434536824759 71.49280397274828 L 815.2166366580386 71.45948371241609 L 814.9905680466202 71.42513979793813 L 814.7652704548932 71.38977566367726 L 814.5407664124291 71.35339484601741 L 814.3170783694452 71.31600098301004 L 814.0942286945593 71.27759781401028 L 813.8722396725532 71.23818917930303 L 813.6511335021441 71.19777901971894 L 813.4309322937647 71.15637137624027 L 813.2116580673526 71.11397038959687 L 812.9933327501474 71.07058029985207 L 812.775978174499 71.02620544597868 L 812.559616075684 70.98085026542512 L 812.3442680897316 70.93451929367163 L 812.1299557512614 70.8872171637768 L 811.9167004913282 70.8389486059142 L 811.7045236352808 70.78971844689937 L 811.4934464006275 70.7395316097072 L 811.2834898949161 70.6883931129796 L 811.0746751136222 70.6363080705236 L 810.8670229380499 70.58328169080006 L 810.6605541332437 70.52931927640276 L 810.4552893459121 70.47442622352818 L 810.2512491023626 70.41860802143584 L 810.0484538064496 70.36187025189946 L 809.8469237375339 70.3042185886487 L 809.6466790484542 70.24565879680183 L 809.4477397635126 70.18619673228926 L 809.2501257764718 70.12583834126788 L 809.0538568485659 70.06458965952649 L 808.8589526065241 70.00245681188221 L 808.6654325406082 69.93944601156807 L 808.4733160026634 69.87556355961155 L 808.2826222041837 69.81081584420461 L 808.0933702143897 69.74520934006487 L 807.9055789583227 69.67875060778805 L 807.7192672149521 69.61144629319199 L 807.5344536152967 69.54330312665208 L 807.3511566405626 69.47432792242817 L 807.1693946202945 69.40452757798322 L 806.9891857305429 69.3339090732935 L 806.8105479920466 69.26247947015062 L 806.6334992684307 69.19024591145539 L 806.4580572644198 69.11721562050347 L 806.2842395240684 69.0433959002631 L 806.1120634290055 68.96879413264479 L 805.9415461966971 68.89341777776313 L 805.7727048787245 68.81727437319081 L 805.6055563590786 68.74037153320482 L 805.4401173524723 68.66271694802508 L 805.276404402668 68.58431838304537 L 805.1144338808248 68.5051836780569 L 804.9542219838595 68.4253207464642 L 804.7957847328283 68.34473757449386 L 804.6391379713245 68.26344222039596 L 804.4842973638937 68.18144281363814 L 804.3312783944673 68.09874755409275 L 804.1800963648151 68.01536471121685 L 804.0307663930138 67.9313026232252 L 803.8833034119363 67.84656969625658 L 803.7377221677577 67.76117440353308 L 803.5940372184813 67.67512528451279 L 803.4522629324821 67.5884309440359 L 803.3124134870707 67.50110005146425 L 803.1745028670749 67.41314133981427 L 803.0385448634419 67.32456360488388 L 802.9045530718588 67.23537570437271 L 802.7725408913931 67.14558655699653 L 802.6425215231527 67.05520514159522 L 802.5145079689662 66.96424049623502 L 802.3885130300823 66.87270171730466 L 802.26454930589 66.78059795860575 L 802.1426291926583 66.68793843043741 L 802.0227648822969 66.59473239867523 L 801.904968361137 66.50098918384472 L 801.7892514087325 66.40671816018926 L 801.6756255966823 66.31192875473263 L 801.5641022874729 66.2166304463364 L 801.4546926333422 66.120832764752 L 801.3474075751645 66.02454528966774 L 801.2422578413563 65.92777764975091 L 801.1392539468033 65.83053952168484 L 801.0384061918089 65.73284062920132 L 800.9397246610648 65.63469074210818 L 800.8432192226419 65.53609967531233 L 800.7488995270035 65.4370772878383 L 800.6567750060404 65.33763348184232 L 800.5668548721283 65.23777820162212 L 800.4791481172053 65.13752143262249 L 800.393663511874 65.03687320043682 L 800.3104096045238 64.93584356980442 L 800.2293947204757 64.83444264360419 L 800.1506269611509 64.73268056184422 L 800.0741142032597 64.63056750064791 L 799.9998640980139 64.52811367123628 L 799.9278840703623 64.42532931890689 L 799.8581813182476 64.32222472200931 L 799.7907628118871 64.21881019091732 L 799.7256352930751 64.11509606699785 L 799.6628052745092 64.01109272157687 L 799.602279039139 63.90681055490224 L 799.5440626395375 63.80225999510374 L 799.4881618972963 63.697451497150205 L 799.4345824024429 63.59239554180411 L 799.383329512882 63.48710263457343 L 799.3344083538602 63.381583304661156 L 799.2878238174524 63.27584810391234 L 799.2435805620735 63.16990760575894 L 799.201683012012 63.06377240416249 L 799.1621353569883 62.95745311255472 L 799.1249415517347 62.85096036277616 L 799.0901053156008 62.744304804013076 L 799.0576301321811 62.63749710173245 L 799.0275192489671 62.530547936615505 L 798.9997756770218 62.423468003489624 L 798.9744021906795 62.316268010258895 L 798.9514013272675 62.208958676833305 L 798.930775386853 62.10155073405677 L 798.9125264320129 61.99405492263407 L 798.8966562876275 61.88648199205676 L 798.883166540698 61.77884269952825 L 798.8720585401877 61.6711478088881 L 798.8633333968877 61.56340808953563 L 798.8569919833047 61.45563431535299 L 798.8530349335751 61.34783726362778 L 798.8514626434004 61.24002771397536 L 798.8522752700084 61.13221644726084 L 798.855472732137 61.02441424452105 L 798.8610547100426 60.916631885886424 L 798.8690206455323 60.808880149503025 L 798.879369742019 60.70116981045468 L 798.8921009646018 60.59351163968555 L 798.9072130401689 60.48591640292299 L 798.9247044575255 60.378394859601016 L 798.9445734675444 60.27095776178435 L 798.966818083341 60.163615853093255 L 798.9914360804725 60.05637986762915 L 799.0184249971594 59.949260528901206 L 799.0477821345328 59.84226854875404 L 799.0795045569033 59.7354146262965 L 799.1135890920552 59.62870944683179 L 799.1500323315632 59.52216368078894 L 799.188830631134 59.41578798265577 L 799.2299801109697 59.30959298991343 L 799.2734766561567 59.203589321972714 L 799.3193159170768 59.09778757911208 L 799.367493309842 58.992198341417634 L 799.4180040167532 58.88683216772516 L 799.4708429867818 58.78169959456423 L 799.526004936075 58.67681113510454 L 799.5834843484836 58.57217727810464 L 799.6432754761144 58.46780848686303 L 799.7053723399042 58.36371519817185 L 799.7697687302187 58.25990782127324 L 799.8364582074726 58.15639673681838 L 799.9054341027734 58.053192295829454 L 799.9766895185892 57.950304818664556 L 800.0502173294378 57.84774459398567 L 800.1260101825994 57.745521877729786 L 800.2040604988518 57.64364689208335 L 800.2843604732286 57.54212982446004 L 800.366902075799 57.44098082648201 L 800.4516770524717 57.340210012964775 L 800.5386769258197 57.2398274609057 L 800.627892995928 57.13984320847635 L 800.7193163412642 57.040267254018644 L 800.8129378195697 56.94110955504505 L 800.9087480687747 56.84238002724283 L 801.0067375079343 56.74408854348249 L 801.1068963381862 56.646244932830506 L 801.2092145437307 56.54885897956639 L 801.3136818928325 56.45194042220433 L 801.420287938844 56.35549895251929 L 801.5290220212493 56.25954421457787 L 801.6398732667305 56.16408580377391 L 801.7528305902559 56.06913326586893 L 801.867882696187 55.974696096037604 L 801.9850180794092 55.88078373791821 L 802.1042250264816 55.7874055826683 L 802.225491616809 55.694570968025594 L 802.3488057238335 55.60228917737418 L 802.4741550162469 55.51056943881623 L 802.6015269592245 55.41942092424918 L 802.7309088156784 55.328852748448504 L 802.8622876475305 55.23887396815633 L 802.9956503170071 55.14949358117568 L 803.1309834879524 55.0607205254708 L 803.2682736271623 54.97256367827326 L 803.4075070057371 54.88503185519433 L 803.548669700455 54.79813380934336 L 803.6917475951641 54.71187823045254 L 803.8367263821942 54.62627374400786 L 803.9835915637875 54.541328910386646 L 804.1323284535482 54.45705222400146 L 804.2829221779111 54.373452112450714 L 804.4353576776296 54.290536935675895 L 804.5896197092803 54.20831498512558 L 804.745692846789 54.12679448292632 L 804.9035614829718 54.0459835810604 L 805.0632098310967 53.965890360550645 L 805.2246219264619 53.88652283065238 L 805.3877816279924 53.80788892805245 L 805.5526726198539 53.72999651607559 L 805.7192784130848 53.652853383898076 L 805.8875823472446 53.57646724576885 L 806.0575675920799 53.50084574023808 L 806.2292171492081 53.42599642939328 L 806.4025138538166 53.35192679810317 L 806.5774403763791 53.278644253269164 L 806.7539792243892 53.20615612308466 L 806.9321127441093 53.13446965630228 L 807.1118231223359 53.06359202150896 L 807.2930923881808 52.99353030640911 L 807.4759024148684 52.924291517115876 L 807.6602349215486 52.85588257745046 L 807.8460714751244 52.78831032824984 L 808.033393492095 52.72158152668263 L 808.2221822404149 52.65570284557336 L 808.4124188413667 52.590680872735255 L 808.6040842714489 52.52652211031142 L 808.797159364278 52.463232974124615 L 808.9916248125056 52.40081979303573 L 809.1874611697492 52.33928880831086 L 809.384648852536 52.278646172997206 L 809.5831681422623 52.21889795130775 L 809.7829991871643 52.160050118014894 L 809.984122004304 52.1021085578529 L 810.1865164815677 52.045079064929524 L 810.390162379676 51.98896734214652 L 810.5950393342088 51.933779000629414 L 810.8011268576414 51.87951955916637 L 811.0084043413933 51.826194443656306 L 811.2168510578888 51.77380898656634 L 811.42644616263 51.72236842639853 L 811.6371686962809 51.67187790716602 L 811.848997586764 51.622342477878675 L 812.0619116513666 51.57376709203812 L 812.2758895988597 51.526156607142475 L 812.490910031627 51.47951578420055 L 812.7069514478042 51.43384928725578 L 812.9239922434297 51.38916168291979 L 813.142010714605 51.34545743991578 L 813.3609850596646 51.302740928631636 L 813.5808933813564 51.261016420682886 L 813.8017136890315 51.220288088485546 L 814.0234239008432 51.18056000483891 L 814.2460018459551 51.14183614251822 L 814.4694252667581 51.10412037387746 L 814.6936718210962 51.06741647046204 L 814.9187190845012 51.03172810263173 L 815.1445445524339 50.99705883919358 L 815.371125642536 50.96341214704502 L 815.5984396968871 50.930791390827245 L 815.8264639842712 50.899199832588685 L 816.0551757024497 50.86864063145883 L 816.2845519804413 50.83911684333235 L 816.5145698808094 50.81063142056343 L 816.7452064019556 50.78318721167063 L 816.9764384804199 50.75678696105195 L 817.2082429931872 50.731433308710464 L 817.4405967599996 50.70712878999027 L 817.6734765456738 50.683875835323 L 817.9068590624254 50.66167676998473 L 818.1407209721972 50.6405338138635 L 818.375038888993 50.6204490812373 L 818.6097893812165 50.60142458056266 L 818.8449489740141 50.583462214273794 L 819.0804941516225 50.566563778592354 L 819.3164013597201 50.55073096334783 L 819.5526470077829 50.53596535180856 L 819.7892074714426 50.52226842052339 L 820.0260590948504 50.50964153917403 L 820.2631781930411 50.49808597043808 L 820.5005410543025 50.48760286986282 L 820.7381239425463 50.47819328574954 L 820.9759030996815 50.46985815904882 L 821.2138547479909 50.462598323266384 L 821.4519550925077 50.456414504379765 L 821.6901803233958 50.45130732076569 L 821.9285066183309 50.44727728313828 L 822.1669101448819 50.444324794497916 L 822.4053670628947 50.44245015009101 L 822.6438535268766 50.44165353738045 L 822.8823456883796 50.44193503602685 L 823.1208196983864 50.443294617880554 L 823.3592517096948 50.445732146984525 L 823.5976178793023 50.44924737958788 L 823.8358943707906 50.45383996417029 L 824.0740573567091 50.459509441477124 L 824.3120830209576 50.46625524456538 L 824.5499475611681 50.474076698860365 L 824.7876271910848 50.48297302222316 L 825.0250981429429 50.49294332502887 L 825.2623366698448 50.50398661025549 L 825.4993190481357 50.51610177358371 L 825.7360215797753 50.52928760350731 L 825.9724205947076 50.54354278145426 L 826.2084924532282 50.55886588191867 L 826.4442135483479 50.575255372603245 L 826.6795603081536 50.592709614572584 L 826.9145091981654 50.61122686241703 L 827.1490367236902 50.630805264427224 L 827.3831194321709 50.651442862779284 L 827.6167339155317 50.67313759373059 L 827.8498568125187 50.695887287826096 L 828.0824648110369 50.71968967011537 L 828.3145346504799 50.74454236038002 L 828.5460431240574 50.77044287337172 L 828.7769670811149 50.797388619060754 L 829.0072834294491 50.825376902895016 L 829.236969137617 50.85440492606945 L 829.4660012372394 50.88446978580591 L 829.6943568252971 50.9155684756435 L 829.9220130664215 50.947697885739125 L 830.1489471951783 50.980854803178566 L 830.3751365183437 51.01503591229771 L 830.6005584171739 51.05023779501413 L 830.8251903496669 51.08645693116888 L 831.0490098528165 51.12368969887854 L 831.2719945448591 51.16193237489736 L 831.4941221275111 51.201181134989596 L 831.7153703881996 51.241432054311964 L 831.9357172022827 51.28268110780607 L 832.1551405352626 51.32492417060092 L 832.373618444989 51.368157018425464 L 832.5911290838529 51.41237532803093 L 832.8076507009717 51.45757467762322 L 833.0231616443641 51.503750547305025 L 833.2376403631154 51.55089831952786 L 833.4510654095324 51.5990132795538 L 833.6634154412883 51.64809061592693 L 833.874669223557 51.69812542095451 L 834.0848056311362 51.749112691197745 L 834.2938036505602 51.801047327972086 L 834.5016423822015 51.85392413785714 L 834.7083010423597 51.90773783321599 L 834.9137589653415 51.962483032723924 L 835.1179956055254 52.01815426190663 L 835.3209905394177 52.07474595368758 L 835.5227234676943 52.132252448944755 L 835.7231742172304 52.190667997076545 L 835.922322743118 52.24998675657682 L 836.1201491306706 52.310202795619055 L 836.3166335974142 52.371310092649544 L 836.511756495066 52.43330253698949 L 836.7054983114988 52.49617392944612 L 836.8978396726922 52.559917982932596 L 837.0887613446706 52.62452832309667 L 837.2782442354257 52.68999848895818 L 837.4662693968266 52.7563219335551 L 837.6528180265137 52.823492024598224 L 837.8378714697794 52.89150204513444 L 838.0214112214337 52.960345194218355 L 838.2034189276544 53.03001458759244 L 838.3838763878225 53.10050325837541 L 838.5627655563424 53.171804157758935 L 838.7400685444461 53.243910155712484 L 838.9157676219829 53.31681404169635 L 839.0898452191913 53.39050852538269 L 839.2622839284566 53.46498623738456 L 839.4330665060515 53.5402397299928 L 839.6021758738608 53.61626147792087 L 839.7695951210884 53.69304387905734 L 839.9353075059493 53.770579255226075 L 840.0992964573429 53.848859852954064 L 840.2615455765109 53.92787784424677 L 840.4220386386766 54.00762532737092 L 840.5807595946674 54.08809432764465 L 840.7376925725199 54.16927679823499 L 840.8928218790672 54.251164620962534 L 841.0461320015081 54.33374960711325 L 841.1976076089578 54.41702349825734 L 841.3472335539819 54.500977967075094 L 841.4949948741107 54.58560461818958 L 841.6408767933352 54.670894989006214 L 841.7848647235851 54.75684055055899 L 841.9269442661873 54.84343270836337 L 842.067101213306 54.93066280327574 L 842.2053215493632 55.0185221123593 L 842.3415914524406 55.107001849756344 L 842.4758972956614 55.196093167566886 L 842.6082256485532 55.28578715673337 L 842.7385632783909 55.37607484793163 L 842.8668971515202 55.46694721246779 L 842.9932144346609 55.55839516318112 L 843.1175024961896 55.65040955535275 L 843.239748907404 55.742981187620146 L 843.3599414437647 55.83610080289723 L 843.4780680861184 55.92975908930006 L 843.594117021899 56.02394668107806 L 843.7080766463099 56.11865415955053 L 843.8199355634836 56.213872054048544 L 843.9296825876214 56.30959084286201 L 844.0373067441126 56.405800954191804 L 844.142797270631 56.50249276710697 L 844.246143618212 56.5996566125068 L 844.347335452307 56.69728277408771 L 844.4463626538169 56.79536148931491 L 844.5432153201039 56.89388295039859 L 844.6378837659822 56.99283730527477 L 844.7303585246862 57.09221465859041 L 844.820630348817 57.19200507269298 L 844.9086902112673 57.29219856862425 L 844.9945293061244 57.39278512711811 L 845.0781390495504 57.49375468960253 L 845.1595110806403 57.59509715920541 L 845.2386372622592 57.69680240176424 L 845.3155096818547 57.79886024683951 L 845.3901206522488 57.90126048873177 L 845.4624627124069 58.003992887502164 L 845.5325286281831 58.10704716999642 L 845.6003113930441 58.21041303087217 L 845.6658042287701 58.31408013362946 L 845.7290005861319 58.41803811164441 L 845.7898941455467 58.52227656920584 L 845.8484788177091 58.62678508255487 L 845.9047487442007 58.731553200927245 L 845.9586982980759 58.83657044759845 L 846.0103220844242 58.94182632093131 L 846.0596149409098 59.04731029542622 L 846.1065719382884 59.153011822773635 L 846.1511883808993 59.25892033290889 L 846.1934598071354 59.36502523506925 L 846.2333819898892 59.471315918852895 L 846.2709509369759 59.57778175528004 L 846.3061628915318 59.684412097855756 L 846.3390143323911 59.79119628363465 L 846.3695019744371 59.89812363428712 L 846.3976227689308 60.005183457167206 L 846.4233739038161 60.11236504638185 L 846.4467528040013 60.21965768386144 L 846.4677571316156 60.327050640431644 L 846.4863847862439 60.43453317688629 L 846.5026339051361 60.5420945450613 L 846.5165028633941 60.6497239889095 L 846.5279902741333 60.757410745576195 L 846.5370949886225 60.86514404647545 L 846.5438160963977 60.972913118366954 L 846.5481529253536 61.08070718443333 L 846.5501050418112 61.188515465357796 M 846.5502260318672 95.52678387991818 L 846.5490335719635 95.6345944248348 L 846.5454563114974 95.74239418878678 L 846.5394946081922 95.85017239188754 L 846.5311490582128 95.95791825640659 L 846.5204204961076 96.06562100784727 L 846.5073099947238 96.1732698760242 L 846.4918188651005 96.28085409614023 L 846.4739486563379 96.38836290986303 L 846.4537011554419 96.49578556640084 L 846.4310783871457 96.60311132357748 L 846.4060826137073 96.7103294489067 L 846.3787163346833 96.8174292206653 L 846.3489822866787 96.92439992896537 L 846.3168834430736 97.0312308768252 L 846.2824230137255 97.13791138123905 L 846.2456044446487 97.24443077424536 L 846.2064314176694 97.35077840399362 L 846.1649078500576 97.45694363580944 L 846.1210378941356 97.56291585325815 L 846.0748259368622 97.66868445920629 L 846.0262765993949 97.77423887688141 L 845.9753947366269 97.8795685509297 L 845.922185436702 97.98466294847155 L 845.8666540205057 98.08951156015478 L 845.8088060411337 98.19410390120557 L 845.7486472833356 98.29842951247699 L 845.6861837629369 98.40247796149485 L 845.6214217262377 98.50623884350097 L 845.5543676493877 98.60970178249359 L 845.4850282377388 98.71285643226504 L 845.4134104251741 98.81569247743631 L 845.3395213734154 98.91819963448859 L 845.2633684713064 99.02036765279156 L 845.1849593340736 99.12218631562857 L 845.1043018025655 99.22364544121817 L 845.021403942468 99.32473488373233 L 844.9362740434982 99.42544453431107 L 844.8489206185748 99.52576432207324 L 844.7593524029676 99.62568421512367 L 844.6675783534236 99.72519422155631 L 844.573607647271 99.82428439045346 L 844.4774496815025 99.92294481288079 L 844.3791140718345 100.02116562287829 L 844.2786106517456 100.11893699844678 L 844.1759494714945 100.2162491625302 L 844.0711407971135 100.31309238399325 L 843.9641951093826 100.40945697859446 L 843.8551231027816 100.50533330995468 L 843.7439356844203 100.60071179052068 L 843.6306439729477 100.69558288252388 L 843.5152592974408 100.78993709893413 L 843.3977931962708 100.88376500440843 L 843.2782574159498 100.97705721623441 L 843.1566639099566 101.06980440526866 L 843.0330248375402 101.16199729686952 L 842.9073525625048 101.25362667182469 L 842.7796596519734 101.34468336727302 L 842.6499588751303 101.43515827762084 L 842.5182632019454 101.52504235545253 L 842.3845858018761 101.61432661243519 L 842.2489400425512 101.70300212021755 L 842.1113394884334 101.7910600113227 L 841.9717978994635 101.87849148003492 L 841.8303292296841 101.9652877832802 L 841.6869476258444 102.05144024150056 L 841.5416674259852 102.13694023952193 L 841.3945031580054 102.22177922741581 L 841.2454695382092 102.30594872135407 L 841.0945814698343 102.38944030445748 L 840.941854041562 102.47224562763729 L 840.7873025260078 102.5543564104302 L 840.6309423781943 102.63576444182635 L 840.472789234006 102.71646158109044 L 840.3128589086257 102.79643975857579 L 840.1511673949525 102.8756909765313 L 839.9877308620032 102.95420730990122 L 839.8225656532946 103.03198090711763 L 839.6556882852103 103.10900399088564 L 839.4871154453479 103.18526885896105 L 839.3168639908507 103.2607678849206 L 839.1449509467226 103.33549351892461 L 838.9713935041245 103.40943828847196 L 838.7962090186562 103.48259479914732 L 838.6194150086202 103.55495573536056 L 838.4410291532702 103.6265138610784 L 838.2610692910429 103.69726202054787 L 838.0795534177748 103.76719313901197 L 837.8964996849019 103.83630022341715 L 837.7119263976449 103.90457636311257 L 837.5258520131787 103.97201473054113 L 837.3382951387867 104.03860858192229 L 837.1492745300001 104.10435125792642 L 836.9588090887222 104.1692361843407 L 836.7669178613384 104.23325687272656 L 836.5736200368116 104.29640692106851 L 836.378934944763 104.35868001441433 L 836.1828820535399 104.4200699255066 L 835.9854809682677 104.48057051540535 L 835.7867514288906 104.54017573410202 L 835.5867133081969 104.5988796211244 L 835.3853866098319 104.65667630613272 L 835.1827914662979 104.71356000950664 L 834.9789481369401 104.7695250429232 L 834.7738770059218 104.82456580992574 L 834.5675985801851 104.87867680648341 L 834.3601334874007 104.93185262154162 L 834.151502473905 104.98408793756322 L 833.9417264026256 105.0353775310601 L 833.7308262509946 105.08571627311568 L 833.5188231088515 105.13509912989768 L 833.3057381763339 105.1835211631616 L 833.0915927617575 105.23097753074444 L 832.8764082794852 105.27746348704899 L 832.6602062477859 105.32297438351839 L 832.4430082866828 105.36750566910086 L 832.2248361157908 105.41105289070501 L 832.0057115521453 105.45361169364494 L 831.7856565080199 105.49517782207583 L 831.5646929887358 105.53574711941947 L 831.3428430904609 105.57531552877992 L 831.1201289979998 105.61387909334925 L 830.8965729825763 105.65143395680312 L 830.6721973996059 105.68797636368647 L 830.4470246864596 105.72350265978909 L 830.2210773602212 105.75800929251095 L 829.994378015435 105.79149281121755 L 829.7669493218466 105.82394986758491 L 829.5388140221357 105.85537721593445 L 829.3099949296425 105.88577171355752 L 829.0805149260851 105.9151303210297 L 828.8503969592731 105.94345010251467 L 828.619664040811 105.97072822605791 L 828.3883392437987 105.99696196386981 L 828.1564457005228 106.02214869259844 L 827.9240066001447 106.04628589359189 L 827.6910451863806 106.0693711531502 L 827.4575847551777 106.09140216276666 L 827.2236486523847 106.11237671935864 L 826.9892602714167 106.13229272548797 L 826.7544430509167 106.15114818957065 L 826.5192204724111 106.16894122607596 L 826.2836160579615 106.1856700557151 L 826.0476533678132 106.20133300561903 L 825.8113559980385 106.21592850950582 L 825.5747475781775 106.22945510783724 L 825.3378517688749 106.24191144796474 L 825.1006922595144 106.25329628426466 L 824.8632927658492 106.2636084782629 L 824.6256770276308 106.2728469987486 L 824.3878688062351 106.28101092187747 L 824.149891882286 106.28809943126396 L 823.9117700532777 106.29411181806304 L 823.6735271311945 106.29904748104106 L 823.4351869401302 106.30290592663582 L 823.1967733139052 106.30568676900597 L 822.9583100936834 106.30738973006962 L 822.7198211255883 106.30801463953205 L 822.4813302583177 106.30756143490284 L 822.2428613407599 106.3060301615021 L 822.0044382196077 106.30342097245587 L 821.7660847369747 106.29973412868088 L 821.5278247280103 106.29496999885845 L 821.289682018517 106.28912905939758 L 821.0516804225674 106.28221189438736 L 820.8138437401226 106.27421919553852 L 820.5761957546526 106.26515176211427 L 820.3387602307581 106.25501050085043 L 820.1015609117934 106.24379642586464 L 819.864621517493 106.23151065855508 L 819.6279657415987 106.21815442748823 L 819.3916172494909 106.20372906827606 L 819.1555996758218 106.1882360234425 L 818.9199366221522 106.17167684227908 L 818.6846516545911 106.15405318069014 L 818.4497683014391 106.13536680102716 L 818.2153100508358 106.11561957191253 L 817.981300348411 106.09481346805269 L 817.7477625949396 106.0729505700407 L 817.5147201440027 106.05003306414814 L 817.282196299651 106.0260632421065 L 817.0502143140751 106.00104350087803 L 816.8187973852805 105.97497634241597 L 816.587968654767 105.94786437341445 L 816.3577512052154 105.9197103050478 L 816.1281680581789 105.89051695269937 L 815.8992421717805 105.86028723568009 L 815.6709964384186 105.82902417693644 L 815.4434536824759 105.79673090274827 L 815.2166366580386 105.76341064241608 L 814.9905680466202 105.72906672793813 L 814.7652704548932 105.69370259367726 L 814.5407664124291 105.6573217760174 L 814.3170783694452 105.61992791301003 L 814.0942286945593 105.58152474401028 L 813.8722396725532 105.54211610930304 L 813.6511335021441 105.50170594971894 L 813.4309322937647 105.46029830624026 L 813.2116580673526 105.41789731959686 L 812.9933327501474 105.37450722985206 L 812.775978174499 105.33013237597868 L 812.559616075684 105.28477719542511 L 812.3442680897316 105.23844622367163 L 812.1299557512614 105.1911440937768 L 811.9167004913282 105.14287553591419 L 811.7045236352808 105.09364537689936 L 811.4934464006275 105.0434585397072 L 811.2834898949161 104.99232004297959 L 811.0746751136222 104.9402350005236 L 810.8670229380499 104.88720862080007 L 810.6605541332437 104.83324620640276 L 810.4552893459121 104.77835315352817 L 810.2512491023626 104.72253495143585 L 810.0484538064496 104.66579718189945 L 809.8469237375339 104.60814551864868 L 809.6466790484542 104.54958572680184 L 809.4477397635126 104.49012366228926 L 809.2501257764718 104.42976527126788 L 809.0538568485659 104.36851658952648 L 808.8589526065241 104.30638374188221 L 808.6654325406082 104.24337294156805 L 808.4733160026634 104.17949048961154 L 808.2826222041837 104.11474277420461 L 808.0933702143897 104.04913627006486 L 807.9055789583227 103.98267753778805 L 807.7192672149521 103.91537322319199 L 807.5344536152967 103.84723005665208 L 807.3511566405626 103.77825485242818 L 807.1693946202945 103.70845450798322 L 806.9891857305429 103.63783600329349 L 806.8105479920466 103.56640640015061 L 806.6334992684307 103.49417284145538 L 806.4580572644198 103.42114255050346 L 806.2842395240684 103.3473228302631 L 806.1120634290055 103.27272106264479 L 805.9415461966971 103.19734470776314 L 805.7727048787245 103.1212013031908 L 805.6055563590786 103.04429846320481 L 805.4401173524723 102.96664387802507 L 805.276404402668 102.88824531304537 L 805.1144338808248 102.8091106080569 L 804.9542219838595 102.72924767646418 L 804.7957847328283 102.64866450449387 L 804.6391379713245 102.56736915039596 L 804.4842973638937 102.48536974363815 L 804.3312783944673 102.40267448409276 L 804.1800963648151 102.31929164121684 L 804.0307663930138 102.2352295532252 L 803.8833034119363 102.15049662625658 L 803.7377221677577 102.06510133353308 L 803.5940372184813 101.97905221451278 L 803.4522629324821 101.89235787403591 L 803.3124134870707 101.80502698146424 L 803.1745028670749 101.71706826981428 L 803.0385448634419 101.62849053488388 L 802.9045530718588 101.53930263437272 L 802.7725408913931 101.44951348699652 L 802.6425215231527 101.35913207159521 L 802.5145079689662 101.26816742623502 L 802.3885130300823 101.17662864730465 L 802.26454930589 101.08452488860574 L 802.1426291926583 100.9918653604374 L 802.0227648822969 100.89865932867522 L 801.904968361137 100.80491611384473 L 801.7892514087325 100.71064509018925 L 801.6756255966823 100.61585568473262 L 801.5641022874729 100.5205573763364 L 801.4546926333422 100.424759694752 L 801.3474075751645 100.32847221966773 L 801.2422578413563 100.2317045797509 L 801.1392539468033 100.13446645168483 L 801.0384061918089 100.03676755920131 L 800.9397246610648 99.93861767210817 L 800.8432192226419 99.84002660531232 L 800.7488995270035 99.7410042178383 L 800.6567750060404 99.64156041184232 L 800.5668548721283 99.54170513162211 L 800.4791481172053 99.4414483626225 L 800.393663511874 99.34080013043682 L 800.3104096045238 99.23977049980442 L 800.2293947204757 99.13836957360418 L 800.1506269611509 99.03660749184422 L 800.0741142032597 98.9344944306479 L 799.9998640980139 98.83204060123627 L 799.9278840703623 98.72925624890688 L 799.8581813182476 98.6261516520093 L 799.7907628118871 98.52273712091731 L 799.7256352930751 98.41902299699785 L 799.6628052745092 98.31501965157686 L 799.602279039139 98.21073748490224 L 799.5440626395375 98.10618692510373 L 799.4881618972963 98.0013784271502 L 799.4345824024429 97.89632247180411 L 799.383329512882 97.79102956457344 L 799.3344083538602 97.68551023466115 L 799.2878238174524 97.57977503391233 L 799.2435805620735 97.47383453575894 L 799.201683012012 97.3676993341625 L 799.1621353569883 97.2613800425547 L 799.1249415517347 97.15488729277617 L 799.0901053156008 97.04823173401307 L 799.0576301321811 96.94142403173245 L 799.0275192489671 96.8344748666155 L 798.9997756770218 96.72739493348962 L 798.9744021906795 96.6201949402589 L 798.9514013272675 96.51288560683331 L 798.930775386853 96.40547766405678 L 798.9125264320129 96.29798185263407 L 798.8966562876275 96.19040892205675 L 798.883166540698 96.08276962952824 L 798.8720585401877 95.9750747388881 L 798.8633333968877 95.86733501953563 L 798.8569919833047 95.75956124535298 L 798.8530349335751 95.65176419362778 L 798.8514626434004 95.54395464397535" stroke-miterlimit="10" stroke-width="2.7769845610000004" stroke-dasharray=""/></g><g><g/><text fill="black" stroke="none" font-family="sans-serif" font-size="11pt" font-style="normal" font-weight="normal" text-decoration="normal" x="782.7795645654297" y="123.83569119881818" text-anchor="start" dominant-baseline="alphabetic" xml:space="preserve">GameOnDB</text></g></g><g><g><text fill="black" stroke="none" font-family="sans-serif" font-size="16pt" font-style="normal" font-weight="normal" text-decoration="normal" x="289.72281646728516" y="24.651306798181814" text-anchor="start" dominant-baseline="alphabetic" xml:space="preserve">User Settings Sequence Diagram</text></g><g><rect fill="white" stroke="none" x="146.3172643694206" y="161.4066587888182" width="149.7394281775" height="21.23576429"/><text fill="black" stroke="none" font-family="sans-serif" font-size="11pt" font-style="normal" font-weight="normal" text-decoration="normal" x="148.76754486442059" y="176.10834175881817" text-anchor="start" dominant-baseline="alphabetic" xml:space="preserve">Click "Profile Settings"</text></g><g><path fill="none" stroke="black" paint-order="fill stroke markers" d=" M 73.50841485 182.64242307881818 L 355.4162246826745 182.64242307881818" stroke-miterlimit="10" stroke-width="1.3612669416666667" stroke-dasharray=""/><g transform="translate(368.86554206634116,182.64242307881818) translate(-368.86554206634116,-182.64242307881818)"><path fill="black" stroke="none" paint-order="stroke fill markers" d=" M 355.2528726496745 175.83608837048484 L 368.86554206634116 182.64242307881818 L 355.2528726496745 189.44875778715152 Z"/></g></g><g><rect fill="white" stroke="none" x="424.4625156702344" y="207.1452280288182" width="162.97491706910156" height="21.23576429"/><text fill="black" stroke="none" font-family="sans-serif" font-size="11pt" font-style="normal" font-weight="normal" text-decoration="normal" x="426.9127961652344" y="221.84691099881817" text-anchor="start" dominant-baseline="alphabetic" xml:space="preserve">getProfile(discordToken)</text></g><g><path fill="none" stroke="black" paint-order="fill stroke markers" d=" M 368.86554206634116 228.3809923188182 L 629.5850889595625 228.3809923188182" stroke-miterlimit="10" stroke-width="1.3612669416666667" stroke-dasharray=""/><g transform="translate(643.0344063432292,228.3809923188182) translate(-643.0344063432292,-228.3809923188182)"><path fill="black" stroke="none" paint-order="stroke fill markers" d=" M 629.4217369265625 221.57465761048485 L 643.0344063432292 228.3809923188182 L 629.4217369265625 235.18732702715153 Z"/></g></g><g><rect fill="white" stroke="none" x="664.8268221468295" y="252.88379726881823" width="136.0815912634375" height="21.23576429"/><text fill="black" stroke="none" font-family="sans-serif" font-size="11pt" font-style="normal" font-weight="normal" text-decoration="normal" x="667.2771026418295" y="267.5854802388182" text-anchor="start" dominant-baseline="alphabetic" xml:space="preserve">Retrieve user profile</text></g><g><path fill="none" stroke="black" paint-order="fill stroke markers" d=" M 643.0344063432292 274.1195615588182 L 809.2515118302006 274.1195615588182" stroke-miterlimit="10" stroke-width="1.3612669416666667" stroke-dasharray=""/><g transform="translate(822.7008292138672,274.1195615588182) translate(-822.7008292138672,-274.1195615588182)"><path fill="black" stroke="none" paint-order="stroke fill markers" d=" M 809.0881597972005 267.31322685048485 L 822.7008292138672 274.1195615588182 L 809.0881597972005 280.92589626715153 Z"/></g></g><g><rect fill="white" stroke="none" x="443.2098148645703" y="298.6223665088182" width="125.48031868042969" height="21.23576429"/><text fill="black" stroke="none" font-family="sans-serif" font-size="11pt" font-style="normal" font-weight="normal" text-decoration="normal" x="445.66009535957033" y="313.32404947881815" text-anchor="start" dominant-baseline="alphabetic" xml:space="preserve">Return UserProfile</text></g><g><path fill="none" stroke="black" paint-order="fill stroke markers" d=" M 643.0344063432292 319.8581307988182 L 382.3148594500078 319.8581307988182" stroke-miterlimit="10" stroke-width="1.3612669416666667" stroke-dasharray="6.53408132"/><g transform="translate(368.86554206634116,319.8581307988182) translate(-368.86554206634116,-319.8581307988182)"><path fill="black" stroke="none" paint-order="stroke fill markers" d=" M 382.47821148300784 313.05179609048486 L 368.86554206634116 319.8581307988182 L 382.47821148300784 326.66446550715153 Z"/></g></g><g><rect fill="white" stroke="none" x="156.4067419084831" y="344.3609357488182" width="129.560473099375" height="21.23576429"/><text fill="black" stroke="none" font-family="sans-serif" font-size="11pt" font-style="normal" font-weight="normal" text-decoration="normal" x="158.85702240348309" y="359.06261871881816" text-anchor="start" dominant-baseline="alphabetic" xml:space="preserve">Display user profile</text></g><g><path fill="none" stroke="black" paint-order="fill stroke markers" d=" M 368.86554206634116 365.5967000388182 L 86.95773223366666 365.5967000388182" stroke-miterlimit="10" stroke-width="1.3612669416666667" stroke-dasharray=""/><g transform="translate(73.50841485,365.5967000388182) translate(-73.50841485,-365.5967000388182)"><path fill="black" stroke="none" paint-order="stroke fill markers" d=" M 87.12108426666666 358.79036533048486 L 73.50841485 365.5967000388182 L 87.12108426666666 372.40303474715154 Z"/></g></g><g><rect fill="white" stroke="none" x="92.83840542166668" y="434.2045538988182" width="256.6971460730078" height="21.23576429"/><text fill="black" stroke="none" font-family="sans-serif" font-size="11pt" font-style="normal" font-weight="normal" text-decoration="normal" x="95.28868591666668" y="448.90623686881816" text-anchor="start" dominant-baseline="alphabetic" xml:space="preserve">Modify settings (avatar, language, etc.)</text></g><g><path fill="none" stroke="black" paint-order="fill stroke markers" d=" M 73.50841485 455.4403181888182 L 355.4162246826745 455.4403181888182" stroke-miterlimit="10" stroke-width="1.3612669416666667" stroke-dasharray=""/><g transform="translate(368.86554206634116,455.4403181888182) translate(-368.86554206634116,-455.4403181888182)"><path fill="black" stroke="none" paint-order="stroke fill markers" d=" M 355.2528726496745 448.63398348048486 L 368.86554206634116 455.4403181888182 L 355.2528726496745 462.24665289715153 Z"/></g></g><g><rect fill="white" stroke="none" x="172.8025701555534" y="479.9431231388182" width="96.76881660523438" height="21.23576429"/><text fill="black" stroke="none" font-family="sans-serif" font-size="11pt" font-style="normal" font-weight="normal" text-decoration="normal" x="175.2528506505534" y="494.64480610881816" text-anchor="start" dominant-baseline="alphabetic" xml:space="preserve">Click "Submit"</text></g><g><path fill="none" stroke="black" paint-order="fill stroke markers" d=" M 73.50841485 501.1788874288182 L 355.4162246826745 501.1788874288182" stroke-miterlimit="10" stroke-width="1.3612669416666667" stroke-dasharray=""/><g transform="translate(368.86554206634116,501.1788874288182) translate(-368.86554206634116,-501.1788874288182)"><path fill="black" stroke="none" paint-order="stroke fill markers" d=" M 355.2528726496745 494.37255272048486 L 368.86554206634116 501.1788874288182 L 355.2528726496745 507.98522213715154 Z"/></g></g><g><rect fill="white" stroke="none" x="388.1955326380078" y="525.6816923788182" width="235.5088831335547" height="21.23576429"/><text fill="black" stroke="none" font-family="sans-serif" font-size="11pt" font-style="normal" font-weight="normal" text-decoration="normal" x="390.64581313300783" y="540.3833753488182" text-anchor="start" dominant-baseline="alphabetic" xml:space="preserve">updateProfile(discordToken, profile)</text></g><g><path fill="none" stroke="black" paint-order="fill stroke markers" d=" M 368.86554206634116 546.9174566688182 L 629.5850889595625 546.9174566688182" stroke-miterlimit="10" stroke-width="1.3612669416666667" stroke-dasharray=""/><g transform="translate(643.0344063432292,546.9174566688182) translate(-643.0344063432292,-546.9174566688182)"><path fill="black" stroke="none" paint-order="stroke fill markers" d=" M 629.4217369265625 540.1111219604849 L 643.0344063432292 546.9174566688182 L 629.4217369265625 553.7237913771515 Z"/></g></g><g><rect fill="white" stroke="none" x="662.3643969148959" y="571.4202616188181" width="141.0064417273047" height="21.23576429"/><text fill="black" stroke="none" font-family="sans-serif" font-size="11pt" font-style="normal" font-weight="normal" text-decoration="normal" x="664.8146774098959" y="586.1219445888181" text-anchor="start" dominant-baseline="alphabetic" xml:space="preserve">Store updated profile</text></g><g><path fill="none" stroke="black" paint-order="fill stroke markers" d=" M 643.0344063432292 592.6560259088182 L 809.2515118302006 592.6560259088182" stroke-miterlimit="10" stroke-width="1.3612669416666667" stroke-dasharray=""/><g transform="translate(822.7008292138672,592.6560259088182) translate(-822.7008292138672,-592.6560259088182)"><path fill="black" stroke="none" paint-order="stroke fill markers" d=" M 809.0881597972005 585.8496912004848 L 822.7008292138672 592.6560259088182 L 809.0881597972005 599.4623606171515 Z"/></g></g><g><rect fill="white" stroke="none" x="681.1081255525912" y="617.1588308588181" width="103.51898445191406" height="21.23576429"/><text fill="black" stroke="none" font-family="sans-serif" font-size="11pt" font-style="normal" font-weight="normal" text-decoration="normal" x="683.5584060475912" y="631.8605138288181" text-anchor="start" dominant-baseline="alphabetic" xml:space="preserve">Profile updated</text></g><g><path fill="none" stroke="black" paint-order="fill stroke markers" d=" M 822.7008292138672 638.3945951488181 L 656.4837237268958 638.3945951488181" stroke-miterlimit="10" stroke-width="1.3612669416666667" stroke-dasharray="6.53408132"/><g transform="translate(643.0344063432292,638.3945951488181) translate(-643.0344063432292,-638.3945951488181)"><path fill="black" stroke="none" paint-order="stroke fill markers" d=" M 656.6470757598959 631.5882604404848 L 643.0344063432292 638.3945951488181 L 656.6470757598959 645.2009298571514 Z"/></g></g><g><rect fill="white" stroke="none" x="451.3486774744336" y="662.897400098818" width="109.20259346070313" height="21.23576429"/><text fill="black" stroke="none" font-family="sans-serif" font-size="11pt" font-style="normal" font-weight="normal" text-decoration="normal" x="453.7989579694336" y="677.599083068818" text-anchor="start" dominant-baseline="alphabetic" xml:space="preserve">Update success</text></g><g><path fill="none" stroke="black" paint-order="fill stroke markers" d=" M 643.0344063432292 684.133164388818 L 382.3148594500078 684.133164388818" stroke-miterlimit="10" stroke-width="1.3612669416666667" stroke-dasharray="6.53408132"/><g transform="translate(368.86554206634116,684.133164388818) translate(-368.86554206634116,-684.133164388818)"><path fill="black" stroke="none" paint-order="stroke fill markers" d=" M 382.47821148300784 677.3268296804847 L 368.86554206634116 684.133164388818 L 382.47821148300784 690.9394990971514 Z"/></g></g><g><rect fill="white" stroke="none" x="134.40961056082685" y="708.635969338818" width="173.5547357946875" height="21.23576429"/><text fill="black" stroke="none" font-family="sans-serif" font-size="11pt" font-style="normal" font-weight="normal" text-decoration="normal" x="136.85989105582684" y="723.337652308818" text-anchor="start" dominant-baseline="alphabetic" xml:space="preserve">Display success message</text></g><g><path fill="none" stroke="black" paint-order="fill stroke markers" d=" M 368.86554206634116 729.871733628818 L 86.95773223366666 729.871733628818" stroke-miterlimit="10" stroke-width="1.3612669416666667" stroke-dasharray=""/><g transform="translate(73.50841485,729.871733628818) translate(-73.50841485,-729.871733628818)"><path fill="black" stroke="none" paint-order="stroke fill markers" d=" M 87.12108426666666 723.0653989204847 L 73.50841485 729.871733628818 L 87.12108426666666 736.6780683371513 Z"/></g></g><g><rect fill="white" stroke="none" x="148.66157131522138" y="798.479587488818" width="145.05081428589844" height="21.23576429"/><text fill="black" stroke="none" font-family="sans-serif" font-size="11pt" font-style="normal" font-weight="normal" text-decoration="normal" x="151.11185181022137" y="813.181270458818" text-anchor="start" dominant-baseline="alphabetic" xml:space="preserve">Close settings screen</text></g><g><path fill="none" stroke="black" paint-order="fill stroke markers" d=" M 73.50841485 819.715351778818 L 355.4162246826745 819.715351778818" stroke-miterlimit="10" stroke-width="1.3612669416666667" stroke-dasharray=""/><g transform="translate(368.86554206634116,819.715351778818) translate(-368.86554206634116,-819.715351778818)"><path fill="black" stroke="none" paint-order="stroke fill markers" d=" M 355.2528726496745 812.9090170704847 L 368.86554206634116 819.715351778818 L 355.2528726496745 826.5216864871513 Z"/></g></g><g><rect fill="white" stroke="none" x="158.0209005388542" y="844.2181567288179" width="126.33215583863281" height="21.23576429"/><text fill="black" stroke="none" font-family="sans-serif" font-size="11pt" font-style="normal" font-weight="normal" text-decoration="normal" x="160.47118103385418" y="858.9198396988179" text-anchor="start" dominant-baseline="alphabetic" xml:space="preserve">No changes saved</text></g><g><path fill="none" stroke="black" paint-order="fill stroke markers" d=" M 368.86554206634116 865.4539210188179 L 86.95773223366666 865.4539210188179" stroke-miterlimit="10" stroke-width="1.3612669416666667" stroke-dasharray=""/><g transform="translate(73.50841485,865.4539210188179) translate(-73.50841485,-865.4539210188179)"><path fill="black" stroke="none" paint-order="stroke fill markers" d=" M 87.12108426666666 858.6475863104846 L 73.50841485 865.4539210188179 L 87.12108426666666 872.2602557271513 Z"/></g></g><g><g/><path fill="none" stroke="black" paint-order="fill stroke markers" d=" M 16.335203299999996 390.0995049888182 L 879.8740407638672 390.0995049888182 L 879.8740407638672 889.956725968818 L 16.335203299999996 889.956725968818 L 16.335203299999996 390.0995049888182 Z" stroke-miterlimit="10" stroke-width="2.3336004714285714" stroke-dasharray=""/><path fill="white" stroke="black" paint-order="fill stroke markers" d=" M 16.335203299999996 390.0995049888182 L 16.335203299999996 409.7017489488182 L 62.69440689707031 409.7017489488182 L 72.49552887707031 399.9006269688182 L 72.49552887707031 390.0995049888182 L 16.335203299999996 390.0995049888182" stroke-miterlimit="10" stroke-width="2.3336004714285714" stroke-dasharray=""/><text fill="black" stroke="none" font-family="sans-serif" font-size="8.8pt" font-style="normal" font-weight="bold" text-decoration="normal" x="32.67040659999999" y="403.1676676288182" text-anchor="start" dominant-baseline="alphabetic" xml:space="preserve">alt</text><g><rect fill="white" stroke="none" x="86.38045168207032" y="391.4063212528182" width="137.86523689332031" height="16.988611432000003"/></g><text fill="black" stroke="none" font-family="sans-serif" font-size="8.8pt" font-style="normal" font-weight="bold" text-decoration="normal" x="88.83073217707032" y="403.1676676288182" text-anchor="start" dominant-baseline="alphabetic" xml:space="preserve">[User Updates Settings]</text><g><path fill="none" stroke="black" paint-order="fill stroke markers" d=" M 16.335203299999996 754.374538578818 L 879.8740407638672 754.374538578818" stroke-miterlimit="10" stroke-width="2.3336004714285714" stroke-dasharray="4.083800825"/></g><g/><g><rect fill="white" stroke="none" x="86.38045168207032" y="755.681354842818" width="169.03445686402344" height="16.988611432000003"/></g><text fill="black" stroke="none" font-family="sans-serif" font-size="8.8pt" font-style="normal" font-weight="bold" text-decoration="normal" x="88.83073217707032" y="767.442701218818" text-anchor="start" dominant-baseline="alphabetic" xml:space="preserve">[User Closes Without Saving]</text></g><g/></g><g/><g/><g/><g/></g></svg>