<svg xmlns="http://www.w3.org/2000/svg" xmlns:xlink="http://www.w3.org/1999/xlink" version="1.1" width="1515.0750276036458" height="1334.274255728818"><desc>title%20View%20Reports%20Sequence%20Diagram%0A%0Aactor%20Admin%0Aparticipant%20Frontend%0Aparticipant%20AdminManagement%0Aparticipant%20UserManagement%0Adatabase%20GameOnDB%0A%0AAdmin-%3EFrontend%3A%20Click%20%22Reports%22%0AFrontend-%3EAdminManagement%3A%20getReports()%0AAdminManagement-%3EGameOnDB%3A%20Query%20reports%0A%0Aalt%20Reports%20exist%0A%20%20AdminManagement%3C--GameOnDB%3A%20Return%20reports%0A%20%20Frontend%3C--AdminManagement%3A%20Return%20reports%0A%20%20Admin%3C-Frontend%3A%20Display%20reports%20on%20report%20page%0A%20%20%0A%20%20loop%20For%20each%20report%0A%20%20%20%20Admin-%3EFrontend%3A%20Click%20on%20and%20read%20report%0A%20%20%20%20%0A%20%20%20%20alt%20Ban%20user%0A%20%20%20%20%20%20Admin-%3EFrontend%3A%20Click%20%22Ban%20User%22%0A%20%20%20%20%20%20Frontend-%3EAdminManagement%3A%20banUser(discordTokenAdmin%2C%20discordTokenReportee)%0A%20%20%20%20%20%20AdminManagement-%3EUserManagement%3A%20deleteProfile(discordToken)%0A%20%20%20%20%20%20UserManagement-%3EGameOnDB%3A%20Delete%20user%20from%20database%0A%20%20%20%20else%20Acquit%20user%0A%20%20%20%20%20%20Admin-%3EFrontend%3A%20Click%20%22Acquit%20User%22%0A%20%20%20%20%20%20Frontend-%3EAdminManagement%3A%20resolveReport(reportId%2C%20discordTokenAdmin%2C%20discordTokenReportee%2C%20reasoning)%0A%20%20%20%20%20%20AdminManagement-%3EGameOnDB%3A%20Mark%20report%20as%20resolved%0A%20%20%20%20end%0A%20%20%20%20%0A%20%20%20%20break%20No%20reports%20remain%0A%20%20%20%20end%0A%20%20end%0A%20%20%0Aelse%20No%20reports%20exist%0A%20%20AdminManagement%3C--GameOnDB%3A%20Return%20nothing%0A%20%20Frontend%3C--AdminManagement%3A%20Return%20nothing%0A%20%20Admin%3C-Frontend%3A%20Display%20%22No%20reports%22%20on%20report%20page%0Aend</desc><defs/><g><g/><g/><g/><g/><g/><g/><g/><g/><g/><g/><g/><g/><g/><g/><g/><g/><g/><g/><g/><g/><g/><g/><g/><g/><g/><g/><g/><g/><g/><g/><g/><g/><g/><g/><g/><g/><g/><g/><g/><g/><g/><g/><g/><g/><g/><g/><g/><g/><g/><g/><g/><g/><g/><g/><g/><g/><g/><g/><g/><g/><g/><g/><g/><g/><g/><g/><g/><g/><g/><g/><g/><g/><g/><g/><g/><g/><g/><g/><g/><g/><g/><g/><g/><g/><g/><g/><g/><g/><g/><g/><g/><g/><g/><g/><g/><g/><g/><g/><g/><g/><g/><g/><g/><g/><g/><g/><g/><g/><g><rect fill="white" stroke="none" x="0" y="0" width="1515" height="1334"/></g><g/><g><path fill="none" stroke="black" paint-order="fill stroke markers" d=" M 122.51402475 128.73625218881818 L 122.51402475 1334.274255728818" stroke-miterlimit="10" stroke-width="1.3612669416666667" stroke-dasharray="12.565541,5.445067766666667"/><path fill="none" stroke="black" paint-order="fill stroke markers" d=" M 396.4968080942708 128.73625218881818 L 396.4968080942708 1334.274255728818" stroke-miterlimit="10" stroke-width="1.3612669416666667" stroke-dasharray="12.565541,5.445067766666667"/><path fill="none" stroke="black" paint-order="fill stroke markers" d=" M 955.0463791582682 128.73625218881818 L 955.0463791582682 1334.274255728818" stroke-miterlimit="10" stroke-width="1.3612669416666667" stroke-dasharray="12.565541,5.445067766666667"/><path fill="none" stroke="black" paint-order="fill stroke markers" d=" M 1176.2446166041016 128.73625218881818 L 1176.2446166041016 1334.274255728818" stroke-miterlimit="10" stroke-width="1.3612669416666667" stroke-dasharray="12.565541,5.445067766666667"/><path fill="none" stroke="black" paint-order="fill stroke markers" d=" M 1392.5610028536457 128.73625218881818 L 1392.5610028536457 1334.274255728818" stroke-miterlimit="10" stroke-width="1.3612669416666667" stroke-dasharray="12.565541,5.445067766666667"/></g><g><g><path fill="white" stroke="black" paint-order="fill stroke markers" d=" M 131.825090631 59.63834222981819 A 9.311065881 9.311065881 0 1 1 131.82508597546746 59.62903116548903 M 122.51402475 68.9494081108182 L 122.51402475 88.8783561368182 M 110.752678374 76.13689756281819 L 134.275371126 76.13689756281819 M 122.51402475 88.8783561368182 L 110.752678374 107.50048789881819 M 122.51402475 88.8783561368182 L 134.275371126 107.50048789881819" stroke-miterlimit="10" stroke-width="2.7769845610000004" stroke-dasharray=""/></g><g><g/><text fill="black" stroke="none" font-family="sans-serif" font-size="11pt" font-style="normal" font-weight="normal" text-decoration="normal" x="101.73736764550782" y="123.83569119881818" text-anchor="start" dominant-baseline="alphabetic" xml:space="preserve">Admin</text></g><path fill="none" stroke="none"/><g><path fill="white" stroke="black" paint-order="fill stroke markers" d=" M 349.4352524063489 84.63120327881819 L 443.5583637821927 84.63120327881819 L 443.5583637821927 128.73625218881818 L 349.4352524063489 128.73625218881818 L 349.4352524063489 84.63120327881819 Z" stroke-miterlimit="10" stroke-width="2.613632528" stroke-dasharray=""/></g><g><g/><text fill="black" stroke="none" font-family="sans-serif" font-size="11pt" font-style="normal" font-weight="normal" text-decoration="normal" x="367.15894798684894" y="112.40104888881817" text-anchor="start" dominant-baseline="alphabetic" xml:space="preserve">Frontend</text></g><path fill="none" stroke="none"/><g><path fill="white" stroke="black" paint-order="fill stroke markers" d=" M 873.7614958336276 84.63120327881819 L 1036.3312624829089 84.63120327881819 L 1036.3312624829089 128.73625218881818 L 873.7614958336276 128.73625218881818 L 873.7614958336276 84.63120327881819 Z" stroke-miterlimit="10" stroke-width="2.613632528" stroke-dasharray=""/></g><g><g/><text fill="black" stroke="none" font-family="sans-serif" font-size="11pt" font-style="normal" font-weight="normal" text-decoration="normal" x="891.4851914141276" y="112.40104888881817" text-anchor="start" dominant-baseline="alphabetic" xml:space="preserve">AdminManagement</text></g><path fill="none" stroke="none"/><g><path fill="white" stroke="black" paint-order="fill stroke markers" d=" M 1100.2603772003595 84.63120327881819 L 1252.228856007844 84.63120327881819 L 1252.228856007844 128.73625218881818 L 1100.2603772003595 128.73625218881818 L 1100.2603772003595 84.63120327881819 Z" stroke-miterlimit="10" stroke-width="2.613632528" stroke-dasharray=""/></g><g><g/><text fill="black" stroke="none" font-family="sans-serif" font-size="11pt" font-style="normal" font-weight="normal" text-decoration="normal" x="1117.9840727808594" y="112.40104888881817" text-anchor="start" dominant-baseline="alphabetic" xml:space="preserve">UserManagement</text></g><g><path fill="white" stroke="black" paint-order="fill stroke markers" d=" M 1368.7116060356457 96.71925372081819 L 1368.7116060356457 62.41532679081819 L 1416.4103996716458 62.41532679081819 L 1416.4103996716458 96.71925372081819" stroke-miterlimit="10" stroke-width="2.7769845610000004" stroke-dasharray=""/><path fill="white" stroke="black" paint-order="fill stroke markers" d=" M 1416.4103996716458 61.22285694991819 L 1416.4092072117421 61.33066749483481 L 1416.405629951276 61.43846725878678 L 1416.3996682479706 61.546245461887544 L 1416.3913226979914 61.65399132640659 L 1416.3805941358862 61.761694077847274 L 1416.3674836345024 61.86934294602419 L 1416.351992504879 61.976927166140236 L 1416.3341222961164 62.084435979863045 L 1416.3138747952205 62.19185863640084 L 1416.2912520269242 62.299184393577484 L 1416.2662562534858 62.4064025189067 L 1416.238889974462 62.51350229066531 L 1416.2091559264572 62.62047299896537 L 1416.1770570828521 62.7273039468252 L 1416.142596653504 62.83398445123905 L 1416.1057780844271 62.94050384424536 L 1416.066605057448 63.04685147399361 L 1416.025081489836 63.15301670580944 L 1415.9812115339141 63.25898892325815 L 1415.9349995766408 63.364757529206294 L 1415.8864502391734 63.47031194688142 L 1415.8355683764055 63.575641620929716 L 1415.7823590764804 63.68073601847156 L 1415.7268276602842 63.78558463015478 L 1415.6689796809123 63.89017697120557 L 1415.608820923114 63.994502582477 L 1415.5463574027153 64.09855103149486 L 1415.4815953660163 64.20231191350096 L 1415.4145412891662 64.3057748524936 L 1415.3452018775172 64.40892950226505 L 1415.2735840649527 64.51176554743633 L 1415.199695013194 64.61427270448858 L 1415.1235421110848 64.71644072279157 L 1415.045132973852 64.81825938562858 L 1414.964475442344 64.91971851121816 L 1414.8815775822466 65.02080795373233 L 1414.7964476832767 65.12151760431107 L 1414.7090942583534 65.22183739207324 L 1414.6195260427462 65.32175728512367 L 1414.527751993202 65.42126729155632 L 1414.4337812870497 65.52035746045347 L 1414.3376233212812 65.6190178828808 L 1414.2392877116129 65.71723869287828 L 1414.1387842915242 65.81501006844678 L 1414.036123111273 65.91232223253022 L 1413.9313144368919 66.00916545399325 L 1413.824368749161 66.10553004859446 L 1413.7152967425602 66.20140637995469 L 1413.6041093241988 66.29678486052069 L 1413.4908176127262 66.39165595252388 L 1413.3754329372193 66.48601016893414 L 1413.2579668360493 66.57983807440844 L 1413.1384310557285 66.67313028623443 L 1413.016837549735 66.76587747526865 L 1412.8931984773187 66.85807036686953 L 1412.7675262022833 66.94969974182469 L 1412.6398332917518 67.04075643727302 L 1412.510132514909 67.13123134762085 L 1412.378436841724 67.22111542545254 L 1412.2447594416547 67.3103996824352 L 1412.1091136823297 67.39907519021754 L 1411.9715131282119 67.4871330813227 L 1411.831971539242 67.57456455003492 L 1411.6905028694628 67.6613608532802 L 1411.547121265623 67.74751331150055 L 1411.4018410657636 67.83301330952195 L 1411.254676797784 67.91785229741582 L 1411.1056431779878 68.00202179135408 L 1410.954755109613 68.08551337445749 L 1410.8020276813406 68.1683186976373 L 1410.6474761657862 68.25042948043021 L 1410.4911160179727 68.33183751182635 L 1410.3329628737845 68.41253465109044 L 1410.1730325484043 68.4925128285758 L 1410.011341034731 68.5717640465313 L 1409.8479045017816 68.65028037990122 L 1409.6827392930732 68.72805397711764 L 1409.515861924989 68.80507706088565 L 1409.3472890851265 68.88134192896105 L 1409.1770376306292 68.95684095492061 L 1409.005124586501 69.03156658892462 L 1408.8315671439032 69.10551135847197 L 1408.6563826584347 69.17866786914732 L 1408.4795886483987 69.25102880536058 L 1408.3012027930486 69.3225869310784 L 1408.1212429308214 69.39333509054786 L 1407.9397270575532 69.46326620901198 L 1407.7566733246804 69.53237329341717 L 1407.5721000374233 69.60064943311258 L 1407.3860256529572 69.66808780054113 L 1407.1984687785653 69.7346816519223 L 1407.0094481697786 69.80042432792644 L 1406.8189827285007 69.86530925434072 L 1406.6270915011169 69.92932994272657 L 1406.43379367659 69.9924799910685 L 1406.2391085845416 70.05475308441433 L 1406.0430556933184 70.1161429955066 L 1405.8456546080463 70.17664358540536 L 1405.6469250686691 70.23624880410202 L 1405.4468869479754 70.29495269112441 L 1405.2455602496104 70.35274937613272 L 1405.0429651060763 70.40963307950663 L 1404.8391217767187 70.46559811292322 L 1404.6340506457002 70.52063887992576 L 1404.4277722199636 70.57474987648341 L 1404.2203071271792 70.62792569154163 L 1404.0116761136835 70.68016100756323 L 1403.801900042404 70.73145060106012 L 1403.590999890773 70.78178934311569 L 1403.37899674863 70.8311721998977 L 1403.1659118161124 70.8795942331616 L 1402.951766401536 70.92705060074444 L 1402.7365819192637 70.973536557049 L 1402.5203798875646 71.01904745351838 L 1402.3031819264613 71.06357873910088 L 1402.0850097555692 71.10712596070502 L 1401.8658851919238 71.14968476364494 L 1401.6458301477985 71.19125089207583 L 1401.4248666285143 71.23182018941947 L 1401.2030167302394 71.27138859877994 L 1400.9803026377783 71.30995216334925 L 1400.756746622355 71.34750702680313 L 1400.5323710393843 71.38404943368649 L 1400.307198326238 71.4195757297891 L 1400.0812509999996 71.45408236251096 L 1399.8545516552135 71.48756588121756 L 1399.627122961625 71.52002293758491 L 1399.3989876619144 71.55145028593446 L 1399.1701685694209 71.58184478355753 L 1398.9406885658636 71.61120339102969 L 1398.7105705990516 71.63952317251467 L 1398.4798376805895 71.66680129605793 L 1398.2485128835772 71.69303503386982 L 1398.0166193403013 71.71822176259843 L 1397.7841802399232 71.7423589635919 L 1397.5512188261591 71.7654442231502 L 1397.3177583949562 71.78747523276665 L 1397.0838222921632 71.80844978935863 L 1396.8494339111953 71.82836579548797 L 1396.6146166906954 71.84722125957065 L 1396.3793941121896 71.86501429607597 L 1396.14378969774 71.8817431257151 L 1395.9078270075918 71.89740607561903 L 1395.671529637817 71.91200157950583 L 1395.434921217956 71.92552817783725 L 1395.1980254086534 71.93798451796474 L 1394.960865899293 71.94936935426468 L 1394.7234664056277 71.95968154826289 L 1394.4858506674093 71.96892006874862 L 1394.2480424460136 71.97708399187748 L 1394.0100655220647 71.98417250126396 L 1393.7719436930563 71.99018488806304 L 1393.533700770973 71.99512055104105 L 1393.2953605799087 71.99897899663581 L 1393.0569469536836 72.00175983900598 L 1392.818483733462 72.00346280006961 L 1392.5799947653668 72.00408770953204 L 1392.3415038980963 72.00363450490285 L 1392.1030349805385 72.0021032315021 L 1391.8646118593863 71.99949404245586 L 1391.6262583767532 71.9958071986809 L 1391.387998367789 71.99104306885846 L 1391.1498556582956 71.98520212939759 L 1390.9118540623458 71.97828496438737 L 1390.674017379901 71.97029226553852 L 1390.436369394431 71.96122483211428 L 1390.1989338705366 71.95108357085043 L 1389.961734551572 71.93986949586466 L 1389.7247951572715 71.92758372855508 L 1389.488139381377 71.91422749748824 L 1389.2517908892694 71.89980213827607 L 1389.0157733156004 71.8843090934425 L 1388.7801102619308 71.86774991227908 L 1388.5448252943697 71.85012625069015 L 1388.3099419412176 71.83143987102717 L 1388.0754836906144 71.81169264191253 L 1387.8414739881894 71.79088653805269 L 1387.6079362347182 71.7690236400407 L 1387.374893783781 71.74610613414815 L 1387.1423699394295 71.72213631210651 L 1386.9103879538536 71.69711657087802 L 1386.678971025059 71.67104941241597 L 1386.4481422945455 71.64393744341446 L 1386.2179248449938 71.6157833750478 L 1385.9883416979574 71.58659002269937 L 1385.7594158115592 71.55636030568009 L 1385.5311700781972 71.52509724693644 L 1385.3036273222544 71.49280397274828 L 1385.0768102978172 71.45948371241609 L 1384.8507416863986 71.42513979793813 L 1384.6254440946716 71.38977566367726 L 1384.4009400522077 71.35339484601741 L 1384.1772520092238 71.31600098301004 L 1383.9544023343378 71.27759781401028 L 1383.7324133123318 71.23818917930303 L 1383.5113071419225 71.19777901971894 L 1383.2911059335433 71.15637137624027 L 1383.071831707131 71.11397038959687 L 1382.8535063899258 71.07058029985207 L 1382.6361518142776 71.02620544597868 L 1382.4197897154625 70.98085026542512 L 1382.20444172951 70.93451929367163 L 1381.9901293910398 70.8872171637768 L 1381.7768741311068 70.8389486059142 L 1381.5646972750592 70.78971844689937 L 1381.353620040406 70.7395316097072 L 1381.1436635346947 70.6883931129796 L 1380.9348487534007 70.6363080705236 L 1380.7271965778284 70.58328169080006 L 1380.5207277730221 70.52931927640276 L 1380.3154629856906 70.47442622352818 L 1380.111422742141 70.41860802143584 L 1379.9086274462281 70.36187025189946 L 1379.7070973773125 70.3042185886487 L 1379.5068526882326 70.24565879680183 L 1379.3079134032912 70.18619673228926 L 1379.1102994162504 70.12583834126788 L 1378.9140304883445 70.06458965952649 L 1378.7191262463027 70.00245681188221 L 1378.5256061803866 69.93944601156807 L 1378.333489642442 69.87556355961155 L 1378.1427958439622 69.81081584420461 L 1377.9535438541682 69.74520934006487 L 1377.7657525981012 69.67875060778805 L 1377.5794408547306 69.61144629319199 L 1377.3946272550752 69.54330312665208 L 1377.2113302803411 69.47432792242817 L 1377.029568260073 69.40452757798322 L 1376.8493593703213 69.3339090732935 L 1376.670721631825 69.26247947015062 L 1376.4936729082092 69.19024591145539 L 1376.3182309041983 69.11721562050347 L 1376.1444131638468 69.0433959002631 L 1375.972237068784 68.96879413264479 L 1375.8017198364757 68.89341777776313 L 1375.632878518503 68.81727437319081 L 1375.4657299988571 68.74037153320482 L 1375.3002909922507 68.66271694802508 L 1375.1365780424467 68.58431838304537 L 1374.9746075206033 68.5051836780569 L 1374.814395623638 68.4253207464642 L 1374.6559583726068 68.34473757449386 L 1374.4993116111032 68.26344222039596 L 1374.3444710036722 68.18144281363814 L 1374.191452034246 68.09874755409275 L 1374.0402700045936 68.01536471121685 L 1373.8909400327923 67.9313026232252 L 1373.7434770517148 67.84656969625658 L 1373.5978958075364 67.76117440353308 L 1373.4542108582598 67.67512528451279 L 1373.3124365722606 67.5884309440359 L 1373.172587126849 67.50110005146425 L 1373.0346765068534 67.41314133981427 L 1372.8987185032204 67.32456360488388 L 1372.7647267116374 67.23537570437271 L 1372.6327145311716 67.14558655699653 L 1372.5026951629313 67.05520514159522 L 1372.3746816087448 66.96424049623502 L 1372.248686669861 66.87270171730466 L 1372.1247229456685 66.78059795860575 L 1372.0028028324368 66.68793843043741 L 1371.8829385220754 66.59473239867523 L 1371.7651420009154 66.50098918384472 L 1371.649425048511 66.40671816018926 L 1371.535799236461 66.31192875473263 L 1371.4242759272513 66.2166304463364 L 1371.3148662731207 66.120832764752 L 1371.207581214943 66.02454528966774 L 1371.1024314811348 65.92777764975091 L 1370.9994275865818 65.83053952168484 L 1370.8985798315875 65.73284062920132 L 1370.7998983008433 65.63469074210818 L 1370.7033928624205 65.53609967531233 L 1370.6090731667819 65.4370772878383 L 1370.516948645819 65.33763348184232 L 1370.4270285119069 65.23777820162212 L 1370.3393217569837 65.13752143262249 L 1370.2538371516525 65.03687320043682 L 1370.1705832443022 64.93584356980442 L 1370.0895683602544 64.83444264360419 L 1370.0108006009295 64.73268056184422 L 1369.9342878430382 64.63056750064791 L 1369.8600377377925 64.52811367123628 L 1369.7880577101407 64.42532931890689 L 1369.718354958026 64.32222472200931 L 1369.6509364516655 64.21881019091732 L 1369.5858089328535 64.11509606699785 L 1369.5229789142877 64.01109272157687 L 1369.4624526789175 63.90681055490224 L 1369.4042362793161 63.80225999510374 L 1369.3483355370747 63.697451497150205 L 1369.2947560422213 63.59239554180411 L 1369.2435031526607 63.48710263457343 L 1369.1945819936386 63.381583304661156 L 1369.147997457231 63.27584810391234 L 1369.1037542018519 63.16990760575894 L 1369.0618566517905 63.06377240416249 L 1369.0223089967667 62.95745311255472 L 1368.9851151915132 62.85096036277616 L 1368.9502789553792 62.744304804013076 L 1368.9178037719596 62.63749710173245 L 1368.8876928887455 62.530547936615505 L 1368.8599493168003 62.423468003489624 L 1368.8345758304579 62.316268010258895 L 1368.811574967046 62.208958676833305 L 1368.7909490266316 62.10155073405677 L 1368.7727000717914 61.99405492263407 L 1368.756829927406 61.88648199205676 L 1368.7433401804765 61.77884269952825 L 1368.7322321799663 61.6711478088881 L 1368.7235070366662 61.56340808953563 L 1368.7171656230832 61.45563431535299 L 1368.7132085733535 61.34783726362778 L 1368.711636283179 61.24002771397536 L 1368.7124489097869 61.13221644726084 L 1368.7156463719155 61.02441424452105 L 1368.721228349821 60.916631885886424 L 1368.7291942853108 60.808880149503025 L 1368.7395433817976 60.70116981045468 L 1368.7522746043803 60.59351163968555 L 1368.7673866799475 60.48591640292299 L 1368.784878097304 60.378394859601016 L 1368.8047471073228 60.27095776178435 L 1368.8269917231196 60.163615853093255 L 1368.851609720251 60.05637986762915 L 1368.878598636938 59.949260528901206 L 1368.9079557743114 59.84226854875404 L 1368.9396781966818 59.7354146262965 L 1368.9737627318336 59.62870944683179 L 1369.0102059713417 59.52216368078894 L 1369.0490042709125 59.41578798265577 L 1369.0901537507482 59.30959298991343 L 1369.1336502959352 59.203589321972714 L 1369.1794895568553 59.09778757911208 L 1369.2276669496205 58.992198341417634 L 1369.2781776565316 58.88683216772516 L 1369.3310166265603 58.78169959456423 L 1369.3861785758534 58.67681113510454 L 1369.443657988262 58.57217727810464 L 1369.5034491158929 58.46780848686303 L 1369.5655459796828 58.36371519817185 L 1369.6299423699973 58.25990782127324 L 1369.696631847251 58.15639673681838 L 1369.7656077425518 58.053192295829454 L 1369.8368631583676 57.950304818664556 L 1369.9103909692162 57.84774459398567 L 1369.9861838223778 57.745521877729786 L 1370.0642341386304 57.64364689208335 L 1370.144534113007 57.54212982446004 L 1370.2270757155775 57.44098082648201 L 1370.3118506922503 57.340210012964775 L 1370.3988505655982 57.2398274609057 L 1370.4880666357067 57.13984320847635 L 1370.5794899810426 57.040267254018644 L 1370.673111459348 56.94110955504505 L 1370.7689217085533 56.84238002724283 L 1370.866911147713 56.74408854348249 L 1370.9670699779647 56.646244932830506 L 1371.069388183509 56.54885897956639 L 1371.173855532611 56.45194042220433 L 1371.2804615786224 56.35549895251929 L 1371.3891956610278 56.25954421457787 L 1371.5000469065092 56.16408580377391 L 1371.6130042300344 56.06913326586893 L 1371.7280563359654 55.974696096037604 L 1371.8451917191876 55.88078373791821 L 1371.9643986662602 55.7874055826683 L 1372.0856652565876 55.694570968025594 L 1372.208979363612 55.60228917737418 L 1372.3343286560255 55.51056943881623 L 1372.461700599003 55.41942092424918 L 1372.591082455457 55.328852748448504 L 1372.722461287309 55.23887396815633 L 1372.8558239567856 55.14949358117568 L 1372.991157127731 55.0607205254708 L 1373.1284472669408 54.97256367827326 L 1373.2676806455156 54.88503185519433 L 1373.4088433402335 54.79813380934336 L 1373.5519212349427 54.71187823045254 L 1373.6969000219729 54.62627374400786 L 1373.8437652035661 54.541328910386646 L 1373.9925020933267 54.45705222400146 L 1374.1430958176898 54.373452112450714 L 1374.295531317408 54.290536935675895 L 1374.4497933490588 54.20831498512558 L 1374.6058664865675 54.12679448292632 L 1374.7637351227504 54.0459835810604 L 1374.9233834708753 53.965890360550645 L 1375.0847955662405 53.88652283065238 L 1375.2479552677707 53.80788892805245 L 1375.4128462596325 53.72999651607559 L 1375.5794520528634 53.652853383898076 L 1375.747755987023 53.57646724576885 L 1375.9177412318584 53.50084574023808 L 1376.0893907889867 53.42599642939328 L 1376.262687493595 53.35192679810317 L 1376.4376140161576 53.278644253269164 L 1376.6141528641676 53.20615612308466 L 1376.7922863838878 53.13446965630228 L 1376.9719967621143 53.06359202150896 L 1377.1532660279593 52.99353030640911 L 1377.336076054647 52.924291517115876 L 1377.5204085613273 52.85588257745046 L 1377.706245114903 52.78831032824984 L 1377.8935671318734 52.72158152668263 L 1378.0823558801935 52.65570284557336 L 1378.2725924811452 52.590680872735255 L 1378.4642579112274 52.52652211031142 L 1378.6573330040565 52.463232974124615 L 1378.8517984522841 52.40081979303573 L 1379.0476348095276 52.33928880831086 L 1379.2448224923146 52.278646172997206 L 1379.4433417820408 52.21889795130775 L 1379.6431728269426 52.160050118014894 L 1379.8442956440826 52.1021085578529 L 1380.0466901213463 52.045079064929524 L 1380.2503360194544 51.98896734214652 L 1380.4552129739873 51.933779000629414 L 1380.66130049742 51.87951955916637 L 1380.868577981172 51.826194443656306 L 1381.0770246976674 51.77380898656634 L 1381.2866198024085 51.72236842639853 L 1381.4973423360595 51.67187790716602 L 1381.7091712265426 51.622342477878675 L 1381.922085291145 51.57376709203812 L 1382.1360632386381 51.526156607142475 L 1382.3510836714054 51.47951578420055 L 1382.5671250875826 51.43384928725578 L 1382.7841658832083 51.38916168291979 L 1383.0021843543834 51.34545743991578 L 1383.221158699443 51.302740928631636 L 1383.4410670211348 51.261016420682886 L 1383.66188732881 51.220288088485546 L 1383.8835975406216 51.18056000483891 L 1384.1061754857335 51.14183614251822 L 1384.3295989065366 51.10412037387746 L 1384.5538454608748 51.06741647046204 L 1384.7788927242798 51.03172810263173 L 1385.0047181922125 50.99705883919358 L 1385.2312992823145 50.96341214704502 L 1385.4586133366656 50.930791390827245 L 1385.6866376240498 50.899199832588685 L 1385.9153493422282 50.86864063145883 L 1386.1447256202198 50.83911684333235 L 1386.3747435205878 50.81063142056343 L 1386.605380041734 50.78318721167063 L 1386.8366121201984 50.75678696105195 L 1387.0684166329659 50.731433308710464 L 1387.3007703997782 50.70712878999027 L 1387.5336501854524 50.683875835323 L 1387.767032702204 50.66167676998473 L 1388.0008946119756 50.6405338138635 L 1388.2352125287714 50.6204490812373 L 1388.469963020995 50.60142458056266 L 1388.7051226137926 50.583462214273794 L 1388.940667791401 50.566563778592354 L 1389.1765749994986 50.55073096334783 L 1389.4128206475614 50.53596535180856 L 1389.6493811112211 50.52226842052339 L 1389.886232734629 50.50964153917403 L 1390.1233518328195 50.49808597043808 L 1390.360714694081 50.48760286986282 L 1390.5982975823247 50.47819328574954 L 1390.8360767394602 50.46985815904882 L 1391.0740283877694 50.462598323266384 L 1391.3121287322863 50.456414504379765 L 1391.5503539631743 50.45130732076569 L 1391.7886802581093 50.44727728313828 L 1392.0270837846604 50.444324794497916 L 1392.2655407026732 50.44245015009101 L 1392.504027166655 50.44165353738045 L 1392.742519328158 50.44193503602685 L 1392.980993338165 50.443294617880554 L 1393.2194253494733 50.445732146984525 L 1393.4577915190807 50.44924737958788 L 1393.6960680105692 50.45383996417029 L 1393.9342309964875 50.459509441477124 L 1394.1722566607361 50.46625524456538 L 1394.4101212009466 50.474076698860365 L 1394.6478008308634 50.48297302222316 L 1394.8852717827212 50.49294332502887 L 1395.1225103096233 50.50398661025549 L 1395.3594926879143 50.51610177358371 L 1395.596195219554 50.52928760350731 L 1395.8325942344861 50.54354278145426 L 1396.0686660930066 50.55886588191867 L 1396.3043871881264 50.575255372603245 L 1396.539733947932 50.592709614572584 L 1396.7746828379438 50.61122686241703 L 1397.0092103634688 50.630805264427224 L 1397.2432930719494 50.651442862779284 L 1397.4769075553102 50.67313759373059 L 1397.7100304522974 50.695887287826096 L 1397.9426384508154 50.71968967011537 L 1398.1747082902584 50.74454236038002 L 1398.406216763836 50.77044287337172 L 1398.6371407208933 50.797388619060754 L 1398.8674570692276 50.825376902895016 L 1399.0971427773954 50.85440492606945 L 1399.3261748770178 50.88446978580591 L 1399.5545304650755 50.9155684756435 L 1399.7821867062 50.947697885739125 L 1400.0091208349568 50.980854803178566 L 1400.2353101581223 51.01503591229771 L 1400.4607320569523 51.05023779501413 L 1400.6853639894455 51.08645693116888 L 1400.909183492595 51.12368969887854 L 1401.1321681846375 51.16193237489736 L 1401.3542957672896 51.201181134989596 L 1401.5755440279781 51.241432054311964 L 1401.7958908420612 51.28268110780607 L 1402.015314175041 51.32492417060092 L 1402.2337920847676 51.368157018425464 L 1402.4513027236314 51.41237532803093 L 1402.6678243407503 51.45757467762322 L 1402.8833352841427 51.503750547305025 L 1403.097814002894 51.55089831952786 L 1403.3112390493109 51.5990132795538 L 1403.5235890810668 51.64809061592693 L 1403.7348428633354 51.69812542095451 L 1403.9449792709147 51.749112691197745 L 1404.1539772903388 51.801047327972086 L 1404.3618160219798 51.85392413785714 L 1404.5684746821382 51.90773783321599 L 1404.7739326051199 51.962483032723924 L 1404.978169245304 52.01815426190663 L 1405.1811641791962 52.07474595368758 L 1405.382897107473 52.132252448944755 L 1405.583347857009 52.190667997076545 L 1405.7824963828966 52.24998675657682 L 1405.9803227704492 52.310202795619055 L 1406.1768072371929 52.371310092649544 L 1406.3719301348444 52.43330253698949 L 1406.5656719512772 52.49617392944612 L 1406.7580133124707 52.559917982932596 L 1406.9489349844491 52.62452832309667 L 1407.1384178752044 52.68999848895818 L 1407.3264430366053 52.7563219335551 L 1407.5129916662922 52.823492024598224 L 1407.698045109558 52.89150204513444 L 1407.8815848612123 52.960345194218355 L 1408.063592567433 53.03001458759244 L 1408.244050027601 53.10050325837541 L 1408.4229391961208 53.171804157758935 L 1408.6002421842247 53.243910155712484 L 1408.7759412617613 53.31681404169635 L 1408.9500188589698 53.39050852538269 L 1409.122457568235 53.46498623738456 L 1409.29324014583 53.5402397299928 L 1409.4623495136393 53.61626147792087 L 1409.629768760867 53.69304387905734 L 1409.7954811457278 53.770579255226075 L 1409.9594700971215 53.848859852954064 L 1410.1217192162894 53.92787784424677 L 1410.282212278455 54.00762532737092 L 1410.4409332344458 54.08809432764465 L 1410.5978662122984 54.16927679823499 L 1410.7529955188459 54.251164620962534 L 1410.9063056412865 54.33374960711325 L 1411.0577812487363 54.41702349825734 L 1411.2074071937604 54.500977967075094 L 1411.3551685138893 54.58560461818958 L 1411.5010504331137 54.670894989006214 L 1411.6450383633637 54.75684055055899 L 1411.7871179059657 54.84343270836337 L 1411.9272748530846 54.93066280327574 L 1412.0654951891418 55.0185221123593 L 1412.2017650922191 55.107001849756344 L 1412.33607093544 55.196093167566886 L 1412.4683992883317 55.28578715673337 L 1412.5987369181694 55.37607484793163 L 1412.7270707912987 55.46694721246779 L 1412.8533880744394 55.55839516318112 L 1412.977676135968 55.65040955535275 L 1413.0999225471826 55.742981187620146 L 1413.2201150835433 55.83610080289723 L 1413.3382417258968 55.92975908930006 L 1413.4542906616775 56.02394668107806 L 1413.5682502860884 56.11865415955053 L 1413.680109203262 56.213872054048544 L 1413.7898562274 56.30959084286201 L 1413.897480383891 56.405800954191804 L 1414.0029709104094 56.50249276710697 L 1414.1063172579907 56.5996566125068 L 1414.2075090920855 56.69728277408771 L 1414.3065362935954 56.79536148931491 L 1414.4033889598825 56.89388295039859 L 1414.4980574057608 56.99283730527477 L 1414.5905321644648 57.09221465859041 L 1414.6808039885955 57.19200507269298 L 1414.7688638510458 57.29219856862425 L 1414.854702945903 57.39278512711811 L 1414.9383126893288 57.49375468960253 L 1415.0196847204188 57.59509715920541 L 1415.0988109020377 57.69680240176424 L 1415.1756833216332 57.79886024683951 L 1415.2502942920273 57.90126048873177 L 1415.3226363521853 58.003992887502164 L 1415.3927022679616 58.10704716999642 L 1415.4604850328226 58.21041303087217 L 1415.5259778685486 58.31408013362946 L 1415.5891742259105 58.41803811164441 L 1415.650067785325 58.52227656920584 L 1415.7086524574875 58.62678508255487 L 1415.7649223839792 58.731553200927245 L 1415.8188719378545 58.83657044759845 L 1415.8704957242026 58.94182632093131 L 1415.9197885806884 59.04731029542622 L 1415.9667455780668 59.153011822773635 L 1416.0113620206778 59.25892033290889 L 1416.0536334469139 59.36502523506925 L 1416.0935556296677 59.471315918852895 L 1416.1311245767542 59.57778175528004 L 1416.1663365313104 59.684412097855756 L 1416.1991879721697 59.79119628363465 L 1416.2296756142155 59.89812363428712 L 1416.2577964087093 60.005183457167206 L 1416.2835475435948 60.11236504638185 L 1416.3069264437797 60.21965768386144 L 1416.3279307713942 60.327050640431644 L 1416.3465584260223 60.43453317688629 L 1416.3628075449146 60.5420945450613 L 1416.3766765031726 60.6497239889095 L 1416.3881639139117 60.757410745576195 L 1416.397268628401 60.86514404647545 L 1416.403989736176 60.972913118366954 L 1416.4083265651323 61.08070718443333 L 1416.4102786815897 61.188515465357796 M 1416.4103996716458 95.52678387991818 L 1416.4092072117421 95.6345944248348 L 1416.405629951276 95.74239418878678 L 1416.3996682479706 95.85017239188754 L 1416.3913226979914 95.95791825640659 L 1416.3805941358862 96.06562100784727 L 1416.3674836345024 96.1732698760242 L 1416.351992504879 96.28085409614023 L 1416.3341222961164 96.38836290986303 L 1416.3138747952205 96.49578556640084 L 1416.2912520269242 96.60311132357748 L 1416.2662562534858 96.7103294489067 L 1416.238889974462 96.8174292206653 L 1416.2091559264572 96.92439992896537 L 1416.1770570828521 97.0312308768252 L 1416.142596653504 97.13791138123905 L 1416.1057780844271 97.24443077424536 L 1416.066605057448 97.35077840399362 L 1416.025081489836 97.45694363580944 L 1415.9812115339141 97.56291585325815 L 1415.9349995766408 97.66868445920629 L 1415.8864502391734 97.77423887688141 L 1415.8355683764055 97.8795685509297 L 1415.7823590764804 97.98466294847155 L 1415.7268276602842 98.08951156015478 L 1415.6689796809123 98.19410390120557 L 1415.608820923114 98.29842951247699 L 1415.5463574027153 98.40247796149485 L 1415.4815953660163 98.50623884350097 L 1415.4145412891662 98.60970178249359 L 1415.3452018775172 98.71285643226504 L 1415.2735840649527 98.81569247743631 L 1415.199695013194 98.91819963448859 L 1415.1235421110848 99.02036765279156 L 1415.045132973852 99.12218631562857 L 1414.964475442344 99.22364544121817 L 1414.8815775822466 99.32473488373233 L 1414.7964476832767 99.42544453431107 L 1414.7090942583534 99.52576432207324 L 1414.6195260427462 99.62568421512367 L 1414.527751993202 99.72519422155631 L 1414.4337812870497 99.82428439045346 L 1414.3376233212812 99.92294481288079 L 1414.2392877116129 100.02116562287829 L 1414.1387842915242 100.11893699844678 L 1414.036123111273 100.2162491625302 L 1413.9313144368919 100.31309238399325 L 1413.824368749161 100.40945697859446 L 1413.7152967425602 100.50533330995468 L 1413.6041093241988 100.60071179052068 L 1413.4908176127262 100.69558288252388 L 1413.3754329372193 100.78993709893413 L 1413.2579668360493 100.88376500440843 L 1413.1384310557285 100.97705721623441 L 1413.016837549735 101.06980440526866 L 1412.8931984773187 101.16199729686952 L 1412.7675262022833 101.25362667182469 L 1412.6398332917518 101.34468336727302 L 1412.510132514909 101.43515827762084 L 1412.378436841724 101.52504235545253 L 1412.2447594416547 101.61432661243519 L 1412.1091136823297 101.70300212021755 L 1411.9715131282119 101.7910600113227 L 1411.831971539242 101.87849148003492 L 1411.6905028694628 101.9652877832802 L 1411.547121265623 102.05144024150056 L 1411.4018410657636 102.13694023952193 L 1411.254676797784 102.22177922741581 L 1411.1056431779878 102.30594872135407 L 1410.954755109613 102.38944030445748 L 1410.8020276813406 102.47224562763729 L 1410.6474761657862 102.5543564104302 L 1410.4911160179727 102.63576444182635 L 1410.3329628737845 102.71646158109044 L 1410.1730325484043 102.79643975857579 L 1410.011341034731 102.8756909765313 L 1409.8479045017816 102.95420730990122 L 1409.6827392930732 103.03198090711763 L 1409.515861924989 103.10900399088564 L 1409.3472890851265 103.18526885896105 L 1409.1770376306292 103.2607678849206 L 1409.005124586501 103.33549351892461 L 1408.8315671439032 103.40943828847196 L 1408.6563826584347 103.48259479914732 L 1408.4795886483987 103.55495573536056 L 1408.3012027930486 103.6265138610784 L 1408.1212429308214 103.69726202054787 L 1407.9397270575532 103.76719313901197 L 1407.7566733246804 103.83630022341715 L 1407.5721000374233 103.90457636311257 L 1407.3860256529572 103.97201473054113 L 1407.1984687785653 104.03860858192229 L 1407.0094481697786 104.10435125792642 L 1406.8189827285007 104.1692361843407 L 1406.6270915011169 104.23325687272656 L 1406.43379367659 104.29640692106851 L 1406.2391085845416 104.35868001441433 L 1406.0430556933184 104.4200699255066 L 1405.8456546080463 104.48057051540535 L 1405.6469250686691 104.54017573410202 L 1405.4468869479754 104.5988796211244 L 1405.2455602496104 104.65667630613272 L 1405.0429651060763 104.71356000950664 L 1404.8391217767187 104.7695250429232 L 1404.6340506457002 104.82456580992574 L 1404.4277722199636 104.87867680648341 L 1404.2203071271792 104.93185262154162 L 1404.0116761136835 104.98408793756322 L 1403.801900042404 105.0353775310601 L 1403.590999890773 105.08571627311568 L 1403.37899674863 105.13509912989768 L 1403.1659118161124 105.1835211631616 L 1402.951766401536 105.23097753074444 L 1402.7365819192637 105.27746348704899 L 1402.5203798875646 105.32297438351839 L 1402.3031819264613 105.36750566910086 L 1402.0850097555692 105.41105289070501 L 1401.8658851919238 105.45361169364494 L 1401.6458301477985 105.49517782207583 L 1401.4248666285143 105.53574711941947 L 1401.2030167302394 105.57531552877992 L 1400.9803026377783 105.61387909334925 L 1400.756746622355 105.65143395680312 L 1400.5323710393843 105.68797636368647 L 1400.307198326238 105.72350265978909 L 1400.0812509999996 105.75800929251095 L 1399.8545516552135 105.79149281121755 L 1399.627122961625 105.82394986758491 L 1399.3989876619144 105.85537721593445 L 1399.1701685694209 105.88577171355752 L 1398.9406885658636 105.9151303210297 L 1398.7105705990516 105.94345010251467 L 1398.4798376805895 105.97072822605791 L 1398.2485128835772 105.99696196386981 L 1398.0166193403013 106.02214869259844 L 1397.7841802399232 106.04628589359189 L 1397.5512188261591 106.0693711531502 L 1397.3177583949562 106.09140216276666 L 1397.0838222921632 106.11237671935864 L 1396.8494339111953 106.13229272548797 L 1396.6146166906954 106.15114818957065 L 1396.3793941121896 106.16894122607596 L 1396.14378969774 106.1856700557151 L 1395.9078270075918 106.20133300561903 L 1395.671529637817 106.21592850950582 L 1395.434921217956 106.22945510783724 L 1395.1980254086534 106.24191144796474 L 1394.960865899293 106.25329628426466 L 1394.7234664056277 106.2636084782629 L 1394.4858506674093 106.2728469987486 L 1394.2480424460136 106.28101092187747 L 1394.0100655220647 106.28809943126396 L 1393.7719436930563 106.29411181806304 L 1393.533700770973 106.29904748104106 L 1393.2953605799087 106.30290592663582 L 1393.0569469536836 106.30568676900597 L 1392.818483733462 106.30738973006962 L 1392.5799947653668 106.30801463953205 L 1392.3415038980963 106.30756143490284 L 1392.1030349805385 106.3060301615021 L 1391.8646118593863 106.30342097245587 L 1391.6262583767532 106.29973412868088 L 1391.387998367789 106.29496999885845 L 1391.1498556582956 106.28912905939758 L 1390.9118540623458 106.28221189438736 L 1390.674017379901 106.27421919553852 L 1390.436369394431 106.26515176211427 L 1390.1989338705366 106.25501050085043 L 1389.961734551572 106.24379642586464 L 1389.7247951572715 106.23151065855508 L 1389.488139381377 106.21815442748823 L 1389.2517908892694 106.20372906827606 L 1389.0157733156004 106.1882360234425 L 1388.7801102619308 106.17167684227908 L 1388.5448252943697 106.15405318069014 L 1388.3099419412176 106.13536680102716 L 1388.0754836906144 106.11561957191253 L 1387.8414739881894 106.09481346805269 L 1387.6079362347182 106.0729505700407 L 1387.374893783781 106.05003306414814 L 1387.1423699394295 106.0260632421065 L 1386.9103879538536 106.00104350087803 L 1386.678971025059 105.97497634241597 L 1386.4481422945455 105.94786437341445 L 1386.2179248449938 105.9197103050478 L 1385.9883416979574 105.89051695269937 L 1385.7594158115592 105.86028723568009 L 1385.5311700781972 105.82902417693644 L 1385.3036273222544 105.79673090274827 L 1385.0768102978172 105.76341064241608 L 1384.8507416863986 105.72906672793813 L 1384.6254440946716 105.69370259367726 L 1384.4009400522077 105.6573217760174 L 1384.1772520092238 105.61992791301003 L 1383.9544023343378 105.58152474401028 L 1383.7324133123318 105.54211610930304 L 1383.5113071419225 105.50170594971894 L 1383.2911059335433 105.46029830624026 L 1383.071831707131 105.41789731959686 L 1382.8535063899258 105.37450722985206 L 1382.6361518142776 105.33013237597868 L 1382.4197897154625 105.28477719542511 L 1382.20444172951 105.23844622367163 L 1381.9901293910398 105.1911440937768 L 1381.7768741311068 105.14287553591419 L 1381.5646972750592 105.09364537689936 L 1381.353620040406 105.0434585397072 L 1381.1436635346947 104.99232004297959 L 1380.9348487534007 104.9402350005236 L 1380.7271965778284 104.88720862080007 L 1380.5207277730221 104.83324620640276 L 1380.3154629856906 104.77835315352817 L 1380.111422742141 104.72253495143585 L 1379.9086274462281 104.66579718189945 L 1379.7070973773125 104.60814551864868 L 1379.5068526882326 104.54958572680184 L 1379.3079134032912 104.49012366228926 L 1379.1102994162504 104.42976527126788 L 1378.9140304883445 104.36851658952648 L 1378.7191262463027 104.30638374188221 L 1378.5256061803866 104.24337294156805 L 1378.333489642442 104.17949048961154 L 1378.1427958439622 104.11474277420461 L 1377.9535438541682 104.04913627006486 L 1377.7657525981012 103.98267753778805 L 1377.5794408547306 103.91537322319199 L 1377.3946272550752 103.84723005665208 L 1377.2113302803411 103.77825485242818 L 1377.029568260073 103.70845450798322 L 1376.8493593703213 103.63783600329349 L 1376.670721631825 103.56640640015061 L 1376.4936729082092 103.49417284145538 L 1376.3182309041983 103.42114255050346 L 1376.1444131638468 103.3473228302631 L 1375.972237068784 103.27272106264479 L 1375.8017198364757 103.19734470776314 L 1375.632878518503 103.1212013031908 L 1375.4657299988571 103.04429846320481 L 1375.3002909922507 102.96664387802507 L 1375.1365780424467 102.88824531304537 L 1374.9746075206033 102.8091106080569 L 1374.814395623638 102.72924767646418 L 1374.6559583726068 102.64866450449387 L 1374.4993116111032 102.56736915039596 L 1374.3444710036722 102.48536974363815 L 1374.191452034246 102.40267448409276 L 1374.0402700045936 102.31929164121684 L 1373.8909400327923 102.2352295532252 L 1373.7434770517148 102.15049662625658 L 1373.5978958075364 102.06510133353308 L 1373.4542108582598 101.97905221451278 L 1373.3124365722606 101.89235787403591 L 1373.172587126849 101.80502698146424 L 1373.0346765068534 101.71706826981428 L 1372.8987185032204 101.62849053488388 L 1372.7647267116374 101.53930263437272 L 1372.6327145311716 101.44951348699652 L 1372.5026951629313 101.35913207159521 L 1372.3746816087448 101.26816742623502 L 1372.248686669861 101.17662864730465 L 1372.1247229456685 101.08452488860574 L 1372.0028028324368 100.9918653604374 L 1371.8829385220754 100.89865932867522 L 1371.7651420009154 100.80491611384473 L 1371.649425048511 100.71064509018925 L 1371.535799236461 100.61585568473262 L 1371.4242759272513 100.5205573763364 L 1371.3148662731207 100.424759694752 L 1371.207581214943 100.32847221966773 L 1371.1024314811348 100.2317045797509 L 1370.9994275865818 100.13446645168483 L 1370.8985798315875 100.03676755920131 L 1370.7998983008433 99.93861767210817 L 1370.7033928624205 99.84002660531232 L 1370.6090731667819 99.7410042178383 L 1370.516948645819 99.64156041184232 L 1370.4270285119069 99.54170513162211 L 1370.3393217569837 99.4414483626225 L 1370.2538371516525 99.34080013043682 L 1370.1705832443022 99.23977049980442 L 1370.0895683602544 99.13836957360418 L 1370.0108006009295 99.03660749184422 L 1369.9342878430382 98.9344944306479 L 1369.8600377377925 98.83204060123627 L 1369.7880577101407 98.72925624890688 L 1369.718354958026 98.6261516520093 L 1369.6509364516655 98.52273712091731 L 1369.5858089328535 98.41902299699785 L 1369.5229789142877 98.31501965157686 L 1369.4624526789175 98.21073748490224 L 1369.4042362793161 98.10618692510373 L 1369.3483355370747 98.0013784271502 L 1369.2947560422213 97.89632247180411 L 1369.2435031526607 97.79102956457344 L 1369.1945819936386 97.68551023466115 L 1369.147997457231 97.57977503391233 L 1369.1037542018519 97.47383453575894 L 1369.0618566517905 97.3676993341625 L 1369.0223089967667 97.2613800425547 L 1368.9851151915132 97.15488729277617 L 1368.9502789553792 97.04823173401307 L 1368.9178037719596 96.94142403173245 L 1368.8876928887455 96.8344748666155 L 1368.8599493168003 96.72739493348962 L 1368.8345758304579 96.6201949402589 L 1368.811574967046 96.51288560683331 L 1368.7909490266316 96.40547766405678 L 1368.7727000717914 96.29798185263407 L 1368.756829927406 96.19040892205675 L 1368.7433401804765 96.08276962952824 L 1368.7322321799663 95.9750747388881 L 1368.7235070366662 95.86733501953563 L 1368.7171656230832 95.75956124535298 L 1368.7132085733535 95.65176419362778 L 1368.711636283179 95.54395464397535" stroke-miterlimit="10" stroke-width="2.7769845610000004" stroke-dasharray=""/></g><g><g/><text fill="black" stroke="none" font-family="sans-serif" font-size="11pt" font-style="normal" font-weight="normal" text-decoration="normal" x="1352.6397382052082" y="123.83569119881818" text-anchor="start" dominant-baseline="alphabetic" xml:space="preserve">GameOnDB</text></g></g><g><g><text fill="black" stroke="none" font-family="sans-serif" font-size="16pt" font-style="normal" font-weight="normal" text-decoration="normal" x="600.009147644043" y="24.651306798181814" text-anchor="start" dominant-baseline="alphabetic" xml:space="preserve">View Reports Sequence Diagram</text></g><g><rect fill="white" stroke="none" x="208.26846905701828" y="161.4066587888182" width="102.47389473023438" height="21.23576429"/><text fill="black" stroke="none" font-family="sans-serif" font-size="11pt" font-style="normal" font-weight="normal" text-decoration="normal" x="210.71874955201827" y="176.10834175881817" text-anchor="start" dominant-baseline="alphabetic" xml:space="preserve">Click "Reports"</text></g><g><path fill="none" stroke="black" paint-order="fill stroke markers" d=" M 122.51402475 182.64242307881818 L 383.04749071060417 182.64242307881818" stroke-miterlimit="10" stroke-width="1.3612669416666667" stroke-dasharray=""/><g transform="translate(396.4968080942708,182.64242307881818) translate(-396.4968080942708,-182.64242307881818)"><path fill="black" stroke="none" paint-order="stroke fill markers" d=" M 382.88413867760414 175.83608837048484 L 396.4968080942708 182.64242307881818 L 382.88413867760414 189.44875778715152 Z"/></g></g><g><rect fill="white" stroke="none" x="632.5840389613477" y="207.1452280288182" width="86.37510932984375" height="21.23576429"/><text fill="black" stroke="none" font-family="sans-serif" font-size="11pt" font-style="normal" font-weight="normal" text-decoration="normal" x="635.0343194563477" y="221.84691099881817" text-anchor="start" dominant-baseline="alphabetic" xml:space="preserve">getReports()</text></g><g><path fill="none" stroke="black" paint-order="fill stroke markers" d=" M 396.4968080942708 228.3809923188182 L 941.5970617746016 228.3809923188182" stroke-miterlimit="10" stroke-width="1.3612669416666667" stroke-dasharray=""/><g transform="translate(955.0463791582682,228.3809923188182) translate(-955.0463791582682,-228.3809923188182)"><path fill="black" stroke="none" paint-order="stroke fill markers" d=" M 941.4337097416015 221.57465761048485 L 955.0463791582682 228.3809923188182 L 941.4337097416015 235.18732702715153 Z"/></g></g><g><rect fill="white" stroke="none" x="1126.543123035371" y="252.88379726881823" width="94.52113594117188" height="21.23576429"/><text fill="black" stroke="none" font-family="sans-serif" font-size="11pt" font-style="normal" font-weight="normal" text-decoration="normal" x="1128.993403530371" y="267.5854802388182" text-anchor="start" dominant-baseline="alphabetic" xml:space="preserve">Query reports</text></g><g><path fill="none" stroke="black" paint-order="fill stroke markers" d=" M 955.0463791582682 274.1195615588182 L 1379.111685469979 274.1195615588182" stroke-miterlimit="10" stroke-width="1.3612669416666667" stroke-dasharray=""/><g transform="translate(1392.5610028536457,274.1195615588182) translate(-1392.5610028536457,-274.1195615588182)"><path fill="black" stroke="none" paint-order="stroke fill markers" d=" M 1378.948333436979 267.31322685048485 L 1392.5610028536457 274.1195615588182 L 1378.948333436979 280.92589626715153 Z"/></g></g><g><rect fill="white" stroke="none" x="1124.503038196504" y="342.72741541881817" width="98.60130561890625" height="21.23576429"/><text fill="black" stroke="none" font-family="sans-serif" font-size="11pt" font-style="normal" font-weight="normal" text-decoration="normal" x="1126.953318691504" y="357.42909838881815" text-anchor="start" dominant-baseline="alphabetic" xml:space="preserve">Return reports</text></g><g><path fill="none" stroke="black" paint-order="fill stroke markers" d=" M 1392.5610028536457 363.9631797088182 L 968.4956965419349 363.9631797088182" stroke-miterlimit="10" stroke-width="1.3612669416666667" stroke-dasharray="6.53408132"/><g transform="translate(955.0463791582682,363.9631797088182) translate(-955.0463791582682,-363.9631797088182)"><path fill="black" stroke="none" paint-order="stroke fill markers" d=" M 968.6590485749349 357.15684500048485 L 955.0463791582682 363.9631797088182 L 968.6590485749349 370.7695144171515 Z"/></g></g><g><rect fill="white" stroke="none" x="626.4709408168164" y="388.4659846588182" width="98.60130561890625" height="21.23576429"/><text fill="black" stroke="none" font-family="sans-serif" font-size="11pt" font-style="normal" font-weight="normal" text-decoration="normal" x="628.9212213118165" y="403.16766762881815" text-anchor="start" dominant-baseline="alphabetic" xml:space="preserve">Return reports</text></g><g><path fill="none" stroke="black" paint-order="fill stroke markers" d=" M 955.0463791582682 409.7017489488182 L 409.94612547793747 409.7017489488182" stroke-miterlimit="10" stroke-width="1.3612669416666667" stroke-dasharray="6.53408132"/><g transform="translate(396.4968080942708,409.7017489488182) translate(-396.4968080942708,-409.7017489488182)"><path fill="black" stroke="none" paint-order="stroke fill markers" d=" M 410.1094775109375 402.89541424048485 L 396.4968080942708 409.7017489488182 L 410.1094775109375 416.50808365715153 Z"/></g></g><g><rect fill="white" stroke="none" x="158.45461102479172" y="434.2045538988182" width="202.1016107946875" height="21.23576429"/><text fill="black" stroke="none" font-family="sans-serif" font-size="11pt" font-style="normal" font-weight="normal" text-decoration="normal" x="160.9048915197917" y="448.90623686881816" text-anchor="start" dominant-baseline="alphabetic" xml:space="preserve">Display reports on report page</text></g><g><path fill="none" stroke="black" paint-order="fill stroke markers" d=" M 396.4968080942708 455.4403181888182 L 135.96334213366669 455.4403181888182" stroke-miterlimit="10" stroke-width="1.3612669416666667" stroke-dasharray=""/><g transform="translate(122.51402475,455.4403181888182) translate(-122.51402475,-455.4403181888182)"><path fill="black" stroke="none" paint-order="stroke fill markers" d=" M 136.12669416666668 448.63398348048486 L 122.51402475 455.4403181888182 L 136.12669416666668 462.24665289715153 Z"/></g></g><g><rect fill="white" stroke="none" x="178.8268262957878" y="524.0481720488182" width="161.35718025269531" height="21.23576429"/><text fill="black" stroke="none" font-family="sans-serif" font-size="11pt" font-style="normal" font-weight="normal" text-decoration="normal" x="181.2771067907878" y="538.7498550188182" text-anchor="start" dominant-baseline="alphabetic" xml:space="preserve">Click on and read report</text></g><g><path fill="none" stroke="black" paint-order="fill stroke markers" d=" M 122.51402475 545.2839363388182 L 383.04749071060417 545.2839363388182" stroke-miterlimit="10" stroke-width="1.3612669416666667" stroke-dasharray=""/><g transform="translate(396.4968080942708,545.2839363388182) translate(-396.4968080942708,-545.2839363388182)"><path fill="black" stroke="none" paint-order="stroke fill markers" d=" M 382.88413867760414 538.4776016304849 L 396.4968080942708 545.2839363388182 L 382.88413867760414 552.0902710471515 Z"/></g></g><g><rect fill="white" stroke="none" x="203.37942334168625" y="613.8917901988182" width="112.25198616089844" height="21.23576429"/><text fill="black" stroke="none" font-family="sans-serif" font-size="11pt" font-style="normal" font-weight="normal" text-decoration="normal" x="205.82970383668624" y="628.5934731688182" text-anchor="start" dominant-baseline="alphabetic" xml:space="preserve">Click "Ban User"</text></g><g><path fill="none" stroke="black" paint-order="fill stroke markers" d=" M 122.51402475 635.1275544888182 L 383.04749071060417 635.1275544888182" stroke-miterlimit="10" stroke-width="1.3612669416666667" stroke-dasharray=""/><g transform="translate(396.4968080942708,635.1275544888182) translate(-396.4968080942708,-635.1275544888182)"><path fill="black" stroke="none" paint-order="stroke fill markers" d=" M 382.88413867760414 628.3212197804849 L 396.4968080942708 635.1275544888182 L 382.88413867760414 641.9338891971515 Z"/></g></g><g><rect fill="white" stroke="none" x="499.35216640275394" y="659.6303594388181" width="352.8388544470312" height="21.23576429"/><text fill="black" stroke="none" font-family="sans-serif" font-size="11pt" font-style="normal" font-weight="normal" text-decoration="normal" x="501.80244689775395" y="674.3320424088181" text-anchor="start" dominant-baseline="alphabetic" xml:space="preserve">banUser(discordTokenAdmin, discordTokenReportee)</text></g><g><path fill="none" stroke="black" paint-order="fill stroke markers" d=" M 396.4968080942708 680.8661237288181 L 941.5970617746016 680.8661237288181" stroke-miterlimit="10" stroke-width="1.3612669416666667" stroke-dasharray=""/><g transform="translate(955.0463791582682,680.8661237288181) translate(-955.0463791582682,-680.8661237288181)"><path fill="black" stroke="none" paint-order="stroke fill markers" d=" M 941.4337097416015 674.0597890204848 L 955.0463791582682 680.8661237288181 L 941.4337097416015 687.6724584371515 Z"/></g></g><g><rect fill="white" stroke="none" x="974.3763697299348" y="705.3689286788181" width="182.5382563025" height="21.23576429"/><text fill="black" stroke="none" font-family="sans-serif" font-size="11pt" font-style="normal" font-weight="normal" text-decoration="normal" x="976.8266502249348" y="720.070611648818" text-anchor="start" dominant-baseline="alphabetic" xml:space="preserve">deleteProfile(discordToken)</text></g><g><path fill="none" stroke="black" paint-order="fill stroke markers" d=" M 955.0463791582682 726.6046929688181 L 1162.7952992204348 726.6046929688181" stroke-miterlimit="10" stroke-width="1.3612669416666667" stroke-dasharray=""/><g transform="translate(1176.2446166041016,726.6046929688181) translate(-1176.2446166041016,-726.6046929688181)"><path fill="black" stroke="none" paint-order="stroke fill markers" d=" M 1162.631947187435 719.7983582604847 L 1176.2446166041016 726.6046929688181 L 1162.631947187435 733.4110276771514 Z"/></g></g><g><rect fill="white" stroke="none" x="1195.5746071757683" y="751.107497918818" width="177.65640510621094" height="21.23576429"/><text fill="black" stroke="none" font-family="sans-serif" font-size="11pt" font-style="normal" font-weight="normal" text-decoration="normal" x="1198.0248876707683" y="765.809180888818" text-anchor="start" dominant-baseline="alphabetic" xml:space="preserve">Delete user from database</text></g><g><path fill="none" stroke="black" paint-order="fill stroke markers" d=" M 1176.2446166041016 772.343262208818 L 1379.111685469979 772.343262208818" stroke-miterlimit="10" stroke-width="1.3612669416666667" stroke-dasharray=""/><g transform="translate(1392.5610028536457,772.343262208818) translate(-1392.5610028536457,-772.343262208818)"><path fill="black" stroke="none" paint-order="stroke fill markers" d=" M 1378.948333436979 765.5369275004847 L 1392.5610028536457 772.343262208818 L 1378.948333436979 779.1495969171514 Z"/></g></g><g><rect fill="white" stroke="none" x="196.04943676942062" y="840.951116068818" width="126.91195930542969" height="21.23576429"/><text fill="black" stroke="none" font-family="sans-serif" font-size="11pt" font-style="normal" font-weight="normal" text-decoration="normal" x="198.4997172644206" y="855.652799038818" text-anchor="start" dominant-baseline="alphabetic" xml:space="preserve">Click "Acquit User"</text></g><g><path fill="none" stroke="black" paint-order="fill stroke markers" d=" M 122.51402475 862.186880358818 L 383.04749071060417 862.186880358818" stroke-miterlimit="10" stroke-width="1.3612669416666667" stroke-dasharray=""/><g transform="translate(396.4968080942708,862.186880358818) translate(-396.4968080942708,-862.186880358818)"><path fill="black" stroke="none" paint-order="stroke fill markers" d=" M 382.88413867760414 855.3805456504847 L 396.4968080942708 862.186880358818 L 382.88413867760414 868.9932150671514 Z"/></g></g><g><rect fill="white" stroke="none" x="415.82679866593753" y="886.689685308818" width="519.889574661875" height="21.23576429"/><text fill="black" stroke="none" font-family="sans-serif" font-size="11pt" font-style="normal" font-weight="normal" text-decoration="normal" x="418.27707916093755" y="901.3913682788179" text-anchor="start" dominant-baseline="alphabetic" xml:space="preserve">resolveReport(reportId, discordTokenAdmin, discordTokenReportee, reasoning)</text></g><g><path fill="none" stroke="black" paint-order="fill stroke markers" d=" M 396.4968080942708 907.925449598818 L 941.5970617746016 907.925449598818" stroke-miterlimit="10" stroke-width="1.3612669416666667" stroke-dasharray=""/><g transform="translate(955.0463791582682,907.925449598818) translate(-955.0463791582682,-907.925449598818)"><path fill="black" stroke="none" paint-order="stroke fill markers" d=" M 941.4337097416015 901.1191148904846 L 955.0463791582682 907.925449598818 L 941.4337097416015 914.7317843071513 Z"/></g></g><g><rect fill="white" stroke="none" x="1094.3598954963086" y="932.4282545488179" width="158.88759101929688" height="21.23576429"/><text fill="black" stroke="none" font-family="sans-serif" font-size="11pt" font-style="normal" font-weight="normal" text-decoration="normal" x="1096.8101759913086" y="947.1299375188179" text-anchor="start" dominant-baseline="alphabetic" xml:space="preserve">Mark report as resolved</text></g><g><path fill="none" stroke="black" paint-order="fill stroke markers" d=" M 955.0463791582682 953.6640188388179 L 1379.111685469979 953.6640188388179" stroke-miterlimit="10" stroke-width="1.3612669416666667" stroke-dasharray=""/><g transform="translate(1392.5610028536457,953.6640188388179) translate(-1392.5610028536457,-953.6640188388179)"><path fill="black" stroke="none" paint-order="stroke fill markers" d=" M 1378.948333436979 946.8576841304846 L 1392.5610028536457 953.6640188388179 L 1378.948333436979 960.4703535471513 Z"/></g></g><g><rect fill="white" stroke="none" x="1123.2682435798047" y="1139.885336458818" width="101.07089485230469" height="21.23576429"/><text fill="black" stroke="none" font-family="sans-serif" font-size="11pt" font-style="normal" font-weight="normal" text-decoration="normal" x="1125.7185240748047" y="1154.5870194288182" text-anchor="start" dominant-baseline="alphabetic" xml:space="preserve">Return nothing</text></g><g><path fill="none" stroke="black" paint-order="fill stroke markers" d=" M 1392.5610028536457 1161.121100748818 L 968.4956965419349 1161.121100748818" stroke-miterlimit="10" stroke-width="1.3612669416666667" stroke-dasharray="6.53408132"/><g transform="translate(955.0463791582682,1161.121100748818) translate(-955.0463791582682,-1161.121100748818)"><path fill="black" stroke="none" paint-order="stroke fill markers" d=" M 968.6590485749349 1154.3147660404848 L 955.0463791582682 1161.121100748818 L 968.6590485749349 1167.9274354571512 Z"/></g></g><g><rect fill="white" stroke="none" x="625.2361462001172" y="1185.6239056988181" width="101.07089485230469" height="21.23576429"/><text fill="black" stroke="none" font-family="sans-serif" font-size="11pt" font-style="normal" font-weight="normal" text-decoration="normal" x="627.6864266951172" y="1200.3255886688182" text-anchor="start" dominant-baseline="alphabetic" xml:space="preserve">Return nothing</text></g><g><path fill="none" stroke="black" paint-order="fill stroke markers" d=" M 955.0463791582682 1206.859669988818 L 409.94612547793747 1206.859669988818" stroke-miterlimit="10" stroke-width="1.3612669416666667" stroke-dasharray="6.53408132"/><g transform="translate(396.4968080942708,1206.859669988818) translate(-396.4968080942708,-1206.859669988818)"><path fill="black" stroke="none" paint-order="stroke fill markers" d=" M 410.1094775109375 1200.0533352804848 L 396.4968080942708 1206.859669988818 L 410.1094775109375 1213.6660046971513 Z"/></g></g><g><rect fill="white" stroke="none" x="141.84401532166672" y="1231.3624749388182" width="235.3228022009375" height="21.23576429"/><text fill="black" stroke="none" font-family="sans-serif" font-size="11pt" font-style="normal" font-weight="normal" text-decoration="normal" x="144.2942958166667" y="1246.0641579088183" text-anchor="start" dominant-baseline="alphabetic" xml:space="preserve">Display "No reports" on report page</text></g><g><path fill="none" stroke="black" paint-order="fill stroke markers" d=" M 396.4968080942708 1252.598239228818 L 135.96334213366669 1252.598239228818" stroke-miterlimit="10" stroke-width="1.3612669416666667" stroke-dasharray=""/><g transform="translate(122.51402475,1252.598239228818) translate(-122.51402475,-1252.598239228818)"><path fill="black" stroke="none" paint-order="stroke fill markers" d=" M 136.12669416666668 1245.7919045204849 L 122.51402475 1252.598239228818 L 136.12669416666668 1259.4045739371513 Z"/></g></g><g><g/><path fill="none" stroke="black" paint-order="fill stroke markers" d=" M 16.335203300000003 298.6223665088182 L 1498.7398243036457 298.6223665088182 L 1498.7398243036457 1277.101044178818 L 16.335203300000003 1277.101044178818 L 16.335203300000003 298.6223665088182 Z" stroke-miterlimit="10" stroke-width="2.3336004714285714" stroke-dasharray=""/><path fill="white" stroke="black" paint-order="fill stroke markers" d=" M 16.335203300000003 298.6223665088182 L 16.335203300000003 318.2246104688182 L 62.694406897070316 318.2246104688182 L 72.49552887707031 308.4234884888182 L 72.49552887707031 298.6223665088182 L 16.335203300000003 298.6223665088182" stroke-miterlimit="10" stroke-width="2.3336004714285714" stroke-dasharray=""/><text fill="black" stroke="none" font-family="sans-serif" font-size="8.8pt" font-style="normal" font-weight="bold" text-decoration="normal" x="32.67040660000001" y="311.6905291488182" text-anchor="start" dominant-baseline="alphabetic" xml:space="preserve">alt</text><g><rect fill="white" stroke="none" x="86.38045168207032" y="299.9291827728182" width="87.02765144410156" height="16.988611432000003"/></g><text fill="black" stroke="none" font-family="sans-serif" font-size="8.8pt" font-style="normal" font-weight="bold" text-decoration="normal" x="88.83073217707032" y="311.6905291488182" text-anchor="start" dominant-baseline="alphabetic" xml:space="preserve">[Reports exist]</text><g><path fill="none" stroke="black" paint-order="fill stroke markers" d=" M 16.335203300000003 1095.780287548818 L 1498.7398243036457 1095.780287548818" stroke-miterlimit="10" stroke-width="2.3336004714285714" stroke-dasharray="4.083800825"/></g><g/><g><rect fill="white" stroke="none" x="86.38045168207032" y="1097.087103812818" width="102.01658882203125" height="16.988611432000003"/></g><text fill="black" stroke="none" font-family="sans-serif" font-size="8.8pt" font-style="normal" font-weight="bold" text-decoration="normal" x="88.83073217707032" y="1108.8484501888179" text-anchor="start" dominant-baseline="alphabetic" xml:space="preserve">[No reports exist]</text></g><g><g/><path fill="none" stroke="black" paint-order="fill stroke markers" d=" M 32.67040660000001 479.9431231388182 L 1482.4046210036458 479.9431231388182 L 1482.4046210036458 1071.2774825988179 L 32.67040660000001 1071.2774825988179 L 32.67040660000001 479.9431231388182 Z" stroke-miterlimit="10" stroke-width="2.3336004714285714" stroke-dasharray=""/><path fill="white" stroke="black" paint-order="fill stroke markers" d=" M 32.67040660000001 479.9431231388182 L 32.67040660000001 499.5453670988182 L 90.09520773125001 499.5453670988182 L 99.89632971125002 489.7442451188182 L 99.89632971125002 479.9431231388182 L 32.67040660000001 479.9431231388182" stroke-miterlimit="10" stroke-width="2.3336004714285714" stroke-dasharray=""/><text fill="black" stroke="none" font-family="sans-serif" font-size="8.8pt" font-style="normal" font-weight="bold" text-decoration="normal" x="49.00560990000001" y="493.0112857788182" text-anchor="start" dominant-baseline="alphabetic" xml:space="preserve">loop</text><g><rect fill="white" stroke="none" x="113.78125251625002" y="481.2499394028182" width="98.75189460816406" height="16.988611432000003"/></g><text fill="black" stroke="none" font-family="sans-serif" font-size="8.8pt" font-style="normal" font-weight="bold" text-decoration="normal" x="116.23153301125002" y="493.0112857788182" text-anchor="start" dominant-baseline="alphabetic" xml:space="preserve">[For each report]</text></g><g><g/><path fill="none" stroke="black" paint-order="fill stroke markers" d=" M 65.34081320000001 569.7867412888182 L 1449.7342144036456 569.7867412888182 L 1449.7342144036456 978.166823788818 L 65.34081320000001 978.166823788818 L 65.34081320000001 569.7867412888182 Z" stroke-miterlimit="10" stroke-width="2.3336004714285714" stroke-dasharray=""/><path fill="white" stroke="black" paint-order="fill stroke markers" d=" M 65.34081320000001 569.7867412888182 L 65.34081320000001 589.3889852488182 L 111.70001679707033 589.3889852488182 L 121.50113877707034 579.5878632688182 L 121.50113877707034 569.7867412888182 L 65.34081320000001 569.7867412888182" stroke-miterlimit="10" stroke-width="2.3336004714285714" stroke-dasharray=""/><text fill="black" stroke="none" font-family="sans-serif" font-size="8.8pt" font-style="normal" font-weight="bold" text-decoration="normal" x="81.67601650000002" y="582.8549039288182" text-anchor="start" dominant-baseline="alphabetic" xml:space="preserve">alt</text><g><rect fill="white" stroke="none" x="135.38606158207034" y="571.0935575528182" width="62.90901435914063" height="16.988611432000003"/></g><text fill="black" stroke="none" font-family="sans-serif" font-size="8.8pt" font-style="normal" font-weight="bold" text-decoration="normal" x="137.83634207707033" y="582.8549039288182" text-anchor="start" dominant-baseline="alphabetic" xml:space="preserve">[Ban user]</text><g><path fill="none" stroke="black" paint-order="fill stroke markers" d=" M 65.34081320000001 796.8460671588181 L 1449.7342144036456 796.8460671588181" stroke-miterlimit="10" stroke-width="2.3336004714285714" stroke-dasharray="4.083800825"/></g><g/><g><rect fill="white" stroke="none" x="135.38606158207034" y="798.152883422818" width="77.23929084839844" height="16.988611432000003"/></g><text fill="black" stroke="none" font-family="sans-serif" font-size="8.8pt" font-style="normal" font-weight="bold" text-decoration="normal" x="137.83634207707033" y="809.914229798818" text-anchor="start" dominant-baseline="alphabetic" xml:space="preserve">[Acquit user]</text></g><g/><g><g/><path fill="none" stroke="black" paint-order="fill stroke markers" d=" M 49.00560990000001 1002.669628738818 L 1466.0694177036457 1002.669628738818 L 1466.0694177036457 1046.774677648818 L 49.00560990000001 1046.774677648818 L 49.00560990000001 1002.669628738818 Z" stroke-miterlimit="10" stroke-width="2.3336004714285714" stroke-dasharray=""/><path fill="white" stroke="black" paint-order="fill stroke markers" d=" M 49.00560990000001 1002.669628738818 L 49.00560990000001 1022.271872698818 L 112.97699611425782 1022.271872698818 L 122.77811809425782 1012.470750718818 L 122.77811809425782 1002.669628738818 L 49.00560990000001 1002.669628738818" stroke-miterlimit="10" stroke-width="2.3336004714285714" stroke-dasharray=""/><text fill="black" stroke="none" font-family="sans-serif" font-size="8.8pt" font-style="normal" font-weight="bold" text-decoration="normal" x="65.34081320000001" y="1015.737791378818" text-anchor="start" dominant-baseline="alphabetic" xml:space="preserve">break</text><g><rect fill="white" stroke="none" x="136.66304089925782" y="1003.976445002818" width="113.74656929078125" height="16.988611432000003"/></g><text fill="black" stroke="none" font-family="sans-serif" font-size="8.8pt" font-style="normal" font-weight="bold" text-decoration="normal" x="139.1133213942578" y="1015.737791378818" text-anchor="start" dominant-baseline="alphabetic" xml:space="preserve">[No reports remain]</text></g><g/></g><g/><g/><g/><g/><g/></g></svg>