<svg xmlns="http://www.w3.org/2000/svg" xmlns:xlink="http://www.w3.org/1999/xlink" version="1.1" width="969.5375085373959" height="1334.274255728818"><desc>title%20View%20Reports%20Sequence%20Diagram%0A%0Aactor%20Admin%0Aparticipant%20Frontend%0Aparticipant%20AdminManagement%0Aparticipant%20UserManagement%0Adatabase%20GameOnDB%0A%0AAdmin-%3EFrontend%3A%20Click%20%22Reports%22%0AFrontend-%3EAdminManagement%3A%20getReports()%0AAdminManagement-%3EGameOnDB%3A%20Query%20reports%0A%0Aalt%20Reports%20exist%0A%20%20AdminManagement%3C--GameOnDB%3AReturn%20reports%0A%20%20Frontend%3C-AdminManagement%3A%20Return%20reports%0A%20%20Admin%3C-Frontend%3A%20Display%20reports%20on%20report%20page%0A%20%20%0A%20%20loop%20%0A%20%20%20%20Admin-%3EFrontend%3A%20Click%20on%20and%20read%20report%0A%20%20%0A%20%20%20%20alt%20Ban%20user%0A%20%20%20%20%20%20Admin-%3EFrontend%3A%20Click%20%22Ban%20User%22%0A%20%20%20%20%20%20Frontend-%3EAdminManagement%3A%20banUser()%0A%20%20%20%20%20%20AdminManagement-%3EUserManagement%3AdeleteProfile()%0A%20%20%20%20%20%20UserManagement-%3EGameOnDB%3A%20Delete%20user%0A%20%20%20%20else%20Acquit%20user%0A%20%20%20%20%20%20Admin-%3EFrontend%3A%20Click%20%22Acquit%20User%22%0A%20%20%20%20%20%20Frontend-%3EAdminManagement%3A%20resolveReport()%0A%20%20%20%20%20%20AdminManagement-%3EGameOnDB%3A%20Mark%20report%20as%20resolved%0A%20%20%20%20end%0A%20%20%20%20%0A%20%20%20%20break%20No%20reports%20remain%0A%20%20%20%20end%0A%20%20end%0A%20%20%0Aelse%20No%20reports%20exist%0A%20%20AdminManagement%3C--GameOnDB%3A%20Return%20nothing%0A%20%20Frontend%3C-AdminManagement%3A%20Return%20nothing%0A%20%20Admin%3C-Frontend%3A%20Display%20%22No%20reports%22%20on%20report%20page%0Aend</desc><defs/><g><g/><g/><g/><g/><g/><g/><g/><g/><g/><g/><g/><g/><g/><g/><g/><g/><g/><g/><g/><g/><g/><g/><g/><g/><g/><g/><g/><g/><g/><g/><g/><g/><g/><g/><g/><g/><g/><g/><g/><g/><g/><g/><g/><g/><g/><g/><g/><g/><g/><g/><g/><g/><g/><g/><g/><g/><g/><g/><g/><g/><g/><g/><g/><g/><g/><g/><g/><g/><g/><g/><g/><g/><g/><g/><g/><g/><g/><g/><g/><g/><g/><g/><g/><g/><g/><g/><g/><g/><g/><g/><g/><g/><g/><g/><g/><g/><g><rect fill="white" stroke="none" x="0" y="0" width="969" height="1334"/></g><g/><g><path fill="none" stroke="black" paint-order="fill stroke markers" d=" M 122.51402475 128.73625218881818 L 122.51402475 1334.274255728818" stroke-miterlimit="10" stroke-width="1.3612669416666667" stroke-dasharray="12.565541,5.445067766666667"/><path fill="none" stroke="black" paint-order="fill stroke markers" d=" M 396.4968080942708 128.73625218881818 L 396.4968080942708 1334.274255728818" stroke-miterlimit="10" stroke-width="1.3612669416666667" stroke-dasharray="12.565541,5.445067766666667"/><path fill="none" stroke="black" paint-order="fill stroke markers" d=" M 541.1784504068333 128.73625218881818 L 541.1784504068333 1334.274255728818" stroke-miterlimit="10" stroke-width="1.3612669416666667" stroke-dasharray="12.565541,5.445067766666667"/><path fill="none" stroke="black" paint-order="fill stroke markers" d=" M 714.7827764352162 128.73625218881818 L 714.7827764352162 1334.274255728818" stroke-miterlimit="10" stroke-width="1.3612669416666667" stroke-dasharray="12.565541,5.445067766666667"/><path fill="none" stroke="black" paint-order="fill stroke markers" d=" M 847.0234837873959 128.73625218881818 L 847.0234837873959 1334.274255728818" stroke-miterlimit="10" stroke-width="1.3612669416666667" stroke-dasharray="12.565541,5.445067766666667"/></g><g><g><path fill="white" stroke="black" paint-order="fill stroke markers" d=" M 131.825090631 59.63834222981819 A 9.311065881 9.311065881 0 1 1 131.82508597546746 59.62903116548903 M 122.51402475 68.9494081108182 L 122.51402475 88.8783561368182 M 110.752678374 76.13689756281819 L 134.275371126 76.13689756281819 M 122.51402475 88.8783561368182 L 110.752678374 107.50048789881819 M 122.51402475 88.8783561368182 L 134.275371126 107.50048789881819" stroke-miterlimit="10" stroke-width="2.7769845610000004" stroke-dasharray=""/></g><g><g/><text fill="black" stroke="none" font-family="sans-serif" font-size="11pt" font-style="normal" font-weight="normal" text-decoration="normal" x="101.73736764550782" y="123.83569119881818" text-anchor="start" dominant-baseline="alphabetic" xml:space="preserve">Admin</text></g><path fill="none" stroke="none"/><g><path fill="white" stroke="black" paint-order="fill stroke markers" d=" M 349.4352524063489 84.63120327881819 L 443.5583637821927 84.63120327881819 L 443.5583637821927 128.73625218881818 L 349.4352524063489 128.73625218881818 L 349.4352524063489 84.63120327881819 Z" stroke-miterlimit="10" stroke-width="2.613632528" stroke-dasharray=""/></g><g><g/><text fill="black" stroke="none" font-family="sans-serif" font-size="11pt" font-style="normal" font-weight="normal" text-decoration="normal" x="367.15894798684894" y="112.40104888881817" text-anchor="start" dominant-baseline="alphabetic" xml:space="preserve">Frontend</text></g><path fill="none" stroke="none"/><g><path fill="white" stroke="black" paint-order="fill stroke markers" d=" M 459.8935670821927 84.63120327881819 L 622.463333731474 84.63120327881819 L 622.463333731474 128.73625218881818 L 459.8935670821927 128.73625218881818 L 459.8935670821927 84.63120327881819 Z" stroke-miterlimit="10" stroke-width="2.613632528" stroke-dasharray=""/></g><g><g/><text fill="black" stroke="none" font-family="sans-serif" font-size="11pt" font-style="normal" font-weight="normal" text-decoration="normal" x="477.6172626626927" y="112.40104888881817" text-anchor="start" dominant-baseline="alphabetic" xml:space="preserve">AdminManagement</text></g><path fill="none" stroke="none"/><g><path fill="white" stroke="black" paint-order="fill stroke markers" d=" M 638.798537031474 84.63120327881819 L 790.7670158389584 84.63120327881819 L 790.7670158389584 128.73625218881818 L 638.798537031474 128.73625218881818 L 638.798537031474 84.63120327881819 Z" stroke-miterlimit="10" stroke-width="2.613632528" stroke-dasharray=""/></g><g><g/><text fill="black" stroke="none" font-family="sans-serif" font-size="11pt" font-style="normal" font-weight="normal" text-decoration="normal" x="656.522232611974" y="112.40104888881817" text-anchor="start" dominant-baseline="alphabetic" xml:space="preserve">UserManagement</text></g><g><path fill="white" stroke="black" paint-order="fill stroke markers" d=" M 823.174086969396 96.71925372081819 L 823.174086969396 62.41532679081819 L 870.8728806053958 62.41532679081819 L 870.8728806053958 96.71925372081819" stroke-miterlimit="10" stroke-width="2.7769845610000004" stroke-dasharray=""/><path fill="white" stroke="black" paint-order="fill stroke markers" d=" M 870.8728806053958 61.22285694991819 L 870.8716881454922 61.33066749483481 L 870.8681108850261 61.43846725878678 L 870.8621491817208 61.546245461887544 L 870.8538036317415 61.65399132640659 L 870.8430750696363 61.761694077847274 L 870.8299645682524 61.86934294602419 L 870.8144734386292 61.976927166140236 L 870.7966032298666 62.084435979863045 L 870.7763557289705 62.19185863640084 L 870.7537329606744 62.299184393577484 L 870.728737187236 62.4064025189067 L 870.701370908212 62.51350229066531 L 870.6716368602074 62.62047299896537 L 870.6395380166023 62.7273039468252 L 870.6050775872542 62.83398445123905 L 870.5682590181774 62.94050384424536 L 870.529085991198 63.04685147399361 L 870.4875624235863 63.15301670580944 L 870.4436924676643 63.25898892325815 L 870.3974805103909 63.364757529206294 L 870.3489311729236 63.47031194688142 L 870.2980493101555 63.575641620929716 L 870.2448400102306 63.68073601847156 L 870.1893085940344 63.78558463015478 L 870.1314606146624 63.89017697120557 L 870.0713018568642 63.994502582477 L 870.0088383364656 64.09855103149486 L 869.9440762997664 64.20231191350096 L 869.8770222229164 64.3057748524936 L 869.8076828112675 64.40892950226505 L 869.7360649987028 64.51176554743633 L 869.6621759469441 64.61427270448858 L 869.5860230448351 64.71644072279157 L 869.5076139076023 64.81825938562858 L 869.4269563760942 64.91971851121816 L 869.3440585159967 65.02080795373233 L 869.2589286170269 65.12151760431107 L 869.1715751921034 65.22183739207324 L 869.0820069764962 65.32175728512367 L 868.9902329269522 65.42126729155632 L 868.8962622207998 65.52035746045347 L 868.8001042550312 65.6190178828808 L 868.7017686453631 65.71723869287828 L 868.6012652252743 65.81501006844678 L 868.4986040450232 65.91232223253022 L 868.3937953706421 66.00916545399325 L 868.2868496829112 66.10553004859446 L 868.1777776763103 66.20140637995469 L 868.066590257949 66.29678486052069 L 867.9532985464764 66.39165595252388 L 867.8379138709695 66.48601016893414 L 867.7204477697994 66.57983807440844 L 867.6009119894785 66.67313028623443 L 867.4793184834853 66.76587747526865 L 867.3556794110689 66.85807036686953 L 867.2300071360335 66.94969974182469 L 867.102314225502 67.04075643727302 L 866.972613448659 67.13123134762085 L 866.840917775474 67.22111542545254 L 866.7072403754048 67.3103996824352 L 866.5715946160799 67.39907519021754 L 866.433994061962 67.4871330813227 L 866.2944524729921 67.57456455003492 L 866.1529838032128 67.6613608532802 L 866.009602199373 67.74751331150055 L 865.8643219995139 67.83301330952195 L 865.717157731534 67.91785229741582 L 865.5681241117379 68.00202179135408 L 865.417236043363 68.08551337445749 L 865.2645086150907 68.1683186976373 L 865.1099570995364 68.25042948043021 L 864.953596951723 68.33183751182635 L 864.7954438075346 68.41253465109044 L 864.6355134821544 68.4925128285758 L 864.4738219684812 68.5717640465313 L 864.3103854355319 68.65028037990122 L 864.1452202268233 68.72805397711764 L 863.978342858739 68.80507706088565 L 863.8097700188765 68.88134192896105 L 863.6395185643794 68.95684095492061 L 863.4676055202513 69.03156658892462 L 863.2940480776532 69.10551135847197 L 863.1188635921849 69.17866786914732 L 862.9420695821489 69.25102880536058 L 862.7636837267988 69.3225869310784 L 862.5837238645715 69.39333509054786 L 862.4022079913035 69.46326620901198 L 862.2191542584305 69.53237329341717 L 862.0345809711736 69.60064943311258 L 861.8485065867073 69.66808780054113 L 861.6609497123154 69.7346816519223 L 861.4719291035287 69.80042432792644 L 861.2814636622509 69.86530925434072 L 861.089572434867 69.92932994272657 L 860.8962746103402 69.9924799910685 L 860.7015895182917 70.05475308441433 L 860.5055366270685 70.1161429955066 L 860.3081355417963 70.17664358540536 L 860.1094060024193 70.23624880410202 L 859.9093678817255 70.29495269112441 L 859.7080411833606 70.35274937613272 L 859.5054460398266 70.40963307950663 L 859.3016027104687 70.46559811292322 L 859.0965315794505 70.52063887992576 L 858.8902531537137 70.57474987648341 L 858.6827880609294 70.62792569154163 L 858.4741570474337 70.68016100756323 L 858.2643809761543 70.73145060106012 L 858.0534808245233 70.78178934311569 L 857.8414776823802 70.8311721998977 L 857.6283927498625 70.8795942331616 L 857.4142473352862 70.92705060074444 L 857.1990628530139 70.973536557049 L 856.9828608213146 71.01904745351838 L 856.7656628602115 71.06357873910088 L 856.5474906893195 71.10712596070502 L 856.3283661256739 71.14968476364494 L 856.1083110815485 71.19125089207583 L 855.8873475622645 71.23182018941947 L 855.6654976639895 71.27138859877994 L 855.4427835715285 71.30995216334925 L 855.219227556105 71.34750702680313 L 854.9948519731346 71.38404943368649 L 854.7696792599883 71.4195757297891 L 854.5437319337499 71.45408236251096 L 854.3170325889637 71.48756588121756 L 854.0896038953753 71.52002293758491 L 853.8614685956644 71.55145028593446 L 853.6326495031711 71.58184478355753 L 853.4031694996138 71.61120339102969 L 853.1730515328018 71.63952317251467 L 852.9423186143397 71.66680129605793 L 852.7109938173273 71.69303503386982 L 852.4791002740515 71.71822176259843 L 852.2466611736734 71.7423589635919 L 852.0136997599093 71.7654442231502 L 851.7802393287063 71.78747523276665 L 851.5463032259133 71.80844978935863 L 851.3119148449454 71.82836579548797 L 851.0770976244454 71.84722125957065 L 850.8418750459398 71.86501429607597 L 850.6062706314901 71.8817431257151 L 850.3703079413418 71.89740607561903 L 850.1340105715672 71.91200157950583 L 849.8974021517062 71.92552817783725 L 849.6605063424036 71.93798451796474 L 849.4233468330431 71.94936935426468 L 849.1859473393779 71.95968154826289 L 848.9483316011595 71.96892006874862 L 848.7105233797638 71.97708399187748 L 848.4725464558147 71.98417250126396 L 848.2344246268063 71.99018488806304 L 847.9961817047232 71.99512055104105 L 847.7578415136588 71.99897899663581 L 847.5194278874338 72.00175983900598 L 847.2809646672121 72.00346280006961 L 847.042475699117 72.00408770953204 L 846.8039848318464 72.00363450490285 L 846.5655159142885 72.0021032315021 L 846.3270927931363 71.99949404245586 L 846.0887393105033 71.9958071986809 L 845.8504793015389 71.99104306885846 L 845.6123365920457 71.98520212939759 L 845.3743349960961 71.97828496438737 L 845.1364983136513 71.97029226553852 L 844.8988503281813 71.96122483211428 L 844.6614148042868 71.95108357085043 L 844.4242154853221 71.93986949586466 L 844.1872760910217 71.92758372855508 L 843.9506203151274 71.91422749748824 L 843.7142718230195 71.89980213827607 L 843.4782542493505 71.8843090934425 L 843.2425911956809 71.86774991227908 L 843.0073062281198 71.85012625069015 L 842.7724228749678 71.83143987102717 L 842.5379646243645 71.81169264191253 L 842.3039549219396 71.79088653805269 L 842.0704171684682 71.7690236400407 L 841.8373747175314 71.74610613414815 L 841.6048508731797 71.72213631210651 L 841.3728688876038 71.69711657087802 L 841.1414519588092 71.67104941241597 L 840.9106232282957 71.64393744341446 L 840.6804057787441 71.6157833750478 L 840.4508226317075 71.58659002269937 L 840.2218967453092 71.55636030568009 L 839.9936510119472 71.52509724693644 L 839.7661082560046 71.49280397274828 L 839.5392912315673 71.45948371241609 L 839.3132226201488 71.42513979793813 L 839.0879250284219 71.38977566367726 L 838.8634209859578 71.35339484601741 L 838.6397329429739 71.31600098301004 L 838.416883268088 71.27759781401028 L 838.1948942460818 71.23818917930303 L 837.9737880756728 71.19777901971894 L 837.7535868672934 71.15637137624027 L 837.5343126408812 71.11397038959687 L 837.315987323676 71.07058029985207 L 837.0986327480276 71.02620544597868 L 836.8822706492126 70.98085026542512 L 836.6669226632603 70.93451929367163 L 836.45261032479 70.8872171637768 L 836.2393550648569 70.8389486059142 L 836.0271782088095 70.78971844689937 L 835.8161009741561 70.7395316097072 L 835.6061444684448 70.6883931129796 L 835.3973296871509 70.6363080705236 L 835.1896775115786 70.58328169080006 L 834.9832087067724 70.52931927640276 L 834.7779439194408 70.47442622352818 L 834.5739036758913 70.41860802143584 L 834.3711083799783 70.36187025189946 L 834.1695783110625 70.3042185886487 L 833.9693336219829 70.24565879680183 L 833.7703943370412 70.18619673228926 L 833.5727803500005 70.12583834126788 L 833.3765114220946 70.06458965952649 L 833.1816071800528 70.00245681188221 L 832.9880871141369 69.93944601156807 L 832.7959705761921 69.87556355961155 L 832.6052767777123 69.81081584420461 L 832.4160247879183 69.74520934006487 L 832.2282335318514 69.67875060778805 L 832.0419217884807 69.61144629319199 L 831.8571081888254 69.54330312665208 L 831.6738112140913 69.47432792242817 L 831.492049193823 69.40452757798322 L 831.3118403040716 69.3339090732935 L 831.1332025655753 69.26247947015062 L 830.9561538419593 69.19024591145539 L 830.7807118379485 69.11721562050347 L 830.6068940975971 69.0433959002631 L 830.4347180025342 68.96879413264479 L 830.2642007702258 68.89341777776313 L 830.0953594522532 68.81727437319081 L 829.9282109326073 68.74037153320482 L 829.7627719260009 68.66271694802508 L 829.5990589761967 68.58431838304537 L 829.4370884543534 68.5051836780569 L 829.2768765573882 68.4253207464642 L 829.118439306357 68.34473757449386 L 828.9617925448532 68.26344222039596 L 828.8069519374224 68.18144281363814 L 828.6539329679961 68.09874755409275 L 828.5027509383438 68.01536471121685 L 828.3534209665424 67.9313026232252 L 828.2059579854649 67.84656969625658 L 828.0603767412864 67.76117440353308 L 827.9166917920099 67.67512528451279 L 827.7749175060108 67.5884309440359 L 827.6350680605993 67.50110005146425 L 827.4971574406036 67.41314133981427 L 827.3611994369705 67.32456360488388 L 827.2272076453875 67.23537570437271 L 827.0951954649217 67.14558655699653 L 826.9651760966814 67.05520514159522 L 826.8371625424949 66.96424049623502 L 826.711167603611 66.87270171730466 L 826.5872038794187 66.78059795860575 L 826.465283766187 66.68793843043741 L 826.3454194558255 66.59473239867523 L 826.2276229346656 66.50098918384472 L 826.1119059822612 66.40671816018926 L 825.9982801702109 66.31192875473263 L 825.8867568610016 66.2166304463364 L 825.7773472068709 66.120832764752 L 825.6700621486932 66.02454528966774 L 825.5649124148849 65.92777764975091 L 825.4619085203319 65.83053952168484 L 825.3610607653376 65.73284062920132 L 825.2623792345935 65.63469074210818 L 825.1658737961706 65.53609967531233 L 825.0715541005321 65.4370772878383 L 824.9794295795691 65.33763348184232 L 824.8895094456569 65.23777820162212 L 824.801802690734 65.13752143262249 L 824.7163180854027 65.03687320043682 L 824.6330641780525 64.93584356980442 L 824.5520492940044 64.83444264360419 L 824.4732815346796 64.73268056184422 L 824.3967687767883 64.63056750064791 L 824.3225186715425 64.52811367123628 L 824.250538643891 64.42532931890689 L 824.1808358917763 64.32222472200931 L 824.1134173854158 64.21881019091732 L 824.0482898666038 64.11509606699785 L 823.9854598480379 64.01109272157687 L 823.9249336126677 63.90681055490224 L 823.8667172130662 63.80225999510374 L 823.810816470825 63.697451497150205 L 823.7572369759715 63.59239554180411 L 823.7059840864107 63.48710263457343 L 823.6570629273889 63.381583304661156 L 823.610478390981 63.27584810391234 L 823.5662351356021 63.16990760575894 L 823.5243375855407 63.06377240416249 L 823.484789930517 62.95745311255472 L 823.4475961252633 62.85096036277616 L 823.4127598891295 62.744304804013076 L 823.3802847057098 62.63749710173245 L 823.3501738224958 62.530547936615505 L 823.3224302505505 62.423468003489624 L 823.2970567642082 62.316268010258895 L 823.2740559007962 62.208958676833305 L 823.2534299603817 62.10155073405677 L 823.2351810055416 61.99405492263407 L 823.2193108611561 61.88648199205676 L 823.2058211142266 61.77884269952825 L 823.1947131137164 61.6711478088881 L 823.1859879704164 61.56340808953563 L 823.1796465568334 61.45563431535299 L 823.1756895071038 61.34783726362778 L 823.1741172169291 61.24002771397536 L 823.174929843537 61.13221644726084 L 823.1781273056656 61.02441424452105 L 823.1837092835713 60.916631885886424 L 823.1916752190609 60.808880149503025 L 823.2020243155476 60.70116981045468 L 823.2147555381305 60.59351163968555 L 823.2298676136976 60.48591640292299 L 823.2473590310542 60.378394859601016 L 823.2672280410729 60.27095776178435 L 823.2894726568696 60.163615853093255 L 823.3140906540011 60.05637986762915 L 823.3410795706881 59.949260528901206 L 823.3704367080614 59.84226854875404 L 823.402159130432 59.7354146262965 L 823.4362436655839 59.62870944683179 L 823.4726869050919 59.52216368078894 L 823.5114852046627 59.41578798265577 L 823.5526346844983 59.30959298991343 L 823.5961312296854 59.203589321972714 L 823.6419704906054 59.09778757911208 L 823.6901478833706 58.992198341417634 L 823.7406585902819 58.88683216772516 L 823.7934975603105 58.78169959456423 L 823.8486595096036 58.67681113510454 L 823.9061389220122 58.57217727810464 L 823.965930049643 58.46780848686303 L 824.0280269134329 58.36371519817185 L 824.0924233037474 58.25990782127324 L 824.1591127810012 58.15639673681838 L 824.228088676302 58.053192295829454 L 824.2993440921178 57.950304818664556 L 824.3728719029665 57.84774459398567 L 824.4486647561281 57.745521877729786 L 824.5267150723805 57.64364689208335 L 824.6070150467573 57.54212982446004 L 824.6895566493276 57.44098082648201 L 824.7743316260004 57.340210012964775 L 824.8613314993484 57.2398274609057 L 824.9505475694567 57.13984320847635 L 825.0419709147928 57.040267254018644 L 825.1355923930984 56.94110955504505 L 825.2314026423034 56.84238002724283 L 825.329392081463 56.74408854348249 L 825.4295509117148 56.646244932830506 L 825.5318691172594 56.54885897956639 L 825.6363364663612 56.45194042220433 L 825.7429425123727 56.35549895251929 L 825.8516765947779 56.25954421457787 L 825.9625278402592 56.16408580377391 L 826.0754851637846 56.06913326586893 L 826.1905372697157 55.974696096037604 L 826.3076726529379 55.88078373791821 L 826.4268796000102 55.7874055826683 L 826.5481461903377 55.694570968025594 L 826.671460297362 55.60228917737418 L 826.7968095897755 55.51056943881623 L 826.9241815327532 55.41942092424918 L 827.053563389207 55.328852748448504 L 827.1849422210591 55.23887396815633 L 827.3183048905357 55.14949358117568 L 827.4536380614811 55.0607205254708 L 827.590928200691 54.97256367827326 L 827.7301615792658 54.88503185519433 L 827.8713242739836 54.79813380934336 L 828.0144021686928 54.71187823045254 L 828.1593809557229 54.62627374400786 L 828.3062461373162 54.541328910386646 L 828.4549830270769 54.45705222400146 L 828.6055767514398 54.373452112450714 L 828.7580122511582 54.290536935675895 L 828.912274282809 54.20831498512558 L 829.0683474203177 54.12679448292632 L 829.2262160565004 54.0459835810604 L 829.3858644046254 53.965890360550645 L 829.5472764999905 53.88652283065238 L 829.710436201521 53.80788892805245 L 829.8753271933825 53.72999651607559 L 830.0419329866135 53.652853383898076 L 830.2102369207732 53.57646724576885 L 830.3802221656085 53.50084574023808 L 830.5518717227368 53.42599642939328 L 830.7251684273452 53.35192679810317 L 830.9000949499077 53.278644253269164 L 831.0766337979179 53.20615612308466 L 831.254767317638 53.13446965630228 L 831.4344776958645 53.06359202150896 L 831.6157469617094 52.99353030640911 L 831.7985569883971 52.924291517115876 L 831.9828894950773 52.85588257745046 L 832.1687260486531 52.78831032824984 L 832.3560480656237 52.72158152668263 L 832.5448368139436 52.65570284557336 L 832.7350734148954 52.590680872735255 L 832.9267388449775 52.52652211031142 L 833.1198139378066 52.463232974124615 L 833.3142793860343 52.40081979303573 L 833.5101157432779 52.33928880831086 L 833.7073034260646 52.278646172997206 L 833.9058227157909 52.21889795130775 L 834.1056537606929 52.160050118014894 L 834.3067765778327 52.1021085578529 L 834.5091710550963 52.045079064929524 L 834.7128169532047 51.98896734214652 L 834.9176939077374 51.933779000629414 L 835.1237814311701 51.87951955916637 L 835.331058914922 51.826194443656306 L 835.5395056314175 51.77380898656634 L 835.7491007361587 51.72236842639853 L 835.9598232698096 51.67187790716602 L 836.1716521602926 51.622342477878675 L 836.3845662248953 51.57376709203812 L 836.5985441723884 51.526156607142475 L 836.8135646051556 51.47951578420055 L 837.0296060213328 51.43384928725578 L 837.2466468169583 51.38916168291979 L 837.4646652881337 51.34545743991578 L 837.6836396331933 51.302740928631636 L 837.903547954885 51.261016420682886 L 838.1243682625602 51.220288088485546 L 838.3460784743719 51.18056000483891 L 838.5686564194838 51.14183614251822 L 838.7920798402868 51.10412037387746 L 839.0163263946249 51.06741647046204 L 839.2413736580298 51.03172810263173 L 839.4671991259626 50.99705883919358 L 839.6937802160646 50.96341214704502 L 839.9210942704158 50.930791390827245 L 840.1491185577999 50.899199832588685 L 840.3778302759783 50.86864063145883 L 840.60720655397 50.83911684333235 L 840.8372244543381 50.81063142056343 L 841.0678609754842 50.78318721167063 L 841.2990930539486 50.75678696105195 L 841.5308975667159 50.731433308710464 L 841.7632513335283 50.70712878999027 L 841.9961311192025 50.683875835323 L 842.229513635954 50.66167676998473 L 842.4633755457259 50.6405338138635 L 842.6976934625217 50.6204490812373 L 842.9324439547452 50.60142458056266 L 843.1676035475427 50.583462214273794 L 843.4031487251511 50.566563778592354 L 843.6390559332488 50.55073096334783 L 843.8753015813115 50.53596535180856 L 844.1118620449713 50.52226842052339 L 844.3487136683791 50.50964153917403 L 844.5858327665698 50.49808597043808 L 844.8231956278312 50.48760286986282 L 845.060778516075 50.47819328574954 L 845.2985576732102 50.46985815904882 L 845.5365093215196 50.462598323266384 L 845.7746096660363 50.456414504379765 L 846.0128348969245 50.45130732076569 L 846.2511611918595 50.44727728313828 L 846.4895647184105 50.444324794497916 L 846.7280216364234 50.44245015009101 L 846.9665081004052 50.44165353738045 L 847.2050002619083 50.44193503602685 L 847.4434742719151 50.443294617880554 L 847.6819062832235 50.445732146984525 L 847.920272452831 50.44924737958788 L 848.1585489443193 50.45383996417029 L 848.3967119302378 50.459509441477124 L 848.6347375944863 50.46625524456538 L 848.8726021346968 50.474076698860365 L 849.1102817646134 50.48297302222316 L 849.3477527164715 50.49294332502887 L 849.5849912433735 50.50398661025549 L 849.8219736216644 50.51610177358371 L 850.058676153304 50.52928760350731 L 850.2950751682363 50.54354278145426 L 850.5311470267569 50.55886588191867 L 850.7668681218765 50.575255372603245 L 851.0022148816822 50.592709614572584 L 851.2371637716941 50.61122686241703 L 851.4716912972189 50.630805264427224 L 851.7057740056996 50.651442862779284 L 851.9393884890603 50.67313759373059 L 852.1725113860474 50.695887287826096 L 852.4051193845655 50.71968967011537 L 852.6371892240086 50.74454236038002 L 852.8686976975861 50.77044287337172 L 853.0996216546436 50.797388619060754 L 853.3299380029778 50.825376902895016 L 853.5596237111457 50.85440492606945 L 853.7886558107681 50.88446978580591 L 854.0170113988257 50.9155684756435 L 854.2446676399502 50.947697885739125 L 854.4716017687069 50.980854803178566 L 854.6977910918723 51.01503591229771 L 854.9232129907026 51.05023779501413 L 855.1478449231955 51.08645693116888 L 855.3716644263452 51.12368969887854 L 855.5946491183878 51.16193237489736 L 855.8167767010398 51.201181134989596 L 856.0380249617283 51.241432054311964 L 856.2583717758114 51.28268110780607 L 856.4777951087913 51.32492417060092 L 856.6962730185177 51.368157018425464 L 856.9137836573816 51.41237532803093 L 857.1303052745004 51.45757467762322 L 857.3458162178928 51.503750547305025 L 857.560294936644 51.55089831952786 L 857.773719983061 51.5990132795538 L 857.986070014817 51.64809061592693 L 858.1973237970857 51.69812542095451 L 858.4074602046649 51.749112691197745 L 858.6164582240889 51.801047327972086 L 858.8242969557301 51.85392413785714 L 859.0309556158884 51.90773783321599 L 859.2364135388701 51.962483032723924 L 859.440650179054 52.01815426190663 L 859.6436451129464 52.07474595368758 L 859.845378041223 52.132252448944755 L 860.0458287907591 52.190667997076545 L 860.2449773166467 52.24998675657682 L 860.4428037041993 52.310202795619055 L 860.6392881709429 52.371310092649544 L 860.8344110685947 52.43330253698949 L 861.0281528850275 52.49617392944612 L 861.2204942462208 52.559917982932596 L 861.4114159181993 52.62452832309667 L 861.6008988089544 52.68999848895818 L 861.7889239703553 52.7563219335551 L 861.9754726000424 52.823492024598224 L 862.1605260433081 52.89150204513444 L 862.3440657949624 52.960345194218355 L 862.5260735011831 53.03001458759244 L 862.7065309613512 53.10050325837541 L 862.885420129871 53.171804157758935 L 863.0627231179748 53.243910155712484 L 863.2384221955116 53.31681404169635 L 863.4124997927199 53.39050852538269 L 863.5849385019852 53.46498623738456 L 863.7557210795802 53.5402397299928 L 863.9248304473895 53.61626147792087 L 864.0922496946171 53.69304387905734 L 864.2579620794779 53.770579255226075 L 864.4219510308716 53.848859852954064 L 864.5842001500396 53.92787784424677 L 864.7446932122052 54.00762532737092 L 864.903414168196 54.08809432764465 L 865.0603471460486 54.16927679823499 L 865.2154764525959 54.251164620962534 L 865.3687865750368 54.33374960711325 L 865.5202621824865 54.41702349825734 L 865.6698881275106 54.500977967075094 L 865.8176494476394 54.58560461818958 L 865.9635313668639 54.670894989006214 L 866.1075192971138 54.75684055055899 L 866.249598839716 54.84343270836337 L 866.3897557868347 54.93066280327574 L 866.5279761228919 55.0185221123593 L 866.6642460259693 55.107001849756344 L 866.7985518691901 55.196093167566886 L 866.9308802220819 55.28578715673337 L 867.0612178519195 55.37607484793163 L 867.1895517250489 55.46694721246779 L 867.3158690081896 55.55839516318112 L 867.4401570697182 55.65040955535275 L 867.5624034809326 55.742981187620146 L 867.6825960172933 55.83610080289723 L 867.800722659647 55.92975908930006 L 867.9167715954277 56.02394668107806 L 868.0307312198386 56.11865415955053 L 868.1425901370122 56.213872054048544 L 868.2523371611501 56.30959084286201 L 868.3599613176413 56.405800954191804 L 868.4654518441597 56.50249276710697 L 868.5687981917407 56.5996566125068 L 868.6699900258357 56.69728277408771 L 868.7690172273456 56.79536148931491 L 868.8658698936325 56.89388295039859 L 868.9605383395109 56.99283730527477 L 869.0530130982148 57.09221465859041 L 869.1432849223456 57.19200507269298 L 869.231344784796 57.29219856862425 L 869.317183879653 57.39278512711811 L 869.400793623079 57.49375468960253 L 869.482165654169 57.59509715920541 L 869.5612918357879 57.69680240176424 L 869.6381642553833 57.79886024683951 L 869.7127752257775 57.90126048873177 L 869.7851172859355 58.003992887502164 L 869.8551832017117 58.10704716999642 L 869.9229659665727 58.21041303087217 L 869.9884588022987 58.31408013362946 L 870.0516551596606 58.41803811164441 L 870.1125487190753 58.52227656920584 L 870.1711333912377 58.62678508255487 L 870.2274033177293 58.731553200927245 L 870.2813528716046 58.83657044759845 L 870.3329766579528 58.94182632093131 L 870.3822695144385 59.04731029542622 L 870.4292265118171 59.153011822773635 L 870.4738429544279 59.25892033290889 L 870.516114380664 59.36502523506925 L 870.5560365634178 59.471315918852895 L 870.5936055105045 59.57778175528004 L 870.6288174650605 59.684412097855756 L 870.6616689059199 59.79119628363465 L 870.6921565479657 59.89812363428712 L 870.7202773424594 60.005183457167206 L 870.7460284773448 60.11236504638185 L 870.76940737753 60.21965768386144 L 870.7904117051443 60.327050640431644 L 870.8090393597726 60.43453317688629 L 870.8252884786648 60.5420945450613 L 870.8391574369227 60.6497239889095 L 870.850644847662 60.757410745576195 L 870.8597495621511 60.86514404647545 L 870.8664706699263 60.972913118366954 L 870.8708074988823 61.08070718443333 L 870.8727596153399 61.188515465357796 M 870.8728806053958 95.52678387991818 L 870.8716881454922 95.6345944248348 L 870.8681108850261 95.74239418878678 L 870.8621491817208 95.85017239188754 L 870.8538036317415 95.95791825640659 L 870.8430750696363 96.06562100784727 L 870.8299645682524 96.1732698760242 L 870.8144734386292 96.28085409614023 L 870.7966032298666 96.38836290986303 L 870.7763557289705 96.49578556640084 L 870.7537329606744 96.60311132357748 L 870.728737187236 96.7103294489067 L 870.701370908212 96.8174292206653 L 870.6716368602074 96.92439992896537 L 870.6395380166023 97.0312308768252 L 870.6050775872542 97.13791138123905 L 870.5682590181774 97.24443077424536 L 870.529085991198 97.35077840399362 L 870.4875624235863 97.45694363580944 L 870.4436924676643 97.56291585325815 L 870.3974805103909 97.66868445920629 L 870.3489311729236 97.77423887688141 L 870.2980493101555 97.8795685509297 L 870.2448400102306 97.98466294847155 L 870.1893085940344 98.08951156015478 L 870.1314606146624 98.19410390120557 L 870.0713018568642 98.29842951247699 L 870.0088383364656 98.40247796149485 L 869.9440762997664 98.50623884350097 L 869.8770222229164 98.60970178249359 L 869.8076828112675 98.71285643226504 L 869.7360649987028 98.81569247743631 L 869.6621759469441 98.91819963448859 L 869.5860230448351 99.02036765279156 L 869.5076139076023 99.12218631562857 L 869.4269563760942 99.22364544121817 L 869.3440585159967 99.32473488373233 L 869.2589286170269 99.42544453431107 L 869.1715751921034 99.52576432207324 L 869.0820069764962 99.62568421512367 L 868.9902329269522 99.72519422155631 L 868.8962622207998 99.82428439045346 L 868.8001042550312 99.92294481288079 L 868.7017686453631 100.02116562287829 L 868.6012652252743 100.11893699844678 L 868.4986040450232 100.2162491625302 L 868.3937953706421 100.31309238399325 L 868.2868496829112 100.40945697859446 L 868.1777776763103 100.50533330995468 L 868.066590257949 100.60071179052068 L 867.9532985464764 100.69558288252388 L 867.8379138709695 100.78993709893413 L 867.7204477697994 100.88376500440843 L 867.6009119894785 100.97705721623441 L 867.4793184834853 101.06980440526866 L 867.3556794110689 101.16199729686952 L 867.2300071360335 101.25362667182469 L 867.102314225502 101.34468336727302 L 866.972613448659 101.43515827762084 L 866.840917775474 101.52504235545253 L 866.7072403754048 101.61432661243519 L 866.5715946160799 101.70300212021755 L 866.433994061962 101.7910600113227 L 866.2944524729921 101.87849148003492 L 866.1529838032128 101.9652877832802 L 866.009602199373 102.05144024150056 L 865.8643219995139 102.13694023952193 L 865.717157731534 102.22177922741581 L 865.5681241117379 102.30594872135407 L 865.417236043363 102.38944030445748 L 865.2645086150907 102.47224562763729 L 865.1099570995364 102.5543564104302 L 864.953596951723 102.63576444182635 L 864.7954438075346 102.71646158109044 L 864.6355134821544 102.79643975857579 L 864.4738219684812 102.8756909765313 L 864.3103854355319 102.95420730990122 L 864.1452202268233 103.03198090711763 L 863.978342858739 103.10900399088564 L 863.8097700188765 103.18526885896105 L 863.6395185643794 103.2607678849206 L 863.4676055202513 103.33549351892461 L 863.2940480776532 103.40943828847196 L 863.1188635921849 103.48259479914732 L 862.9420695821489 103.55495573536056 L 862.7636837267988 103.6265138610784 L 862.5837238645715 103.69726202054787 L 862.4022079913035 103.76719313901197 L 862.2191542584305 103.83630022341715 L 862.0345809711736 103.90457636311257 L 861.8485065867073 103.97201473054113 L 861.6609497123154 104.03860858192229 L 861.4719291035287 104.10435125792642 L 861.2814636622509 104.1692361843407 L 861.089572434867 104.23325687272656 L 860.8962746103402 104.29640692106851 L 860.7015895182917 104.35868001441433 L 860.5055366270685 104.4200699255066 L 860.3081355417963 104.48057051540535 L 860.1094060024193 104.54017573410202 L 859.9093678817255 104.5988796211244 L 859.7080411833606 104.65667630613272 L 859.5054460398266 104.71356000950664 L 859.3016027104687 104.7695250429232 L 859.0965315794505 104.82456580992574 L 858.8902531537137 104.87867680648341 L 858.6827880609294 104.93185262154162 L 858.4741570474337 104.98408793756322 L 858.2643809761543 105.0353775310601 L 858.0534808245233 105.08571627311568 L 857.8414776823802 105.13509912989768 L 857.6283927498625 105.1835211631616 L 857.4142473352862 105.23097753074444 L 857.1990628530139 105.27746348704899 L 856.9828608213146 105.32297438351839 L 856.7656628602115 105.36750566910086 L 856.5474906893195 105.41105289070501 L 856.3283661256739 105.45361169364494 L 856.1083110815485 105.49517782207583 L 855.8873475622645 105.53574711941947 L 855.6654976639895 105.57531552877992 L 855.4427835715285 105.61387909334925 L 855.219227556105 105.65143395680312 L 854.9948519731346 105.68797636368647 L 854.7696792599883 105.72350265978909 L 854.5437319337499 105.75800929251095 L 854.3170325889637 105.79149281121755 L 854.0896038953753 105.82394986758491 L 853.8614685956644 105.85537721593445 L 853.6326495031711 105.88577171355752 L 853.4031694996138 105.9151303210297 L 853.1730515328018 105.94345010251467 L 852.9423186143397 105.97072822605791 L 852.7109938173273 105.99696196386981 L 852.4791002740515 106.02214869259844 L 852.2466611736734 106.04628589359189 L 852.0136997599093 106.0693711531502 L 851.7802393287063 106.09140216276666 L 851.5463032259133 106.11237671935864 L 851.3119148449454 106.13229272548797 L 851.0770976244454 106.15114818957065 L 850.8418750459398 106.16894122607596 L 850.6062706314901 106.1856700557151 L 850.3703079413418 106.20133300561903 L 850.1340105715672 106.21592850950582 L 849.8974021517062 106.22945510783724 L 849.6605063424036 106.24191144796474 L 849.4233468330431 106.25329628426466 L 849.1859473393779 106.2636084782629 L 848.9483316011595 106.2728469987486 L 848.7105233797638 106.28101092187747 L 848.4725464558147 106.28809943126396 L 848.2344246268063 106.29411181806304 L 847.9961817047232 106.29904748104106 L 847.7578415136588 106.30290592663582 L 847.5194278874338 106.30568676900597 L 847.2809646672121 106.30738973006962 L 847.042475699117 106.30801463953205 L 846.8039848318464 106.30756143490284 L 846.5655159142885 106.3060301615021 L 846.3270927931363 106.30342097245587 L 846.0887393105033 106.29973412868088 L 845.8504793015389 106.29496999885845 L 845.6123365920457 106.28912905939758 L 845.3743349960961 106.28221189438736 L 845.1364983136513 106.27421919553852 L 844.8988503281813 106.26515176211427 L 844.6614148042868 106.25501050085043 L 844.4242154853221 106.24379642586464 L 844.1872760910217 106.23151065855508 L 843.9506203151274 106.21815442748823 L 843.7142718230195 106.20372906827606 L 843.4782542493505 106.1882360234425 L 843.2425911956809 106.17167684227908 L 843.0073062281198 106.15405318069014 L 842.7724228749678 106.13536680102716 L 842.5379646243645 106.11561957191253 L 842.3039549219396 106.09481346805269 L 842.0704171684682 106.0729505700407 L 841.8373747175314 106.05003306414814 L 841.6048508731797 106.0260632421065 L 841.3728688876038 106.00104350087803 L 841.1414519588092 105.97497634241597 L 840.9106232282957 105.94786437341445 L 840.6804057787441 105.9197103050478 L 840.4508226317075 105.89051695269937 L 840.2218967453092 105.86028723568009 L 839.9936510119472 105.82902417693644 L 839.7661082560046 105.79673090274827 L 839.5392912315673 105.76341064241608 L 839.3132226201488 105.72906672793813 L 839.0879250284219 105.69370259367726 L 838.8634209859578 105.6573217760174 L 838.6397329429739 105.61992791301003 L 838.416883268088 105.58152474401028 L 838.1948942460818 105.54211610930304 L 837.9737880756728 105.50170594971894 L 837.7535868672934 105.46029830624026 L 837.5343126408812 105.41789731959686 L 837.315987323676 105.37450722985206 L 837.0986327480276 105.33013237597868 L 836.8822706492126 105.28477719542511 L 836.6669226632603 105.23844622367163 L 836.45261032479 105.1911440937768 L 836.2393550648569 105.14287553591419 L 836.0271782088095 105.09364537689936 L 835.8161009741561 105.0434585397072 L 835.6061444684448 104.99232004297959 L 835.3973296871509 104.9402350005236 L 835.1896775115786 104.88720862080007 L 834.9832087067724 104.83324620640276 L 834.7779439194408 104.77835315352817 L 834.5739036758913 104.72253495143585 L 834.3711083799783 104.66579718189945 L 834.1695783110625 104.60814551864868 L 833.9693336219829 104.54958572680184 L 833.7703943370412 104.49012366228926 L 833.5727803500005 104.42976527126788 L 833.3765114220946 104.36851658952648 L 833.1816071800528 104.30638374188221 L 832.9880871141369 104.24337294156805 L 832.7959705761921 104.17949048961154 L 832.6052767777123 104.11474277420461 L 832.4160247879183 104.04913627006486 L 832.2282335318514 103.98267753778805 L 832.0419217884807 103.91537322319199 L 831.8571081888254 103.84723005665208 L 831.6738112140913 103.77825485242818 L 831.492049193823 103.70845450798322 L 831.3118403040716 103.63783600329349 L 831.1332025655753 103.56640640015061 L 830.9561538419593 103.49417284145538 L 830.7807118379485 103.42114255050346 L 830.6068940975971 103.3473228302631 L 830.4347180025342 103.27272106264479 L 830.2642007702258 103.19734470776314 L 830.0953594522532 103.1212013031908 L 829.9282109326073 103.04429846320481 L 829.7627719260009 102.96664387802507 L 829.5990589761967 102.88824531304537 L 829.4370884543534 102.8091106080569 L 829.2768765573882 102.72924767646418 L 829.118439306357 102.64866450449387 L 828.9617925448532 102.56736915039596 L 828.8069519374224 102.48536974363815 L 828.6539329679961 102.40267448409276 L 828.5027509383438 102.31929164121684 L 828.3534209665424 102.2352295532252 L 828.2059579854649 102.15049662625658 L 828.0603767412864 102.06510133353308 L 827.9166917920099 101.97905221451278 L 827.7749175060108 101.89235787403591 L 827.6350680605993 101.80502698146424 L 827.4971574406036 101.71706826981428 L 827.3611994369705 101.62849053488388 L 827.2272076453875 101.53930263437272 L 827.0951954649217 101.44951348699652 L 826.9651760966814 101.35913207159521 L 826.8371625424949 101.26816742623502 L 826.711167603611 101.17662864730465 L 826.5872038794187 101.08452488860574 L 826.465283766187 100.9918653604374 L 826.3454194558255 100.89865932867522 L 826.2276229346656 100.80491611384473 L 826.1119059822612 100.71064509018925 L 825.9982801702109 100.61585568473262 L 825.8867568610016 100.5205573763364 L 825.7773472068709 100.424759694752 L 825.6700621486932 100.32847221966773 L 825.5649124148849 100.2317045797509 L 825.4619085203319 100.13446645168483 L 825.3610607653376 100.03676755920131 L 825.2623792345935 99.93861767210817 L 825.1658737961706 99.84002660531232 L 825.0715541005321 99.7410042178383 L 824.9794295795691 99.64156041184232 L 824.8895094456569 99.54170513162211 L 824.801802690734 99.4414483626225 L 824.7163180854027 99.34080013043682 L 824.6330641780525 99.23977049980442 L 824.5520492940044 99.13836957360418 L 824.4732815346796 99.03660749184422 L 824.3967687767883 98.9344944306479 L 824.3225186715425 98.83204060123627 L 824.250538643891 98.72925624890688 L 824.1808358917763 98.6261516520093 L 824.1134173854158 98.52273712091731 L 824.0482898666038 98.41902299699785 L 823.9854598480379 98.31501965157686 L 823.9249336126677 98.21073748490224 L 823.8667172130662 98.10618692510373 L 823.810816470825 98.0013784271502 L 823.7572369759715 97.89632247180411 L 823.7059840864107 97.79102956457344 L 823.6570629273889 97.68551023466115 L 823.610478390981 97.57977503391233 L 823.5662351356021 97.47383453575894 L 823.5243375855407 97.3676993341625 L 823.484789930517 97.2613800425547 L 823.4475961252633 97.15488729277617 L 823.4127598891295 97.04823173401307 L 823.3802847057098 96.94142403173245 L 823.3501738224958 96.8344748666155 L 823.3224302505505 96.72739493348962 L 823.2970567642082 96.6201949402589 L 823.2740559007962 96.51288560683331 L 823.2534299603817 96.40547766405678 L 823.2351810055416 96.29798185263407 L 823.2193108611561 96.19040892205675 L 823.2058211142266 96.08276962952824 L 823.1947131137164 95.9750747388881 L 823.1859879704164 95.86733501953563 L 823.1796465568334 95.75956124535298 L 823.1756895071038 95.65176419362778 L 823.1741172169291 95.54395464397535" stroke-miterlimit="10" stroke-width="2.7769845610000004" stroke-dasharray=""/></g><g><g/><text fill="black" stroke="none" font-family="sans-serif" font-size="11pt" font-style="normal" font-weight="normal" text-decoration="normal" x="807.1022191389584" y="123.83569119881818" text-anchor="start" dominant-baseline="alphabetic" xml:space="preserve">GameOnDB</text></g></g><g><g><text fill="black" stroke="none" font-family="sans-serif" font-size="16pt" font-style="normal" font-weight="normal" text-decoration="normal" x="327.00914764404297" y="24.651306798181814" text-anchor="start" dominant-baseline="alphabetic" xml:space="preserve">View Reports Sequence Diagram</text></g><g><rect fill="white" stroke="none" x="208.26846905701828" y="161.4066587888182" width="102.47389473023438" height="21.23576429"/><text fill="black" stroke="none" font-family="sans-serif" font-size="11pt" font-style="normal" font-weight="normal" text-decoration="normal" x="210.71874955201827" y="176.10834175881817" text-anchor="start" dominant-baseline="alphabetic" xml:space="preserve">Click "Reports"</text></g><g><path fill="none" stroke="black" paint-order="fill stroke markers" d=" M 122.51402475 182.64242307881818 L 383.04749071060417 182.64242307881818" stroke-miterlimit="10" stroke-width="1.3612669416666667" stroke-dasharray=""/><g transform="translate(396.4968080942708,182.64242307881818) translate(-396.4968080942708,-182.64242307881818)"><path fill="black" stroke="none" paint-order="stroke fill markers" d=" M 382.88413867760414 175.83608837048484 L 396.4968080942708 182.64242307881818 L 382.88413867760414 189.44875778715152 Z"/></g></g><g><rect fill="white" stroke="none" x="425.6500745856302" y="207.1452280288182" width="86.37510932984375" height="21.23576429"/><text fill="black" stroke="none" font-family="sans-serif" font-size="11pt" font-style="normal" font-weight="normal" text-decoration="normal" x="428.1003550806302" y="221.84691099881817" text-anchor="start" dominant-baseline="alphabetic" xml:space="preserve">getReports()</text></g><g><path fill="none" stroke="black" paint-order="fill stroke markers" d=" M 396.4968080942708 228.3809923188182 L 527.7291330231667 228.3809923188182" stroke-miterlimit="10" stroke-width="1.3612669416666667" stroke-dasharray=""/><g transform="translate(541.1784504068333,228.3809923188182) translate(-541.1784504068333,-228.3809923188182)"><path fill="black" stroke="none" paint-order="stroke fill markers" d=" M 527.5657809901667 221.57465761048485 L 541.1784504068333 228.3809923188182 L 527.5657809901667 235.18732702715153 Z"/></g></g><g><rect fill="white" stroke="none" x="646.8403991265286" y="252.88379726881823" width="94.52113594117188" height="21.23576429"/><text fill="black" stroke="none" font-family="sans-serif" font-size="11pt" font-style="normal" font-weight="normal" text-decoration="normal" x="649.2906796215286" y="267.5854802388182" text-anchor="start" dominant-baseline="alphabetic" xml:space="preserve">Query reports</text></g><g><path fill="none" stroke="black" paint-order="fill stroke markers" d=" M 541.1784504068333 274.1195615588182 L 833.5741664037292 274.1195615588182" stroke-miterlimit="10" stroke-width="1.3612669416666667" stroke-dasharray=""/><g transform="translate(847.0234837873959,274.1195615588182) translate(-847.0234837873959,-274.1195615588182)"><path fill="black" stroke="none" paint-order="stroke fill markers" d=" M 833.4108143707292 267.31322685048485 L 847.0234837873959 274.1195615588182 L 833.4108143707292 280.92589626715153 Z"/></g></g><g><rect fill="white" stroke="none" x="644.8003142876614" y="342.72741541881817" width="98.60130561890625" height="21.23576429"/><text fill="black" stroke="none" font-family="sans-serif" font-size="11pt" font-style="normal" font-weight="normal" text-decoration="normal" x="647.2505947826614" y="357.42909838881815" text-anchor="start" dominant-baseline="alphabetic" xml:space="preserve">Return reports</text></g><g><path fill="none" stroke="black" paint-order="fill stroke markers" d=" M 847.0234837873959 363.9631797088182 L 554.6277677905 363.9631797088182" stroke-miterlimit="10" stroke-width="1.3612669416666667" stroke-dasharray="6.53408132"/><g transform="translate(541.1784504068333,363.9631797088182) translate(-541.1784504068333,-363.9631797088182)"><path fill="black" stroke="none" paint-order="stroke fill markers" d=" M 554.7911198235 357.15684500048485 L 541.1784504068333 363.9631797088182 L 554.7911198235 370.7695144171515 Z"/></g></g><g><rect fill="white" stroke="none" x="419.53697644109894" y="388.4659846588182" width="98.60130561890625" height="21.23576429"/><text fill="black" stroke="none" font-family="sans-serif" font-size="11pt" font-style="normal" font-weight="normal" text-decoration="normal" x="421.98725693609896" y="403.16766762881815" text-anchor="start" dominant-baseline="alphabetic" xml:space="preserve">Return reports</text></g><g><path fill="none" stroke="black" paint-order="fill stroke markers" d=" M 541.1784504068333 409.7017489488182 L 409.94612547793747 409.7017489488182" stroke-miterlimit="10" stroke-width="1.3612669416666667" stroke-dasharray=""/><g transform="translate(396.4968080942708,409.7017489488182) translate(-396.4968080942708,-409.7017489488182)"><path fill="black" stroke="none" paint-order="stroke fill markers" d=" M 410.1094775109375 402.89541424048485 L 396.4968080942708 409.7017489488182 L 410.1094775109375 416.50808365715153 Z"/></g></g><g><rect fill="white" stroke="none" x="158.45461102479172" y="434.2045538988182" width="202.1016107946875" height="21.23576429"/><text fill="black" stroke="none" font-family="sans-serif" font-size="11pt" font-style="normal" font-weight="normal" text-decoration="normal" x="160.9048915197917" y="448.90623686881816" text-anchor="start" dominant-baseline="alphabetic" xml:space="preserve">Display reports on report page</text></g><g><path fill="none" stroke="black" paint-order="fill stroke markers" d=" M 396.4968080942708 455.4403181888182 L 135.96334213366669 455.4403181888182" stroke-miterlimit="10" stroke-width="1.3612669416666667" stroke-dasharray=""/><g transform="translate(122.51402475,455.4403181888182) translate(-122.51402475,-455.4403181888182)"><path fill="black" stroke="none" paint-order="stroke fill markers" d=" M 136.12669416666668 448.63398348048486 L 122.51402475 455.4403181888182 L 136.12669416666668 462.24665289715153 Z"/></g></g><g><rect fill="white" stroke="none" x="178.8268262957878" y="524.0481720488182" width="161.35718025269531" height="21.23576429"/><text fill="black" stroke="none" font-family="sans-serif" font-size="11pt" font-style="normal" font-weight="normal" text-decoration="normal" x="181.2771067907878" y="538.7498550188182" text-anchor="start" dominant-baseline="alphabetic" xml:space="preserve">Click on and read report</text></g><g><path fill="none" stroke="black" paint-order="fill stroke markers" d=" M 122.51402475 545.2839363388182 L 383.04749071060417 545.2839363388182" stroke-miterlimit="10" stroke-width="1.3612669416666667" stroke-dasharray=""/><g transform="translate(396.4968080942708,545.2839363388182) translate(-396.4968080942708,-545.2839363388182)"><path fill="black" stroke="none" paint-order="stroke fill markers" d=" M 382.88413867760414 538.4776016304849 L 396.4968080942708 545.2839363388182 L 382.88413867760414 552.0902710471515 Z"/></g></g><g><rect fill="white" stroke="none" x="203.37942334168625" y="613.8917901988182" width="112.25198616089844" height="21.23576429"/><text fill="black" stroke="none" font-family="sans-serif" font-size="11pt" font-style="normal" font-weight="normal" text-decoration="normal" x="205.82970383668624" y="628.5934731688182" text-anchor="start" dominant-baseline="alphabetic" xml:space="preserve">Click "Ban User"</text></g><g><path fill="none" stroke="black" paint-order="fill stroke markers" d=" M 122.51402475 635.1275544888182 L 383.04749071060417 635.1275544888182" stroke-miterlimit="10" stroke-width="1.3612669416666667" stroke-dasharray=""/><g transform="translate(396.4968080942708,635.1275544888182) translate(-396.4968080942708,-635.1275544888182)"><path fill="black" stroke="none" paint-order="stroke fill markers" d=" M 382.88413867760414 628.3212197804849 L 396.4968080942708 635.1275544888182 L 382.88413867760414 641.9338891971515 Z"/></g></g><g><rect fill="white" stroke="none" x="433.7996793829935" y="659.6303594388181" width="70.07589973511719" height="21.23576429"/><text fill="black" stroke="none" font-family="sans-serif" font-size="11pt" font-style="normal" font-weight="normal" text-decoration="normal" x="436.2499598779935" y="674.3320424088181" text-anchor="start" dominant-baseline="alphabetic" xml:space="preserve">banUser()</text></g><g><path fill="none" stroke="black" paint-order="fill stroke markers" d=" M 396.4968080942708 680.8661237288181 L 527.7291330231667 680.8661237288181" stroke-miterlimit="10" stroke-width="1.3612669416666667" stroke-dasharray=""/><g transform="translate(541.1784504068333,680.8661237288181) translate(-541.1784504068333,-680.8661237288181)"><path fill="black" stroke="none" paint-order="stroke fill markers" d=" M 527.5657809901667 674.0597890204848 L 541.1784504068333 680.8661237288181 L 527.5657809901667 687.6724584371515 Z"/></g></g><g><rect fill="white" stroke="none" x="579.9004424841303" y="705.3689286788181" width="96.16034187378906" height="21.23576429"/><text fill="black" stroke="none" font-family="sans-serif" font-size="11pt" font-style="normal" font-weight="normal" text-decoration="normal" x="582.3507229791303" y="720.070611648818" text-anchor="start" dominant-baseline="alphabetic" xml:space="preserve">deleteProfile()</text></g><g><path fill="none" stroke="black" paint-order="fill stroke markers" d=" M 541.1784504068333 726.6046929688181 L 701.3334590515495 726.6046929688181" stroke-miterlimit="10" stroke-width="1.3612669416666667" stroke-dasharray=""/><g transform="translate(714.7827764352162,726.6046929688181) translate(-714.7827764352162,-726.6046929688181)"><path fill="black" stroke="none" paint-order="stroke fill markers" d=" M 701.1701070185495 719.7983582604847 L 714.7827764352162 726.6046929688181 L 701.1701070185495 733.4110276771514 Z"/></g></g><g><rect fill="white" stroke="none" x="740.9689705269506" y="751.107497918818" width="79.86831916871094" height="21.23576429"/><text fill="black" stroke="none" font-family="sans-serif" font-size="11pt" font-style="normal" font-weight="normal" text-decoration="normal" x="743.4192510219506" y="765.809180888818" text-anchor="start" dominant-baseline="alphabetic" xml:space="preserve">Delete user</text></g><g><path fill="none" stroke="black" paint-order="fill stroke markers" d=" M 714.7827764352162 772.343262208818 L 833.5741664037292 772.343262208818" stroke-miterlimit="10" stroke-width="1.3612669416666667" stroke-dasharray=""/><g transform="translate(847.0234837873959,772.343262208818) translate(-847.0234837873959,-772.343262208818)"><path fill="black" stroke="none" paint-order="stroke fill markers" d=" M 833.4108143707292 765.5369275004847 L 847.0234837873959 772.343262208818 L 833.4108143707292 779.1495969171514 Z"/></g></g><g><rect fill="white" stroke="none" x="196.04943676942062" y="840.951116068818" width="126.91195930542969" height="21.23576429"/><text fill="black" stroke="none" font-family="sans-serif" font-size="11pt" font-style="normal" font-weight="normal" text-decoration="normal" x="198.4997172644206" y="855.652799038818" text-anchor="start" dominant-baseline="alphabetic" xml:space="preserve">Click "Acquit User"</text></g><g><path fill="none" stroke="black" paint-order="fill stroke markers" d=" M 122.51402475 862.186880358818 L 383.04749071060417 862.186880358818" stroke-miterlimit="10" stroke-width="1.3612669416666667" stroke-dasharray=""/><g transform="translate(396.4968080942708,862.186880358818) translate(-396.4968080942708,-862.186880358818)"><path fill="black" stroke="none" paint-order="stroke fill markers" d=" M 382.88413867760414 855.3805456504847 L 396.4968080942708 862.186880358818 L 382.88413867760414 868.9932150671514 Z"/></g></g><g><rect fill="white" stroke="none" x="415.8755689703958" y="886.689685308818" width="105.9241205603125" height="21.23576429"/><text fill="black" stroke="none" font-family="sans-serif" font-size="11pt" font-style="normal" font-weight="normal" text-decoration="normal" x="418.32584946539583" y="901.3913682788179" text-anchor="start" dominant-baseline="alphabetic" xml:space="preserve">resolveReport()</text></g><g><path fill="none" stroke="black" paint-order="fill stroke markers" d=" M 396.4968080942708 907.925449598818 L 527.7291330231667 907.925449598818" stroke-miterlimit="10" stroke-width="1.3612669416666667" stroke-dasharray=""/><g transform="translate(541.1784504068333,907.925449598818) translate(-541.1784504068333,-907.925449598818)"><path fill="black" stroke="none" paint-order="stroke fill markers" d=" M 527.5657809901667 901.1191148904846 L 541.1784504068333 907.925449598818 L 527.5657809901667 914.7317843071513 Z"/></g></g><g><rect fill="white" stroke="none" x="614.6571715874661" y="932.4282545488179" width="158.88759101929688" height="21.23576429"/><text fill="black" stroke="none" font-family="sans-serif" font-size="11pt" font-style="normal" font-weight="normal" text-decoration="normal" x="617.1074520824661" y="947.1299375188179" text-anchor="start" dominant-baseline="alphabetic" xml:space="preserve">Mark report as resolved</text></g><g><path fill="none" stroke="black" paint-order="fill stroke markers" d=" M 541.1784504068333 953.6640188388179 L 833.5741664037292 953.6640188388179" stroke-miterlimit="10" stroke-width="1.3612669416666667" stroke-dasharray=""/><g transform="translate(847.0234837873959,953.6640188388179) translate(-847.0234837873959,-953.6640188388179)"><path fill="black" stroke="none" paint-order="stroke fill markers" d=" M 833.4108143707292 946.8576841304846 L 847.0234837873959 953.6640188388179 L 833.4108143707292 960.4703535471513 Z"/></g></g><g><rect fill="white" stroke="none" x="643.5655196709622" y="1139.885336458818" width="101.07089485230469" height="21.23576429"/><text fill="black" stroke="none" font-family="sans-serif" font-size="11pt" font-style="normal" font-weight="normal" text-decoration="normal" x="646.0158001659622" y="1154.5870194288182" text-anchor="start" dominant-baseline="alphabetic" xml:space="preserve">Return nothing</text></g><g><path fill="none" stroke="black" paint-order="fill stroke markers" d=" M 847.0234837873959 1161.121100748818 L 554.6277677905 1161.121100748818" stroke-miterlimit="10" stroke-width="1.3612669416666667" stroke-dasharray="6.53408132"/><g transform="translate(541.1784504068333,1161.121100748818) translate(-541.1784504068333,-1161.121100748818)"><path fill="black" stroke="none" paint-order="stroke fill markers" d=" M 554.7911198235 1154.3147660404848 L 541.1784504068333 1161.121100748818 L 554.7911198235 1167.9274354571512 Z"/></g></g><g><rect fill="white" stroke="none" x="418.3021818243997" y="1185.6239056988181" width="101.07089485230469" height="21.23576429"/><text fill="black" stroke="none" font-family="sans-serif" font-size="11pt" font-style="normal" font-weight="normal" text-decoration="normal" x="420.75246231939974" y="1200.3255886688182" text-anchor="start" dominant-baseline="alphabetic" xml:space="preserve">Return nothing</text></g><g><path fill="none" stroke="black" paint-order="fill stroke markers" d=" M 541.1784504068333 1206.859669988818 L 409.94612547793747 1206.859669988818" stroke-miterlimit="10" stroke-width="1.3612669416666667" stroke-dasharray=""/><g transform="translate(396.4968080942708,1206.859669988818) translate(-396.4968080942708,-1206.859669988818)"><path fill="black" stroke="none" paint-order="stroke fill markers" d=" M 410.1094775109375 1200.0533352804848 L 396.4968080942708 1206.859669988818 L 410.1094775109375 1213.6660046971513 Z"/></g></g><g><rect fill="white" stroke="none" x="141.84401532166672" y="1231.3624749388182" width="235.3228022009375" height="21.23576429"/><text fill="black" stroke="none" font-family="sans-serif" font-size="11pt" font-style="normal" font-weight="normal" text-decoration="normal" x="144.2942958166667" y="1246.0641579088183" text-anchor="start" dominant-baseline="alphabetic" xml:space="preserve">Display "No reports" on report page</text></g><g><path fill="none" stroke="black" paint-order="fill stroke markers" d=" M 396.4968080942708 1252.598239228818 L 135.96334213366669 1252.598239228818" stroke-miterlimit="10" stroke-width="1.3612669416666667" stroke-dasharray=""/><g transform="translate(122.51402475,1252.598239228818) translate(-122.51402475,-1252.598239228818)"><path fill="black" stroke="none" paint-order="stroke fill markers" d=" M 136.12669416666668 1245.7919045204849 L 122.51402475 1252.598239228818 L 136.12669416666668 1259.4045739371513 Z"/></g></g><g><g/><path fill="none" stroke="black" paint-order="fill stroke markers" d=" M 16.335203300000003 298.6223665088182 L 953.2023052373959 298.6223665088182 L 953.2023052373959 1277.101044178818 L 16.335203300000003 1277.101044178818 L 16.335203300000003 298.6223665088182 Z" stroke-miterlimit="10" stroke-width="2.3336004714285714" stroke-dasharray=""/><path fill="white" stroke="black" paint-order="fill stroke markers" d=" M 16.335203300000003 298.6223665088182 L 16.335203300000003 318.2246104688182 L 62.694406897070316 318.2246104688182 L 72.49552887707031 308.4234884888182 L 72.49552887707031 298.6223665088182 L 16.335203300000003 298.6223665088182" stroke-miterlimit="10" stroke-width="2.3336004714285714" stroke-dasharray=""/><text fill="black" stroke="none" font-family="sans-serif" font-size="8.8pt" font-style="normal" font-weight="bold" text-decoration="normal" x="32.67040660000001" y="311.6905291488182" text-anchor="start" dominant-baseline="alphabetic" xml:space="preserve">alt</text><g><rect fill="white" stroke="none" x="86.38045168207032" y="299.9291827728182" width="87.02765144410156" height="16.988611432000003"/></g><text fill="black" stroke="none" font-family="sans-serif" font-size="8.8pt" font-style="normal" font-weight="bold" text-decoration="normal" x="88.83073217707032" y="311.6905291488182" text-anchor="start" dominant-baseline="alphabetic" xml:space="preserve">[Reports exist]</text><g><path fill="none" stroke="black" paint-order="fill stroke markers" d=" M 16.335203300000003 1095.780287548818 L 953.2023052373959 1095.780287548818" stroke-miterlimit="10" stroke-width="2.3336004714285714" stroke-dasharray="4.083800825"/></g><g/><g><rect fill="white" stroke="none" x="86.38045168207032" y="1097.087103812818" width="102.01658882203125" height="16.988611432000003"/></g><text fill="black" stroke="none" font-family="sans-serif" font-size="8.8pt" font-style="normal" font-weight="bold" text-decoration="normal" x="88.83073217707032" y="1108.8484501888179" text-anchor="start" dominant-baseline="alphabetic" xml:space="preserve">[No reports exist]</text></g><g><g/><path fill="none" stroke="black" paint-order="fill stroke markers" d=" M 32.67040660000001 479.9431231388182 L 936.8671019373959 479.9431231388182 L 936.8671019373959 1071.2774825988179 L 32.67040660000001 1071.2774825988179 L 32.67040660000001 479.9431231388182 Z" stroke-miterlimit="10" stroke-width="2.3336004714285714" stroke-dasharray=""/><path fill="white" stroke="black" paint-order="fill stroke markers" d=" M 32.67040660000001 479.9431231388182 L 32.67040660000001 499.5453670988182 L 90.09520773125001 499.5453670988182 L 99.89632971125002 489.7442451188182 L 99.89632971125002 479.9431231388182 L 32.67040660000001 479.9431231388182" stroke-miterlimit="10" stroke-width="2.3336004714285714" stroke-dasharray=""/><text fill="black" stroke="none" font-family="sans-serif" font-size="8.8pt" font-style="normal" font-weight="bold" text-decoration="normal" x="49.00560990000001" y="493.0112857788182" text-anchor="start" dominant-baseline="alphabetic" xml:space="preserve">loop</text></g><g><g/><path fill="none" stroke="black" paint-order="fill stroke markers" d=" M 65.34081320000001 569.7867412888182 L 904.1966953373958 569.7867412888182 L 904.1966953373958 978.166823788818 L 65.34081320000001 978.166823788818 L 65.34081320000001 569.7867412888182 Z" stroke-miterlimit="10" stroke-width="2.3336004714285714" stroke-dasharray=""/><path fill="white" stroke="black" paint-order="fill stroke markers" d=" M 65.34081320000001 569.7867412888182 L 65.34081320000001 589.3889852488182 L 111.70001679707033 589.3889852488182 L 121.50113877707034 579.5878632688182 L 121.50113877707034 569.7867412888182 L 65.34081320000001 569.7867412888182" stroke-miterlimit="10" stroke-width="2.3336004714285714" stroke-dasharray=""/><text fill="black" stroke="none" font-family="sans-serif" font-size="8.8pt" font-style="normal" font-weight="bold" text-decoration="normal" x="81.67601650000002" y="582.8549039288182" text-anchor="start" dominant-baseline="alphabetic" xml:space="preserve">alt</text><g><rect fill="white" stroke="none" x="135.38606158207034" y="571.0935575528182" width="62.90901435914063" height="16.988611432000003"/></g><text fill="black" stroke="none" font-family="sans-serif" font-size="8.8pt" font-style="normal" font-weight="bold" text-decoration="normal" x="137.83634207707033" y="582.8549039288182" text-anchor="start" dominant-baseline="alphabetic" xml:space="preserve">[Ban user]</text><g><path fill="none" stroke="black" paint-order="fill stroke markers" d=" M 65.34081320000001 796.8460671588181 L 904.1966953373959 796.8460671588181" stroke-miterlimit="10" stroke-width="2.3336004714285714" stroke-dasharray="4.083800825"/></g><g/><g><rect fill="white" stroke="none" x="135.38606158207034" y="798.152883422818" width="77.23929084839844" height="16.988611432000003"/></g><text fill="black" stroke="none" font-family="sans-serif" font-size="8.8pt" font-style="normal" font-weight="bold" text-decoration="normal" x="137.83634207707033" y="809.914229798818" text-anchor="start" dominant-baseline="alphabetic" xml:space="preserve">[Acquit user]</text></g><g/><g><g/><path fill="none" stroke="black" paint-order="fill stroke markers" d=" M 49.00560990000001 1002.669628738818 L 920.5318986373959 1002.669628738818 L 920.5318986373959 1046.774677648818 L 49.00560990000001 1046.774677648818 L 49.00560990000001 1002.669628738818 Z" stroke-miterlimit="10" stroke-width="2.3336004714285714" stroke-dasharray=""/><path fill="white" stroke="black" paint-order="fill stroke markers" d=" M 49.00560990000001 1002.669628738818 L 49.00560990000001 1022.271872698818 L 112.97699611425782 1022.271872698818 L 122.77811809425782 1012.470750718818 L 122.77811809425782 1002.669628738818 L 49.00560990000001 1002.669628738818" stroke-miterlimit="10" stroke-width="2.3336004714285714" stroke-dasharray=""/><text fill="black" stroke="none" font-family="sans-serif" font-size="8.8pt" font-style="normal" font-weight="bold" text-decoration="normal" x="65.34081320000001" y="1015.737791378818" text-anchor="start" dominant-baseline="alphabetic" xml:space="preserve">break</text><g><rect fill="white" stroke="none" x="136.66304089925782" y="1003.976445002818" width="113.74656929078125" height="16.988611432000003"/></g><text fill="black" stroke="none" font-family="sans-serif" font-size="8.8pt" font-style="normal" font-weight="bold" text-decoration="normal" x="139.1133213942578" y="1015.737791378818" text-anchor="start" dominant-baseline="alphabetic" xml:space="preserve">[No reports remain]</text></g><g/></g><g/><g/><g/><g/><g/></g></svg>