<svg aria-roledescription="sequence" role="graphics-document document" viewBox="-50 -10 2593 2359" style="max-width: 2593px;" xmlns="http://www.w3.org/2000/svg" width="100%" id="export-svg"><style xmlns="http://www.w3.org/1999/xhtml">@import url("https://cdnjs.cloudflare.com/ajax/libs/font-awesome/6.2.0/css/all.min.css"); p {margin: 0;}</style><g><rect filter="url(#drop-shadow)" data-look="neo" class="actor actor-bottom" ry="6" rx="6" name="MySQL" height="65" width="156" stroke="#666" fill="#eaeaea" y="2273" x="2337"/><text class="actor actor-box" alignment-baseline="central" dominant-baseline="central" style="text-anchor: middle; font-size: 16px; font-weight: 400;" y="2305.5" x="2415"><tspan dy="0" x="2415">MySQL (External)</tspan></text></g><g><rect filter="url(#drop-shadow)" data-look="neo" class="actor actor-bottom" ry="6" rx="6" name="TypeORM" height="65" width="150" stroke="#666" fill="#eaeaea" y="2273" x="2134"/><text class="actor actor-box" alignment-baseline="central" dominant-baseline="central" style="text-anchor: middle; font-size: 16px; font-weight: 400;" y="2305.5" x="2209"><tspan dy="0" x="2209">TypeORM</tspan></text></g><g><rect filter="url(#drop-shadow)" data-look="neo" class="actor actor-bottom" ry="6" rx="6" name="Redis" height="65" width="150" stroke="#666" fill="#eaeaea" y="2273" x="1934"/><text class="actor actor-box" alignment-baseline="central" dominant-baseline="central" style="text-anchor: middle; font-size: 16px; font-weight: 400;" y="2305.5" x="2009"><tspan dy="0" x="2009">Redis (External)</tspan></text></g><g><rect filter="url(#drop-shadow)" data-look="neo" class="actor actor-bottom" ry="6" rx="6" name="Session" height="65" width="150" stroke="#666" fill="#eaeaea" y="2273" x="1691"/><text class="actor actor-box" alignment-baseline="central" dominant-baseline="central" style="text-anchor: middle; font-size: 16px; font-weight: 400;" y="2305.5" x="1766"><tspan dy="0" x="1766">Session</tspan></text></g><g><rect filter="url(#drop-shadow)" data-look="neo" class="actor actor-bottom" ry="6" rx="6" name="MatchmakingService" height="65" width="184" stroke="#666" fill="#eaeaea" y="2273" x="1457"/><text class="actor actor-box" alignment-baseline="central" dominant-baseline="central" style="text-anchor: middle; font-size: 16px; font-weight: 400;" y="2305.5" x="1549"><tspan dy="0" x="1549">MatchmakingService</tspan></text></g><g><rect filter="url(#drop-shadow)" data-look="neo" class="actor actor-bottom" ry="6" rx="6" name="DatabaseController" height="65" width="175" stroke="#666" fill="#eaeaea" y="2273" x="1027.5"/><text class="actor actor-box" alignment-baseline="central" dominant-baseline="central" style="text-anchor: middle; font-size: 16px; font-weight: 400;" y="2305.5" x="1115"><tspan dy="0" x="1115">DatabaseController</tspan></text></g><g><rect filter="url(#drop-shadow)" data-look="neo" class="actor actor-bottom" ry="6" rx="6" name="Frontend" height="65" width="150" stroke="#666" fill="#eaeaea" y="2273" x="521"/><text class="actor actor-box" alignment-baseline="central" dominant-baseline="central" style="text-anchor: middle; font-size: 16px; font-weight: 400;" y="2305.5" x="596"><tspan dy="0" x="596">Frontend</tspan></text></g><g/><g><line data-id="MySQL" data-et="life-line" name="MySQL" stroke="#999" stroke-width="0.5px" class="actor-line 200" y2="2273" x2="2415" y1="65" x1="2415" id="actor191"/><g data-id="MySQL" data-et="participant" data-look="neo" id="root-191"><rect filter="url(#drop-shadow)" data-look="neo" class="actor actor-top" ry="6" rx="6" name="MySQL" height="65" width="156" stroke="#666" fill="#eaeaea" y="0" x="2337"/><text class="actor actor-box" alignment-baseline="central" dominant-baseline="central" style="text-anchor: middle; font-size: 16px; font-weight: 400;" y="32.5" x="2415"><tspan dy="0" x="2415">MySQL (External)</tspan></text></g></g><g><line data-id="TypeORM" data-et="life-line" name="TypeORM" stroke="#999" stroke-width="0.5px" class="actor-line 200" y2="2273" x2="2209" y1="65" x1="2209" id="actor190"/><g data-id="TypeORM" data-et="participant" data-look="neo" id="root-190"><rect filter="url(#drop-shadow)" data-look="neo" class="actor actor-top" ry="6" rx="6" name="TypeORM" height="65" width="150" stroke="#666" fill="#eaeaea" y="0" x="2134"/><text class="actor actor-box" alignment-baseline="central" dominant-baseline="central" style="text-anchor: middle; font-size: 16px; font-weight: 400;" y="32.5" x="2209"><tspan dy="0" x="2209">TypeORM</tspan></text></g></g><g><line data-id="Redis" data-et="life-line" name="Redis" stroke="#999" stroke-width="0.5px" class="actor-line 200" y2="2273" x2="2009" y1="65" x1="2009" id="actor189"/><g data-id="Redis" data-et="participant" data-look="neo" id="root-189"><rect filter="url(#drop-shadow)" data-look="neo" class="actor actor-top" ry="6" rx="6" name="Redis" height="65" width="150" stroke="#666" fill="#eaeaea" y="0" x="1934"/><text class="actor actor-box" alignment-baseline="central" dominant-baseline="central" style="text-anchor: middle; font-size: 16px; font-weight: 400;" y="32.5" x="2009"><tspan dy="0" x="2009">Redis (External)</tspan></text></g></g><g><line data-id="Session" data-et="life-line" name="Session" stroke="#999" stroke-width="0.5px" class="actor-line 200" y2="2273" x2="1766" y1="65" x1="1766" id="actor188"/><g data-id="Session" data-et="participant" data-look="neo" id="root-188"><rect filter="url(#drop-shadow)" data-look="neo" class="actor actor-top" ry="6" rx="6" name="Session" height="65" width="150" stroke="#666" fill="#eaeaea" y="0" x="1691"/><text class="actor actor-box" alignment-baseline="central" dominant-baseline="central" style="text-anchor: middle; font-size: 16px; font-weight: 400;" y="32.5" x="1766"><tspan dy="0" x="1766">Session</tspan></text></g></g><g><line data-id="MatchmakingService" data-et="life-line" name="MatchmakingService" stroke="#999" stroke-width="0.5px" class="actor-line 200" y2="2273" x2="1549" y1="65" x1="1549" id="actor187"/><g data-id="MatchmakingService" data-et="participant" data-look="neo" id="root-187"><rect filter="url(#drop-shadow)" data-look="neo" class="actor actor-top" ry="6" rx="6" name="MatchmakingService" height="65" width="184" stroke="#666" fill="#eaeaea" y="0" x="1457"/><text class="actor actor-box" alignment-baseline="central" dominant-baseline="central" style="text-anchor: middle; font-size: 16px; font-weight: 400;" y="32.5" x="1549"><tspan dy="0" x="1549">MatchmakingService</tspan></text></g></g><g><line data-id="DatabaseController" data-et="life-line" name="DatabaseController" stroke="#999" stroke-width="0.5px" class="actor-line 200" y2="2273" x2="1115" y1="65" x1="1115" id="actor186"/><g data-id="DatabaseController" data-et="participant" data-look="neo" id="root-186"><rect filter="url(#drop-shadow)" data-look="neo" class="actor actor-top" ry="6" rx="6" name="DatabaseController" height="65" width="175" stroke="#666" fill="#eaeaea" y="0" x="1027.5"/><text class="actor actor-box" alignment-baseline="central" dominant-baseline="central" style="text-anchor: middle; font-size: 16px; font-weight: 400;" y="32.5" x="1115"><tspan dy="0" x="1115">DatabaseController</tspan></text></g></g><g><line data-id="Frontend" data-et="life-line" name="Frontend" stroke="#999" stroke-width="0.5px" class="actor-line 200" y2="2273" x2="596" y1="65" x1="596" id="actor185"/><g data-id="Frontend" data-et="participant" data-look="neo" id="root-185"><rect filter="url(#drop-shadow)" data-look="neo" class="actor actor-top" ry="6" rx="6" name="Frontend" height="65" width="150" stroke="#666" fill="#eaeaea" y="0" x="521"/><text class="actor actor-box" alignment-baseline="central" dominant-baseline="central" style="text-anchor: middle; font-size: 16px; font-weight: 400;" y="32.5" x="596"><tspan dy="0" x="596">Frontend</tspan></text></g></g><g><line data-id="User" data-et="life-line" name="User" stroke="#999" stroke-width="0.5px" class="actor-line 200" y2="2273" x2="75" y1="80" x1="75" id="actor184"/></g><style>#export-svg{font-family:arial,sans-serif;font-size:14px;fill:#333;}@keyframes edge-animation-frame{from{stroke-dashoffset:0;}}@keyframes dash{to{stroke-dashoffset:0;}}#export-svg .edge-animation-slow{stroke-dasharray:9,5!important;stroke-dashoffset:900;animation:dash 50s linear infinite;stroke-linecap:round;}#export-svg .edge-animation-fast{stroke-dasharray:9,5!important;stroke-dashoffset:900;animation:dash 20s linear infinite;stroke-linecap:round;}#export-svg .error-icon{fill:#ffffff;}#export-svg .error-text{fill:#000000;stroke:#000000;}#export-svg .edge-thickness-normal{stroke-width:2px;}#export-svg .edge-thickness-thick{stroke-width:3.5px;}#export-svg .edge-pattern-solid{stroke-dasharray:0;}#export-svg .edge-thickness-invisible{stroke-width:0;fill:none;}#export-svg .edge-pattern-dashed{stroke-dasharray:3;}#export-svg .edge-pattern-dotted{stroke-dasharray:2;}#export-svg .marker{fill:#000000;stroke:#000000;}#export-svg .marker.cross{stroke:#000000;}#export-svg svg{font-family:arial,sans-serif;font-size:14px;}#export-svg p{margin:0;}#export-svg .actor{stroke:hsl(0, 0%, 70%);fill:#ffffff;stroke-width:2;}#export-svg rect.actor.outer-path[data-look="neo"]{filter:drop-shadow( 0px 1px 2px rgba(0, 0, 0, 0.25));}#export-svg rect.note[data-look="neo"]{stroke:hsl(52.6829268293, 60%, 73.9215686275%);fill:#fff5ad;filter:drop-shadow( 0px 1px 2px rgba(0, 0, 0, 0.25));stroke-width:2;}#export-svg text.actor&gt;tspan{fill:#333;stroke:none;}#export-svg .actor-line{stroke:hsl(0, 0%, 70%);}#export-svg .messageLine0{stroke-width:2;stroke-dasharray:none;stroke:#333;}#export-svg .messageLine1{stroke-width:2;stroke-dasharray:2,2;stroke:#333;}#export-svg #arrowhead path{fill:#333;stroke:#333;}#export-svg .sequenceNumber{fill:#ffffff;}#export-svg #sequencenumber{fill:#333;}#export-svg #crosshead path{fill:#333;stroke:#333;}#export-svg .messageText{fill:#333;stroke:none;}#export-svg .labelBox{stroke:hsl(0, 0%, 70%);fill:#ffffff;filter:drop-shadow( 0px 1px 2px rgba(0, 0, 0, 0.25));}#export-svg .labelText,#export-svg .labelText&gt;tspan{fill:#333;stroke:none;}#export-svg .loopText,#export-svg .loopText&gt;tspan{fill:#333;stroke:none;}#export-svg .loopLine{stroke-width:2px;stroke-dasharray:2,2;stroke:hsl(0, 0%, 70%);fill:hsl(0, 0%, 70%);}#export-svg .note{stroke:hsl(52.6829268293, 60%, 73.9215686275%);fill:#fff5ad;}#export-svg .noteText,#export-svg .noteText&gt;tspan{fill:#333;stroke:none;}#export-svg .activation0{fill:hsl(-120, 0%, 80%);stroke:hsl(-120, 0%, 70%);}#export-svg .activation1{fill:hsl(-120, 0%, 80%);stroke:hsl(-120, 0%, 70%);}#export-svg .activation2{fill:hsl(-120, 0%, 80%);stroke:hsl(-120, 0%, 70%);}#export-svg .actorPopupMenu{position:absolute;}#export-svg .actorPopupMenuPanel{position:absolute;fill:#ffffff;box-shadow:0px 8px 16px 0px rgba(0,0,0,0.2);filter:drop-shadow(3px 5px 2px rgb(0 0 0 / 0.4));}#export-svg .actor-man circle,#export-svg line{fill:#ffffff;stroke-width:2px;}#export-svg g rect.rect{filter:drop-shadow( 0px 1px 2px rgba(0, 0, 0, 0.25));stroke:#000000;stroke-width:2;}#export-svg .node .neo-node{stroke:#000000;}#export-svg [data-look="neo"].node rect,#export-svg [data-look="neo"].cluster rect,#export-svg [data-look="neo"].node polygon{stroke:url(#export-svg-gradient);filter:drop-shadow( 0px 1px 2px rgba(0, 0, 0, 0.25));}#export-svg [data-look="neo"].node path{stroke:url(#export-svg-gradient);}#export-svg [data-look="neo"].node .outer-path{filter:drop-shadow( 0px 1px 2px rgba(0, 0, 0, 0.25));}#export-svg [data-look="neo"].node .neo-line path{stroke:#000000;filter:none;}#export-svg [data-look="neo"].node circle{stroke:url(#export-svg-gradient);filter:drop-shadow( 0px 1px 2px rgba(0, 0, 0, 0.25));}#export-svg [data-look="neo"].node circle .state-start{fill:#000000;}#export-svg [data-look="neo"].statediagram-cluster rect{fill:#ffffff;stroke:url(#export-svg-gradient);stroke-width:1px;}#export-svg [data-look="neo"].icon-shape .icon{fill:url(#export-svg-gradient);filter:drop-shadow( 0px 1px 2px rgba(0, 0, 0, 0.25));}#export-svg [data-look="neo"].icon-shape .icon-neo path{stroke:url(#export-svg-gradient);filter:drop-shadow( 0px 1px 2px rgba(0, 0, 0, 0.25));}#export-svg :root{--mermaid-font-family:"trebuchet ms",verdana,arial,sans-serif;}</style><g/><defs><symbol height="24" width="24" id="computer"><path d="M2 2v13h20v-13h-20zm18 11h-16v-9h16v9zm-10.228 6l.466-1h3.524l.467 1h-4.457zm14.228 3h-24l2-6h2.104l-1.33 4h18.45l-1.297-4h2.073l2 6zm-5-10h-14v-7h14v7z" transform="scale(.5)"/></symbol></defs><defs><symbol clip-rule="evenodd" fill-rule="evenodd" id="database"><path d="M12.258.001l.256.004.255.005.253.008.251.01.249.012.247.015.246.016.242.019.241.02.239.023.236.024.233.027.231.028.229.031.225.032.223.034.22.036.217.038.214.04.211.041.208.043.205.045.201.046.198.048.194.05.191.051.187.053.183.054.18.056.175.057.172.059.168.06.163.061.16.063.155.064.15.066.074.033.073.033.071.034.07.034.069.035.068.035.067.035.066.035.064.036.064.036.062.036.06.036.06.037.058.037.058.037.055.038.055.038.053.038.052.038.051.039.05.039.048.039.047.039.045.04.044.04.043.04.041.04.04.041.039.041.037.041.036.041.034.041.033.042.032.042.03.042.029.042.027.042.026.043.024.043.023.043.021.043.02.043.018.044.017.043.015.044.013.044.012.044.011.045.009.044.007.045.006.045.004.045.002.045.001.045v17l-.001.045-.002.045-.004.045-.006.045-.007.045-.009.044-.011.045-.012.044-.013.044-.015.044-.017.043-.018.044-.02.043-.021.043-.023.043-.024.043-.026.043-.027.042-.029.042-.03.042-.032.042-.033.042-.034.041-.036.041-.037.041-.039.041-.04.041-.041.04-.043.04-.044.04-.045.04-.047.039-.048.039-.05.039-.051.039-.052.038-.053.038-.055.038-.055.038-.058.037-.058.037-.06.037-.06.036-.062.036-.064.036-.064.036-.066.035-.067.035-.068.035-.069.035-.07.034-.071.034-.073.033-.074.033-.15.066-.155.064-.16.063-.163.061-.168.06-.172.059-.175.057-.18.056-.183.054-.187.053-.191.051-.194.05-.198.048-.201.046-.205.045-.208.043-.211.041-.214.04-.217.038-.22.036-.223.034-.225.032-.229.031-.231.028-.233.027-.236.024-.239.023-.241.02-.242.019-.246.016-.247.015-.249.012-.251.01-.253.008-.255.005-.256.004-.258.001-.258-.001-.256-.004-.255-.005-.253-.008-.251-.01-.249-.012-.247-.015-.245-.016-.243-.019-.241-.02-.238-.023-.236-.024-.234-.027-.231-.028-.228-.031-.226-.032-.223-.034-.22-.036-.217-.038-.214-.04-.211-.041-.208-.043-.204-.045-.201-.046-.198-.048-.195-.05-.19-.051-.187-.053-.184-.054-.179-.056-.176-.057-.172-.059-.167-.06-.164-.061-.159-.063-.155-.064-.151-.066-.074-.033-.072-.033-.072-.034-.07-.034-.069-.035-.068-.035-.067-.035-.066-.035-.064-.036-.063-.036-.062-.036-.061-.036-.06-.037-.058-.037-.057-.037-.056-.038-.055-.038-.053-.038-.052-.038-.051-.039-.049-.039-.049-.039-.046-.039-.046-.04-.044-.04-.043-.04-.041-.04-.04-.041-.039-.041-.037-.041-.036-.041-.034-.041-.033-.042-.032-.042-.03-.042-.029-.042-.027-.042-.026-.043-.024-.043-.023-.043-.021-.043-.02-.043-.018-.044-.017-.043-.015-.044-.013-.044-.012-.044-.011-.045-.009-.044-.007-.045-.006-.045-.004-.045-.002-.045-.001-.045v-17l.001-.045.002-.045.004-.045.006-.045.007-.045.009-.044.011-.045.012-.044.013-.044.015-.044.017-.043.018-.044.02-.043.021-.043.023-.043.024-.043.026-.043.027-.042.029-.042.03-.042.032-.042.033-.042.034-.041.036-.041.037-.041.039-.041.04-.041.041-.04.043-.04.044-.04.046-.04.046-.039.049-.039.049-.039.051-.039.052-.038.053-.038.055-.038.056-.038.057-.037.058-.037.06-.037.061-.036.062-.036.063-.036.064-.036.066-.035.067-.035.068-.035.069-.035.07-.034.072-.034.072-.033.074-.033.151-.066.155-.064.159-.063.164-.061.167-.06.172-.059.176-.057.179-.056.184-.054.187-.053.19-.051.195-.05.198-.048.201-.046.204-.045.208-.043.211-.041.214-.04.217-.038.22-.036.223-.034.226-.032.228-.031.231-.028.234-.027.236-.024.238-.023.241-.02.243-.019.245-.016.247-.015.249-.012.251-.01.253-.008.255-.005.256-.004.258-.001.258.001zm-9.258 20.499v.01l.001.021.003.021.004.022.005.021.006.022.007.022.009.023.01.022.011.023.012.023.013.023.015.023.016.024.017.023.018.024.019.024.021.024.022.025.023.024.024.025.052.049.056.05.061.051.066.051.07.051.075.051.079.052.084.052.088.052.092.052.097.052.102.051.105.052.11.052.114.051.119.051.123.051.127.05.131.05.135.05.139.048.144.049.147.047.152.047.155.047.16.045.163.045.167.043.171.043.176.041.178.041.183.039.187.039.19.037.194.035.197.035.202.033.204.031.209.03.212.029.216.027.219.025.222.024.226.021.23.02.233.018.236.016.24.015.243.012.246.01.249.008.253.005.256.004.259.001.26-.001.257-.004.254-.005.25-.008.247-.011.244-.012.241-.014.237-.016.233-.018.231-.021.226-.021.224-.024.22-.026.216-.027.212-.028.21-.031.205-.031.202-.034.198-.034.194-.036.191-.037.187-.039.183-.04.179-.04.175-.042.172-.043.168-.044.163-.045.16-.046.155-.046.152-.047.148-.048.143-.049.139-.049.136-.05.131-.05.126-.05.123-.051.118-.052.114-.051.11-.052.106-.052.101-.052.096-.052.092-.052.088-.053.083-.051.079-.052.074-.052.07-.051.065-.051.06-.051.056-.05.051-.05.023-.024.023-.025.021-.024.02-.024.019-.024.018-.024.017-.024.015-.023.014-.024.013-.023.012-.023.01-.023.01-.022.008-.022.006-.022.006-.022.004-.022.004-.021.001-.021.001-.021v-4.127l-.077.055-.08.053-.083.054-.085.053-.087.052-.09.052-.093.051-.095.05-.097.05-.1.049-.102.049-.105.048-.106.047-.109.047-.111.046-.114.045-.115.045-.118.044-.12.043-.122.042-.124.042-.126.041-.128.04-.13.04-.132.038-.134.038-.135.037-.138.037-.139.035-.142.035-.143.034-.144.033-.147.032-.148.031-.15.03-.151.03-.153.029-.154.027-.156.027-.158.026-.159.025-.161.024-.162.023-.163.022-.165.021-.166.02-.167.019-.169.018-.169.017-.171.016-.173.015-.173.014-.175.013-.175.012-.177.011-.178.01-.179.008-.179.008-.181.006-.182.005-.182.004-.184.003-.184.002h-.37l-.184-.002-.184-.003-.182-.004-.182-.005-.181-.006-.179-.008-.179-.008-.178-.01-.176-.011-.176-.012-.175-.013-.173-.014-.172-.015-.171-.016-.17-.017-.169-.018-.167-.019-.166-.02-.165-.021-.163-.022-.162-.023-.161-.024-.159-.025-.157-.026-.156-.027-.155-.027-.153-.029-.151-.03-.15-.03-.148-.031-.146-.032-.145-.033-.143-.034-.141-.035-.14-.035-.137-.037-.136-.037-.134-.038-.132-.038-.13-.04-.128-.04-.126-.041-.124-.042-.122-.042-.12-.044-.117-.043-.116-.045-.113-.045-.112-.046-.109-.047-.106-.047-.105-.048-.102-.049-.1-.049-.097-.05-.095-.05-.093-.052-.09-.051-.087-.052-.085-.053-.083-.054-.08-.054-.077-.054v4.127zm0-5.654v.011l.001.021.003.021.004.021.005.022.006.022.007.022.009.022.01.022.011.023.012.023.013.023.015.024.016.023.017.024.018.024.019.024.021.024.022.024.023.025.024.024.052.05.056.05.061.05.066.051.07.051.075.052.079.051.084.052.088.052.092.052.097.052.102.052.105.052.11.051.114.051.119.052.123.05.127.051.131.05.135.049.139.049.144.048.147.048.152.047.155.046.16.045.163.045.167.044.171.042.176.042.178.04.183.04.187.038.19.037.194.036.197.034.202.033.204.032.209.03.212.028.216.027.219.025.222.024.226.022.23.02.233.018.236.016.24.014.243.012.246.01.249.008.253.006.256.003.259.001.26-.001.257-.003.254-.006.25-.008.247-.01.244-.012.241-.015.237-.016.233-.018.231-.02.226-.022.224-.024.22-.025.216-.027.212-.029.21-.03.205-.032.202-.033.198-.035.194-.036.191-.037.187-.039.183-.039.179-.041.175-.042.172-.043.168-.044.163-.045.16-.045.155-.047.152-.047.148-.048.143-.048.139-.05.136-.049.131-.05.126-.051.123-.051.118-.051.114-.052.11-.052.106-.052.101-.052.096-.052.092-.052.088-.052.083-.052.079-.052.074-.051.07-.052.065-.051.06-.05.056-.051.051-.049.023-.025.023-.024.021-.025.02-.024.019-.024.018-.024.017-.024.015-.023.014-.023.013-.024.012-.022.01-.023.01-.023.008-.022.006-.022.006-.022.004-.021.004-.022.001-.021.001-.021v-4.139l-.077.054-.08.054-.083.054-.085.052-.087.053-.09.051-.093.051-.095.051-.097.05-.1.049-.102.049-.105.048-.106.047-.109.047-.111.046-.114.045-.115.044-.118.044-.12.044-.122.042-.124.042-.126.041-.128.04-.13.039-.132.039-.134.038-.135.037-.138.036-.139.036-.142.035-.143.033-.144.033-.147.033-.148.031-.15.03-.151.03-.153.028-.154.028-.156.027-.158.026-.159.025-.161.024-.162.023-.163.022-.165.021-.166.02-.167.019-.169.018-.169.017-.171.016-.173.015-.173.014-.175.013-.175.012-.177.011-.178.009-.179.009-.179.007-.181.007-.182.005-.182.004-.184.003-.184.002h-.37l-.184-.002-.184-.003-.182-.004-.182-.005-.181-.007-.179-.007-.179-.009-.178-.009-.176-.011-.176-.012-.175-.013-.173-.014-.172-.015-.171-.016-.17-.017-.169-.018-.167-.019-.166-.02-.165-.021-.163-.022-.162-.023-.161-.024-.159-.025-.157-.026-.156-.027-.155-.028-.153-.028-.151-.03-.15-.03-.148-.031-.146-.033-.145-.033-.143-.033-.141-.035-.14-.036-.137-.036-.136-.037-.134-.038-.132-.039-.13-.039-.128-.04-.126-.041-.124-.042-.122-.043-.12-.043-.117-.044-.116-.044-.113-.046-.112-.046-.109-.046-.106-.047-.105-.048-.102-.049-.1-.049-.097-.05-.095-.051-.093-.051-.09-.051-.087-.053-.085-.052-.083-.054-.08-.054-.077-.054v4.139zm0-5.666v.011l.001.02.003.022.004.021.005.022.006.021.007.022.009.023.01.022.011.023.012.023.013.023.015.023.016.024.017.024.018.023.019.024.021.025.022.024.023.024.024.025.052.05.056.05.061.05.066.051.07.051.075.052.079.051.084.052.088.052.092.052.097.052.102.052.105.051.11.052.114.051.119.051.123.051.127.05.131.05.135.05.139.049.144.048.147.048.152.047.155.046.16.045.163.045.167.043.171.043.176.042.178.04.183.04.187.038.19.037.194.036.197.034.202.033.204.032.209.03.212.028.216.027.219.025.222.024.226.021.23.02.233.018.236.017.24.014.243.012.246.01.249.008.253.006.256.003.259.001.26-.001.257-.003.254-.006.25-.008.247-.01.244-.013.241-.014.237-.016.233-.018.231-.02.226-.022.224-.024.22-.025.216-.027.212-.029.21-.03.205-.032.202-.033.198-.035.194-.036.191-.037.187-.039.183-.039.179-.041.175-.042.172-.043.168-.044.163-.045.16-.045.155-.047.152-.047.148-.048.143-.049.139-.049.136-.049.131-.051.126-.05.123-.051.118-.052.114-.051.11-.052.106-.052.101-.052.096-.052.092-.052.088-.052.083-.052.079-.052.074-.052.07-.051.065-.051.06-.051.056-.05.051-.049.023-.025.023-.025.021-.024.02-.024.019-.024.018-.024.017-.024.015-.023.014-.024.013-.023.012-.023.01-.022.01-.023.008-.022.006-.022.006-.022.004-.022.004-.021.001-.021.001-.021v-4.153l-.077.054-.08.054-.083.053-.085.053-.087.053-.09.051-.093.051-.095.051-.097.05-.1.049-.102.048-.105.048-.106.048-.109.046-.111.046-.114.046-.115.044-.118.044-.12.043-.122.043-.124.042-.126.041-.128.04-.13.039-.132.039-.134.038-.135.037-.138.036-.139.036-.142.034-.143.034-.144.033-.147.032-.148.032-.15.03-.151.03-.153.028-.154.028-.156.027-.158.026-.159.024-.161.024-.162.023-.163.023-.165.021-.166.02-.167.019-.169.018-.169.017-.171.016-.173.015-.173.014-.175.013-.175.012-.177.01-.178.01-.179.009-.179.007-.181.006-.182.006-.182.004-.184.003-.184.001-.185.001-.185-.001-.184-.001-.184-.003-.182-.004-.182-.006-.181-.006-.179-.007-.179-.009-.178-.01-.176-.01-.176-.012-.175-.013-.173-.014-.172-.015-.171-.016-.17-.017-.169-.018-.167-.019-.166-.02-.165-.021-.163-.023-.162-.023-.161-.024-.159-.024-.157-.026-.156-.027-.155-.028-.153-.028-.151-.03-.15-.03-.148-.032-.146-.032-.145-.033-.143-.034-.141-.034-.14-.036-.137-.036-.136-.037-.134-.038-.132-.039-.13-.039-.128-.041-.126-.041-.124-.041-.122-.043-.12-.043-.117-.044-.116-.044-.113-.046-.112-.046-.109-.046-.106-.048-.105-.048-.102-.048-.1-.05-.097-.049-.095-.051-.093-.051-.09-.052-.087-.052-.085-.053-.083-.053-.08-.054-.077-.054v4.153zm8.74-8.179l-.257.004-.254.005-.25.008-.247.011-.244.012-.241.014-.237.016-.233.018-.231.021-.226.022-.224.023-.22.026-.216.027-.212.028-.21.031-.205.032-.202.033-.198.034-.194.036-.191.038-.187.038-.183.04-.179.041-.175.042-.172.043-.168.043-.163.045-.16.046-.155.046-.152.048-.148.048-.143.048-.139.049-.136.05-.131.05-.126.051-.123.051-.118.051-.114.052-.11.052-.106.052-.101.052-.096.052-.092.052-.088.052-.083.052-.079.052-.074.051-.07.052-.065.051-.06.05-.056.05-.051.05-.023.025-.023.024-.021.024-.02.025-.019.024-.018.024-.017.023-.015.024-.014.023-.013.023-.012.023-.01.023-.01.022-.008.022-.006.023-.006.021-.004.022-.004.021-.001.021-.001.021.001.021.001.021.004.021.004.022.006.021.006.023.008.022.01.022.01.023.012.023.013.023.014.023.015.024.017.023.018.024.019.024.02.025.021.024.023.024.023.025.051.05.056.05.06.05.065.051.07.052.074.051.079.052.083.052.088.052.092.052.096.052.101.052.106.052.11.052.114.052.118.051.123.051.126.051.131.05.136.05.139.049.143.048.148.048.152.048.155.046.16.046.163.045.168.043.172.043.175.042.179.041.183.04.187.038.191.038.194.036.198.034.202.033.205.032.21.031.212.028.216.027.22.026.224.023.226.022.231.021.233.018.237.016.241.014.244.012.247.011.25.008.254.005.257.004.26.001.26-.001.257-.004.254-.005.25-.008.247-.011.244-.012.241-.014.237-.016.233-.018.231-.021.226-.022.224-.023.22-.026.216-.027.212-.028.21-.031.205-.032.202-.033.198-.034.194-.036.191-.038.187-.038.183-.04.179-.041.175-.042.172-.043.168-.043.163-.045.16-.046.155-.046.152-.048.148-.048.143-.048.139-.049.136-.05.131-.05.126-.051.123-.051.118-.051.114-.052.11-.052.106-.052.101-.052.096-.052.092-.052.088-.052.083-.052.079-.052.074-.051.07-.052.065-.051.06-.05.056-.05.051-.05.023-.025.023-.024.021-.024.02-.025.019-.024.018-.024.017-.023.015-.024.014-.023.013-.023.012-.023.01-.023.01-.022.008-.022.006-.023.006-.021.004-.022.004-.021.001-.021.001-.021-.001-.021-.001-.021-.004-.021-.004-.022-.006-.021-.006-.023-.008-.022-.01-.022-.01-.023-.012-.023-.013-.023-.014-.023-.015-.024-.017-.023-.018-.024-.019-.024-.02-.025-.021-.024-.023-.024-.023-.025-.051-.05-.056-.05-.06-.05-.065-.051-.07-.052-.074-.051-.079-.052-.083-.052-.088-.052-.092-.052-.096-.052-.101-.052-.106-.052-.11-.052-.114-.052-.118-.051-.123-.051-.126-.051-.131-.05-.136-.05-.139-.049-.143-.048-.148-.048-.152-.048-.155-.046-.16-.046-.163-.045-.168-.043-.172-.043-.175-.042-.179-.041-.183-.04-.187-.038-.191-.038-.194-.036-.198-.034-.202-.033-.205-.032-.21-.031-.212-.028-.216-.027-.22-.026-.224-.023-.226-.022-.231-.021-.233-.018-.237-.016-.241-.014-.244-.012-.247-.011-.25-.008-.254-.005-.257-.004-.26-.001-.26.001z" transform="scale(.5)"/></symbol></defs><defs><symbol height="24" width="24" id="clock"><path d="M12 2c5.514 0 10 4.486 10 10s-4.486 10-10 10-10-4.486-10-10 4.486-10 10-10zm0-2c-6.627 0-12 5.373-12 12s5.373 12 12 12 12-5.373 12-12-5.373-12-12-12zm5.848 12.459c.202.038.202.333.001.372-1.907.361-6.045 1.111-6.547 1.111-.719 0-1.301-.582-1.301-1.301 0-.512.77-5.447 1.125-7.445.034-.192.312-.181.343.014l.985 6.238 5.394 1.011z" transform="scale(.5)"/></symbol></defs><defs><marker orient="auto-start-reverse" markerHeight="12" markerWidth="12" markerUnits="userSpaceOnUse" refY="5" refX="7.9" id="arrowhead"><path d="M -1 0 L 10 5 L 0 10 z"/></marker></defs><defs><marker refY="4.5" refX="4" orient="auto" markerHeight="8" markerWidth="15" id="crosshead"><path style="stroke-dasharray: 0, 0;" d="M 1,2 L 6,7 M 6,2 L 1,7" stroke-width="1pt" stroke="#000000" fill="none"/></marker></defs><defs><marker orient="auto" markerHeight="28" markerWidth="20" refY="7" refX="15.5" id="filled-head"><path d="M 18,7 L9,13 L14,7 L9,1 Z"/></marker></defs><defs><marker orient="auto" markerHeight="40" markerWidth="60" refY="15" refX="15" id="sequencenumber"><circle r="6" cy="15" cx="15"/></marker></defs><g data-id="i43" data-et="control-structure"><line class="loopLine" y2="969" x2="2426" y1="969" x1="64"/><line class="loopLine" y2="2253" x2="2426" y1="969" x1="2426"/><line class="loopLine" y2="2253" x2="2426" y1="2253" x1="64"/><line class="loopLine" y2="2253" x2="64" y1="969" x1="64"/><line style="stroke-dasharray: 3, 3;" class="loopLine" y2="1817" x2="2426" y1="1817" x1="64"/><polygon class="labelBox" points="64,969 114,969 114,997 105.6,1004 64,1004"/><text class="labelText" style="font-size: 16px; font-weight: 400;" alignment-baseline="middle" dominant-baseline="middle" text-anchor="middle" y="989" x="89">alt</text><text class="loopText" style="font-size: 16px; font-weight: 400;" text-anchor="middle" y="987" x="1270"><tspan x="1270">[Group Found (Success)]</tspan></text><text class="loopText" style="font-size: 16px; font-weight: 400;" text-anchor="middle" y="1835" x="1245">[Timeout (After 60 seconds)]</text></g><g style="stroke: rgb(179, 179, 179);" data-id="User" data-et="participant" name="User" class="actor-man actor-top"><line y2="37.5" x2="75" y1="27.5" x1="75" id="actor-man-torso184"/><line y2="31.5" x2="84" y1="31.5" x1="66" id="actor-man-arms184"/><line y2="37.5" x2="75" y1="45" x1="66"/><line y2="45" x2="83" y1="37.5" x1="75"/><circle height="32.5" width="75" r="7.5" cy="20" cx="75"/><text class="actor actor-man" alignment-baseline="central" dominant-baseline="central" style="text-anchor: middle; font-size: 16px; font-weight: 400;" y="55" x="75"><tspan dy="0" x="75">User</tspan></text></g><text dy="1em" class="messageText" style="font-size: 16px; font-weight: 400;" alignment-baseline="middle" dominant-baseline="middle" text-anchor="middle" y="80" x="333">Clicks "Find Group" button</text><line style="fill: none;" marker-end="url(#arrowhead)" stroke="none" stroke-width="2" data-to="Frontend" data-from="User" data-id="i0" data-et="message" class="messageLine0" y2="113" x2="589" y1="113" x1="76"/><text dy="1em" class="messageText" style="font-size: 16px; font-weight: 400;" alignment-baseline="middle" dominant-baseline="middle" text-anchor="middle" y="128" x="597">Disable button and change text to "Finding"</text><path style="fill: none;" marker-end="url(#arrowhead)" stroke="none" stroke-width="2" data-to="Frontend" data-from="Frontend" data-id="i1" data-et="message" class="messageLine0" d="M 597,161 C 657,151 657,191 597,181"/><text dy="1em" class="messageText" style="font-size: 16px; font-weight: 400;" alignment-baseline="middle" dominant-baseline="middle" text-anchor="middle" y="206" x="853">POST /matchmaking/initiate {discord_id, preference_id}</text><line style="fill: none;" marker-end="url(#arrowhead)" stroke="none" stroke-width="2" data-to="DatabaseController" data-from="Frontend" data-id="i2" data-et="message" class="messageLine0" y2="239" x2="1108" y1="239" x1="597"/><text dy="1em" class="messageText" style="font-size: 16px; font-weight: 400;" alignment-baseline="middle" dominant-baseline="middle" text-anchor="middle" y="254" x="1438">Check Session</text><line style="fill: none;" marker-end="url(#arrowhead)" stroke="none" stroke-width="2" data-to="Session" data-from="DatabaseController" data-id="i3" data-et="message" class="messageLine0" y2="287" x2="1759" y1="287" x1="1116"/><text dy="1em" class="messageText" style="font-size: 16px; font-weight: 400;" alignment-baseline="middle" dominant-baseline="middle" text-anchor="middle" y="302" x="1885">Validate User Session</text><line style="fill: none;" marker-end="url(#arrowhead)" stroke="none" stroke-width="2" data-to="Redis" data-from="Session" data-id="i4" data-et="message" class="messageLine0" y2="335" x2="2002" y1="335" x1="1767"/><text dy="1em" class="messageText" style="font-size: 16px; font-weight: 400;" alignment-baseline="middle" dominant-baseline="middle" text-anchor="middle" y="350" x="1891">Session Valid</text><line marker-end="url(#arrowhead)" style="stroke-dasharray: 3, 3; fill: none;" stroke="none" stroke-width="2" data-to="Session" data-from="Redis" data-id="i5" data-et="message" class="messageLine1" y2="383" x2="1773" y1="383" x1="2008"/><text dy="1em" class="messageText" style="font-size: 16px; font-weight: 400;" alignment-baseline="middle" dominant-baseline="middle" text-anchor="middle" y="398" x="1659">findOne(Preferences, preference_id)</text><line style="fill: none;" marker-end="url(#arrowhead)" stroke="none" stroke-width="2" data-to="TypeORM" data-from="DatabaseController" data-id="i6" data-et="message" class="messageLine0" y2="431" x2="2202" y1="431" x1="1116"/><text dy="1em" class="messageText" style="font-size: 16px; font-weight: 400;" alignment-baseline="middle" dominant-baseline="middle" text-anchor="middle" y="446" x="2309">Get data</text><line style="fill: none;" marker-end="url(#arrowhead)" stroke="none" stroke-width="2" data-to="MySQL" data-from="TypeORM" data-id="i7" data-et="message" class="messageLine0" y2="479" x2="2408" y1="479" x1="2210"/><text dy="1em" class="messageText" style="font-size: 16px; font-weight: 400;" alignment-baseline="middle" dominant-baseline="middle" text-anchor="middle" y="494" x="2315">preferences data</text><line marker-end="url(#arrowhead)" style="stroke-dasharray: 3, 3; fill: none;" stroke="none" stroke-width="2" data-to="TypeORM" data-from="MySQL" data-id="i8" data-et="message" class="messageLine1" y2="527" x2="2216" y1="527" x1="2414"/><text dy="1em" class="messageText" style="font-size: 16px; font-weight: 400;" alignment-baseline="middle" dominant-baseline="middle" text-anchor="middle" y="542" x="1665">preferences{language, timezone, game_id}</text><line marker-end="url(#arrowhead)" style="stroke-dasharray: 3, 3; fill: none;" stroke="none" stroke-width="2" data-to="DatabaseController" data-from="TypeORM" data-id="i9" data-et="message" class="messageLine1" y2="575" x2="1122" y1="575" x1="2208"/><text dy="1em" class="messageText" style="font-size: 16px; font-weight: 400;" alignment-baseline="middle" dominant-baseline="middle" text-anchor="middle" y="590" x="1329">initiateMatchmaking(discord_id, preferences)</text><line style="fill: none;" marker-end="url(#arrowhead)" stroke="none" stroke-width="2" data-to="MatchmakingService" data-from="DatabaseController" data-id="i10" data-et="message" class="messageLine0" y2="623" x2="1542" y1="623" x1="1116"/><text dy="1em" class="messageText" style="font-size: 16px; font-weight: 400;" alignment-baseline="middle" dominant-baseline="middle" text-anchor="middle" y="638" x="1776">Add user to matchmaking queue</text><line style="fill: none;" marker-end="url(#arrowhead)" stroke="none" stroke-width="2" data-to="Redis" data-from="MatchmakingService" data-id="i11" data-et="message" class="messageLine0" y2="671" x2="2002" y1="671" x1="1550"/><text dy="1em" class="messageText" style="font-size: 16px; font-weight: 400;" alignment-baseline="middle" dominant-baseline="middle" text-anchor="middle" y="686" x="1782">success</text><line marker-end="url(#arrowhead)" style="stroke-dasharray: 3, 3; fill: none;" stroke="none" stroke-width="2" data-to="MatchmakingService" data-from="Redis" data-id="i12" data-et="message" class="messageLine1" y2="719" x2="1556" y1="719" x1="2008"/><text dy="1em" class="messageText" style="font-size: 16px; font-weight: 400;" alignment-baseline="middle" dominant-baseline="middle" text-anchor="middle" y="734" x="1335">{status: "queued"}</text><line marker-end="url(#arrowhead)" style="stroke-dasharray: 3, 3; fill: none;" stroke="none" stroke-width="2" data-to="DatabaseController" data-from="MatchmakingService" data-id="i13" data-et="message" class="messageLine1" y2="767" x2="1122" y1="767" x1="1548"/><text dy="1em" class="messageText" style="font-size: 16px; font-weight: 400;" alignment-baseline="middle" dominant-baseline="middle" text-anchor="middle" y="782" x="859">JSON {status: "queued", message: "Added to queue"}</text><line marker-end="url(#arrowhead)" style="stroke-dasharray: 3, 3; fill: none;" stroke="none" stroke-width="2" data-to="Frontend" data-from="DatabaseController" data-id="i14" data-et="message" class="messageLine1" y2="815" x2="603" y1="815" x1="1114"/><text dy="1em" class="messageText" style="font-size: 16px; font-weight: 400;" alignment-baseline="middle" dominant-baseline="middle" text-anchor="middle" y="830" x="853">GET /matchmaking/status/:discord_id</text><line style="fill: none;" marker-end="url(#arrowhead)" stroke="none" stroke-width="2" data-to="DatabaseController" data-from="Frontend" data-id="i15" data-et="message" class="messageLine0" y2="863" x2="1108" y1="863" x1="597"/><text dy="1em" class="messageText" style="font-size: 16px; font-weight: 400;" alignment-baseline="middle" dominant-baseline="middle" text-anchor="middle" y="878" x="1329">getMatchmakingStatus(discord_id)</text><line style="fill: none;" marker-end="url(#arrowhead)" stroke="none" stroke-width="2" data-to="MatchmakingService" data-from="DatabaseController" data-id="i16" data-et="message" class="messageLine0" y2="911" x2="1542" y1="911" x1="1116"/><text dy="1em" class="messageText" style="font-size: 16px; font-weight: 400;" alignment-baseline="middle" dominant-baseline="middle" text-anchor="middle" y="926" x="1776">Check status</text><line style="fill: none;" marker-end="url(#arrowhead)" stroke="none" stroke-width="2" data-to="Redis" data-from="MatchmakingService" data-id="i17" data-et="message" class="messageLine0" y2="959" x2="2002" y1="959" x1="1550"/><text dy="1em" class="messageText" style="font-size: 16px; font-weight: 400;" alignment-baseline="middle" dominant-baseline="middle" text-anchor="middle" y="1019" x="1782">{status: "matched", group_id: 123}</text><line marker-end="url(#arrowhead)" style="stroke-dasharray: 3, 3; fill: none;" stroke="none" stroke-width="2" data-to="MatchmakingService" data-from="Redis" data-id="i19" data-et="message" class="messageLine1" y2="1052" x2="1556" y1="1052" x1="2008"/><text dy="1em" class="messageText" style="font-size: 16px; font-weight: 400;" alignment-baseline="middle" dominant-baseline="middle" text-anchor="middle" y="1067" x="1876">findOne(Group, group_id)</text><line style="fill: none;" marker-end="url(#arrowhead)" stroke="none" stroke-width="2" data-to="TypeORM" data-from="MatchmakingService" data-id="i20" data-et="message" class="messageLine0" y2="1100" x2="2202" y1="1100" x1="1550"/><text dy="1em" class="messageText" style="font-size: 16px; font-weight: 400;" alignment-baseline="middle" dominant-baseline="middle" text-anchor="middle" y="1115" x="2309">Get data</text><line style="fill: none;" marker-end="url(#arrowhead)" stroke="none" stroke-width="2" data-to="MySQL" data-from="TypeORM" data-id="i21" data-et="message" class="messageLine0" y2="1148" x2="2408" y1="1148" x1="2210"/><text dy="1em" class="messageText" style="font-size: 16px; font-weight: 400;" alignment-baseline="middle" dominant-baseline="middle" text-anchor="middle" y="1163" x="2315">group data</text><line marker-end="url(#arrowhead)" style="stroke-dasharray: 3, 3; fill: none;" stroke="none" stroke-width="2" data-to="TypeORM" data-from="MySQL" data-id="i22" data-et="message" class="messageLine1" y2="1196" x2="2216" y1="1196" x1="2414"/><text dy="1em" class="messageText" style="font-size: 16px; font-weight: 400;" alignment-baseline="middle" dominant-baseline="middle" text-anchor="middle" y="1211" x="1882">group{group_id, group_name, discord_url}</text><line marker-end="url(#arrowhead)" style="stroke-dasharray: 3, 3; fill: none;" stroke="none" stroke-width="2" data-to="MatchmakingService" data-from="TypeORM" data-id="i23" data-et="message" class="messageLine1" y2="1244" x2="1556" y1="1244" x1="2208"/><text dy="1em" class="messageText" style="font-size: 16px; font-weight: 400;" alignment-baseline="middle" dominant-baseline="middle" text-anchor="middle" y="1259" x="1335">{status: "matched", group: group}</text><line marker-end="url(#arrowhead)" style="stroke-dasharray: 3, 3; fill: none;" stroke="none" stroke-width="2" data-to="DatabaseController" data-from="MatchmakingService" data-id="i24" data-et="message" class="messageLine1" y2="1292" x2="1122" y1="1292" x1="1548"/><text dy="1em" class="messageText" style="font-size: 16px; font-weight: 400;" alignment-baseline="middle" dominant-baseline="middle" text-anchor="middle" y="1307" x="859">JSON {status: "matched", group: group}</text><line marker-end="url(#arrowhead)" style="stroke-dasharray: 3, 3; fill: none;" stroke="none" stroke-width="2" data-to="Frontend" data-from="DatabaseController" data-id="i25" data-et="message" class="messageLine1" y2="1340" x2="603" y1="1340" x1="1114"/><text dy="1em" class="messageText" style="font-size: 16px; font-weight: 400;" alignment-baseline="middle" dominant-baseline="middle" text-anchor="middle" y="1355" x="339">Popup: "You have been matched with a group!"</text><line marker-end="url(#arrowhead)" style="stroke-dasharray: 3, 3; fill: none;" stroke="none" stroke-width="2" data-to="User" data-from="Frontend" data-id="i26" data-et="message" class="messageLine1" y2="1388" x2="82" y1="1388" x1="595"/><text dy="1em" class="messageText" style="font-size: 16px; font-weight: 400;" alignment-baseline="middle" dominant-baseline="middle" text-anchor="middle" y="1403" x="853">GET /users/:id/groups</text><line style="fill: none;" marker-end="url(#arrowhead)" stroke="none" stroke-width="2" data-to="DatabaseController" data-from="Frontend" data-id="i27" data-et="message" class="messageLine0" y2="1436" x2="1108" y1="1436" x1="597"/><text dy="1em" class="messageText" style="font-size: 16px; font-weight: 400;" alignment-baseline="middle" dominant-baseline="middle" text-anchor="middle" y="1451" x="1659">find(GroupMember)</text><line style="fill: none;" marker-end="url(#arrowhead)" stroke="none" stroke-width="2" data-to="TypeORM" data-from="DatabaseController" data-id="i28" data-et="message" class="messageLine0" y2="1484" x2="2202" y1="1484" x1="1116"/><text dy="1em" class="messageText" style="font-size: 16px; font-weight: 400;" alignment-baseline="middle" dominant-baseline="middle" text-anchor="middle" y="1499" x="2309">Get data</text><line style="fill: none;" marker-end="url(#arrowhead)" stroke="none" stroke-width="2" data-to="MySQL" data-from="TypeORM" data-id="i29" data-et="message" class="messageLine0" y2="1532" x2="2408" y1="1532" x1="2210"/><text dy="1em" class="messageText" style="font-size: 16px; font-weight: 400;" alignment-baseline="middle" dominant-baseline="middle" text-anchor="middle" y="1547" x="2315">groups data</text><line marker-end="url(#arrowhead)" style="stroke-dasharray: 3, 3; fill: none;" stroke="none" stroke-width="2" data-to="TypeORM" data-from="MySQL" data-id="i30" data-et="message" class="messageLine1" y2="1580" x2="2216" y1="1580" x1="2414"/><text dy="1em" class="messageText" style="font-size: 16px; font-weight: 400;" alignment-baseline="middle" dominant-baseline="middle" text-anchor="middle" y="1595" x="1665">groups[]</text><line marker-end="url(#arrowhead)" style="stroke-dasharray: 3, 3; fill: none;" stroke="none" stroke-width="2" data-to="DatabaseController" data-from="TypeORM" data-id="i31" data-et="message" class="messageLine1" y2="1628" x2="1122" y1="1628" x1="2208"/><text dy="1em" class="messageText" style="font-size: 16px; font-weight: 400;" alignment-baseline="middle" dominant-baseline="middle" text-anchor="middle" y="1643" x="859">JSON groups[]</text><line marker-end="url(#arrowhead)" style="stroke-dasharray: 3, 3; fill: none;" stroke="none" stroke-width="2" data-to="Frontend" data-from="DatabaseController" data-id="i32" data-et="message" class="messageLine1" y2="1676" x2="603" y1="1676" x1="1114"/><text dy="1em" class="messageText" style="font-size: 16px; font-weight: 400;" alignment-baseline="middle" dominant-baseline="middle" text-anchor="middle" y="1691" x="339">Update "My Groups" section with new group</text><line marker-end="url(#arrowhead)" style="stroke-dasharray: 3, 3; fill: none;" stroke="none" stroke-width="2" data-to="User" data-from="Frontend" data-id="i33" data-et="message" class="messageLine1" y2="1724" x2="82" y1="1724" x1="595"/><text dy="1em" class="messageText" style="font-size: 16px; font-weight: 400;" alignment-baseline="middle" dominant-baseline="middle" text-anchor="middle" y="1739" x="597">Enable "Find Group" button</text><path style="fill: none;" marker-end="url(#arrowhead)" stroke="none" stroke-width="2" data-to="Frontend" data-from="Frontend" data-id="i34" data-et="message" class="messageLine0" d="M 597,1772 C 657,1762 657,1802 597,1792"/><text dy="1em" class="messageText" style="font-size: 16px; font-weight: 400;" alignment-baseline="middle" dominant-baseline="middle" text-anchor="middle" y="1862" x="1782">{status: "timeout"}</text><line marker-end="url(#arrowhead)" style="stroke-dasharray: 3, 3; fill: none;" stroke="none" stroke-width="2" data-to="MatchmakingService" data-from="Redis" data-id="i36" data-et="message" class="messageLine1" y2="1895" x2="1556" y1="1895" x1="2008"/><text dy="1em" class="messageText" style="font-size: 16px; font-weight: 400;" alignment-baseline="middle" dominant-baseline="middle" text-anchor="middle" y="1910" x="1776">Remove user from queue</text><line style="fill: none;" marker-end="url(#arrowhead)" stroke="none" stroke-width="2" data-to="Redis" data-from="MatchmakingService" data-id="i37" data-et="message" class="messageLine0" y2="1943" x2="2002" y1="1943" x1="1550"/><text dy="1em" class="messageText" style="font-size: 16px; font-weight: 400;" alignment-baseline="middle" dominant-baseline="middle" text-anchor="middle" y="1958" x="1782">success</text><line marker-end="url(#arrowhead)" style="stroke-dasharray: 3, 3; fill: none;" stroke="none" stroke-width="2" data-to="MatchmakingService" data-from="Redis" data-id="i38" data-et="message" class="messageLine1" y2="1991" x2="1556" y1="1991" x1="2008"/><text dy="1em" class="messageText" style="font-size: 16px; font-weight: 400;" alignment-baseline="middle" dominant-baseline="middle" text-anchor="middle" y="2006" x="1335">{status: "timeout"}</text><line marker-end="url(#arrowhead)" style="stroke-dasharray: 3, 3; fill: none;" stroke="none" stroke-width="2" data-to="DatabaseController" data-from="MatchmakingService" data-id="i39" data-et="message" class="messageLine1" y2="2039" x2="1122" y1="2039" x1="1548"/><text dy="1em" class="messageText" style="font-size: 16px; font-weight: 400;" alignment-baseline="middle" dominant-baseline="middle" text-anchor="middle" y="2054" x="859">JSON {status: "timeout", message: "No match found"}</text><line marker-end="url(#arrowhead)" style="stroke-dasharray: 3, 3; fill: none;" stroke="none" stroke-width="2" data-to="Frontend" data-from="DatabaseController" data-id="i40" data-et="message" class="messageLine1" y2="2087" x2="603" y1="2087" x1="1114"/><text dy="1em" class="messageText" style="font-size: 16px; font-weight: 400;" alignment-baseline="middle" dominant-baseline="middle" text-anchor="middle" y="2102" x="339">Popup: "Matchmaking timed out. Please try again later."</text><line marker-end="url(#arrowhead)" style="stroke-dasharray: 3, 3; fill: none;" stroke="none" stroke-width="2" data-to="User" data-from="Frontend" data-id="i41" data-et="message" class="messageLine1" y2="2135" x2="82" y1="2135" x1="595"/><text dy="1em" class="messageText" style="font-size: 16px; font-weight: 400;" alignment-baseline="middle" dominant-baseline="middle" text-anchor="middle" y="2150" x="597">Enable "Find Group" button</text><path style="fill: none;" marker-end="url(#arrowhead)" stroke="none" stroke-width="2" data-to="Frontend" data-from="Frontend" data-id="i42" data-et="message" class="messageLine0" d="M 597,2183 C 657,2173 657,2213 597,2203"/><g style="stroke: rgb(179, 179, 179);" name="User" class="actor-man actor-bottom"><line y2="2310.5" x2="75" y1="2300.5" x1="75" id="actor-man-torso191"/><line y2="2304.5" x2="84" y1="2304.5" x1="66" id="actor-man-arms191"/><line y2="2310.5" x2="75" y1="2318" x1="66"/><line y2="2318" x2="83" y1="2310.5" x1="75"/><circle height="16.25" width="75" r="7.5" cy="2293" cx="75"/><text class="actor actor-man" alignment-baseline="central" dominant-baseline="central" style="text-anchor: middle; font-size: 16px; font-weight: 400;" y="2328" x="75"><tspan dy="0" x="75">User</tspan></text></g></svg>